%TF.GenerationSoftware,KiCad,Pcbnew,8.0.5-8.0.5-0~ubuntu24.04.1*%
%TF.CreationDate,2024-10-04T20:25:56+03:00*%
%TF.ProjectId,esp32-main,65737033-322d-46d6-9169-6e2e6b696361,rev?*%
%TF.SameCoordinates,Original*%
%TF.FileFunction,Copper,L2,Bot*%
%TF.FilePolarity,Positive*%
%FSLAX46Y46*%
G04 Gerber Fmt 4.6, Leading zero omitted, Abs format (unit mm)*
G04 Created by KiCad (PCBNEW 8.0.5-8.0.5-0~ubuntu24.04.1) date 2024-10-04 20:25:56*
%MOMM*%
%LPD*%
G01*
G04 APERTURE LIST*
G04 Aperture macros list*
%AMRoundRect*
0 Rectangle with rounded corners*
0 $1 Rounding radius*
0 $2 $3 $4 $5 $6 $7 $8 $9 X,Y pos of 4 corners*
0 Add a 4 corners polygon primitive as box body*
4,1,4,$2,$3,$4,$5,$6,$7,$8,$9,$2,$3,0*
0 Add four circle primitives for the rounded corners*
1,1,$1+$1,$2,$3*
1,1,$1+$1,$4,$5*
1,1,$1+$1,$6,$7*
1,1,$1+$1,$8,$9*
0 Add four rect primitives between the rounded corners*
20,1,$1+$1,$2,$3,$4,$5,0*
20,1,$1+$1,$4,$5,$6,$7,0*
20,1,$1+$1,$6,$7,$8,$9,0*
20,1,$1+$1,$8,$9,$2,$3,0*%
G04 Aperture macros list end*
%TA.AperFunction,ComponentPad*%
%ADD10R,2.200000X2.200000*%
%TD*%
%TA.AperFunction,ComponentPad*%
%ADD11C,2.200000*%
%TD*%
%TA.AperFunction,ComponentPad*%
%ADD12RoundRect,0.250000X-0.650000X-1.550000X0.650000X-1.550000X0.650000X1.550000X-0.650000X1.550000X0*%
%TD*%
%TA.AperFunction,ComponentPad*%
%ADD13O,1.800000X3.600000*%
%TD*%
%TA.AperFunction,HeatsinkPad*%
%ADD14C,0.500000*%
%TD*%
%TA.AperFunction,HeatsinkPad*%
%ADD15R,2.700000X2.700000*%
%TD*%
%TA.AperFunction,ComponentPad*%
%ADD16RoundRect,0.250000X0.650000X1.550000X-0.650000X1.550000X-0.650000X-1.550000X0.650000X-1.550000X0*%
%TD*%
%TA.AperFunction,ViaPad*%
%ADD17C,0.600000*%
%TD*%
%TA.AperFunction,Conductor*%
%ADD18C,0.300000*%
%TD*%
%TA.AperFunction,Conductor*%
%ADD19C,0.200000*%
%TD*%
G04 APERTURE END LIST*
D10*
%TO.P,S1,1*%
%TO.N,Net-(Q1-C)*%
X170250000Y-51250000D03*
D11*
%TO.P,S1,2*%
X163750000Y-51250000D03*
%TO.P,S1,3*%
%TO.N,GND*%
X170250000Y-46750000D03*
%TO.P,S1,4*%
X163750000Y-46750000D03*
%TD*%
D10*
%TO.P,S2,1*%
%TO.N,/BOOT*%
X158250000Y-51250000D03*
D11*
%TO.P,S2,2*%
X151750000Y-51250000D03*
%TO.P,S2,3*%
%TO.N,GND*%
X158250000Y-46750000D03*
%TO.P,S2,4*%
X151750000Y-46750000D03*
%TD*%
D12*
%TO.P,J5,1,Pin_1*%
%TO.N,/battery/ALT*%
X157245000Y-147067500D03*
D13*
%TO.P,J5,2,Pin_2*%
%TO.N,GND*%
X161055000Y-147067500D03*
%TO.P,J5,3,Pin_3*%
X164865000Y-147067500D03*
%TD*%
D14*
%TO.P,U4,17,PAD*%
%TO.N,GND*%
X133900000Y-95900000D03*
X133900000Y-97000000D03*
X133900000Y-98100000D03*
X135000000Y-95900000D03*
X135000000Y-97000000D03*
D15*
X135000000Y-97000000D03*
D14*
X135000000Y-98100000D03*
X136100000Y-95900000D03*
X136100000Y-97000000D03*
X136100000Y-98100000D03*
%TD*%
D16*
%TO.P,J2,1,Pin_1*%
%TO.N,/GPIO5{slash}VSPICS0*%
X140000000Y-30000000D03*
D13*
%TO.P,J2,2,Pin_2*%
%TO.N,/GPIO18{slash}VSPICLK*%
X136190000Y-30000000D03*
%TO.P,J2,3,Pin_3*%
%TO.N,/GPIO19{slash}VSPIQ*%
X132380000Y-30000000D03*
%TO.P,J2,4,Pin_4*%
%TO.N,/GPIO21{slash}VSPIHD*%
X128570000Y-30000000D03*
%TO.P,J2,5,Pin_5*%
%TO.N,/GPIO22{slash}VSPIWP*%
X124760000Y-30000000D03*
%TO.P,J2,6,Pin_6*%
%TO.N,/GPIO23{slash}VSPID*%
X120950000Y-30000000D03*
%TO.P,J2,7,Pin_7*%
%TO.N,unconnected-(J2-Pin_7-Pad7)*%
X117140000Y-30000000D03*
%TO.P,J2,8,Pin_8*%
%TO.N,unconnected-(J2-Pin_8-Pad8)*%
X113330000Y-30000000D03*
%TD*%
D16*
%TO.P,J3,1,Pin_1*%
%TO.N,/GPIO26*%
X176670000Y-30000000D03*
D13*
%TO.P,J3,2,Pin_2*%
%TO.N,/GPIO25*%
X172860000Y-30000000D03*
%TO.P,J3,3,Pin_3*%
%TO.N,/GPIO33*%
X169050000Y-30000000D03*
%TO.P,J3,4,Pin_4*%
%TO.N,/GPIO32*%
X165240000Y-30000000D03*
%TO.P,J3,5,Pin_5*%
%TO.N,/GPIO35*%
X161430000Y-30000000D03*
%TO.P,J3,6,Pin_6*%
%TO.N,/GPIO34*%
X157620000Y-30000000D03*
%TO.P,J3,7,Pin_7*%
%TO.N,/GPIO39*%
X153810000Y-30000000D03*
%TO.P,J3,8,Pin_8*%
%TO.N,/GPIO36*%
X150000000Y-30000000D03*
%TD*%
D17*
%TO.N,GND*%
X132000000Y-64000000D03*
X123000000Y-120000000D03*
X115000000Y-100000000D03*
X175000000Y-80000000D03*
X115000000Y-110000000D03*
X146000000Y-105000000D03*
X145000000Y-128000000D03*
X122000000Y-67000000D03*
X146000000Y-80000000D03*
X146000000Y-104000000D03*
X146000000Y-109000000D03*
X145000000Y-79000000D03*
X132000000Y-61000000D03*
X146000000Y-58000000D03*
X145000000Y-105000000D03*
X131000000Y-61000000D03*
X145000000Y-108000000D03*
X145000000Y-109000000D03*
X175000000Y-50000000D03*
X146000000Y-127000000D03*
X175000000Y-60000000D03*
X132000000Y-63000000D03*
X115000000Y-60000000D03*
X146000000Y-128000000D03*
X121000000Y-67000000D03*
X131000000Y-133000000D03*
X132000000Y-60000000D03*
X115000000Y-80000000D03*
X146000000Y-59000000D03*
X123000000Y-121000000D03*
X175000000Y-120000000D03*
X115000000Y-120000000D03*
X115000000Y-90000000D03*
X175000000Y-70000000D03*
X133000000Y-133000000D03*
X138750000Y-94500000D03*
X131000000Y-63000000D03*
X175000000Y-130000000D03*
X175000000Y-110000000D03*
X146000000Y-79000000D03*
X145000000Y-58000000D03*
X138750000Y-97500000D03*
X132000000Y-141000000D03*
X132000000Y-133000000D03*
X175000000Y-90000000D03*
X115000000Y-50000000D03*
X115000000Y-70000000D03*
X122000000Y-121000000D03*
X115000000Y-130000000D03*
X123000000Y-67000000D03*
X175000000Y-100000000D03*
%TO.N,+3V3*%
X149750000Y-42000000D03*
X161000000Y-50500000D03*
X149750000Y-44750000D03*
X165250000Y-43540000D03*
X149750000Y-39750000D03*
%TO.N,Net-(U3-3V3OUT)*%
X127199997Y-132000000D03*
X136000000Y-139000000D03*
%TO.N,Net-(J1-NC{slash}TDI)*%
X149750000Y-43750000D03*
X155250000Y-39730000D03*
%TO.N,/GPIO34*%
X131750000Y-56500000D03*
%TO.N,/GPIO33*%
X135500000Y-56500000D03*
%TO.N,/GPIO35*%
X133000000Y-56500000D03*
%TO.N,/GPIO39*%
X130500000Y-56500000D03*
%TO.N,/GPIO32*%
X134250000Y-56500000D03*
%TO.N,/GPIO36*%
X129250000Y-56500000D03*
%TO.N,/GPIO25*%
X136750000Y-56500000D03*
%TO.N,/GPIO26*%
X138000000Y-56500000D03*
%TO.N,/usb-uart/~{RTS}*%
X138000000Y-61000000D03*
X128000000Y-134000000D03*
%TO.N,/BOOT*%
X165250000Y-34500000D03*
%TO.N,/usb-uart/~{DTR}*%
X133000000Y-67500000D03*
X128000000Y-133000000D03*
X138000000Y-60000000D03*
%TO.N,/battery/~{SHDN}*%
X138000000Y-58650000D03*
X129750000Y-127750000D03*
%TO.N,Net-(U3-CBUS1)*%
X126500000Y-135000000D03*
X136000000Y-135750000D03*
%TO.N,Net-(U4-LBI)*%
X138250000Y-98250000D03*
X131250000Y-100000000D03*
%TO.N,/power-supply/LDO*%
X143000000Y-34500000D03*
X140000000Y-95750000D03*
%TO.N,/power-supply/PWRLED*%
X140500000Y-34500000D03*
X138000000Y-81250000D03*
%TO.N,/U0RXD*%
X128000000Y-136500000D03*
X129250000Y-34500000D03*
%TO.N,/U0TXD*%
X136000000Y-134500000D03*
X128000000Y-34500000D03*
%TO.N,+5V*%
X137500000Y-126000000D03*
X128750000Y-118800000D03*
%TO.N,/battery/ALT*%
X130000000Y-122000000D03*
%TD*%
D18*
%TO.N,+3V3*%
X161000000Y-50500000D02*
X161000000Y-45500000D01*
X149000000Y-42750000D02*
X149000000Y-44000000D01*
X149000000Y-44000000D02*
X149750000Y-44750000D01*
X149750000Y-39750000D02*
X149750000Y-42000000D01*
X149750000Y-44750000D02*
X154500000Y-44750000D01*
X161000000Y-45500000D02*
X160250000Y-44750000D01*
X165250000Y-44250000D02*
X164750000Y-44750000D01*
X165250000Y-43540000D02*
X165250000Y-44250000D01*
X149750000Y-42000000D02*
X149000000Y-42750000D01*
X160250000Y-44750000D02*
X154500000Y-44750000D01*
X164750000Y-44750000D02*
X154500000Y-44750000D01*
D19*
%TO.N,Net-(U3-3V3OUT)*%
X127199997Y-132000000D02*
X125250000Y-132000000D01*
X125250000Y-139000000D02*
X136000000Y-139000000D01*
X124750000Y-132500000D02*
X124750000Y-138500000D01*
X125250000Y-132000000D02*
X124750000Y-132500000D01*
X124750000Y-138500000D02*
X125250000Y-139000000D01*
%TO.N,Net-(J1-NC{slash}TDI)*%
X149750000Y-43750000D02*
X150500000Y-43000000D01*
X151020000Y-39730000D02*
X155250000Y-39730000D01*
X150500000Y-43000000D02*
X150500000Y-40250000D01*
X150500000Y-40250000D02*
X151020000Y-39730000D01*
%TO.N,/GPIO34*%
X156500000Y-33750000D02*
X157620000Y-32630000D01*
X131750000Y-56500000D02*
X134500000Y-53750000D01*
X148000000Y-36000000D02*
X150250000Y-33750000D01*
X147500000Y-53750000D02*
X148000000Y-53250000D01*
X148000000Y-53250000D02*
X148000000Y-36000000D01*
X134500000Y-53750000D02*
X147500000Y-53750000D01*
X150250000Y-33750000D02*
X156500000Y-33750000D01*
X157620000Y-32630000D02*
X157620000Y-30000000D01*
%TO.N,/GPIO33*%
X167250000Y-54750000D02*
X167250000Y-33750000D01*
X167250000Y-33750000D02*
X169050000Y-31950000D01*
X166750000Y-55250000D02*
X167250000Y-54750000D01*
X135500000Y-56500000D02*
X136750000Y-55250000D01*
X169050000Y-31950000D02*
X169050000Y-30000000D01*
X136750000Y-55250000D02*
X166750000Y-55250000D01*
%TO.N,/GPIO35*%
X148000000Y-54250000D02*
X148500000Y-53750000D01*
X135250000Y-54250000D02*
X148000000Y-54250000D01*
X148500000Y-53750000D02*
X148500000Y-36250000D01*
X150500000Y-34250000D02*
X159930000Y-34250000D01*
X133000000Y-56500000D02*
X135250000Y-54250000D01*
X161430000Y-32750000D02*
X161430000Y-30000000D01*
X159930000Y-34250000D02*
X161430000Y-32750000D01*
X148500000Y-36250000D02*
X150500000Y-34250000D01*
%TO.N,/GPIO39*%
X153250000Y-33250000D02*
X153810000Y-32690000D01*
X150065686Y-33250000D02*
X153250000Y-33250000D01*
X147500000Y-52750000D02*
X147500000Y-35815686D01*
X153810000Y-32690000D02*
X153810000Y-30000000D01*
X147500000Y-35815686D02*
X150065686Y-33250000D01*
X147000000Y-53250000D02*
X147500000Y-52750000D01*
X130500000Y-56500000D02*
X133750000Y-53250000D01*
X133750000Y-53250000D02*
X147000000Y-53250000D01*
%TO.N,/GPIO32*%
X134250000Y-56500000D02*
X136000000Y-54750000D01*
X166250000Y-54750000D02*
X166750000Y-54250000D01*
X166750000Y-54250000D02*
X166750000Y-33750000D01*
X166750000Y-33750000D02*
X165240000Y-32240000D01*
X165240000Y-32240000D02*
X165240000Y-30000000D01*
X136000000Y-54750000D02*
X166250000Y-54750000D01*
%TO.N,/GPIO36*%
X150000000Y-32750000D02*
X150000000Y-30000000D01*
X129250000Y-56500000D02*
X133000000Y-52750000D01*
X147000000Y-35750000D02*
X150000000Y-32750000D01*
X146500000Y-52750000D02*
X147000000Y-52250000D01*
X147000000Y-52250000D02*
X147000000Y-35750000D01*
X133000000Y-52750000D02*
X146500000Y-52750000D01*
%TO.N,/GPIO25*%
X172000000Y-33500000D02*
X172860000Y-32640000D01*
X136750000Y-56500000D02*
X137500000Y-55750000D01*
X167750000Y-55250000D02*
X167750000Y-34000000D01*
X137500000Y-55750000D02*
X167250000Y-55750000D01*
X168250000Y-33500000D02*
X172000000Y-33500000D01*
X172860000Y-32640000D02*
X172860000Y-30000000D01*
X167250000Y-55750000D02*
X167750000Y-55250000D01*
X167750000Y-34000000D02*
X168250000Y-33500000D01*
%TO.N,/GPIO26*%
X138000000Y-56500000D02*
X167750000Y-56500000D01*
X168750000Y-34000000D02*
X175250000Y-34000000D01*
X175250000Y-34000000D02*
X176670000Y-32580000D01*
X176670000Y-32580000D02*
X176670000Y-30000000D01*
X167750000Y-56500000D02*
X168250000Y-56000000D01*
X168250000Y-56000000D02*
X168250000Y-34500000D01*
X168250000Y-34500000D02*
X168750000Y-34000000D01*
%TO.N,/usb-uart/~{RTS}*%
X125750000Y-136750000D02*
X126250000Y-137250000D01*
X136750000Y-129000000D02*
X127000000Y-129000000D01*
X126500000Y-128500000D02*
X126500000Y-69000000D01*
X137250000Y-129500000D02*
X136750000Y-129000000D01*
X138000000Y-67750000D02*
X138000000Y-61000000D01*
X137500000Y-68250000D02*
X138000000Y-67750000D01*
X126250000Y-134000000D02*
X125750000Y-134500000D01*
X127000000Y-129000000D02*
X126500000Y-128500000D01*
X126500000Y-69000000D02*
X127250000Y-68250000D01*
X126250000Y-137250000D02*
X136750000Y-137250000D01*
X127250000Y-68250000D02*
X137500000Y-68250000D01*
X128000000Y-134000000D02*
X126250000Y-134000000D01*
X136750000Y-137250000D02*
X137250000Y-136750000D01*
X137250000Y-136750000D02*
X137250000Y-129500000D01*
X125750000Y-134500000D02*
X125750000Y-136750000D01*
%TO.N,/BOOT*%
X165750000Y-54250000D02*
X158750000Y-54250000D01*
X158250000Y-53750000D02*
X158250000Y-51250000D01*
X166250000Y-35500000D02*
X166250000Y-53750000D01*
X165250000Y-34500000D02*
X166250000Y-35500000D01*
X158750000Y-54250000D02*
X158250000Y-53750000D01*
X166250000Y-53750000D02*
X165750000Y-54250000D01*
%TO.N,/usb-uart/~{DTR}*%
X125750000Y-133000000D02*
X125250000Y-133500000D01*
X128000000Y-133000000D02*
X125750000Y-133000000D01*
X138750000Y-68250000D02*
X138250000Y-68750000D01*
X125250000Y-133500000D02*
X125250000Y-137250000D01*
X137250000Y-128500000D02*
X137750000Y-129000000D01*
X133000000Y-60500000D02*
X133500000Y-60000000D01*
X138000000Y-60000000D02*
X138750000Y-60750000D01*
X137750000Y-129000000D02*
X137750000Y-137250000D01*
X127000000Y-69250000D02*
X127000000Y-128000000D01*
X133000000Y-67500000D02*
X133000000Y-60500000D01*
X133500000Y-60000000D02*
X138000000Y-60000000D01*
X125750000Y-137750000D02*
X137250000Y-137750000D01*
X137250000Y-137750000D02*
X137750000Y-137250000D01*
X138750000Y-60750000D02*
X138750000Y-68250000D01*
X138250000Y-68750000D02*
X127500000Y-68750000D01*
X127000000Y-128000000D02*
X127500000Y-128500000D01*
X127000000Y-69250000D02*
X127500000Y-68750000D01*
X125250000Y-137250000D02*
X125750000Y-137750000D01*
X127500000Y-128500000D02*
X137250000Y-128500000D01*
%TO.N,/battery/~{SHDN}*%
X139250000Y-59900000D02*
X139250000Y-68750000D01*
X128000000Y-127750000D02*
X129750000Y-127750000D01*
X127500000Y-69750000D02*
X127500000Y-127250000D01*
X128000000Y-69250000D02*
X127500000Y-69750000D01*
X138000000Y-58650000D02*
X139250000Y-59900000D01*
X127500000Y-127250000D02*
X128000000Y-127750000D01*
X138750000Y-69250000D02*
X128000000Y-69250000D01*
X139250000Y-68750000D02*
X138750000Y-69250000D01*
%TO.N,Net-(U3-CBUS1)*%
X126500000Y-135000000D02*
X135250000Y-135000000D01*
X135250000Y-135000000D02*
X136000000Y-135750000D01*
%TO.N,Net-(U4-LBI)*%
X138250000Y-99500000D02*
X137750000Y-100000000D01*
X138250000Y-98250000D02*
X138250000Y-99500000D01*
X137750000Y-100000000D02*
X131250000Y-100000000D01*
%TO.N,/power-supply/LDO*%
X127000000Y-40000000D02*
X127000000Y-39750000D01*
X139750000Y-57250000D02*
X140250000Y-57750000D01*
X130750000Y-35250000D02*
X127000000Y-39000000D01*
X140250000Y-62250000D02*
X140250000Y-95500000D01*
X142250000Y-35250000D02*
X141500000Y-35250000D01*
X140250000Y-95500000D02*
X140000000Y-95750000D01*
X127000000Y-56750000D02*
X127500000Y-57250000D01*
X143000000Y-34500000D02*
X142250000Y-35250000D01*
X139500000Y-57250000D02*
X139750000Y-57250000D01*
X127500000Y-57250000D02*
X139500000Y-57250000D01*
X141500000Y-35250000D02*
X130750000Y-35250000D01*
X127000000Y-39750000D02*
X127000000Y-56750000D01*
X127000000Y-39000000D02*
X127000000Y-40000000D01*
X140250000Y-57750000D02*
X140250000Y-62250000D01*
%TO.N,/power-supply/PWRLED*%
X138000000Y-81250000D02*
X139750000Y-79500000D01*
X130500000Y-34500000D02*
X140500000Y-34500000D01*
X139750000Y-58250000D02*
X139250000Y-57750000D01*
X139750000Y-79500000D02*
X139750000Y-58250000D01*
X126875000Y-57750000D02*
X126500000Y-57375000D01*
X126500000Y-57375000D02*
X126500000Y-38500000D01*
X126500000Y-38500000D02*
X130500000Y-34500000D01*
X139250000Y-57750000D02*
X126875000Y-57750000D01*
%TO.N,/U0RXD*%
X136250000Y-129500000D02*
X126500000Y-129500000D01*
X126000000Y-129000000D02*
X126000000Y-37750000D01*
X136750000Y-130000000D02*
X136250000Y-129500000D01*
X136750000Y-136000000D02*
X136750000Y-130000000D01*
X136250000Y-136500000D02*
X136750000Y-136000000D01*
X128000000Y-136500000D02*
X136250000Y-136500000D01*
X126000000Y-37750000D02*
X129250000Y-34500000D01*
X126500000Y-129500000D02*
X126000000Y-129000000D01*
%TO.N,/U0TXD*%
X136000000Y-130500000D02*
X135500000Y-130000000D01*
X135500000Y-130000000D02*
X126000000Y-130000000D01*
X136000000Y-134500000D02*
X136000000Y-130500000D01*
X126000000Y-130000000D02*
X125500000Y-129500000D01*
X125500000Y-37000000D02*
X128000000Y-34500000D01*
X125500000Y-129500000D02*
X125500000Y-37000000D01*
D18*
%TO.N,+5V*%
X128750000Y-125500000D02*
X129250000Y-126000000D01*
X128750000Y-118800000D02*
X128750000Y-125500000D01*
X129250000Y-126000000D02*
X137500000Y-126000000D01*
%TO.N,/battery/ALT*%
X149000000Y-146000000D02*
X150067500Y-147067500D01*
X150067500Y-147067500D02*
X157245000Y-147067500D01*
X149000000Y-123000000D02*
X149000000Y-146000000D01*
X130000000Y-122000000D02*
X148000000Y-122000000D01*
X148000000Y-122000000D02*
X149000000Y-123000000D01*
%TD*%
%TA.AperFunction,Conductor*%
%TO.N,GND*%
G36*
X126426826Y-57726797D02*
G01*
X126634540Y-57934511D01*
X126690489Y-57990460D01*
X126740649Y-58019420D01*
X126749498Y-58024529D01*
X126759011Y-58030021D01*
X126759012Y-58030021D01*
X126759014Y-58030022D01*
X126797224Y-58040260D01*
X126835435Y-58050499D01*
X126835436Y-58050500D01*
X126835438Y-58050500D01*
X137755340Y-58050500D01*
X137807666Y-58072174D01*
X137829340Y-58124500D01*
X137807666Y-58176826D01*
X137793888Y-58186391D01*
X137794399Y-58187186D01*
X137668875Y-58267855D01*
X137668868Y-58267860D01*
X137574623Y-58376626D01*
X137514834Y-58507545D01*
X137494353Y-58650000D01*
X137514834Y-58792454D01*
X137574623Y-58923373D01*
X137668868Y-59032139D01*
X137668869Y-59032140D01*
X137668872Y-59032143D01*
X137789947Y-59109953D01*
X137896403Y-59141211D01*
X137928035Y-59150499D01*
X137928037Y-59150500D01*
X138044877Y-59150500D01*
X138097203Y-59172174D01*
X138927826Y-60002797D01*
X138949500Y-60055123D01*
X138949500Y-60345877D01*
X138927826Y-60398203D01*
X138875500Y-60419877D01*
X138823174Y-60398203D01*
X138521697Y-60096726D01*
X138500023Y-60044400D01*
X138500777Y-60033866D01*
X138505647Y-60000002D01*
X138505647Y-60000001D01*
X138485165Y-59857545D01*
X138485165Y-59857543D01*
X138425377Y-59726627D01*
X138331128Y-59617857D01*
X138274182Y-59581260D01*
X138210054Y-59540047D01*
X138210050Y-59540046D01*
X138071964Y-59499500D01*
X138071961Y-59499500D01*
X137928039Y-59499500D01*
X137928036Y-59499500D01*
X137789949Y-59540046D01*
X137789945Y-59540047D01*
X137668871Y-59617857D01*
X137668868Y-59617860D01*
X137620259Y-59673959D01*
X137569612Y-59699311D01*
X137564333Y-59699500D01*
X133539562Y-59699500D01*
X133460438Y-59699500D01*
X133384012Y-59719978D01*
X133384011Y-59719978D01*
X133384009Y-59719979D01*
X133384007Y-59719980D01*
X133315492Y-59759537D01*
X132815489Y-60259540D01*
X132759540Y-60315488D01*
X132719979Y-60384009D01*
X132719977Y-60384014D01*
X132699500Y-60460435D01*
X132699500Y-67057766D01*
X132677826Y-67110092D01*
X132672715Y-67114211D01*
X132672872Y-67114392D01*
X132668868Y-67117860D01*
X132574623Y-67226626D01*
X132514834Y-67357545D01*
X132494353Y-67500000D01*
X132514834Y-67642454D01*
X132514834Y-67642455D01*
X132514835Y-67642457D01*
X132545881Y-67710438D01*
X132574623Y-67773373D01*
X132621126Y-67827041D01*
X132639011Y-67880780D01*
X132613659Y-67931426D01*
X132565200Y-67949500D01*
X127210436Y-67949500D01*
X127134014Y-67969977D01*
X127134009Y-67969979D01*
X127098537Y-67990460D01*
X127065488Y-68009540D01*
X126426826Y-68648203D01*
X126374500Y-68669877D01*
X126322174Y-68648203D01*
X126300500Y-68595877D01*
X126300500Y-57779123D01*
X126322174Y-57726797D01*
X126374500Y-57705123D01*
X126426826Y-57726797D01*
G37*
%TD.AperFunction*%
%TA.AperFunction,Conductor*%
G36*
X179427826Y-21572174D02*
G01*
X179449500Y-21624500D01*
X179449500Y-155375500D01*
X179427826Y-155427826D01*
X179375500Y-155449500D01*
X110624500Y-155449500D01*
X110572174Y-155427826D01*
X110550500Y-155375500D01*
X110550500Y-135893711D01*
X111649500Y-135893711D01*
X111649500Y-136106288D01*
X111682753Y-136316240D01*
X111682756Y-136316253D01*
X111748440Y-136518406D01*
X111844948Y-136707816D01*
X111897409Y-136780022D01*
X111969896Y-136879792D01*
X112120208Y-137030104D01*
X112215656Y-137099451D01*
X112292183Y-137155051D01*
X112314267Y-137166303D01*
X112481588Y-137251557D01*
X112481590Y-137251557D01*
X112481593Y-137251559D01*
X112683746Y-137317243D01*
X112683752Y-137317244D01*
X112683757Y-137317246D01*
X112788735Y-137333873D01*
X112893711Y-137350500D01*
X112893713Y-137350500D01*
X113106289Y-137350500D01*
X113190269Y-137337198D01*
X113316243Y-137317246D01*
X113316250Y-137317243D01*
X113316253Y-137317243D01*
X113518406Y-137251559D01*
X113518406Y-137251558D01*
X113518412Y-137251557D01*
X113707816Y-137155051D01*
X113879792Y-137030104D01*
X114030104Y-136879792D01*
X114155051Y-136707816D01*
X114251557Y-136518412D01*
X114251559Y-136518406D01*
X114317243Y-136316253D01*
X114317243Y-136316250D01*
X114317246Y-136316243D01*
X114348667Y-136117860D01*
X114350500Y-136106288D01*
X114350500Y-135893711D01*
X114327738Y-135749998D01*
X114317246Y-135683757D01*
X114317244Y-135683752D01*
X114317243Y-135683746D01*
X114251559Y-135481593D01*
X114251557Y-135481590D01*
X114251557Y-135481588D01*
X114197309Y-135375121D01*
X114155051Y-135292183D01*
X114068018Y-135172393D01*
X114030104Y-135120208D01*
X113879792Y-134969896D01*
X113813146Y-134921475D01*
X113707816Y-134844948D01*
X113518406Y-134748440D01*
X113316253Y-134682756D01*
X113316240Y-134682753D01*
X113106289Y-134649500D01*
X113106287Y-134649500D01*
X112893713Y-134649500D01*
X112893711Y-134649500D01*
X112683759Y-134682753D01*
X112683746Y-134682756D01*
X112481593Y-134748440D01*
X112292183Y-134844948D01*
X112159168Y-134941590D01*
X112120208Y-134969896D01*
X111969896Y-135120208D01*
X111969893Y-135120211D01*
X111969893Y-135120212D01*
X111844948Y-135292183D01*
X111748440Y-135481593D01*
X111682756Y-135683746D01*
X111682753Y-135683759D01*
X111649500Y-135893711D01*
X110550500Y-135893711D01*
X110550500Y-132460435D01*
X124449500Y-132460435D01*
X124449500Y-138539564D01*
X124469977Y-138615985D01*
X124469979Y-138615990D01*
X124471056Y-138617855D01*
X124502288Y-138671950D01*
X124509540Y-138684511D01*
X125065489Y-139240460D01*
X125134012Y-139280022D01*
X125210438Y-139300500D01*
X125289562Y-139300500D01*
X135564333Y-139300500D01*
X135616659Y-139322174D01*
X135620259Y-139326041D01*
X135668868Y-139382139D01*
X135668871Y-139382142D01*
X135668872Y-139382143D01*
X135789947Y-139459953D01*
X135896403Y-139491211D01*
X135928035Y-139500499D01*
X135928037Y-139500500D01*
X135928039Y-139500500D01*
X136071963Y-139500500D01*
X136071964Y-139500499D01*
X136210053Y-139459953D01*
X136331128Y-139382143D01*
X136425377Y-139273373D01*
X136485165Y-139142457D01*
X136505647Y-139000000D01*
X136485165Y-138857543D01*
X136425377Y-138726627D01*
X136379740Y-138673959D01*
X136331131Y-138617860D01*
X136331129Y-138617859D01*
X136331128Y-138617857D01*
X136274182Y-138581260D01*
X136210054Y-138540047D01*
X136210050Y-138540046D01*
X136071964Y-138499500D01*
X136071961Y-138499500D01*
X135928039Y-138499500D01*
X135928036Y-138499500D01*
X135789949Y-138540046D01*
X135789945Y-138540047D01*
X135668871Y-138617857D01*
X135668868Y-138617860D01*
X135620259Y-138673959D01*
X135569612Y-138699311D01*
X135564333Y-138699500D01*
X125405123Y-138699500D01*
X125352797Y-138677826D01*
X125072174Y-138397203D01*
X125050500Y-138344877D01*
X125050500Y-137654122D01*
X125072174Y-137601796D01*
X125124500Y-137580122D01*
X125176824Y-137601795D01*
X125565489Y-137990460D01*
X125634012Y-138030022D01*
X125710438Y-138050500D01*
X125710440Y-138050500D01*
X137289564Y-138050500D01*
X137289564Y-138050499D01*
X137365989Y-138030021D01*
X137434511Y-137990460D01*
X137490460Y-137934511D01*
X137990460Y-137434511D01*
X138030022Y-137365988D01*
X138050500Y-137289562D01*
X138050500Y-137210438D01*
X138050500Y-128960438D01*
X138030022Y-128884012D01*
X137990460Y-128815489D01*
X137434511Y-128259540D01*
X137394372Y-128236366D01*
X137394370Y-128236365D01*
X137365990Y-128219979D01*
X137365985Y-128219977D01*
X137289564Y-128199500D01*
X137289562Y-128199500D01*
X130184800Y-128199500D01*
X130132474Y-128177826D01*
X130110800Y-128125500D01*
X130128874Y-128077041D01*
X130137286Y-128067332D01*
X130175377Y-128023373D01*
X130235165Y-127892457D01*
X130255647Y-127750000D01*
X130235165Y-127607543D01*
X130175377Y-127476627D01*
X130081128Y-127367857D01*
X130024182Y-127331260D01*
X129960054Y-127290047D01*
X129960050Y-127290046D01*
X129821964Y-127249500D01*
X129821961Y-127249500D01*
X129678039Y-127249500D01*
X129678036Y-127249500D01*
X129539949Y-127290046D01*
X129539945Y-127290047D01*
X129418871Y-127367857D01*
X129418868Y-127367860D01*
X129370259Y-127423959D01*
X129319612Y-127449311D01*
X129314333Y-127449500D01*
X128155123Y-127449500D01*
X128102797Y-127427826D01*
X127822174Y-127147203D01*
X127800500Y-127094877D01*
X127800500Y-118800000D01*
X128244353Y-118800000D01*
X128264834Y-118942454D01*
X128324623Y-119073373D01*
X128381426Y-119138928D01*
X128399500Y-119187387D01*
X128399500Y-125546144D01*
X128420495Y-125624500D01*
X128420496Y-125624502D01*
X128420495Y-125624502D01*
X128423384Y-125635286D01*
X128469530Y-125715212D01*
X129034788Y-126280470D01*
X129114712Y-126326614D01*
X129114713Y-126326614D01*
X129114715Y-126326615D01*
X129159284Y-126338557D01*
X129203853Y-126350499D01*
X129203854Y-126350500D01*
X129203856Y-126350500D01*
X137107659Y-126350500D01*
X137159985Y-126372174D01*
X137163578Y-126376034D01*
X137168872Y-126382143D01*
X137289947Y-126459953D01*
X137396403Y-126491211D01*
X137428035Y-126500499D01*
X137428037Y-126500500D01*
X137428039Y-126500500D01*
X137571963Y-126500500D01*
X137571964Y-126500499D01*
X137710053Y-126459953D01*
X137831128Y-126382143D01*
X137925377Y-126273373D01*
X137985165Y-126142457D01*
X138005647Y-126000000D01*
X137985165Y-125857543D01*
X137925377Y-125726627D01*
X137846232Y-125635288D01*
X137831131Y-125617860D01*
X137831129Y-125617859D01*
X137831128Y-125617857D01*
X137774182Y-125581260D01*
X137710054Y-125540047D01*
X137710050Y-125540046D01*
X137571964Y-125499500D01*
X137571961Y-125499500D01*
X137428039Y-125499500D01*
X137428036Y-125499500D01*
X137289949Y-125540046D01*
X137289945Y-125540047D01*
X137168872Y-125617857D01*
X137163585Y-125623959D01*
X137112939Y-125649311D01*
X137107659Y-125649500D01*
X129425834Y-125649500D01*
X129373508Y-125627826D01*
X129122174Y-125376492D01*
X129100500Y-125324166D01*
X129100500Y-122000000D01*
X129494353Y-122000000D01*
X129514834Y-122142454D01*
X129574623Y-122273373D01*
X129668868Y-122382139D01*
X129668869Y-122382140D01*
X129668872Y-122382143D01*
X129789947Y-122459953D01*
X129896403Y-122491211D01*
X129928035Y-122500499D01*
X129928037Y-122500500D01*
X129928039Y-122500500D01*
X130071963Y-122500500D01*
X130071964Y-122500499D01*
X130210053Y-122459953D01*
X130331128Y-122382143D01*
X130336415Y-122376040D01*
X130387061Y-122350689D01*
X130392341Y-122350500D01*
X147824166Y-122350500D01*
X147876492Y-122372174D01*
X148627826Y-123123508D01*
X148649500Y-123175834D01*
X148649500Y-146046146D01*
X148673384Y-146135284D01*
X148673386Y-146135289D01*
X148719530Y-146215212D01*
X149852288Y-147347970D01*
X149932212Y-147394114D01*
X149932213Y-147394114D01*
X149932215Y-147394115D01*
X149976784Y-147406057D01*
X150021353Y-147417999D01*
X150021354Y-147418000D01*
X150021356Y-147418000D01*
X156070500Y-147418000D01*
X156122826Y-147439674D01*
X156144500Y-147492000D01*
X156144500Y-148671766D01*
X156147354Y-148702199D01*
X156147354Y-148702201D01*
X156147355Y-148702204D01*
X156192206Y-148830381D01*
X156192207Y-148830383D01*
X156272846Y-148939646D01*
X156272853Y-148939653D01*
X156382116Y-149020292D01*
X156382118Y-149020293D01*
X156510295Y-149065144D01*
X156510301Y-149065146D01*
X156540734Y-149068000D01*
X156540741Y-149068000D01*
X157949258Y-149068000D01*
X157949266Y-149068000D01*
X157979699Y-149065146D01*
X158107882Y-149020293D01*
X158217150Y-148939650D01*
X158297793Y-148830382D01*
X158342646Y-148702199D01*
X158345500Y-148671766D01*
X158345500Y-146064084D01*
X160005000Y-146064084D01*
X160005000Y-146992500D01*
X160455000Y-146992500D01*
X160455000Y-147142500D01*
X160005000Y-147142500D01*
X160005000Y-148070915D01*
X160045348Y-148273767D01*
X160045350Y-148273774D01*
X160124500Y-148464858D01*
X160239410Y-148636835D01*
X160385664Y-148783089D01*
X160557641Y-148897999D01*
X160748725Y-148977149D01*
X160748732Y-148977151D01*
X160951584Y-149017500D01*
X160980000Y-149017500D01*
X160980000Y-147667500D01*
X161130000Y-147667500D01*
X161130000Y-149017500D01*
X161158416Y-149017500D01*
X161361267Y-148977151D01*
X161361274Y-148977149D01*
X161552358Y-148897999D01*
X161724335Y-148783089D01*
X161724337Y-148783088D01*
X161870588Y-148636837D01*
X161870589Y-148636835D01*
X161985499Y-148464858D01*
X162064649Y-148273774D01*
X162064651Y-148273767D01*
X162105000Y-148070915D01*
X162105000Y-147142500D01*
X161655000Y-147142500D01*
X161655000Y-146992500D01*
X162105000Y-146992500D01*
X162105000Y-146064084D01*
X163815000Y-146064084D01*
X163815000Y-146992500D01*
X164265000Y-146992500D01*
X164265000Y-147142500D01*
X163815000Y-147142500D01*
X163815000Y-148070915D01*
X163855348Y-148273767D01*
X163855350Y-148273774D01*
X163934500Y-148464858D01*
X164049410Y-148636835D01*
X164195664Y-148783089D01*
X164367641Y-148897999D01*
X164558725Y-148977149D01*
X164558732Y-148977151D01*
X164761584Y-149017500D01*
X164790000Y-149017500D01*
X164790000Y-147667500D01*
X164940000Y-147667500D01*
X164940000Y-149017500D01*
X164968416Y-149017500D01*
X165171267Y-148977151D01*
X165171274Y-148977149D01*
X165362358Y-148897999D01*
X165534335Y-148783089D01*
X165534337Y-148783088D01*
X165680588Y-148636837D01*
X165680589Y-148636835D01*
X165795499Y-148464858D01*
X165874649Y-148273774D01*
X165874651Y-148273767D01*
X165915000Y-148070915D01*
X165915000Y-147142500D01*
X165465000Y-147142500D01*
X165465000Y-146992500D01*
X165915000Y-146992500D01*
X165915000Y-146064084D01*
X165874651Y-145861232D01*
X165874649Y-145861225D01*
X165795499Y-145670141D01*
X165680589Y-145498164D01*
X165534335Y-145351910D01*
X165362358Y-145237000D01*
X165171274Y-145157850D01*
X165171267Y-145157848D01*
X164968416Y-145117500D01*
X164940000Y-145117500D01*
X164940000Y-146467500D01*
X164790000Y-146467500D01*
X164790000Y-145117500D01*
X164761584Y-145117500D01*
X164558732Y-145157848D01*
X164558725Y-145157850D01*
X164367641Y-145237000D01*
X164195664Y-145351910D01*
X164195663Y-145351912D01*
X164049412Y-145498163D01*
X164049410Y-145498164D01*
X163934500Y-145670141D01*
X163855350Y-145861225D01*
X163855348Y-145861232D01*
X163815000Y-146064084D01*
X162105000Y-146064084D01*
X162064651Y-145861232D01*
X162064649Y-145861225D01*
X161985499Y-145670141D01*
X161870589Y-145498164D01*
X161724335Y-145351910D01*
X161552358Y-145237000D01*
X161361274Y-145157850D01*
X161361267Y-145157848D01*
X161158416Y-145117500D01*
X161130000Y-145117500D01*
X161130000Y-146467500D01*
X160980000Y-146467500D01*
X160980000Y-145117500D01*
X160951584Y-145117500D01*
X160748732Y-145157848D01*
X160748725Y-145157850D01*
X160557641Y-145237000D01*
X160385664Y-145351910D01*
X160385663Y-145351912D01*
X160239412Y-145498163D01*
X160239410Y-145498164D01*
X160124500Y-145670141D01*
X160045350Y-145861225D01*
X160045348Y-145861232D01*
X160005000Y-146064084D01*
X158345500Y-146064084D01*
X158345500Y-145463234D01*
X158342646Y-145432801D01*
X158297793Y-145304618D01*
X158297792Y-145304616D01*
X158217153Y-145195353D01*
X158217146Y-145195346D01*
X158107883Y-145114707D01*
X158107881Y-145114706D01*
X157979704Y-145069855D01*
X157979705Y-145069855D01*
X157979700Y-145069854D01*
X157979699Y-145069854D01*
X157949266Y-145067000D01*
X156540734Y-145067000D01*
X156510301Y-145069854D01*
X156510299Y-145069854D01*
X156510295Y-145069855D01*
X156382118Y-145114706D01*
X156382116Y-145114707D01*
X156272853Y-145195346D01*
X156272846Y-145195353D01*
X156192207Y-145304616D01*
X156192206Y-145304618D01*
X156147355Y-145432795D01*
X156147354Y-145432799D01*
X156147354Y-145432801D01*
X156144500Y-145463234D01*
X156144500Y-145463240D01*
X156144500Y-146643000D01*
X156122826Y-146695326D01*
X156070500Y-146717000D01*
X150243334Y-146717000D01*
X150191008Y-146695326D01*
X149372174Y-145876492D01*
X149350500Y-145824166D01*
X149350500Y-135816236D01*
X151554500Y-135816236D01*
X151554500Y-136043763D01*
X151590092Y-136268486D01*
X151590095Y-136268499D01*
X151660399Y-136484873D01*
X151763696Y-136687606D01*
X151865001Y-136827041D01*
X151897434Y-136871680D01*
X152058320Y-137032566D01*
X152242393Y-137166303D01*
X152445121Y-137269598D01*
X152445123Y-137269598D01*
X152445126Y-137269600D01*
X152661500Y-137339904D01*
X152661506Y-137339905D01*
X152661511Y-137339907D01*
X152811328Y-137363635D01*
X152886236Y-137375500D01*
X152886237Y-137375500D01*
X153113764Y-137375500D01*
X153173820Y-137365988D01*
X153338489Y-137339907D01*
X153338496Y-137339904D01*
X153338499Y-137339904D01*
X153554873Y-137269600D01*
X153554873Y-137269599D01*
X153554879Y-137269598D01*
X153757607Y-137166303D01*
X153941680Y-137032566D01*
X154102566Y-136871680D01*
X154236303Y-136687607D01*
X154339598Y-136484879D01*
X154409907Y-136268489D01*
X154445500Y-136043763D01*
X154445500Y-135943711D01*
X175649500Y-135943711D01*
X175649500Y-136156288D01*
X175682753Y-136366240D01*
X175682756Y-136366253D01*
X175748440Y-136568406D01*
X175844948Y-136757816D01*
X175921475Y-136863146D01*
X175969896Y-136929792D01*
X176120208Y-137080104D01*
X176182731Y-137125529D01*
X176292183Y-137205051D01*
X176383457Y-137251557D01*
X176481588Y-137301557D01*
X176481590Y-137301557D01*
X176481593Y-137301559D01*
X176683746Y-137367243D01*
X176683752Y-137367244D01*
X176683757Y-137367246D01*
X176788735Y-137383873D01*
X176893711Y-137400500D01*
X176893713Y-137400500D01*
X177106289Y-137400500D01*
X177190269Y-137387198D01*
X177316243Y-137367246D01*
X177316250Y-137367243D01*
X177316253Y-137367243D01*
X177518406Y-137301559D01*
X177518406Y-137301558D01*
X177518412Y-137301557D01*
X177707816Y-137205051D01*
X177879792Y-137080104D01*
X178030104Y-136929792D01*
X178155051Y-136757816D01*
X178251557Y-136568412D01*
X178317246Y-136366243D01*
X178350500Y-136156287D01*
X178350500Y-135943713D01*
X178342580Y-135893711D01*
X178330309Y-135816236D01*
X178317246Y-135733757D01*
X178317244Y-135733752D01*
X178317243Y-135733746D01*
X178251559Y-135531593D01*
X178251557Y-135531590D01*
X178251557Y-135531588D01*
X178201565Y-135433474D01*
X178155051Y-135342183D01*
X178088300Y-135250309D01*
X178030104Y-135170208D01*
X177879792Y-135019896D01*
X177797287Y-134959953D01*
X177707816Y-134894948D01*
X177518406Y-134798440D01*
X177316253Y-134732756D01*
X177316240Y-134732753D01*
X177106289Y-134699500D01*
X177106287Y-134699500D01*
X176893713Y-134699500D01*
X176893711Y-134699500D01*
X176683759Y-134732753D01*
X176683746Y-134732756D01*
X176481593Y-134798440D01*
X176292183Y-134894948D01*
X176146904Y-135000500D01*
X176120208Y-135019896D01*
X175969896Y-135170208D01*
X175969893Y-135170211D01*
X175969893Y-135170212D01*
X175844948Y-135342183D01*
X175748440Y-135531593D01*
X175682756Y-135733746D01*
X175682753Y-135733759D01*
X175649500Y-135943711D01*
X154445500Y-135943711D01*
X154445500Y-135816237D01*
X154409907Y-135591511D01*
X154409905Y-135591506D01*
X154409904Y-135591500D01*
X154339600Y-135375126D01*
X154339598Y-135375123D01*
X154339598Y-135375121D01*
X154236303Y-135172393D01*
X154102566Y-134988320D01*
X153941680Y-134827434D01*
X153941677Y-134827431D01*
X153941675Y-134827430D01*
X153757606Y-134693696D01*
X153554873Y-134590399D01*
X153338499Y-134520095D01*
X153338486Y-134520092D01*
X153113764Y-134484500D01*
X153113763Y-134484500D01*
X152886237Y-134484500D01*
X152886236Y-134484500D01*
X152661513Y-134520092D01*
X152661500Y-134520095D01*
X152445126Y-134590399D01*
X152242393Y-134693696D01*
X152058324Y-134827430D01*
X151897430Y-134988324D01*
X151763696Y-135172393D01*
X151660399Y-135375126D01*
X151590095Y-135591500D01*
X151590092Y-135591513D01*
X151554500Y-135816236D01*
X149350500Y-135816236D01*
X149350500Y-127470519D01*
X167024500Y-127470519D01*
X167024500Y-127729481D01*
X167033399Y-127797081D01*
X167058300Y-127986226D01*
X167125324Y-128236365D01*
X167224424Y-128475612D01*
X167224425Y-128475615D01*
X167353904Y-128699880D01*
X167353908Y-128699886D01*
X167511553Y-128905333D01*
X167694666Y-129088446D01*
X167900113Y-129246091D01*
X167900119Y-129246095D01*
X167994352Y-129300500D01*
X168124384Y-129375574D01*
X168363634Y-129474675D01*
X168613772Y-129541699D01*
X168870519Y-129575500D01*
X168870521Y-129575500D01*
X169129479Y-129575500D01*
X169129481Y-129575500D01*
X169386228Y-129541699D01*
X169636366Y-129474675D01*
X169875616Y-129375574D01*
X170099884Y-129246093D01*
X170305333Y-129088447D01*
X170488447Y-128905333D01*
X170646093Y-128699884D01*
X170775574Y-128475616D01*
X170874675Y-128236366D01*
X170941699Y-127986228D01*
X170975500Y-127729481D01*
X170975500Y-127470519D01*
X170941699Y-127213772D01*
X170874675Y-126963634D01*
X170775574Y-126724384D01*
X170646093Y-126500116D01*
X170488447Y-126294667D01*
X170305333Y-126111553D01*
X170159954Y-126000000D01*
X170099886Y-125953908D01*
X170099880Y-125953904D01*
X169875615Y-125824425D01*
X169875612Y-125824424D01*
X169636365Y-125725324D01*
X169386226Y-125658300D01*
X169197081Y-125633399D01*
X169129481Y-125624500D01*
X168870519Y-125624500D01*
X168810783Y-125632364D01*
X168613773Y-125658300D01*
X168363634Y-125725324D01*
X168124387Y-125824424D01*
X168124384Y-125824425D01*
X167900119Y-125953904D01*
X167900113Y-125953908D01*
X167694666Y-126111553D01*
X167511553Y-126294666D01*
X167353908Y-126500113D01*
X167353904Y-126500119D01*
X167224425Y-126724384D01*
X167224424Y-126724387D01*
X167125324Y-126963634D01*
X167058300Y-127213773D01*
X167038015Y-127367860D01*
X167024500Y-127470519D01*
X149350500Y-127470519D01*
X149350500Y-122953854D01*
X149350499Y-122953853D01*
X149326615Y-122864715D01*
X149326613Y-122864710D01*
X149280469Y-122784787D01*
X148215212Y-121719530D01*
X148135289Y-121673386D01*
X148133327Y-121672860D01*
X148129929Y-121671950D01*
X148046146Y-121649500D01*
X148046144Y-121649500D01*
X130392341Y-121649500D01*
X130340015Y-121627826D01*
X130336415Y-121623959D01*
X130331128Y-121617857D01*
X130270590Y-121578952D01*
X130210054Y-121540047D01*
X130210050Y-121540046D01*
X130071964Y-121499500D01*
X130071961Y-121499500D01*
X129928039Y-121499500D01*
X129928036Y-121499500D01*
X129789949Y-121540046D01*
X129789945Y-121540047D01*
X129668875Y-121617855D01*
X129668868Y-121617860D01*
X129574623Y-121726626D01*
X129514834Y-121857545D01*
X129494353Y-122000000D01*
X129100500Y-122000000D01*
X129100500Y-119187387D01*
X129118574Y-119138928D01*
X129137766Y-119116778D01*
X129175377Y-119073373D01*
X129235165Y-118942457D01*
X129255647Y-118800000D01*
X129235165Y-118657543D01*
X129175377Y-118526627D01*
X129081128Y-118417857D01*
X129024182Y-118381260D01*
X128960054Y-118340047D01*
X128960050Y-118340046D01*
X128821964Y-118299500D01*
X128821961Y-118299500D01*
X128678039Y-118299500D01*
X128678036Y-118299500D01*
X128539949Y-118340046D01*
X128539945Y-118340047D01*
X128418875Y-118417855D01*
X128418868Y-118417860D01*
X128324623Y-118526626D01*
X128264834Y-118657545D01*
X128244353Y-118800000D01*
X127800500Y-118800000D01*
X127800500Y-100000000D01*
X130744353Y-100000000D01*
X130764834Y-100142454D01*
X130824623Y-100273373D01*
X130918868Y-100382139D01*
X130918869Y-100382140D01*
X130918872Y-100382143D01*
X131039947Y-100459953D01*
X131146403Y-100491211D01*
X131178035Y-100500499D01*
X131178037Y-100500500D01*
X131178039Y-100500500D01*
X131321963Y-100500500D01*
X131321964Y-100500499D01*
X131460053Y-100459953D01*
X131581128Y-100382143D01*
X131629741Y-100326041D01*
X131680388Y-100300689D01*
X131685667Y-100300500D01*
X137789564Y-100300500D01*
X137789564Y-100300499D01*
X137865989Y-100280021D01*
X137934511Y-100240460D01*
X137990460Y-100184511D01*
X138490460Y-99684511D01*
X138530022Y-99615988D01*
X138550500Y-99539562D01*
X138550500Y-99460438D01*
X138550500Y-98692233D01*
X138572174Y-98639907D01*
X138577288Y-98635787D01*
X138577131Y-98635606D01*
X138581131Y-98632140D01*
X138608082Y-98601035D01*
X138675377Y-98523373D01*
X138735165Y-98392457D01*
X138755647Y-98250000D01*
X138735165Y-98107543D01*
X138675377Y-97976627D01*
X138651814Y-97949434D01*
X138581131Y-97867860D01*
X138581129Y-97867859D01*
X138581128Y-97867857D01*
X138524182Y-97831260D01*
X138460054Y-97790047D01*
X138460050Y-97790046D01*
X138321964Y-97749500D01*
X138321961Y-97749500D01*
X138178039Y-97749500D01*
X138178036Y-97749500D01*
X138039949Y-97790046D01*
X138039945Y-97790047D01*
X137918875Y-97867855D01*
X137918868Y-97867860D01*
X137824623Y-97976626D01*
X137764834Y-98107545D01*
X137744353Y-98250000D01*
X137764834Y-98392454D01*
X137764834Y-98392455D01*
X137764835Y-98392457D01*
X137807173Y-98485163D01*
X137824623Y-98523373D01*
X137918868Y-98632140D01*
X137922869Y-98635606D01*
X137920946Y-98637825D01*
X137947803Y-98676476D01*
X137949500Y-98692233D01*
X137949500Y-99344877D01*
X137927826Y-99397203D01*
X137647203Y-99677826D01*
X137594877Y-99699500D01*
X131685667Y-99699500D01*
X131633341Y-99677826D01*
X131629741Y-99673959D01*
X131581131Y-99617860D01*
X131581128Y-99617857D01*
X131460054Y-99540047D01*
X131460050Y-99540046D01*
X131321964Y-99499500D01*
X131321961Y-99499500D01*
X131178039Y-99499500D01*
X131178036Y-99499500D01*
X131039949Y-99540046D01*
X131039945Y-99540047D01*
X130918875Y-99617855D01*
X130918868Y-99617860D01*
X130824623Y-99726626D01*
X130764834Y-99857545D01*
X130744353Y-100000000D01*
X127800500Y-100000000D01*
X127800500Y-98100000D01*
X133495014Y-98100000D01*
X133514835Y-98225148D01*
X133514836Y-98225152D01*
X133566798Y-98327133D01*
X133754128Y-98139803D01*
X133772836Y-98184968D01*
X133815032Y-98227164D01*
X133860194Y-98245870D01*
X133672864Y-98433200D01*
X133672865Y-98433201D01*
X133774847Y-98485163D01*
X133774851Y-98485164D01*
X133900000Y-98504985D01*
X134025145Y-98485165D01*
X134127133Y-98433199D01*
X133939805Y-98245871D01*
X133984968Y-98227164D01*
X134027164Y-98184968D01*
X134045871Y-98139805D01*
X134233199Y-98327133D01*
X134285165Y-98225145D01*
X134304985Y-98100000D01*
X134595014Y-98100000D01*
X134614835Y-98225148D01*
X134614836Y-98225152D01*
X134666798Y-98327133D01*
X134854128Y-98139803D01*
X134872836Y-98184968D01*
X134915032Y-98227164D01*
X134960194Y-98245870D01*
X134772864Y-98433200D01*
X134772865Y-98433201D01*
X134874847Y-98485163D01*
X134874851Y-98485164D01*
X135000000Y-98504985D01*
X135125145Y-98485165D01*
X135227133Y-98433199D01*
X135039805Y-98245871D01*
X135084968Y-98227164D01*
X135127164Y-98184968D01*
X135145871Y-98139805D01*
X135333199Y-98327133D01*
X135385165Y-98225145D01*
X135404985Y-98100000D01*
X135695014Y-98100000D01*
X135714835Y-98225148D01*
X135714836Y-98225152D01*
X135766798Y-98327133D01*
X135954128Y-98139803D01*
X135972836Y-98184968D01*
X136015032Y-98227164D01*
X136060194Y-98245870D01*
X135872864Y-98433200D01*
X135872865Y-98433201D01*
X135974847Y-98485163D01*
X135974851Y-98485164D01*
X136100000Y-98504985D01*
X136225145Y-98485165D01*
X136327133Y-98433199D01*
X136139805Y-98245871D01*
X136184968Y-98227164D01*
X136227164Y-98184968D01*
X136245871Y-98139805D01*
X136433199Y-98327133D01*
X136485165Y-98225145D01*
X136504985Y-98100000D01*
X136485164Y-97974851D01*
X136485163Y-97974847D01*
X136433201Y-97872865D01*
X136433200Y-97872864D01*
X136245870Y-98060194D01*
X136227164Y-98015032D01*
X136184968Y-97972836D01*
X136139803Y-97954128D01*
X136327133Y-97766798D01*
X136225152Y-97714836D01*
X136225148Y-97714835D01*
X136100000Y-97695014D01*
X135974851Y-97714835D01*
X135872865Y-97766799D01*
X136060194Y-97954128D01*
X136015032Y-97972836D01*
X135972836Y-98015032D01*
X135954128Y-98060195D01*
X135766798Y-97872865D01*
X135714835Y-97974851D01*
X135695014Y-98100000D01*
X135404985Y-98100000D01*
X135385164Y-97974851D01*
X135385163Y-97974847D01*
X135333201Y-97872865D01*
X135333200Y-97872864D01*
X135145870Y-98060194D01*
X135127164Y-98015032D01*
X135084968Y-97972836D01*
X135039803Y-97954128D01*
X135227133Y-97766798D01*
X135125152Y-97714836D01*
X135125148Y-97714835D01*
X135000000Y-97695014D01*
X134874851Y-97714835D01*
X134772865Y-97766799D01*
X134960194Y-97954128D01*
X134915032Y-97972836D01*
X134872836Y-98015032D01*
X134854128Y-98060194D01*
X134666799Y-97872865D01*
X134614835Y-97974851D01*
X134595014Y-98100000D01*
X134304985Y-98100000D01*
X134285164Y-97974851D01*
X134285163Y-97974847D01*
X134233201Y-97872865D01*
X134233200Y-97872864D01*
X134045870Y-98060194D01*
X134027164Y-98015032D01*
X133984968Y-97972836D01*
X133939803Y-97954128D01*
X134127133Y-97766798D01*
X134025152Y-97714836D01*
X134025148Y-97714835D01*
X133900000Y-97695014D01*
X133774851Y-97714835D01*
X133672865Y-97766799D01*
X133860194Y-97954128D01*
X133815032Y-97972836D01*
X133772836Y-98015032D01*
X133754128Y-98060195D01*
X133566798Y-97872865D01*
X133514835Y-97974851D01*
X133495014Y-98100000D01*
X127800500Y-98100000D01*
X127800500Y-97000000D01*
X133495014Y-97000000D01*
X133514835Y-97125148D01*
X133514836Y-97125152D01*
X133566798Y-97227133D01*
X133754128Y-97039803D01*
X133772836Y-97084968D01*
X133815032Y-97127164D01*
X133860194Y-97145870D01*
X133672864Y-97333200D01*
X133672865Y-97333201D01*
X133774847Y-97385163D01*
X133774851Y-97385164D01*
X133900000Y-97404985D01*
X134025145Y-97385165D01*
X134127133Y-97333199D01*
X133939805Y-97145871D01*
X133984968Y-97127164D01*
X134027164Y-97084968D01*
X134045871Y-97039805D01*
X134233199Y-97227133D01*
X134285165Y-97125145D01*
X134304985Y-97000000D01*
X134595014Y-97000000D01*
X134614835Y-97125148D01*
X134614836Y-97125152D01*
X134666798Y-97227133D01*
X134854128Y-97039803D01*
X134872836Y-97084968D01*
X134915032Y-97127164D01*
X134960194Y-97145870D01*
X134772864Y-97333200D01*
X134772865Y-97333201D01*
X134874847Y-97385163D01*
X134874851Y-97385164D01*
X135000000Y-97404985D01*
X135125145Y-97385165D01*
X135227133Y-97333199D01*
X135039805Y-97145871D01*
X135084968Y-97127164D01*
X135127164Y-97084968D01*
X135145871Y-97039805D01*
X135333199Y-97227133D01*
X135385165Y-97125145D01*
X135404985Y-97000000D01*
X135695014Y-97000000D01*
X135714835Y-97125148D01*
X135714836Y-97125152D01*
X135766798Y-97227133D01*
X135954128Y-97039803D01*
X135972836Y-97084968D01*
X136015032Y-97127164D01*
X136060194Y-97145870D01*
X135872864Y-97333200D01*
X135872865Y-97333201D01*
X135974847Y-97385163D01*
X135974851Y-97385164D01*
X136100000Y-97404985D01*
X136225145Y-97385165D01*
X136327133Y-97333199D01*
X136139805Y-97145871D01*
X136184968Y-97127164D01*
X136227164Y-97084968D01*
X136245871Y-97039805D01*
X136433199Y-97227133D01*
X136485165Y-97125145D01*
X136504985Y-97000000D01*
X136485164Y-96874851D01*
X136485163Y-96874847D01*
X136433201Y-96772865D01*
X136433200Y-96772864D01*
X136245870Y-96960194D01*
X136227164Y-96915032D01*
X136184968Y-96872836D01*
X136139803Y-96854128D01*
X136327133Y-96666798D01*
X136225152Y-96614836D01*
X136225148Y-96614835D01*
X136100000Y-96595014D01*
X135974851Y-96614835D01*
X135872865Y-96666799D01*
X136060194Y-96854128D01*
X136015032Y-96872836D01*
X135972836Y-96915032D01*
X135954128Y-96960195D01*
X135766798Y-96772865D01*
X135714835Y-96874851D01*
X135695014Y-97000000D01*
X135404985Y-97000000D01*
X135385164Y-96874851D01*
X135385163Y-96874847D01*
X135333201Y-96772865D01*
X135333200Y-96772864D01*
X135145870Y-96960194D01*
X135127164Y-96915032D01*
X135084968Y-96872836D01*
X135039803Y-96854128D01*
X135227133Y-96666798D01*
X135125152Y-96614836D01*
X135125148Y-96614835D01*
X135000000Y-96595014D01*
X134874851Y-96614835D01*
X134772865Y-96666799D01*
X134960194Y-96854128D01*
X134915032Y-96872836D01*
X134872836Y-96915032D01*
X134854128Y-96960194D01*
X134666799Y-96772865D01*
X134614835Y-96874851D01*
X134595014Y-97000000D01*
X134304985Y-97000000D01*
X134285164Y-96874851D01*
X134285163Y-96874847D01*
X134233201Y-96772865D01*
X134233200Y-96772864D01*
X134045870Y-96960194D01*
X134027164Y-96915032D01*
X133984968Y-96872836D01*
X133939803Y-96854128D01*
X134127133Y-96666798D01*
X134025152Y-96614836D01*
X134025148Y-96614835D01*
X133900000Y-96595014D01*
X133774851Y-96614835D01*
X133672865Y-96666799D01*
X133860194Y-96854128D01*
X133815032Y-96872836D01*
X133772836Y-96915032D01*
X133754128Y-96960195D01*
X133566798Y-96772865D01*
X133514835Y-96874851D01*
X133495014Y-97000000D01*
X127800500Y-97000000D01*
X127800500Y-95900000D01*
X133495014Y-95900000D01*
X133514835Y-96025148D01*
X133514836Y-96025152D01*
X133566798Y-96127133D01*
X133754128Y-95939803D01*
X133772836Y-95984968D01*
X133815032Y-96027164D01*
X133860194Y-96045870D01*
X133672864Y-96233200D01*
X133672865Y-96233201D01*
X133774847Y-96285163D01*
X133774851Y-96285164D01*
X133900000Y-96304985D01*
X134025145Y-96285165D01*
X134127133Y-96233199D01*
X133939805Y-96045871D01*
X133984968Y-96027164D01*
X134027164Y-95984968D01*
X134045871Y-95939805D01*
X134233199Y-96127133D01*
X134285165Y-96025145D01*
X134304985Y-95900000D01*
X134595014Y-95900000D01*
X134614835Y-96025148D01*
X134614836Y-96025152D01*
X134666798Y-96127133D01*
X134854128Y-95939803D01*
X134872836Y-95984968D01*
X134915032Y-96027164D01*
X134960194Y-96045870D01*
X134772864Y-96233200D01*
X134772865Y-96233201D01*
X134874847Y-96285163D01*
X134874851Y-96285164D01*
X135000000Y-96304985D01*
X135125145Y-96285165D01*
X135227133Y-96233199D01*
X135039805Y-96045871D01*
X135084968Y-96027164D01*
X135127164Y-95984968D01*
X135145871Y-95939805D01*
X135333199Y-96127133D01*
X135385165Y-96025145D01*
X135404985Y-95900000D01*
X135695014Y-95900000D01*
X135714835Y-96025148D01*
X135714836Y-96025152D01*
X135766798Y-96127133D01*
X135954128Y-95939803D01*
X135972836Y-95984968D01*
X136015032Y-96027164D01*
X136060194Y-96045870D01*
X135872864Y-96233200D01*
X135872865Y-96233201D01*
X135974847Y-96285163D01*
X135974851Y-96285164D01*
X136100000Y-96304985D01*
X136225145Y-96285165D01*
X136327133Y-96233199D01*
X136139805Y-96045871D01*
X136184968Y-96027164D01*
X136227164Y-95984968D01*
X136245871Y-95939805D01*
X136433199Y-96127133D01*
X136485165Y-96025145D01*
X136504985Y-95900000D01*
X136485164Y-95774851D01*
X136485163Y-95774847D01*
X136433201Y-95672865D01*
X136433200Y-95672864D01*
X136245870Y-95860194D01*
X136227164Y-95815032D01*
X136184968Y-95772836D01*
X136139803Y-95754128D01*
X136327133Y-95566798D01*
X136225152Y-95514836D01*
X136225148Y-95514835D01*
X136100000Y-95495014D01*
X135974851Y-95514835D01*
X135872865Y-95566799D01*
X136060194Y-95754128D01*
X136015032Y-95772836D01*
X135972836Y-95815032D01*
X135954128Y-95860195D01*
X135766798Y-95672865D01*
X135714835Y-95774851D01*
X135695014Y-95900000D01*
X135404985Y-95900000D01*
X135385164Y-95774851D01*
X135385163Y-95774847D01*
X135333201Y-95672865D01*
X135333200Y-95672864D01*
X135145870Y-95860194D01*
X135127164Y-95815032D01*
X135084968Y-95772836D01*
X135039803Y-95754128D01*
X135227133Y-95566798D01*
X135125152Y-95514836D01*
X135125148Y-95514835D01*
X135000000Y-95495014D01*
X134874851Y-95514835D01*
X134772865Y-95566799D01*
X134960194Y-95754128D01*
X134915032Y-95772836D01*
X134872836Y-95815032D01*
X134854128Y-95860194D01*
X134666799Y-95672865D01*
X134614835Y-95774851D01*
X134595014Y-95900000D01*
X134304985Y-95900000D01*
X134285164Y-95774851D01*
X134285163Y-95774847D01*
X134233201Y-95672865D01*
X134233200Y-95672864D01*
X134045870Y-95860194D01*
X134027164Y-95815032D01*
X133984968Y-95772836D01*
X133939803Y-95754128D01*
X134127133Y-95566798D01*
X134025152Y-95514836D01*
X134025148Y-95514835D01*
X133900000Y-95495014D01*
X133774851Y-95514835D01*
X133672865Y-95566799D01*
X133860194Y-95754128D01*
X133815032Y-95772836D01*
X133772836Y-95815032D01*
X133754128Y-95860195D01*
X133566798Y-95672865D01*
X133514835Y-95774851D01*
X133495014Y-95900000D01*
X127800500Y-95900000D01*
X127800500Y-69905123D01*
X127822174Y-69852797D01*
X128102797Y-69572174D01*
X128155123Y-69550500D01*
X138789564Y-69550500D01*
X138789564Y-69550499D01*
X138865989Y-69530021D01*
X138934511Y-69490460D01*
X138990460Y-69434511D01*
X139323174Y-69101797D01*
X139375500Y-69080123D01*
X139427826Y-69101797D01*
X139449500Y-69154123D01*
X139449500Y-79344876D01*
X139427826Y-79397202D01*
X138097202Y-80727826D01*
X138044876Y-80749500D01*
X137928036Y-80749500D01*
X137789949Y-80790046D01*
X137789945Y-80790047D01*
X137668875Y-80867855D01*
X137668868Y-80867860D01*
X137574623Y-80976626D01*
X137514834Y-81107545D01*
X137494353Y-81250000D01*
X137514834Y-81392454D01*
X137574623Y-81523373D01*
X137668868Y-81632139D01*
X137668869Y-81632140D01*
X137668872Y-81632143D01*
X137789947Y-81709953D01*
X137896403Y-81741211D01*
X137928035Y-81750499D01*
X137928037Y-81750500D01*
X137928039Y-81750500D01*
X138071963Y-81750500D01*
X138071964Y-81750499D01*
X138210053Y-81709953D01*
X138331128Y-81632143D01*
X138425377Y-81523373D01*
X138485165Y-81392457D01*
X138505647Y-81250000D01*
X138500776Y-81216128D01*
X138514782Y-81161253D01*
X138521690Y-81153279D01*
X139823175Y-79851795D01*
X139875500Y-79830122D01*
X139927826Y-79851796D01*
X139949500Y-79904122D01*
X139949500Y-95187802D01*
X139927826Y-95240128D01*
X139896349Y-95258804D01*
X139789947Y-95290046D01*
X139789945Y-95290047D01*
X139668875Y-95367855D01*
X139668868Y-95367860D01*
X139574623Y-95476626D01*
X139514834Y-95607545D01*
X139494353Y-95750000D01*
X139514834Y-95892454D01*
X139514834Y-95892455D01*
X139514835Y-95892457D01*
X139518280Y-95900000D01*
X139574623Y-96023373D01*
X139668868Y-96132139D01*
X139668869Y-96132140D01*
X139668872Y-96132143D01*
X139789947Y-96209953D01*
X139896403Y-96241211D01*
X139928035Y-96250499D01*
X139928037Y-96250500D01*
X139928039Y-96250500D01*
X140071963Y-96250500D01*
X140071964Y-96250499D01*
X140210053Y-96209953D01*
X140331128Y-96132143D01*
X140425377Y-96023373D01*
X140485165Y-95892457D01*
X140505647Y-95750000D01*
X140498725Y-95701857D01*
X140507886Y-95654325D01*
X140524994Y-95624696D01*
X140530021Y-95615989D01*
X140550499Y-95539564D01*
X140550500Y-95539564D01*
X140550500Y-72270520D01*
X151024500Y-72270520D01*
X151024500Y-72529479D01*
X151058300Y-72786226D01*
X151125324Y-73036365D01*
X151224424Y-73275612D01*
X151224425Y-73275615D01*
X151353904Y-73499880D01*
X151353908Y-73499886D01*
X151511553Y-73705333D01*
X151694667Y-73888447D01*
X151900116Y-74046093D01*
X152124384Y-74175574D01*
X152363634Y-74274675D01*
X152613772Y-74341699D01*
X152870519Y-74375500D01*
X152870521Y-74375500D01*
X153129479Y-74375500D01*
X153129481Y-74375500D01*
X153386228Y-74341699D01*
X153636366Y-74274675D01*
X153875616Y-74175574D01*
X154099884Y-74046093D01*
X154305333Y-73888447D01*
X154488447Y-73705333D01*
X154646093Y-73499884D01*
X154775574Y-73275616D01*
X154874675Y-73036366D01*
X154941699Y-72786228D01*
X154975500Y-72529481D01*
X154975500Y-72270519D01*
X154941699Y-72013772D01*
X154874675Y-71763634D01*
X154775574Y-71524384D01*
X154646093Y-71300116D01*
X154488447Y-71094667D01*
X154305333Y-70911553D01*
X154099886Y-70753908D01*
X154099880Y-70753904D01*
X153875615Y-70624425D01*
X153875612Y-70624424D01*
X153636365Y-70525324D01*
X153386226Y-70458300D01*
X153197081Y-70433399D01*
X153129481Y-70424500D01*
X152870519Y-70424500D01*
X152810783Y-70432364D01*
X152613773Y-70458300D01*
X152363634Y-70525324D01*
X152124387Y-70624424D01*
X152124384Y-70624425D01*
X151900119Y-70753904D01*
X151900113Y-70753908D01*
X151694666Y-70911553D01*
X151511553Y-71094666D01*
X151353908Y-71300113D01*
X151353904Y-71300119D01*
X151224425Y-71524384D01*
X151224424Y-71524387D01*
X151125324Y-71763634D01*
X151058300Y-72013773D01*
X151024500Y-72270520D01*
X140550500Y-72270520D01*
X140550500Y-57710440D01*
X140550500Y-57710438D01*
X140530022Y-57634012D01*
X140490460Y-57565489D01*
X139934511Y-57009540D01*
X139901463Y-56990460D01*
X139865990Y-56969979D01*
X139865985Y-56969977D01*
X139789564Y-56949500D01*
X139789562Y-56949500D01*
X139539562Y-56949500D01*
X138434800Y-56949500D01*
X138382474Y-56927826D01*
X138360800Y-56875500D01*
X138378887Y-56827025D01*
X138379755Y-56826023D01*
X138430409Y-56800687D01*
X138435667Y-56800500D01*
X167789564Y-56800500D01*
X167789564Y-56800499D01*
X167865989Y-56780021D01*
X167934511Y-56740460D01*
X167990460Y-56684511D01*
X168490460Y-56184511D01*
X168530022Y-56115988D01*
X168550500Y-56039562D01*
X168550500Y-55960438D01*
X168550500Y-50130252D01*
X168949500Y-50130252D01*
X168949500Y-52369748D01*
X168957255Y-52408736D01*
X168961133Y-52428232D01*
X168989027Y-52469977D01*
X169005448Y-52494552D01*
X169027879Y-52509540D01*
X169071767Y-52538866D01*
X169071768Y-52538866D01*
X169071769Y-52538867D01*
X169130252Y-52550500D01*
X169130254Y-52550500D01*
X171369746Y-52550500D01*
X171369748Y-52550500D01*
X171428231Y-52538867D01*
X171494552Y-52494552D01*
X171538867Y-52428231D01*
X171550500Y-52369748D01*
X171550500Y-50130252D01*
X171538867Y-50071769D01*
X171494552Y-50005448D01*
X171472343Y-49990608D01*
X171428232Y-49961133D01*
X171428233Y-49961133D01*
X171398989Y-49955316D01*
X171369748Y-49949500D01*
X169130252Y-49949500D01*
X169101010Y-49955316D01*
X169071767Y-49961133D01*
X169005449Y-50005447D01*
X169005447Y-50005449D01*
X168961133Y-50071767D01*
X168961133Y-50071769D01*
X168949500Y-50130252D01*
X168550500Y-50130252D01*
X168550500Y-46749995D01*
X168995225Y-46749995D01*
X168995225Y-46750004D01*
X169014287Y-46967886D01*
X169014288Y-46967893D01*
X169070895Y-47179153D01*
X169163334Y-47377388D01*
X169288785Y-47556552D01*
X169288790Y-47556557D01*
X169313082Y-47580850D01*
X169313083Y-47580850D01*
X169772702Y-47121229D01*
X169878769Y-47227296D01*
X169419149Y-47686916D01*
X169443447Y-47711214D01*
X169622611Y-47836665D01*
X169820846Y-47929104D01*
X170032106Y-47985711D01*
X170032113Y-47985712D01*
X170249996Y-48004775D01*
X170250004Y-48004775D01*
X170467886Y-47985712D01*
X170467893Y-47985711D01*
X170679153Y-47929104D01*
X170877388Y-47836665D01*
X171056552Y-47711214D01*
X171080849Y-47686915D01*
X170621230Y-47227296D01*
X170727296Y-47121230D01*
X171186915Y-47580849D01*
X171211214Y-47556552D01*
X171336665Y-47377388D01*
X171429104Y-47179153D01*
X171485711Y-46967893D01*
X171485712Y-46967886D01*
X171504775Y-46750004D01*
X171504775Y-46749995D01*
X171485712Y-46532113D01*
X171485711Y-46532106D01*
X171429105Y-46320849D01*
X171429100Y-46320838D01*
X171336665Y-46122612D01*
X171211212Y-45943445D01*
X171186916Y-45919149D01*
X170727296Y-46378769D01*
X170621230Y-46272703D01*
X171080850Y-45813083D01*
X171080850Y-45813082D01*
X171056557Y-45788790D01*
X171056552Y-45788785D01*
X170877388Y-45663334D01*
X170679153Y-45570895D01*
X170467893Y-45514288D01*
X170467886Y-45514287D01*
X170250004Y-45495225D01*
X170249996Y-45495225D01*
X170032113Y-45514287D01*
X170032106Y-45514288D01*
X169820849Y-45570894D01*
X169820838Y-45570899D01*
X169622612Y-45663334D01*
X169443448Y-45788785D01*
X169443447Y-45788786D01*
X169419149Y-45813082D01*
X169878770Y-46272703D01*
X169772703Y-46378769D01*
X169313082Y-45919149D01*
X169288786Y-45943447D01*
X169288785Y-45943448D01*
X169163334Y-46122612D01*
X169070899Y-46320838D01*
X169070894Y-46320849D01*
X169014288Y-46532106D01*
X169014287Y-46532113D01*
X168995225Y-46749995D01*
X168550500Y-46749995D01*
X168550500Y-40893711D01*
X175649500Y-40893711D01*
X175649500Y-41106288D01*
X175682753Y-41316240D01*
X175682756Y-41316253D01*
X175748440Y-41518406D01*
X175844948Y-41707816D01*
X175896992Y-41779448D01*
X175969896Y-41879792D01*
X176120208Y-42030104D01*
X176215656Y-42099451D01*
X176292183Y-42155051D01*
X176383474Y-42201565D01*
X176481588Y-42251557D01*
X176481590Y-42251557D01*
X176481593Y-42251559D01*
X176683746Y-42317243D01*
X176683752Y-42317244D01*
X176683757Y-42317246D01*
X176788735Y-42333873D01*
X176893711Y-42350500D01*
X176893713Y-42350500D01*
X177106289Y-42350500D01*
X177190269Y-42337198D01*
X177316243Y-42317246D01*
X177316250Y-42317243D01*
X177316253Y-42317243D01*
X177518406Y-42251559D01*
X177518406Y-42251558D01*
X177518412Y-42251557D01*
X177707816Y-42155051D01*
X177879792Y-42030104D01*
X178030104Y-41879792D01*
X178155051Y-41707816D01*
X178251557Y-41518412D01*
X178317246Y-41316243D01*
X178350500Y-41106287D01*
X178350500Y-40893713D01*
X178317246Y-40683757D01*
X178317244Y-40683752D01*
X178317243Y-40683746D01*
X178251559Y-40481593D01*
X178251557Y-40481590D01*
X178251557Y-40481588D01*
X178185935Y-40352797D01*
X178155051Y-40292183D01*
X178080776Y-40189953D01*
X178030104Y-40120208D01*
X177879792Y-39969896D01*
X177813146Y-39921475D01*
X177707816Y-39844948D01*
X177518406Y-39748440D01*
X177316253Y-39682756D01*
X177316240Y-39682753D01*
X177106289Y-39649500D01*
X177106287Y-39649500D01*
X176893713Y-39649500D01*
X176893711Y-39649500D01*
X176683759Y-39682753D01*
X176683746Y-39682756D01*
X176481593Y-39748440D01*
X176292183Y-39844948D01*
X176120212Y-39969893D01*
X176120208Y-39969896D01*
X175969896Y-40120208D01*
X175969893Y-40120211D01*
X175969893Y-40120212D01*
X175844948Y-40292183D01*
X175748440Y-40481593D01*
X175682756Y-40683746D01*
X175682753Y-40683759D01*
X175649500Y-40893711D01*
X168550500Y-40893711D01*
X168550500Y-34655123D01*
X168572174Y-34602797D01*
X168852797Y-34322174D01*
X168905123Y-34300500D01*
X175289564Y-34300500D01*
X175289564Y-34300499D01*
X175365989Y-34280021D01*
X175434511Y-34240460D01*
X175490460Y-34184511D01*
X176910460Y-32764511D01*
X176915381Y-32755988D01*
X176950021Y-32695989D01*
X176970499Y-32619564D01*
X176970500Y-32619564D01*
X176970500Y-32074500D01*
X176992174Y-32022174D01*
X177044500Y-32000500D01*
X177374258Y-32000500D01*
X177374266Y-32000500D01*
X177404699Y-31997646D01*
X177532882Y-31952793D01*
X177642150Y-31872150D01*
X177722793Y-31762882D01*
X177767646Y-31634699D01*
X177770500Y-31604266D01*
X177770500Y-28395734D01*
X177767646Y-28365301D01*
X177722793Y-28237118D01*
X177722792Y-28237116D01*
X177642153Y-28127853D01*
X177642146Y-28127846D01*
X177532883Y-28047207D01*
X177532881Y-28047206D01*
X177404704Y-28002355D01*
X177404705Y-28002355D01*
X177404700Y-28002354D01*
X177404699Y-28002354D01*
X177374266Y-27999500D01*
X175965734Y-27999500D01*
X175935301Y-28002354D01*
X175935299Y-28002354D01*
X175935295Y-28002355D01*
X175807118Y-28047206D01*
X175807116Y-28047207D01*
X175697853Y-28127846D01*
X175697846Y-28127853D01*
X175617207Y-28237116D01*
X175617206Y-28237118D01*
X175572355Y-28365295D01*
X175572354Y-28365299D01*
X175572354Y-28365301D01*
X175569500Y-28395734D01*
X175569500Y-31604266D01*
X175572354Y-31634699D01*
X175572354Y-31634701D01*
X175572355Y-31634704D01*
X175617206Y-31762881D01*
X175617207Y-31762883D01*
X175697846Y-31872146D01*
X175697853Y-31872153D01*
X175807116Y-31952792D01*
X175807118Y-31952793D01*
X175935295Y-31997644D01*
X175935301Y-31997646D01*
X175965734Y-32000500D01*
X176295500Y-32000500D01*
X176347826Y-32022174D01*
X176369500Y-32074500D01*
X176369500Y-32424877D01*
X176347826Y-32477203D01*
X175147203Y-33677826D01*
X175094877Y-33699500D01*
X172404123Y-33699500D01*
X172351797Y-33677826D01*
X172330123Y-33625500D01*
X172351797Y-33573174D01*
X172497145Y-33427826D01*
X173100460Y-32824511D01*
X173140022Y-32755988D01*
X173160500Y-32679562D01*
X173160500Y-32600438D01*
X173160500Y-32013259D01*
X173182174Y-31960933D01*
X173211633Y-31942881D01*
X173282442Y-31919874D01*
X173282442Y-31919873D01*
X173282445Y-31919873D01*
X173436788Y-31841232D01*
X173576928Y-31739414D01*
X173699414Y-31616928D01*
X173801232Y-31476788D01*
X173879873Y-31322445D01*
X173933402Y-31157701D01*
X173960500Y-30986611D01*
X173960500Y-29013389D01*
X173933402Y-28842299D01*
X173933400Y-28842294D01*
X173933399Y-28842288D01*
X173879874Y-28677557D01*
X173879872Y-28677553D01*
X173801232Y-28523212D01*
X173699417Y-28383076D01*
X173699416Y-28383075D01*
X173699414Y-28383072D01*
X173576928Y-28260586D01*
X173576925Y-28260583D01*
X173576923Y-28260582D01*
X173436787Y-28158767D01*
X173282446Y-28080127D01*
X173282442Y-28080125D01*
X173117711Y-28026600D01*
X173117698Y-28026597D01*
X172946612Y-27999500D01*
X172946611Y-27999500D01*
X172773389Y-27999500D01*
X172773388Y-27999500D01*
X172602301Y-28026597D01*
X172602288Y-28026600D01*
X172437557Y-28080125D01*
X172437553Y-28080127D01*
X172283212Y-28158767D01*
X172143076Y-28260582D01*
X172020582Y-28383076D01*
X171918767Y-28523212D01*
X171840127Y-28677553D01*
X171840125Y-28677557D01*
X171786600Y-28842288D01*
X171786597Y-28842301D01*
X171759500Y-29013388D01*
X171759500Y-30986611D01*
X171786597Y-31157698D01*
X171786600Y-31157711D01*
X171840125Y-31322442D01*
X171840127Y-31322446D01*
X171918767Y-31476787D01*
X171918768Y-31476788D01*
X172020586Y-31616928D01*
X172143072Y-31739414D01*
X172143075Y-31739416D01*
X172143076Y-31739417D01*
X172283212Y-31841232D01*
X172437553Y-31919872D01*
X172437557Y-31919874D01*
X172508367Y-31942881D01*
X172551434Y-31979663D01*
X172559500Y-32013259D01*
X172559500Y-32484877D01*
X172537826Y-32537203D01*
X171897203Y-33177826D01*
X171844877Y-33199500D01*
X168404123Y-33199500D01*
X168351797Y-33177826D01*
X168330123Y-33125500D01*
X168351797Y-33073174D01*
X168805409Y-32619562D01*
X169290460Y-32134511D01*
X169330021Y-32065989D01*
X169348926Y-31995433D01*
X169383404Y-31950503D01*
X169397525Y-31944215D01*
X169472445Y-31919873D01*
X169626788Y-31841232D01*
X169766928Y-31739414D01*
X169889414Y-31616928D01*
X169991232Y-31476788D01*
X170069873Y-31322445D01*
X170123402Y-31157701D01*
X170150500Y-30986611D01*
X170150500Y-29013389D01*
X170123402Y-28842299D01*
X170123400Y-28842294D01*
X170123399Y-28842288D01*
X170069874Y-28677557D01*
X170069872Y-28677553D01*
X169991232Y-28523212D01*
X169889417Y-28383076D01*
X169889416Y-28383075D01*
X169889414Y-28383072D01*
X169766928Y-28260586D01*
X169766925Y-28260583D01*
X169766923Y-28260582D01*
X169626787Y-28158767D01*
X169472446Y-28080127D01*
X169472442Y-28080125D01*
X169307711Y-28026600D01*
X169307698Y-28026597D01*
X169136612Y-27999500D01*
X169136611Y-27999500D01*
X168963389Y-27999500D01*
X168963388Y-27999500D01*
X168792301Y-28026597D01*
X168792288Y-28026600D01*
X168627557Y-28080125D01*
X168627553Y-28080127D01*
X168473212Y-28158767D01*
X168333076Y-28260582D01*
X168210582Y-28383076D01*
X168108767Y-28523212D01*
X168030127Y-28677553D01*
X168030125Y-28677557D01*
X167976600Y-28842288D01*
X167976597Y-28842301D01*
X167949500Y-29013388D01*
X167949500Y-30986611D01*
X167976597Y-31157698D01*
X167976600Y-31157711D01*
X168030125Y-31322442D01*
X168030127Y-31322446D01*
X168108767Y-31476787D01*
X168108768Y-31476788D01*
X168210586Y-31616928D01*
X168333072Y-31739414D01*
X168333075Y-31739416D01*
X168333076Y-31739417D01*
X168473212Y-31841232D01*
X168555087Y-31882949D01*
X168591870Y-31926016D01*
X168587427Y-31982479D01*
X168573818Y-32001210D01*
X167065489Y-33509540D01*
X167052326Y-33522703D01*
X167000000Y-33544377D01*
X166947674Y-33522703D01*
X165562174Y-32137203D01*
X165540500Y-32084877D01*
X165540500Y-32013259D01*
X165562174Y-31960933D01*
X165591633Y-31942881D01*
X165662442Y-31919874D01*
X165662442Y-31919873D01*
X165662445Y-31919873D01*
X165816788Y-31841232D01*
X165956928Y-31739414D01*
X166079414Y-31616928D01*
X166181232Y-31476788D01*
X166259873Y-31322445D01*
X166313402Y-31157701D01*
X166340500Y-30986611D01*
X166340500Y-29013389D01*
X166313402Y-28842299D01*
X166313400Y-28842294D01*
X166313399Y-28842288D01*
X166259874Y-28677557D01*
X166259872Y-28677553D01*
X166181232Y-28523212D01*
X166079417Y-28383076D01*
X166079416Y-28383075D01*
X166079414Y-28383072D01*
X165956928Y-28260586D01*
X165956925Y-28260583D01*
X165956923Y-28260582D01*
X165816787Y-28158767D01*
X165662446Y-28080127D01*
X165662442Y-28080125D01*
X165497711Y-28026600D01*
X165497698Y-28026597D01*
X165326612Y-27999500D01*
X165326611Y-27999500D01*
X165153389Y-27999500D01*
X165153388Y-27999500D01*
X164982301Y-28026597D01*
X164982288Y-28026600D01*
X164817557Y-28080125D01*
X164817553Y-28080127D01*
X164663212Y-28158767D01*
X164523076Y-28260582D01*
X164400582Y-28383076D01*
X164298767Y-28523212D01*
X164220127Y-28677553D01*
X164220125Y-28677557D01*
X164166600Y-28842288D01*
X164166597Y-28842301D01*
X164139500Y-29013388D01*
X164139500Y-30986611D01*
X164166597Y-31157698D01*
X164166600Y-31157711D01*
X164220125Y-31322442D01*
X164220127Y-31322446D01*
X164298767Y-31476787D01*
X164298768Y-31476788D01*
X164400586Y-31616928D01*
X164523072Y-31739414D01*
X164523075Y-31739416D01*
X164523076Y-31739417D01*
X164663212Y-31841232D01*
X164817553Y-31919872D01*
X164817557Y-31919874D01*
X164888367Y-31942881D01*
X164931434Y-31979663D01*
X164939500Y-32013259D01*
X164939500Y-32279564D01*
X164959977Y-32355985D01*
X164959979Y-32355990D01*
X164999540Y-32424511D01*
X166427826Y-33852797D01*
X166449500Y-33905123D01*
X166449500Y-35095877D01*
X166427826Y-35148203D01*
X166375500Y-35169877D01*
X166323174Y-35148203D01*
X165771697Y-34596726D01*
X165750023Y-34544400D01*
X165750777Y-34533866D01*
X165755647Y-34500002D01*
X165755647Y-34500001D01*
X165735165Y-34357545D01*
X165735165Y-34357543D01*
X165675377Y-34226627D01*
X165581128Y-34117857D01*
X165524182Y-34081260D01*
X165460054Y-34040047D01*
X165460050Y-34040046D01*
X165321964Y-33999500D01*
X165321961Y-33999500D01*
X165178039Y-33999500D01*
X165178036Y-33999500D01*
X165039949Y-34040046D01*
X165039945Y-34040047D01*
X164918875Y-34117855D01*
X164918868Y-34117860D01*
X164824623Y-34226626D01*
X164764834Y-34357545D01*
X164744353Y-34500000D01*
X164764834Y-34642454D01*
X164764834Y-34642455D01*
X164764835Y-34642457D01*
X164808735Y-34738584D01*
X164824623Y-34773373D01*
X164918868Y-34882139D01*
X164918869Y-34882140D01*
X164918872Y-34882143D01*
X165039947Y-34959953D01*
X165146403Y-34991211D01*
X165178035Y-35000499D01*
X165178037Y-35000500D01*
X165294877Y-35000500D01*
X165347203Y-35022174D01*
X165927826Y-35602797D01*
X165949500Y-35655123D01*
X165949500Y-53594877D01*
X165927826Y-53647203D01*
X165647203Y-53927826D01*
X165594877Y-53949500D01*
X158905123Y-53949500D01*
X158852797Y-53927826D01*
X158572174Y-53647203D01*
X158550500Y-53594877D01*
X158550500Y-52624500D01*
X158572174Y-52572174D01*
X158624500Y-52550500D01*
X159369746Y-52550500D01*
X159369748Y-52550500D01*
X159428231Y-52538867D01*
X159494552Y-52494552D01*
X159538867Y-52428231D01*
X159550500Y-52369748D01*
X159550500Y-51249994D01*
X162444532Y-51249994D01*
X162444532Y-51250005D01*
X162464364Y-51476688D01*
X162464365Y-51476696D01*
X162523258Y-51696488D01*
X162523260Y-51696492D01*
X162523261Y-51696496D01*
X162619432Y-51902734D01*
X162619434Y-51902736D01*
X162619435Y-51902739D01*
X162749953Y-52089139D01*
X162910861Y-52250047D01*
X163097266Y-52380568D01*
X163303504Y-52476739D01*
X163303510Y-52476740D01*
X163303511Y-52476741D01*
X163523303Y-52535634D01*
X163523305Y-52535634D01*
X163523308Y-52535635D01*
X163608317Y-52543072D01*
X163749995Y-52555468D01*
X163750000Y-52555468D01*
X163750005Y-52555468D01*
X163875940Y-52544449D01*
X163976692Y-52535635D01*
X164196496Y-52476739D01*
X164402734Y-52380568D01*
X164589139Y-52250047D01*
X164750047Y-52089139D01*
X164880568Y-51902734D01*
X164976739Y-51696496D01*
X165035635Y-51476692D01*
X165055468Y-51250000D01*
X165055468Y-51249994D01*
X165035635Y-51023311D01*
X165035634Y-51023303D01*
X164976741Y-50803511D01*
X164976740Y-50803510D01*
X164976739Y-50803504D01*
X164880568Y-50597266D01*
X164750047Y-50410861D01*
X164589139Y-50249953D01*
X164555826Y-50226627D01*
X164402739Y-50119435D01*
X164402736Y-50119434D01*
X164402734Y-50119432D01*
X164196496Y-50023261D01*
X164196492Y-50023260D01*
X164196488Y-50023258D01*
X163976696Y-49964365D01*
X163976688Y-49964364D01*
X163750005Y-49944532D01*
X163749995Y-49944532D01*
X163523311Y-49964364D01*
X163523303Y-49964365D01*
X163303511Y-50023258D01*
X163303504Y-50023260D01*
X163303504Y-50023261D01*
X163111892Y-50112612D01*
X163097260Y-50119435D01*
X162910860Y-50249953D01*
X162749953Y-50410860D01*
X162619435Y-50597260D01*
X162619432Y-50597265D01*
X162619432Y-50597266D01*
X162523263Y-50803500D01*
X162523258Y-50803511D01*
X162464365Y-51023303D01*
X162464364Y-51023311D01*
X162444532Y-51249994D01*
X159550500Y-51249994D01*
X159550500Y-50130252D01*
X159538867Y-50071769D01*
X159494552Y-50005448D01*
X159472343Y-49990608D01*
X159428232Y-49961133D01*
X159428233Y-49961133D01*
X159398989Y-49955316D01*
X159369748Y-49949500D01*
X157130252Y-49949500D01*
X157101010Y-49955316D01*
X157071767Y-49961133D01*
X157005449Y-50005447D01*
X157005447Y-50005449D01*
X156961133Y-50071767D01*
X156961133Y-50071769D01*
X156949500Y-50130252D01*
X156949500Y-52369748D01*
X156957255Y-52408736D01*
X156961133Y-52428232D01*
X156989027Y-52469977D01*
X157005448Y-52494552D01*
X157027879Y-52509540D01*
X157071767Y-52538866D01*
X157071768Y-52538866D01*
X157071769Y-52538867D01*
X157130252Y-52550500D01*
X157875500Y-52550500D01*
X157927826Y-52572174D01*
X157949500Y-52624500D01*
X157949500Y-53789564D01*
X157969978Y-53865988D01*
X157989614Y-53900000D01*
X157989615Y-53900000D01*
X158009540Y-53934511D01*
X158398203Y-54323174D01*
X158419877Y-54375500D01*
X158398203Y-54427826D01*
X158345877Y-54449500D01*
X148404123Y-54449500D01*
X148351797Y-54427826D01*
X148330123Y-54375500D01*
X148351797Y-54323174D01*
X148740460Y-53934511D01*
X148780022Y-53865988D01*
X148800500Y-53789562D01*
X148800500Y-53710438D01*
X148800500Y-51249994D01*
X150444532Y-51249994D01*
X150444532Y-51250005D01*
X150464364Y-51476688D01*
X150464365Y-51476696D01*
X150523258Y-51696488D01*
X150523260Y-51696492D01*
X150523261Y-51696496D01*
X150619432Y-51902734D01*
X150619434Y-51902736D01*
X150619435Y-51902739D01*
X150749953Y-52089139D01*
X150910861Y-52250047D01*
X151097266Y-52380568D01*
X151303504Y-52476739D01*
X151303510Y-52476740D01*
X151303511Y-52476741D01*
X151523303Y-52535634D01*
X151523305Y-52535634D01*
X151523308Y-52535635D01*
X151608317Y-52543072D01*
X151749995Y-52555468D01*
X151750000Y-52555468D01*
X151750005Y-52555468D01*
X151875940Y-52544449D01*
X151976692Y-52535635D01*
X152196496Y-52476739D01*
X152402734Y-52380568D01*
X152589139Y-52250047D01*
X152750047Y-52089139D01*
X152880568Y-51902734D01*
X152976739Y-51696496D01*
X153035635Y-51476692D01*
X153055468Y-51250000D01*
X153055468Y-51249994D01*
X153035635Y-51023311D01*
X153035634Y-51023303D01*
X152976741Y-50803511D01*
X152976740Y-50803510D01*
X152976739Y-50803504D01*
X152880568Y-50597266D01*
X152750047Y-50410861D01*
X152589139Y-50249953D01*
X152555826Y-50226627D01*
X152402739Y-50119435D01*
X152402736Y-50119434D01*
X152402734Y-50119432D01*
X152196496Y-50023261D01*
X152196492Y-50023260D01*
X152196488Y-50023258D01*
X151976696Y-49964365D01*
X151976688Y-49964364D01*
X151750005Y-49944532D01*
X151749995Y-49944532D01*
X151523311Y-49964364D01*
X151523303Y-49964365D01*
X151303511Y-50023258D01*
X151303504Y-50023260D01*
X151303504Y-50023261D01*
X151111892Y-50112612D01*
X151097260Y-50119435D01*
X150910860Y-50249953D01*
X150749953Y-50410860D01*
X150619435Y-50597260D01*
X150619432Y-50597265D01*
X150619432Y-50597266D01*
X150523263Y-50803500D01*
X150523258Y-50803511D01*
X150464365Y-51023303D01*
X150464364Y-51023311D01*
X150444532Y-51249994D01*
X148800500Y-51249994D01*
X148800500Y-46749995D01*
X150495225Y-46749995D01*
X150495225Y-46750004D01*
X150514287Y-46967886D01*
X150514288Y-46967893D01*
X150570895Y-47179153D01*
X150663334Y-47377388D01*
X150788785Y-47556552D01*
X150788790Y-47556557D01*
X150813082Y-47580850D01*
X150813083Y-47580850D01*
X151272702Y-47121229D01*
X151378769Y-47227296D01*
X150919149Y-47686916D01*
X150943447Y-47711214D01*
X151122611Y-47836665D01*
X151320846Y-47929104D01*
X151532106Y-47985711D01*
X151532113Y-47985712D01*
X151749996Y-48004775D01*
X151750004Y-48004775D01*
X151967886Y-47985712D01*
X151967893Y-47985711D01*
X152179153Y-47929104D01*
X152377388Y-47836665D01*
X152556552Y-47711214D01*
X152580849Y-47686915D01*
X152121230Y-47227296D01*
X152227296Y-47121230D01*
X152686915Y-47580849D01*
X152711214Y-47556552D01*
X152836665Y-47377388D01*
X152929104Y-47179153D01*
X152985711Y-46967893D01*
X152985712Y-46967886D01*
X153004775Y-46750004D01*
X153004775Y-46749995D01*
X156995225Y-46749995D01*
X156995225Y-46750004D01*
X157014287Y-46967886D01*
X157014288Y-46967893D01*
X157070895Y-47179153D01*
X157163334Y-47377388D01*
X157288785Y-47556552D01*
X157288790Y-47556557D01*
X157313082Y-47580850D01*
X157313083Y-47580850D01*
X157772702Y-47121229D01*
X157878769Y-47227296D01*
X157419148Y-47686916D01*
X157443442Y-47711209D01*
X157443447Y-47711214D01*
X157622611Y-47836665D01*
X157820846Y-47929104D01*
X158032106Y-47985711D01*
X158032113Y-47985712D01*
X158249996Y-48004775D01*
X158250004Y-48004775D01*
X158467886Y-47985712D01*
X158467893Y-47985711D01*
X158679153Y-47929104D01*
X158877388Y-47836665D01*
X159056552Y-47711214D01*
X159080849Y-47686915D01*
X158621230Y-47227296D01*
X158727296Y-47121230D01*
X159186915Y-47580849D01*
X159211214Y-47556552D01*
X159336665Y-47377388D01*
X159429104Y-47179153D01*
X159485711Y-46967893D01*
X159485712Y-46967886D01*
X159504775Y-46750004D01*
X159504775Y-46749995D01*
X159485712Y-46532113D01*
X159485711Y-46532106D01*
X159429105Y-46320849D01*
X159429100Y-46320838D01*
X159336665Y-46122612D01*
X159211212Y-45943445D01*
X159186916Y-45919149D01*
X158727296Y-46378769D01*
X158621230Y-46272703D01*
X159080850Y-45813083D01*
X159080850Y-45813082D01*
X159056557Y-45788790D01*
X159056552Y-45788785D01*
X158877388Y-45663334D01*
X158679153Y-45570895D01*
X158467893Y-45514288D01*
X158467886Y-45514287D01*
X158250004Y-45495225D01*
X158249996Y-45495225D01*
X158032113Y-45514287D01*
X158032106Y-45514288D01*
X157820849Y-45570894D01*
X157820838Y-45570899D01*
X157622612Y-45663334D01*
X157443448Y-45788785D01*
X157443447Y-45788786D01*
X157419149Y-45813082D01*
X157878770Y-46272703D01*
X157772703Y-46378769D01*
X157313082Y-45919149D01*
X157288786Y-45943447D01*
X157288785Y-45943448D01*
X157163334Y-46122612D01*
X157070899Y-46320838D01*
X157070894Y-46320849D01*
X157014288Y-46532106D01*
X157014287Y-46532113D01*
X156995225Y-46749995D01*
X153004775Y-46749995D01*
X152985712Y-46532113D01*
X152985711Y-46532106D01*
X152929105Y-46320849D01*
X152929100Y-46320838D01*
X152836665Y-46122612D01*
X152711212Y-45943445D01*
X152686916Y-45919149D01*
X152227296Y-46378769D01*
X152121230Y-46272703D01*
X152580850Y-45813083D01*
X152580850Y-45813082D01*
X152556557Y-45788790D01*
X152556552Y-45788785D01*
X152377388Y-45663334D01*
X152179153Y-45570895D01*
X151967893Y-45514288D01*
X151967886Y-45514287D01*
X151750004Y-45495225D01*
X151749996Y-45495225D01*
X151532113Y-45514287D01*
X151532106Y-45514288D01*
X151320849Y-45570894D01*
X151320838Y-45570899D01*
X151122612Y-45663334D01*
X150943448Y-45788785D01*
X150943447Y-45788786D01*
X150919149Y-45813082D01*
X151378770Y-46272703D01*
X151272703Y-46378769D01*
X150813082Y-45919149D01*
X150788786Y-45943447D01*
X150788785Y-45943448D01*
X150663334Y-46122612D01*
X150570899Y-46320838D01*
X150570894Y-46320849D01*
X150514288Y-46532106D01*
X150514287Y-46532113D01*
X150495225Y-46749995D01*
X148800500Y-46749995D01*
X148800500Y-44474834D01*
X148822174Y-44422508D01*
X148874500Y-44400834D01*
X148926826Y-44422508D01*
X149225263Y-44720945D01*
X149246184Y-44762740D01*
X149264834Y-44892454D01*
X149324623Y-45023373D01*
X149418868Y-45132139D01*
X149418869Y-45132140D01*
X149418872Y-45132143D01*
X149539947Y-45209953D01*
X149646403Y-45241211D01*
X149678035Y-45250499D01*
X149678037Y-45250500D01*
X149678039Y-45250500D01*
X149821963Y-45250500D01*
X149821964Y-45250499D01*
X149960053Y-45209953D01*
X150081128Y-45132143D01*
X150086415Y-45126040D01*
X150137061Y-45100689D01*
X150142341Y-45100500D01*
X154453856Y-45100500D01*
X160074166Y-45100500D01*
X160126492Y-45122174D01*
X160627826Y-45623508D01*
X160649500Y-45675834D01*
X160649500Y-50112612D01*
X160631426Y-50161071D01*
X160574625Y-50226622D01*
X160574624Y-50226624D01*
X160514834Y-50357545D01*
X160494353Y-50500000D01*
X160514834Y-50642454D01*
X160574623Y-50773373D01*
X160668868Y-50882139D01*
X160668869Y-50882140D01*
X160668872Y-50882143D01*
X160789947Y-50959953D01*
X160896403Y-50991211D01*
X160928035Y-51000499D01*
X160928037Y-51000500D01*
X160928039Y-51000500D01*
X161071963Y-51000500D01*
X161071964Y-51000499D01*
X161210053Y-50959953D01*
X161331128Y-50882143D01*
X161425377Y-50773373D01*
X161485165Y-50642457D01*
X161505647Y-50500000D01*
X161485165Y-50357543D01*
X161425377Y-50226627D01*
X161425375Y-50226625D01*
X161425375Y-50226624D01*
X161425374Y-50226622D01*
X161368574Y-50161071D01*
X161350500Y-50112612D01*
X161350500Y-46749995D01*
X162495225Y-46749995D01*
X162495225Y-46750004D01*
X162514287Y-46967886D01*
X162514288Y-46967893D01*
X162570895Y-47179153D01*
X162663334Y-47377388D01*
X162788785Y-47556552D01*
X162788790Y-47556557D01*
X162813082Y-47580850D01*
X162813083Y-47580850D01*
X163272702Y-47121229D01*
X163378769Y-47227296D01*
X162919148Y-47686916D01*
X162943442Y-47711209D01*
X162943447Y-47711214D01*
X163122611Y-47836665D01*
X163320846Y-47929104D01*
X163532106Y-47985711D01*
X163532113Y-47985712D01*
X163749996Y-48004775D01*
X163750004Y-48004775D01*
X163967886Y-47985712D01*
X163967893Y-47985711D01*
X164179153Y-47929104D01*
X164377388Y-47836665D01*
X164556552Y-47711214D01*
X164580849Y-47686915D01*
X164121230Y-47227296D01*
X164227296Y-47121230D01*
X164686915Y-47580849D01*
X164711214Y-47556552D01*
X164836665Y-47377388D01*
X164929104Y-47179153D01*
X164985711Y-46967893D01*
X164985712Y-46967886D01*
X165004775Y-46750004D01*
X165004775Y-46749995D01*
X164985712Y-46532113D01*
X164985711Y-46532106D01*
X164929105Y-46320849D01*
X164929100Y-46320838D01*
X164836665Y-46122612D01*
X164711212Y-45943445D01*
X164686916Y-45919149D01*
X164227296Y-46378769D01*
X164121230Y-46272703D01*
X164580850Y-45813083D01*
X164580850Y-45813082D01*
X164556557Y-45788790D01*
X164556552Y-45788785D01*
X164377388Y-45663334D01*
X164179153Y-45570895D01*
X163967893Y-45514288D01*
X163967886Y-45514287D01*
X163750004Y-45495225D01*
X163749996Y-45495225D01*
X163532113Y-45514287D01*
X163532106Y-45514288D01*
X163320849Y-45570894D01*
X163320838Y-45570899D01*
X163122612Y-45663334D01*
X162943448Y-45788785D01*
X162943447Y-45788786D01*
X162919149Y-45813082D01*
X163378770Y-46272703D01*
X163272703Y-46378769D01*
X162813082Y-45919149D01*
X162788786Y-45943447D01*
X162788785Y-45943448D01*
X162663334Y-46122612D01*
X162570899Y-46320838D01*
X162570894Y-46320849D01*
X162514288Y-46532106D01*
X162514287Y-46532113D01*
X162495225Y-46749995D01*
X161350500Y-46749995D01*
X161350500Y-45453854D01*
X161350499Y-45453853D01*
X161326615Y-45364715D01*
X161326613Y-45364710D01*
X161280469Y-45284787D01*
X161222508Y-45226826D01*
X161200834Y-45174500D01*
X161222508Y-45122174D01*
X161274834Y-45100500D01*
X164796146Y-45100500D01*
X164796146Y-45100499D01*
X164885288Y-45076614D01*
X164965212Y-45030470D01*
X165530470Y-44465212D01*
X165576614Y-44385288D01*
X165600499Y-44296146D01*
X165600500Y-44296146D01*
X165600500Y-43927387D01*
X165618574Y-43878928D01*
X165637766Y-43856778D01*
X165675377Y-43813373D01*
X165735165Y-43682457D01*
X165755647Y-43540000D01*
X165735165Y-43397543D01*
X165675377Y-43266627D01*
X165581128Y-43157857D01*
X165515974Y-43115985D01*
X165460054Y-43080047D01*
X165460050Y-43080046D01*
X165321964Y-43039500D01*
X165321961Y-43039500D01*
X165178039Y-43039500D01*
X165178036Y-43039500D01*
X165039949Y-43080046D01*
X165039945Y-43080047D01*
X164918875Y-43157855D01*
X164918868Y-43157860D01*
X164824623Y-43266626D01*
X164764834Y-43397545D01*
X164744353Y-43540000D01*
X164764834Y-43682454D01*
X164824623Y-43813373D01*
X164881426Y-43878928D01*
X164899500Y-43927387D01*
X164899500Y-44074166D01*
X164877826Y-44126492D01*
X164626492Y-44377826D01*
X164574166Y-44399500D01*
X150142341Y-44399500D01*
X150090015Y-44377826D01*
X150086415Y-44373959D01*
X150081128Y-44367857D01*
X149994605Y-44312252D01*
X149962304Y-44265730D01*
X149972360Y-44209993D01*
X149994606Y-44187747D01*
X150081128Y-44132143D01*
X150175377Y-44023373D01*
X150235165Y-43892457D01*
X150255647Y-43750000D01*
X150250776Y-43716128D01*
X150264782Y-43661253D01*
X150271690Y-43653279D01*
X150740460Y-43184511D01*
X150780021Y-43115989D01*
X150800499Y-43039564D01*
X150800500Y-43039564D01*
X150800500Y-40405123D01*
X150822174Y-40352797D01*
X151122797Y-40052174D01*
X151175123Y-40030500D01*
X154814333Y-40030500D01*
X154866659Y-40052174D01*
X154870259Y-40056041D01*
X154918868Y-40112139D01*
X154918871Y-40112142D01*
X154918872Y-40112143D01*
X155039947Y-40189953D01*
X155146403Y-40221211D01*
X155178035Y-40230499D01*
X155178037Y-40230500D01*
X155178039Y-40230500D01*
X155321963Y-40230500D01*
X155321964Y-40230499D01*
X155460053Y-40189953D01*
X155581128Y-40112143D01*
X155675377Y-40003373D01*
X155735165Y-39872457D01*
X155755647Y-39730000D01*
X155735165Y-39587543D01*
X155675377Y-39456627D01*
X155598458Y-39367857D01*
X155581131Y-39347860D01*
X155581129Y-39347859D01*
X155581128Y-39347857D01*
X155491174Y-39290047D01*
X155460054Y-39270047D01*
X155460050Y-39270046D01*
X155321964Y-39229500D01*
X155321961Y-39229500D01*
X155178039Y-39229500D01*
X155178036Y-39229500D01*
X155039949Y-39270046D01*
X155039945Y-39270047D01*
X154918871Y-39347857D01*
X154918868Y-39347860D01*
X154870259Y-39403959D01*
X154819612Y-39429311D01*
X154814333Y-39429500D01*
X150980436Y-39429500D01*
X150904014Y-39449977D01*
X150904009Y-39449979D01*
X150870146Y-39469531D01*
X150835488Y-39489540D01*
X150358117Y-39966911D01*
X150305791Y-39988585D01*
X150253465Y-39966911D01*
X150231791Y-39914585D01*
X150234792Y-39893725D01*
X150235160Y-39892465D01*
X150235165Y-39892457D01*
X150255647Y-39750000D01*
X150235165Y-39607543D01*
X150175377Y-39476627D01*
X150134378Y-39429311D01*
X150081131Y-39367860D01*
X150081129Y-39367859D01*
X150081128Y-39367857D01*
X150024182Y-39331260D01*
X149960054Y-39290047D01*
X149960050Y-39290046D01*
X149821964Y-39249500D01*
X149821961Y-39249500D01*
X149678039Y-39249500D01*
X149678036Y-39249500D01*
X149539949Y-39290046D01*
X149539945Y-39290047D01*
X149418875Y-39367855D01*
X149418868Y-39367860D01*
X149324623Y-39476626D01*
X149264834Y-39607545D01*
X149244353Y-39750000D01*
X149264834Y-39892454D01*
X149264834Y-39892455D01*
X149264835Y-39892457D01*
X149300199Y-39969893D01*
X149324623Y-40023373D01*
X149381426Y-40088928D01*
X149399500Y-40137387D01*
X149399500Y-41612612D01*
X149381426Y-41661071D01*
X149324625Y-41726622D01*
X149324624Y-41726624D01*
X149264834Y-41857545D01*
X149246184Y-41987259D01*
X149225263Y-42029053D01*
X148926826Y-42327491D01*
X148874500Y-42349165D01*
X148822174Y-42327491D01*
X148800500Y-42275165D01*
X148800500Y-36405123D01*
X148822174Y-36352797D01*
X150602797Y-34572174D01*
X150655123Y-34550500D01*
X159969564Y-34550500D01*
X159969564Y-34550499D01*
X160045989Y-34530021D01*
X160114511Y-34490460D01*
X160170460Y-34434511D01*
X161670460Y-32934511D01*
X161701666Y-32880460D01*
X161710021Y-32865989D01*
X161730499Y-32789564D01*
X161730500Y-32789564D01*
X161730500Y-32013259D01*
X161752174Y-31960933D01*
X161781633Y-31942881D01*
X161852442Y-31919874D01*
X161852442Y-31919873D01*
X161852445Y-31919873D01*
X162006788Y-31841232D01*
X162146928Y-31739414D01*
X162269414Y-31616928D01*
X162371232Y-31476788D01*
X162449873Y-31322445D01*
X162503402Y-31157701D01*
X162530500Y-30986611D01*
X162530500Y-29013389D01*
X162503402Y-28842299D01*
X162503400Y-28842294D01*
X162503399Y-28842288D01*
X162449874Y-28677557D01*
X162449872Y-28677553D01*
X162371232Y-28523212D01*
X162269417Y-28383076D01*
X162269416Y-28383075D01*
X162269414Y-28383072D01*
X162146928Y-28260586D01*
X162146925Y-28260583D01*
X162146923Y-28260582D01*
X162006787Y-28158767D01*
X161852446Y-28080127D01*
X161852442Y-28080125D01*
X161687711Y-28026600D01*
X161687698Y-28026597D01*
X161516612Y-27999500D01*
X161516611Y-27999500D01*
X161343389Y-27999500D01*
X161343388Y-27999500D01*
X161172301Y-28026597D01*
X161172288Y-28026600D01*
X161007557Y-28080125D01*
X161007553Y-28080127D01*
X160853212Y-28158767D01*
X160713076Y-28260582D01*
X160590582Y-28383076D01*
X160488767Y-28523212D01*
X160410127Y-28677553D01*
X160410125Y-28677557D01*
X160356600Y-28842288D01*
X160356597Y-28842301D01*
X160329500Y-29013388D01*
X160329500Y-30986611D01*
X160356597Y-31157698D01*
X160356600Y-31157711D01*
X160410125Y-31322442D01*
X160410127Y-31322446D01*
X160488767Y-31476787D01*
X160488768Y-31476788D01*
X160590586Y-31616928D01*
X160713072Y-31739414D01*
X160713075Y-31739416D01*
X160713076Y-31739417D01*
X160853212Y-31841232D01*
X161007553Y-31919872D01*
X161007557Y-31919874D01*
X161078367Y-31942881D01*
X161121434Y-31979663D01*
X161129500Y-32013259D01*
X161129500Y-32594877D01*
X161107826Y-32647203D01*
X159827203Y-33927826D01*
X159774877Y-33949500D01*
X156904123Y-33949500D01*
X156851797Y-33927826D01*
X156830123Y-33875500D01*
X156851797Y-33823174D01*
X157351797Y-33323174D01*
X157860460Y-32814511D01*
X157889327Y-32764511D01*
X157900021Y-32745989D01*
X157920499Y-32669564D01*
X157920500Y-32669564D01*
X157920500Y-32013259D01*
X157942174Y-31960933D01*
X157971633Y-31942881D01*
X158042442Y-31919874D01*
X158042442Y-31919873D01*
X158042445Y-31919873D01*
X158196788Y-31841232D01*
X158336928Y-31739414D01*
X158459414Y-31616928D01*
X158561232Y-31476788D01*
X158639873Y-31322445D01*
X158693402Y-31157701D01*
X158720500Y-30986611D01*
X158720500Y-29013389D01*
X158693402Y-28842299D01*
X158693400Y-28842294D01*
X158693399Y-28842288D01*
X158639874Y-28677557D01*
X158639872Y-28677553D01*
X158561232Y-28523212D01*
X158459417Y-28383076D01*
X158459416Y-28383075D01*
X158459414Y-28383072D01*
X158336928Y-28260586D01*
X158336925Y-28260583D01*
X158336923Y-28260582D01*
X158196787Y-28158767D01*
X158042446Y-28080127D01*
X158042442Y-28080125D01*
X157877711Y-28026600D01*
X157877698Y-28026597D01*
X157706612Y-27999500D01*
X157706611Y-27999500D01*
X157533389Y-27999500D01*
X157533388Y-27999500D01*
X157362301Y-28026597D01*
X157362288Y-28026600D01*
X157197557Y-28080125D01*
X157197553Y-28080127D01*
X157043212Y-28158767D01*
X156903076Y-28260582D01*
X156780582Y-28383076D01*
X156678767Y-28523212D01*
X156600127Y-28677553D01*
X156600125Y-28677557D01*
X156546600Y-28842288D01*
X156546597Y-28842301D01*
X156519500Y-29013388D01*
X156519500Y-30986611D01*
X156546597Y-31157698D01*
X156546600Y-31157711D01*
X156600125Y-31322442D01*
X156600127Y-31322446D01*
X156678767Y-31476787D01*
X156678768Y-31476788D01*
X156780586Y-31616928D01*
X156903072Y-31739414D01*
X156903075Y-31739416D01*
X156903076Y-31739417D01*
X157043212Y-31841232D01*
X157197553Y-31919872D01*
X157197557Y-31919874D01*
X157268367Y-31942881D01*
X157311434Y-31979663D01*
X157319500Y-32013259D01*
X157319500Y-32474877D01*
X157297826Y-32527203D01*
X156397203Y-33427826D01*
X156344877Y-33449500D01*
X153654123Y-33449500D01*
X153601797Y-33427826D01*
X153580123Y-33375500D01*
X153601797Y-33323174D01*
X154050460Y-32874511D01*
X154090022Y-32805988D01*
X154110500Y-32729562D01*
X154110500Y-32650438D01*
X154110500Y-32013259D01*
X154132174Y-31960933D01*
X154161633Y-31942881D01*
X154232442Y-31919874D01*
X154232442Y-31919873D01*
X154232445Y-31919873D01*
X154386788Y-31841232D01*
X154526928Y-31739414D01*
X154649414Y-31616928D01*
X154751232Y-31476788D01*
X154829873Y-31322445D01*
X154883402Y-31157701D01*
X154910500Y-30986611D01*
X154910500Y-29013389D01*
X154883402Y-28842299D01*
X154883400Y-28842294D01*
X154883399Y-28842288D01*
X154829874Y-28677557D01*
X154829872Y-28677553D01*
X154751232Y-28523212D01*
X154649417Y-28383076D01*
X154649416Y-28383075D01*
X154649414Y-28383072D01*
X154526928Y-28260586D01*
X154526925Y-28260583D01*
X154526923Y-28260582D01*
X154386787Y-28158767D01*
X154232446Y-28080127D01*
X154232442Y-28080125D01*
X154067711Y-28026600D01*
X154067698Y-28026597D01*
X153896612Y-27999500D01*
X153896611Y-27999500D01*
X153723389Y-27999500D01*
X153723388Y-27999500D01*
X153552301Y-28026597D01*
X153552288Y-28026600D01*
X153387557Y-28080125D01*
X153387553Y-28080127D01*
X153233212Y-28158767D01*
X153093076Y-28260582D01*
X152970582Y-28383076D01*
X152868767Y-28523212D01*
X152790127Y-28677553D01*
X152790125Y-28677557D01*
X152736600Y-28842288D01*
X152736597Y-28842301D01*
X152709500Y-29013388D01*
X152709500Y-30986611D01*
X152736597Y-31157698D01*
X152736600Y-31157711D01*
X152790125Y-31322442D01*
X152790127Y-31322446D01*
X152868767Y-31476787D01*
X152868768Y-31476788D01*
X152970586Y-31616928D01*
X153093072Y-31739414D01*
X153093075Y-31739416D01*
X153093076Y-31739417D01*
X153233212Y-31841232D01*
X153387553Y-31919872D01*
X153387557Y-31919874D01*
X153458367Y-31942881D01*
X153501434Y-31979663D01*
X153509500Y-32013259D01*
X153509500Y-32534877D01*
X153487826Y-32587203D01*
X153147203Y-32927826D01*
X153094877Y-32949500D01*
X150354083Y-32949500D01*
X150301757Y-32927826D01*
X150280083Y-32875500D01*
X150282605Y-32856347D01*
X150300500Y-32789562D01*
X150300500Y-32710438D01*
X150300500Y-32013259D01*
X150322174Y-31960933D01*
X150351633Y-31942881D01*
X150422442Y-31919874D01*
X150422442Y-31919873D01*
X150422445Y-31919873D01*
X150576788Y-31841232D01*
X150716928Y-31739414D01*
X150839414Y-31616928D01*
X150941232Y-31476788D01*
X151019873Y-31322445D01*
X151073402Y-31157701D01*
X151100500Y-30986611D01*
X151100500Y-29013389D01*
X151073402Y-28842299D01*
X151073400Y-28842294D01*
X151073399Y-28842288D01*
X151019874Y-28677557D01*
X151019872Y-28677553D01*
X150941232Y-28523212D01*
X150839417Y-28383076D01*
X150839416Y-28383075D01*
X150839414Y-28383072D01*
X150716928Y-28260586D01*
X150716925Y-28260583D01*
X150716923Y-28260582D01*
X150576787Y-28158767D01*
X150422446Y-28080127D01*
X150422442Y-28080125D01*
X150257711Y-28026600D01*
X150257698Y-28026597D01*
X150086612Y-27999500D01*
X150086611Y-27999500D01*
X149913389Y-27999500D01*
X149913388Y-27999500D01*
X149742301Y-28026597D01*
X149742288Y-28026600D01*
X149577557Y-28080125D01*
X149577553Y-28080127D01*
X149423212Y-28158767D01*
X149283076Y-28260582D01*
X149160582Y-28383076D01*
X149058767Y-28523212D01*
X148980127Y-28677553D01*
X148980125Y-28677557D01*
X148926600Y-28842288D01*
X148926597Y-28842301D01*
X148899500Y-29013388D01*
X148899500Y-30986611D01*
X148926597Y-31157698D01*
X148926600Y-31157711D01*
X148980125Y-31322442D01*
X148980127Y-31322446D01*
X149058767Y-31476787D01*
X149058768Y-31476788D01*
X149160586Y-31616928D01*
X149283072Y-31739414D01*
X149283075Y-31739416D01*
X149283076Y-31739417D01*
X149423212Y-31841232D01*
X149577553Y-31919872D01*
X149577557Y-31919874D01*
X149648367Y-31942881D01*
X149691434Y-31979663D01*
X149699500Y-32013259D01*
X149699500Y-32594877D01*
X149677826Y-32647203D01*
X146759540Y-35565488D01*
X146719979Y-35634009D01*
X146719977Y-35634014D01*
X146699500Y-35710435D01*
X146699500Y-52094877D01*
X146677826Y-52147203D01*
X146397203Y-52427826D01*
X146344877Y-52449500D01*
X132960436Y-52449500D01*
X132884014Y-52469977D01*
X132884009Y-52469979D01*
X132848537Y-52490460D01*
X132815488Y-52509540D01*
X129347202Y-55977826D01*
X129294876Y-55999500D01*
X129178036Y-55999500D01*
X129039949Y-56040046D01*
X129039945Y-56040047D01*
X128918875Y-56117855D01*
X128918868Y-56117860D01*
X128824623Y-56226626D01*
X128764834Y-56357545D01*
X128744353Y-56500000D01*
X128764834Y-56642454D01*
X128764834Y-56642455D01*
X128764835Y-56642457D01*
X128784041Y-56684511D01*
X128824623Y-56773373D01*
X128871126Y-56827041D01*
X128889011Y-56880780D01*
X128863659Y-56931426D01*
X128815200Y-56949500D01*
X127655123Y-56949500D01*
X127602797Y-56927826D01*
X127322174Y-56647203D01*
X127300500Y-56594877D01*
X127300500Y-39155123D01*
X127322174Y-39102797D01*
X130852797Y-35572174D01*
X130905123Y-35550500D01*
X142289564Y-35550500D01*
X142289564Y-35550499D01*
X142365989Y-35530021D01*
X142434511Y-35490460D01*
X142490460Y-35434511D01*
X142902796Y-35022173D01*
X142955122Y-35000500D01*
X143071963Y-35000500D01*
X143071964Y-35000499D01*
X143210053Y-34959953D01*
X143331128Y-34882143D01*
X143425377Y-34773373D01*
X143485165Y-34642457D01*
X143505647Y-34500000D01*
X143485165Y-34357543D01*
X143425377Y-34226627D01*
X143331128Y-34117857D01*
X143274182Y-34081260D01*
X143210054Y-34040047D01*
X143210050Y-34040046D01*
X143071964Y-33999500D01*
X143071961Y-33999500D01*
X142928039Y-33999500D01*
X142928036Y-33999500D01*
X142789949Y-34040046D01*
X142789945Y-34040047D01*
X142668875Y-34117855D01*
X142668868Y-34117860D01*
X142574623Y-34226626D01*
X142514834Y-34357545D01*
X142494353Y-34500000D01*
X142499222Y-34533870D01*
X142485214Y-34588748D01*
X142478301Y-34596726D01*
X142147203Y-34927826D01*
X142094877Y-34949500D01*
X140934800Y-34949500D01*
X140882474Y-34927826D01*
X140860800Y-34875500D01*
X140878874Y-34827041D01*
X140887286Y-34817332D01*
X140925377Y-34773373D01*
X140985165Y-34642457D01*
X141005647Y-34500000D01*
X140985165Y-34357543D01*
X140925377Y-34226627D01*
X140831128Y-34117857D01*
X140774182Y-34081260D01*
X140710054Y-34040047D01*
X140710050Y-34040046D01*
X140571964Y-33999500D01*
X140571961Y-33999500D01*
X140428039Y-33999500D01*
X140428036Y-33999500D01*
X140289949Y-34040046D01*
X140289945Y-34040047D01*
X140168871Y-34117857D01*
X140168868Y-34117860D01*
X140120259Y-34173959D01*
X140069612Y-34199311D01*
X140064333Y-34199500D01*
X130460436Y-34199500D01*
X130384014Y-34219977D01*
X130384009Y-34219979D01*
X130348537Y-34240460D01*
X130315488Y-34259540D01*
X129858117Y-34716911D01*
X129805791Y-34738585D01*
X129753465Y-34716911D01*
X129731791Y-34664585D01*
X129734792Y-34643725D01*
X129735160Y-34642465D01*
X129735165Y-34642457D01*
X129755647Y-34500000D01*
X129735165Y-34357543D01*
X129675377Y-34226627D01*
X129581128Y-34117857D01*
X129524182Y-34081260D01*
X129460054Y-34040047D01*
X129460050Y-34040046D01*
X129321964Y-33999500D01*
X129321961Y-33999500D01*
X129178039Y-33999500D01*
X129178036Y-33999500D01*
X129039949Y-34040046D01*
X129039945Y-34040047D01*
X128918875Y-34117855D01*
X128918868Y-34117860D01*
X128824623Y-34226626D01*
X128764834Y-34357545D01*
X128744353Y-34500000D01*
X128749222Y-34533870D01*
X128735214Y-34588748D01*
X128728301Y-34596726D01*
X128608118Y-34716910D01*
X128555792Y-34738584D01*
X128503466Y-34716910D01*
X128481792Y-34664584D01*
X128484791Y-34643732D01*
X128485165Y-34642458D01*
X128495270Y-34572174D01*
X128505647Y-34500000D01*
X128485165Y-34357543D01*
X128425377Y-34226627D01*
X128331128Y-34117857D01*
X128274182Y-34081260D01*
X128210054Y-34040047D01*
X128210050Y-34040046D01*
X128071964Y-33999500D01*
X128071961Y-33999500D01*
X127928039Y-33999500D01*
X127928036Y-33999500D01*
X127789949Y-34040046D01*
X127789945Y-34040047D01*
X127668875Y-34117855D01*
X127668868Y-34117860D01*
X127574623Y-34226626D01*
X127514834Y-34357545D01*
X127494353Y-34500000D01*
X127499222Y-34533870D01*
X127485214Y-34588748D01*
X127478301Y-34596726D01*
X125315489Y-36759540D01*
X125259540Y-36815488D01*
X125219979Y-36884009D01*
X125219977Y-36884014D01*
X125199500Y-36960435D01*
X125199500Y-129539564D01*
X125219977Y-129615985D01*
X125219979Y-129615990D01*
X125224876Y-129624471D01*
X125259540Y-129684511D01*
X125815489Y-130240460D01*
X125884012Y-130280022D01*
X125960438Y-130300500D01*
X126039562Y-130300500D01*
X135344877Y-130300500D01*
X135397203Y-130322174D01*
X135677826Y-130602797D01*
X135699500Y-130655123D01*
X135699500Y-134057766D01*
X135677826Y-134110092D01*
X135672715Y-134114211D01*
X135672872Y-134114392D01*
X135668868Y-134117860D01*
X135574623Y-134226626D01*
X135514834Y-134357545D01*
X135494353Y-134500000D01*
X135514834Y-134642454D01*
X135514834Y-134642455D01*
X135514835Y-134642457D01*
X135518051Y-134649500D01*
X135520049Y-134653873D01*
X135522070Y-134710474D01*
X135483477Y-134751927D01*
X135426876Y-134753948D01*
X135415738Y-134748701D01*
X135401465Y-134740461D01*
X135401463Y-134740460D01*
X135365990Y-134719979D01*
X135365985Y-134719977D01*
X135289564Y-134699500D01*
X135289562Y-134699500D01*
X126935667Y-134699500D01*
X126883341Y-134677826D01*
X126879741Y-134673959D01*
X126831131Y-134617860D01*
X126831128Y-134617857D01*
X126710054Y-134540047D01*
X126710050Y-134540046D01*
X126571964Y-134499500D01*
X126571961Y-134499500D01*
X126428039Y-134499500D01*
X126348668Y-134522805D01*
X126292355Y-134516750D01*
X126256817Y-134472650D01*
X126262872Y-134416337D01*
X126275491Y-134399479D01*
X126352797Y-134322174D01*
X126405123Y-134300500D01*
X127564333Y-134300500D01*
X127616659Y-134322174D01*
X127620259Y-134326041D01*
X127668868Y-134382139D01*
X127668871Y-134382142D01*
X127668872Y-134382143D01*
X127789947Y-134459953D01*
X127896403Y-134491211D01*
X127928035Y-134500499D01*
X127928037Y-134500500D01*
X127928039Y-134500500D01*
X128071963Y-134500500D01*
X128071964Y-134500499D01*
X128210053Y-134459953D01*
X128331128Y-134382143D01*
X128425377Y-134273373D01*
X128485165Y-134142457D01*
X128505647Y-134000000D01*
X128485165Y-133857543D01*
X128425377Y-133726627D01*
X128331128Y-133617857D01*
X128244605Y-133562252D01*
X128212304Y-133515730D01*
X128222360Y-133459993D01*
X128244606Y-133437747D01*
X128331128Y-133382143D01*
X128425377Y-133273373D01*
X128485165Y-133142457D01*
X128505647Y-133000000D01*
X128485165Y-132857543D01*
X128425377Y-132726627D01*
X128331128Y-132617857D01*
X128274182Y-132581260D01*
X128210054Y-132540047D01*
X128210050Y-132540046D01*
X128071964Y-132499500D01*
X128071961Y-132499500D01*
X127928039Y-132499500D01*
X127928036Y-132499500D01*
X127789949Y-132540046D01*
X127789945Y-132540047D01*
X127668871Y-132617857D01*
X127668868Y-132617860D01*
X127620259Y-132673959D01*
X127569612Y-132699311D01*
X127564333Y-132699500D01*
X125789562Y-132699500D01*
X125710438Y-132699500D01*
X125634012Y-132719978D01*
X125634011Y-132719978D01*
X125634009Y-132719979D01*
X125634007Y-132719980D01*
X125565492Y-132759537D01*
X125176826Y-133148203D01*
X125124500Y-133169877D01*
X125072174Y-133148203D01*
X125050500Y-133095877D01*
X125050500Y-132655123D01*
X125072174Y-132602797D01*
X125352797Y-132322174D01*
X125405123Y-132300500D01*
X126764330Y-132300500D01*
X126816656Y-132322174D01*
X126820256Y-132326041D01*
X126868865Y-132382139D01*
X126868868Y-132382142D01*
X126868869Y-132382143D01*
X126989944Y-132459953D01*
X127096400Y-132491211D01*
X127128032Y-132500499D01*
X127128034Y-132500500D01*
X127128036Y-132500500D01*
X127271960Y-132500500D01*
X127271961Y-132500499D01*
X127410050Y-132459953D01*
X127531125Y-132382143D01*
X127625374Y-132273373D01*
X127685162Y-132142457D01*
X127705644Y-132000000D01*
X127685162Y-131857543D01*
X127625374Y-131726627D01*
X127531125Y-131617857D01*
X127474179Y-131581260D01*
X127410051Y-131540047D01*
X127410047Y-131540046D01*
X127271961Y-131499500D01*
X127271958Y-131499500D01*
X127128036Y-131499500D01*
X127128033Y-131499500D01*
X126989946Y-131540046D01*
X126989942Y-131540047D01*
X126868868Y-131617857D01*
X126868865Y-131617860D01*
X126820256Y-131673959D01*
X126769609Y-131699311D01*
X126764330Y-131699500D01*
X125289562Y-131699500D01*
X125210438Y-131699500D01*
X125134012Y-131719978D01*
X125134011Y-131719978D01*
X125134009Y-131719979D01*
X125134007Y-131719980D01*
X125065492Y-131759537D01*
X124565489Y-132259540D01*
X124509540Y-132315488D01*
X124469979Y-132384009D01*
X124469977Y-132384014D01*
X124449500Y-132460435D01*
X110550500Y-132460435D01*
X110550500Y-53900000D01*
X117365000Y-53900000D01*
X123665000Y-53900000D01*
X123665000Y-35900000D01*
X117365000Y-35900000D01*
X117365000Y-53900000D01*
X110550500Y-53900000D01*
X110550500Y-40893711D01*
X111649500Y-40893711D01*
X111649500Y-41106288D01*
X111682753Y-41316240D01*
X111682756Y-41316253D01*
X111748440Y-41518406D01*
X111844948Y-41707816D01*
X111896992Y-41779448D01*
X111969896Y-41879792D01*
X112120208Y-42030104D01*
X112215656Y-42099451D01*
X112292183Y-42155051D01*
X112383474Y-42201565D01*
X112481588Y-42251557D01*
X112481590Y-42251557D01*
X112481593Y-42251559D01*
X112683746Y-42317243D01*
X112683752Y-42317244D01*
X112683757Y-42317246D01*
X112788735Y-42333873D01*
X112893711Y-42350500D01*
X112893713Y-42350500D01*
X113106289Y-42350500D01*
X113190269Y-42337198D01*
X113316243Y-42317246D01*
X113316250Y-42317243D01*
X113316253Y-42317243D01*
X113518406Y-42251559D01*
X113518406Y-42251558D01*
X113518412Y-42251557D01*
X113707816Y-42155051D01*
X113879792Y-42030104D01*
X114030104Y-41879792D01*
X114155051Y-41707816D01*
X114251557Y-41518412D01*
X114317246Y-41316243D01*
X114350500Y-41106287D01*
X114350500Y-40893713D01*
X114317246Y-40683757D01*
X114317244Y-40683752D01*
X114317243Y-40683746D01*
X114251559Y-40481593D01*
X114251557Y-40481590D01*
X114251557Y-40481588D01*
X114185935Y-40352797D01*
X114155051Y-40292183D01*
X114080776Y-40189953D01*
X114030104Y-40120208D01*
X113879792Y-39969896D01*
X113813146Y-39921475D01*
X113707816Y-39844948D01*
X113518406Y-39748440D01*
X113316253Y-39682756D01*
X113316240Y-39682753D01*
X113106289Y-39649500D01*
X113106287Y-39649500D01*
X112893713Y-39649500D01*
X112893711Y-39649500D01*
X112683759Y-39682753D01*
X112683746Y-39682756D01*
X112481593Y-39748440D01*
X112292183Y-39844948D01*
X112120212Y-39969893D01*
X112120208Y-39969896D01*
X111969896Y-40120208D01*
X111969893Y-40120211D01*
X111969893Y-40120212D01*
X111844948Y-40292183D01*
X111748440Y-40481593D01*
X111682756Y-40683746D01*
X111682753Y-40683759D01*
X111649500Y-40893711D01*
X110550500Y-40893711D01*
X110550500Y-29013388D01*
X112229500Y-29013388D01*
X112229500Y-30986611D01*
X112256597Y-31157698D01*
X112256600Y-31157711D01*
X112310125Y-31322442D01*
X112310127Y-31322446D01*
X112388767Y-31476787D01*
X112388768Y-31476788D01*
X112490586Y-31616928D01*
X112613072Y-31739414D01*
X112613075Y-31739416D01*
X112613076Y-31739417D01*
X112753212Y-31841232D01*
X112907553Y-31919872D01*
X112907557Y-31919874D01*
X113072288Y-31973399D01*
X113072294Y-31973400D01*
X113072299Y-31973402D01*
X113174329Y-31989562D01*
X113243388Y-32000500D01*
X113243389Y-32000500D01*
X113416612Y-32000500D01*
X113459383Y-31993725D01*
X113587701Y-31973402D01*
X113587708Y-31973399D01*
X113587711Y-31973399D01*
X113752442Y-31919874D01*
X113752442Y-31919873D01*
X113752445Y-31919873D01*
X113906788Y-31841232D01*
X114046928Y-31739414D01*
X114169414Y-31616928D01*
X114271232Y-31476788D01*
X114349873Y-31322445D01*
X114403402Y-31157701D01*
X114430500Y-30986611D01*
X114430500Y-29013389D01*
X114430500Y-29013388D01*
X116039500Y-29013388D01*
X116039500Y-30986611D01*
X116066597Y-31157698D01*
X116066600Y-31157711D01*
X116120125Y-31322442D01*
X116120127Y-31322446D01*
X116198767Y-31476787D01*
X116198768Y-31476788D01*
X116300586Y-31616928D01*
X116423072Y-31739414D01*
X116423075Y-31739416D01*
X116423076Y-31739417D01*
X116563212Y-31841232D01*
X116717553Y-31919872D01*
X116717557Y-31919874D01*
X116882288Y-31973399D01*
X116882294Y-31973400D01*
X116882299Y-31973402D01*
X116984329Y-31989562D01*
X117053388Y-32000500D01*
X117053389Y-32000500D01*
X117226612Y-32000500D01*
X117269383Y-31993725D01*
X117397701Y-31973402D01*
X117397708Y-31973399D01*
X117397711Y-31973399D01*
X117562442Y-31919874D01*
X117562442Y-31919873D01*
X117562445Y-31919873D01*
X117716788Y-31841232D01*
X117856928Y-31739414D01*
X117979414Y-31616928D01*
X118081232Y-31476788D01*
X118159873Y-31322445D01*
X118213402Y-31157701D01*
X118240500Y-30986611D01*
X118240500Y-29013389D01*
X118240500Y-29013388D01*
X119849500Y-29013388D01*
X119849500Y-30986611D01*
X119876597Y-31157698D01*
X119876600Y-31157711D01*
X119930125Y-31322442D01*
X119930127Y-31322446D01*
X120008767Y-31476787D01*
X120008768Y-31476788D01*
X120110586Y-31616928D01*
X120233072Y-31739414D01*
X120233075Y-31739416D01*
X120233076Y-31739417D01*
X120373212Y-31841232D01*
X120527553Y-31919872D01*
X120527557Y-31919874D01*
X120692288Y-31973399D01*
X120692294Y-31973400D01*
X120692299Y-31973402D01*
X120794329Y-31989562D01*
X120863388Y-32000500D01*
X120863389Y-32000500D01*
X121036612Y-32000500D01*
X121079383Y-31993725D01*
X121207701Y-31973402D01*
X121207708Y-31973399D01*
X121207711Y-31973399D01*
X121372442Y-31919874D01*
X121372442Y-31919873D01*
X121372445Y-31919873D01*
X121526788Y-31841232D01*
X121666928Y-31739414D01*
X121789414Y-31616928D01*
X121891232Y-31476788D01*
X121969873Y-31322445D01*
X122023402Y-31157701D01*
X122050500Y-30986611D01*
X122050500Y-29013389D01*
X122050500Y-29013388D01*
X123659500Y-29013388D01*
X123659500Y-30986611D01*
X123686597Y-31157698D01*
X123686600Y-31157711D01*
X123740125Y-31322442D01*
X123740127Y-31322446D01*
X123818767Y-31476787D01*
X123818768Y-31476788D01*
X123920586Y-31616928D01*
X124043072Y-31739414D01*
X124043075Y-31739416D01*
X124043076Y-31739417D01*
X124183212Y-31841232D01*
X124337553Y-31919872D01*
X124337557Y-31919874D01*
X124502288Y-31973399D01*
X124502294Y-31973400D01*
X124502299Y-31973402D01*
X124604329Y-31989562D01*
X124673388Y-32000500D01*
X124673389Y-32000500D01*
X124846612Y-32000500D01*
X124889383Y-31993725D01*
X125017701Y-31973402D01*
X125017708Y-31973399D01*
X125017711Y-31973399D01*
X125182442Y-31919874D01*
X125182442Y-31919873D01*
X125182445Y-31919873D01*
X125336788Y-31841232D01*
X125476928Y-31739414D01*
X125599414Y-31616928D01*
X125701232Y-31476788D01*
X125779873Y-31322445D01*
X125833402Y-31157701D01*
X125860500Y-30986611D01*
X125860500Y-29013389D01*
X125860500Y-29013388D01*
X127469500Y-29013388D01*
X127469500Y-30986611D01*
X127496597Y-31157698D01*
X127496600Y-31157711D01*
X127550125Y-31322442D01*
X127550127Y-31322446D01*
X127628767Y-31476787D01*
X127628768Y-31476788D01*
X127730586Y-31616928D01*
X127853072Y-31739414D01*
X127853075Y-31739416D01*
X127853076Y-31739417D01*
X127993212Y-31841232D01*
X128147553Y-31919872D01*
X128147557Y-31919874D01*
X128312288Y-31973399D01*
X128312294Y-31973400D01*
X128312299Y-31973402D01*
X128414329Y-31989562D01*
X128483388Y-32000500D01*
X128483389Y-32000500D01*
X128656612Y-32000500D01*
X128699383Y-31993725D01*
X128827701Y-31973402D01*
X128827708Y-31973399D01*
X128827711Y-31973399D01*
X128992442Y-31919874D01*
X128992442Y-31919873D01*
X128992445Y-31919873D01*
X129146788Y-31841232D01*
X129286928Y-31739414D01*
X129409414Y-31616928D01*
X129511232Y-31476788D01*
X129589873Y-31322445D01*
X129643402Y-31157701D01*
X129670500Y-30986611D01*
X129670500Y-29013389D01*
X129670500Y-29013388D01*
X131279500Y-29013388D01*
X131279500Y-30986611D01*
X131306597Y-31157698D01*
X131306600Y-31157711D01*
X131360125Y-31322442D01*
X131360127Y-31322446D01*
X131438767Y-31476787D01*
X131438768Y-31476788D01*
X131540586Y-31616928D01*
X131663072Y-31739414D01*
X131663075Y-31739416D01*
X131663076Y-31739417D01*
X131803212Y-31841232D01*
X131957553Y-31919872D01*
X131957557Y-31919874D01*
X132122288Y-31973399D01*
X132122294Y-31973400D01*
X132122299Y-31973402D01*
X132224329Y-31989562D01*
X132293388Y-32000500D01*
X132293389Y-32000500D01*
X132466612Y-32000500D01*
X132509383Y-31993725D01*
X132637701Y-31973402D01*
X132637708Y-31973399D01*
X132637711Y-31973399D01*
X132802442Y-31919874D01*
X132802442Y-31919873D01*
X132802445Y-31919873D01*
X132956788Y-31841232D01*
X133096928Y-31739414D01*
X133219414Y-31616928D01*
X133321232Y-31476788D01*
X133399873Y-31322445D01*
X133453402Y-31157701D01*
X133480500Y-30986611D01*
X133480500Y-29013389D01*
X133480500Y-29013388D01*
X135089500Y-29013388D01*
X135089500Y-30986611D01*
X135116597Y-31157698D01*
X135116600Y-31157711D01*
X135170125Y-31322442D01*
X135170127Y-31322446D01*
X135248767Y-31476787D01*
X135248768Y-31476788D01*
X135350586Y-31616928D01*
X135473072Y-31739414D01*
X135473075Y-31739416D01*
X135473076Y-31739417D01*
X135613212Y-31841232D01*
X135767553Y-31919872D01*
X135767557Y-31919874D01*
X135932288Y-31973399D01*
X135932294Y-31973400D01*
X135932299Y-31973402D01*
X136034329Y-31989562D01*
X136103388Y-32000500D01*
X136103389Y-32000500D01*
X136276612Y-32000500D01*
X136319383Y-31993725D01*
X136447701Y-31973402D01*
X136447708Y-31973399D01*
X136447711Y-31973399D01*
X136612442Y-31919874D01*
X136612442Y-31919873D01*
X136612445Y-31919873D01*
X136766788Y-31841232D01*
X136906928Y-31739414D01*
X137029414Y-31616928D01*
X137131232Y-31476788D01*
X137209873Y-31322445D01*
X137263402Y-31157701D01*
X137290500Y-30986611D01*
X137290500Y-29013389D01*
X137263402Y-28842299D01*
X137263400Y-28842294D01*
X137263399Y-28842288D01*
X137209874Y-28677557D01*
X137209872Y-28677553D01*
X137131232Y-28523212D01*
X137038614Y-28395734D01*
X138899500Y-28395734D01*
X138899500Y-31604266D01*
X138902354Y-31634699D01*
X138902354Y-31634701D01*
X138902355Y-31634704D01*
X138947206Y-31762881D01*
X138947207Y-31762883D01*
X139027846Y-31872146D01*
X139027853Y-31872153D01*
X139137116Y-31952792D01*
X139137118Y-31952793D01*
X139265295Y-31997644D01*
X139265301Y-31997646D01*
X139295734Y-32000500D01*
X139295741Y-32000500D01*
X140704258Y-32000500D01*
X140704266Y-32000500D01*
X140734699Y-31997646D01*
X140862882Y-31952793D01*
X140972150Y-31872150D01*
X141052793Y-31762882D01*
X141097646Y-31634699D01*
X141100500Y-31604266D01*
X141100500Y-28395734D01*
X141097646Y-28365301D01*
X141052793Y-28237118D01*
X141052792Y-28237116D01*
X140972153Y-28127853D01*
X140972146Y-28127846D01*
X140862883Y-28047207D01*
X140862881Y-28047206D01*
X140734704Y-28002355D01*
X140734705Y-28002355D01*
X140734700Y-28002354D01*
X140734699Y-28002354D01*
X140704266Y-27999500D01*
X139295734Y-27999500D01*
X139265301Y-28002354D01*
X139265299Y-28002354D01*
X139265295Y-28002355D01*
X139137118Y-28047206D01*
X139137116Y-28047207D01*
X139027853Y-28127846D01*
X139027846Y-28127853D01*
X138947207Y-28237116D01*
X138947206Y-28237118D01*
X138902355Y-28365295D01*
X138902354Y-28365299D01*
X138902354Y-28365301D01*
X138899500Y-28395734D01*
X137038614Y-28395734D01*
X137029417Y-28383076D01*
X137029416Y-28383075D01*
X137029414Y-28383072D01*
X136906928Y-28260586D01*
X136906925Y-28260583D01*
X136906923Y-28260582D01*
X136766787Y-28158767D01*
X136612446Y-28080127D01*
X136612442Y-28080125D01*
X136447711Y-28026600D01*
X136447698Y-28026597D01*
X136276612Y-27999500D01*
X136276611Y-27999500D01*
X136103389Y-27999500D01*
X136103388Y-27999500D01*
X135932301Y-28026597D01*
X135932288Y-28026600D01*
X135767557Y-28080125D01*
X135767553Y-28080127D01*
X135613212Y-28158767D01*
X135473076Y-28260582D01*
X135350582Y-28383076D01*
X135248767Y-28523212D01*
X135170127Y-28677553D01*
X135170125Y-28677557D01*
X135116600Y-28842288D01*
X135116597Y-28842301D01*
X135089500Y-29013388D01*
X133480500Y-29013388D01*
X133453402Y-28842299D01*
X133453400Y-28842294D01*
X133453399Y-28842288D01*
X133399874Y-28677557D01*
X133399872Y-28677553D01*
X133321232Y-28523212D01*
X133219417Y-28383076D01*
X133219416Y-28383075D01*
X133219414Y-28383072D01*
X133096928Y-28260586D01*
X133096925Y-28260583D01*
X133096923Y-28260582D01*
X132956787Y-28158767D01*
X132802446Y-28080127D01*
X132802442Y-28080125D01*
X132637711Y-28026600D01*
X132637698Y-28026597D01*
X132466612Y-27999500D01*
X132466611Y-27999500D01*
X132293389Y-27999500D01*
X132293388Y-27999500D01*
X132122301Y-28026597D01*
X132122288Y-28026600D01*
X131957557Y-28080125D01*
X131957553Y-28080127D01*
X131803212Y-28158767D01*
X131663076Y-28260582D01*
X131540582Y-28383076D01*
X131438767Y-28523212D01*
X131360127Y-28677553D01*
X131360125Y-28677557D01*
X131306600Y-28842288D01*
X131306597Y-28842301D01*
X131279500Y-29013388D01*
X129670500Y-29013388D01*
X129643402Y-28842299D01*
X129643400Y-28842294D01*
X129643399Y-28842288D01*
X129589874Y-28677557D01*
X129589872Y-28677553D01*
X129511232Y-28523212D01*
X129409417Y-28383076D01*
X129409416Y-28383075D01*
X129409414Y-28383072D01*
X129286928Y-28260586D01*
X129286925Y-28260583D01*
X129286923Y-28260582D01*
X129146787Y-28158767D01*
X128992446Y-28080127D01*
X128992442Y-28080125D01*
X128827711Y-28026600D01*
X128827698Y-28026597D01*
X128656612Y-27999500D01*
X128656611Y-27999500D01*
X128483389Y-27999500D01*
X128483388Y-27999500D01*
X128312301Y-28026597D01*
X128312288Y-28026600D01*
X128147557Y-28080125D01*
X128147553Y-28080127D01*
X127993212Y-28158767D01*
X127853076Y-28260582D01*
X127730582Y-28383076D01*
X127628767Y-28523212D01*
X127550127Y-28677553D01*
X127550125Y-28677557D01*
X127496600Y-28842288D01*
X127496597Y-28842301D01*
X127469500Y-29013388D01*
X125860500Y-29013388D01*
X125833402Y-28842299D01*
X125833400Y-28842294D01*
X125833399Y-28842288D01*
X125779874Y-28677557D01*
X125779872Y-28677553D01*
X125701232Y-28523212D01*
X125599417Y-28383076D01*
X125599416Y-28383075D01*
X125599414Y-28383072D01*
X125476928Y-28260586D01*
X125476925Y-28260583D01*
X125476923Y-28260582D01*
X125336787Y-28158767D01*
X125182446Y-28080127D01*
X125182442Y-28080125D01*
X125017711Y-28026600D01*
X125017698Y-28026597D01*
X124846612Y-27999500D01*
X124846611Y-27999500D01*
X124673389Y-27999500D01*
X124673388Y-27999500D01*
X124502301Y-28026597D01*
X124502288Y-28026600D01*
X124337557Y-28080125D01*
X124337553Y-28080127D01*
X124183212Y-28158767D01*
X124043076Y-28260582D01*
X123920582Y-28383076D01*
X123818767Y-28523212D01*
X123740127Y-28677553D01*
X123740125Y-28677557D01*
X123686600Y-28842288D01*
X123686597Y-28842301D01*
X123659500Y-29013388D01*
X122050500Y-29013388D01*
X122023402Y-28842299D01*
X122023400Y-28842294D01*
X122023399Y-28842288D01*
X121969874Y-28677557D01*
X121969872Y-28677553D01*
X121891232Y-28523212D01*
X121789417Y-28383076D01*
X121789416Y-28383075D01*
X121789414Y-28383072D01*
X121666928Y-28260586D01*
X121666925Y-28260583D01*
X121666923Y-28260582D01*
X121526787Y-28158767D01*
X121372446Y-28080127D01*
X121372442Y-28080125D01*
X121207711Y-28026600D01*
X121207698Y-28026597D01*
X121036612Y-27999500D01*
X121036611Y-27999500D01*
X120863389Y-27999500D01*
X120863388Y-27999500D01*
X120692301Y-28026597D01*
X120692288Y-28026600D01*
X120527557Y-28080125D01*
X120527553Y-28080127D01*
X120373212Y-28158767D01*
X120233076Y-28260582D01*
X120110582Y-28383076D01*
X120008767Y-28523212D01*
X119930127Y-28677553D01*
X119930125Y-28677557D01*
X119876600Y-28842288D01*
X119876597Y-28842301D01*
X119849500Y-29013388D01*
X118240500Y-29013388D01*
X118213402Y-28842299D01*
X118213400Y-28842294D01*
X118213399Y-28842288D01*
X118159874Y-28677557D01*
X118159872Y-28677553D01*
X118081232Y-28523212D01*
X117979417Y-28383076D01*
X117979416Y-28383075D01*
X117979414Y-28383072D01*
X117856928Y-28260586D01*
X117856925Y-28260583D01*
X117856923Y-28260582D01*
X117716787Y-28158767D01*
X117562446Y-28080127D01*
X117562442Y-28080125D01*
X117397711Y-28026600D01*
X117397698Y-28026597D01*
X117226612Y-27999500D01*
X117226611Y-27999500D01*
X117053389Y-27999500D01*
X117053388Y-27999500D01*
X116882301Y-28026597D01*
X116882288Y-28026600D01*
X116717557Y-28080125D01*
X116717553Y-28080127D01*
X116563212Y-28158767D01*
X116423076Y-28260582D01*
X116300582Y-28383076D01*
X116198767Y-28523212D01*
X116120127Y-28677553D01*
X116120125Y-28677557D01*
X116066600Y-28842288D01*
X116066597Y-28842301D01*
X116039500Y-29013388D01*
X114430500Y-29013388D01*
X114403402Y-28842299D01*
X114403400Y-28842294D01*
X114403399Y-28842288D01*
X114349874Y-28677557D01*
X114349872Y-28677553D01*
X114271232Y-28523212D01*
X114169417Y-28383076D01*
X114169416Y-28383075D01*
X114169414Y-28383072D01*
X114046928Y-28260586D01*
X114046925Y-28260583D01*
X114046923Y-28260582D01*
X113906787Y-28158767D01*
X113752446Y-28080127D01*
X113752442Y-28080125D01*
X113587711Y-28026600D01*
X113587698Y-28026597D01*
X113416612Y-27999500D01*
X113416611Y-27999500D01*
X113243389Y-27999500D01*
X113243388Y-27999500D01*
X113072301Y-28026597D01*
X113072288Y-28026600D01*
X112907557Y-28080125D01*
X112907553Y-28080127D01*
X112753212Y-28158767D01*
X112613076Y-28260582D01*
X112490582Y-28383076D01*
X112388767Y-28523212D01*
X112310127Y-28677553D01*
X112310125Y-28677557D01*
X112256600Y-28842288D01*
X112256597Y-28842301D01*
X112229500Y-29013388D01*
X110550500Y-29013388D01*
X110550500Y-21624500D01*
X110572174Y-21572174D01*
X110624500Y-21550500D01*
X179375500Y-21550500D01*
X179427826Y-21572174D01*
G37*
%TD.AperFunction*%
%TD*%
M02*
