M48
; DRILL file {KiCad 8.0.5-8.0.5-0~ubuntu24.04.1} date 2024-10-26T16:27:11+0300
; FORMAT={-:-/ absolute / metric / decimal}
; #@! TF.CreationDate,2024-10-26T16:27:11+03:00
; #@! TF.GenerationSoftware,Kicad,Pcbnew,8.0.5-8.0.5-0~ubuntu24.04.1
; #@! TF.FileFunction,Plated,1,2,PTH
FMAT,2
METRIC
; #@! TA.AperFunction,Plated,PTH,ViaDrill
T1C0.300
; #@! TA.AperFunction,Plated,PTH,ComponentDrill
T2C0.300
; #@! TA.AperFunction,Plated,PTH,ComponentDrill
T3C1.000
; #@! TA.AperFunction,Plated,PTH,ComponentDrill
T4C1.100
; #@! TA.AperFunction,Plated,PTH,ComponentDrill
T5C1.200
%
G90
G05
T1
X117.0Y-70.0
X118.0Y-113.75
X119.0Y-70.0
X119.0Y-132.75
X120.0Y-132.75
X120.5Y-37.5
X121.0Y-70.0
X121.0Y-132.75
X121.75Y-37.5
X123.0Y-37.5
X124.0Y-62.0
X124.0Y-126.0
X124.25Y-37.5
X124.25Y-58.5
X125.0Y-43.0
X125.0Y-53.0
X125.5Y-37.5
X125.5Y-58.5
X126.0Y-43.0
X126.0Y-53.0
X126.0Y-62.0
X126.75Y-58.5
X126.75Y-132.75
X126.75Y-133.75
X126.75Y-134.75
X126.75Y-135.75
X126.75Y-136.75
X128.0Y-58.5
X129.25Y-58.5
X130.0Y-93.0
X130.0Y-94.0
X130.0Y-95.0
X130.5Y-58.5
X131.75Y-58.5
X133.0Y-58.5
X133.0Y-81.0
X133.0Y-82.0
X133.0Y-83.0
X133.0Y-89.0
X133.0Y-90.0
X134.0Y-43.0
X134.0Y-48.0
X134.0Y-53.0
X134.25Y-58.5
X134.5Y-37.5
X134.95Y-66.75
X135.0Y-43.0
X135.0Y-48.0
X135.0Y-53.0
X135.75Y-37.5
X136.0Y-43.0
X136.0Y-48.0
X136.0Y-53.0
X136.0Y-133.75
X136.0Y-135.75
X136.0Y-139.0
X138.25Y-66.75
X142.75Y-61.5
X142.75Y-66.5
X142.75Y-100.75
X143.0Y-106.2
X143.75Y-61.5
X143.75Y-66.5
X144.0Y-84.0
X144.25Y-124.75
X144.5Y-43.0
X144.5Y-47.0
X144.75Y-61.5
X144.75Y-66.5
X145.25Y-124.75
X145.75Y-41.0
X145.75Y-43.0
X145.75Y-45.0
X145.75Y-47.0
X146.25Y-124.75
X146.5Y-52.25
X158.0Y-48.5
X158.0Y-80.0
X158.0Y-87.0
X158.0Y-97.0
X158.0Y-107.0
X158.0Y-117.0
X158.0Y-127.0
X158.0Y-137.0
X159.0Y-80.0
X159.0Y-87.0
X159.0Y-97.0
X159.0Y-107.0
X159.0Y-117.0
X159.0Y-127.0
X159.0Y-137.0
X160.0Y-80.0
X160.0Y-87.0
X160.0Y-97.0
X160.0Y-107.0
X160.0Y-117.0
X160.0Y-127.0
X160.0Y-137.0
T2
X132.425Y-94.0
X133.0Y-93.05
X133.0Y-94.95
X133.575Y-94.0
T3
X120.0Y-145.0
X120.0Y-147.54
X142.0Y-112.0
X144.54Y-112.0
T4
X115.0Y-92.46
X115.0Y-95.0
X115.0Y-97.54
X115.0Y-102.46
X115.0Y-105.0
X115.0Y-107.54
X120.11Y-32.0
X122.65Y-32.0
X125.19Y-32.0
X127.73Y-32.0
X130.27Y-32.0
X132.81Y-32.0
X135.35Y-32.0
X137.89Y-32.0
X142.11Y-32.0
X144.65Y-32.0
X147.19Y-32.0
X149.73Y-32.0
X152.27Y-32.0
X154.81Y-32.0
X157.35Y-32.0
X159.89Y-32.0
T5
X148.75Y-49.75
X148.75Y-54.25
X155.25Y-49.75
X155.25Y-54.25
X160.75Y-49.75
X160.75Y-54.25
X167.25Y-49.75
X167.25Y-54.25
M30
