G04 #@! TF.GenerationSoftware,KiCad,Pcbnew,8.0.5-8.0.5-0~ubuntu24.04.1*
G04 #@! TF.CreationDate,2024-10-26T16:25:55+03:00*
G04 #@! TF.ProjectId,esp32-main,65737033-322d-46d6-9169-6e2e6b696361,B*
G04 #@! TF.SameCoordinates,Original*
G04 #@! TF.FileFunction,Soldermask,Top*
G04 #@! TF.FilePolarity,Negative*
%FSLAX46Y46*%
G04 Gerber Fmt 4.6, Leading zero omitted, Abs format (unit mm)*
G04 Created by KiCad (PCBNEW 8.0.5-8.0.5-0~ubuntu24.04.1) date 2024-10-26 16:25:55*
%MOMM*%
%LPD*%
G01*
G04 APERTURE LIST*
G04 Aperture macros list*
%AMRoundRect*
0 Rectangle with rounded corners*
0 $1 Rounding radius*
0 $2 $3 $4 $5 $6 $7 $8 $9 X,Y pos of 4 corners*
0 Add a 4 corners polygon primitive as box body*
4,1,4,$2,$3,$4,$5,$6,$7,$8,$9,$2,$3,0*
0 Add four circle primitives for the rounded corners*
1,1,$1+$1,$2,$3*
1,1,$1+$1,$4,$5*
1,1,$1+$1,$6,$7*
1,1,$1+$1,$8,$9*
0 Add four rect primitives between the rounded corners*
20,1,$1+$1,$2,$3,$4,$5,0*
20,1,$1+$1,$4,$5,$6,$7,0*
20,1,$1+$1,$6,$7,$8,$9,0*
20,1,$1+$1,$8,$9,$2,$3,0*%
%AMFreePoly0*
4,1,21,-0.125000,1.200000,0.125000,1.200000,0.125000,1.700000,0.375000,1.700000,0.375000,1.200000,0.825000,1.200000,0.825000,-1.200000,0.375000,-1.200000,0.375000,-1.700000,0.125000,-1.700000,0.125000,-1.200000,-0.125000,-1.200000,-0.125000,-1.700000,-0.375000,-1.700000,-0.375000,-1.200000,-0.825000,-1.200000,-0.825000,1.200000,-0.375000,1.200000,-0.375000,1.700000,-0.125000,1.700000,
-0.125000,1.200000,-0.125000,1.200000,$1*%
G04 Aperture macros list end*
%ADD10RoundRect,0.237500X-0.237500X0.250000X-0.237500X-0.250000X0.237500X-0.250000X0.237500X0.250000X0*%
%ADD11RoundRect,0.237500X-0.250000X-0.237500X0.250000X-0.237500X0.250000X0.237500X-0.250000X0.237500X0*%
%ADD12C,2.200000*%
%ADD13R,2.200000X2.200000*%
%ADD14RoundRect,0.250000X-1.050000X-0.550000X1.050000X-0.550000X1.050000X0.550000X-1.050000X0.550000X0*%
%ADD15R,5.689600X1.600200*%
%ADD16RoundRect,0.237500X0.237500X-0.250000X0.237500X0.250000X-0.237500X0.250000X-0.237500X-0.250000X0*%
%ADD17RoundRect,0.237500X-0.300000X-0.237500X0.300000X-0.237500X0.300000X0.237500X-0.300000X0.237500X0*%
%ADD18C,1.100000*%
%ADD19RoundRect,0.150000X0.587500X0.150000X-0.587500X0.150000X-0.587500X-0.150000X0.587500X-0.150000X0*%
%ADD20R,0.450000X1.380000*%
%ADD21R,2.375000X1.900000*%
%ADD22R,1.475000X2.100000*%
%ADD23R,1.175000X1.900000*%
%ADD24RoundRect,0.237500X0.237500X-0.300000X0.237500X0.300000X-0.237500X0.300000X-0.237500X-0.300000X0*%
%ADD25C,3.200000*%
%ADD26RoundRect,0.237500X0.237500X-0.287500X0.237500X0.287500X-0.237500X0.287500X-0.237500X-0.287500X0*%
%ADD27RoundRect,0.150000X0.512500X0.150000X-0.512500X0.150000X-0.512500X-0.150000X0.512500X-0.150000X0*%
%ADD28R,1.700000X1.700000*%
%ADD29O,1.700000X1.700000*%
%ADD30RoundRect,0.237500X-0.237500X0.300000X-0.237500X-0.300000X0.237500X-0.300000X0.237500X0.300000X0*%
%ADD31RoundRect,0.250000X-0.550000X1.050000X-0.550000X-1.050000X0.550000X-1.050000X0.550000X1.050000X0*%
%ADD32RoundRect,0.237500X0.300000X0.237500X-0.300000X0.237500X-0.300000X-0.237500X0.300000X-0.237500X0*%
%ADD33RoundRect,0.237500X0.287500X0.237500X-0.287500X0.237500X-0.287500X-0.237500X0.287500X-0.237500X0*%
%ADD34RoundRect,0.062500X-0.287500X-0.062500X0.287500X-0.062500X0.287500X0.062500X-0.287500X0.062500X0*%
%ADD35R,0.640000X2.400000*%
%ADD36R,2.400000X0.740000*%
%ADD37R,0.900000X0.900000*%
%ADD38R,0.900000X1.500000*%
%ADD39RoundRect,0.237500X0.250000X0.237500X-0.250000X0.237500X-0.250000X-0.237500X0.250000X-0.237500X0*%
%ADD40R,1.200000X0.400000*%
%ADD41RoundRect,0.250000X0.550000X-1.050000X0.550000X1.050000X-0.550000X1.050000X-0.550000X-1.050000X0*%
%ADD42RoundRect,0.150000X0.150000X-0.587500X0.150000X0.587500X-0.150000X0.587500X-0.150000X-0.587500X0*%
%ADD43RoundRect,0.237500X-0.237500X0.287500X-0.237500X-0.287500X0.237500X-0.287500X0.237500X0.287500X0*%
%ADD44RoundRect,0.250000X-0.800000X0.450000X-0.800000X-0.450000X0.800000X-0.450000X0.800000X0.450000X0*%
%ADD45R,1.200000X1.200000*%
%ADD46RoundRect,0.150000X-0.512500X-0.150000X0.512500X-0.150000X0.512500X0.150000X-0.512500X0.150000X0*%
%ADD47R,6.350000X7.340000*%
%ADD48C,3.450000*%
%ADD49C,2.390000*%
%ADD50RoundRect,0.250000X1.050000X0.550000X-1.050000X0.550000X-1.050000X-0.550000X1.050000X-0.550000X0*%
%ADD51RoundRect,0.250000X-1.025000X0.875000X-1.025000X-0.875000X1.025000X-0.875000X1.025000X0.875000X0*%
%ADD52RoundRect,0.150000X-0.150000X0.587500X-0.150000X-0.587500X0.150000X-0.587500X0.150000X0.587500X0*%
%ADD53RoundRect,0.060000X-0.240000X-0.060000X0.240000X-0.060000X0.240000X0.060000X-0.240000X0.060000X0*%
%ADD54FreePoly0,0.000000*%
G04 APERTURE END LIST*
D10*
X117000000Y-72912500D03*
X117000000Y-71087500D03*
X137000000Y-122337500D03*
X137000000Y-124162500D03*
D11*
X121087500Y-126000000D03*
X122912500Y-126000000D03*
D12*
X160750000Y-49750000D03*
X167250000Y-49750000D03*
X160750000Y-54250000D03*
D13*
X167250000Y-54250000D03*
D12*
X148750000Y-49750000D03*
X155250000Y-49750000D03*
X148750000Y-54250000D03*
D13*
X155250000Y-54250000D03*
D14*
X138200000Y-133000000D03*
X141800000Y-133000000D03*
D15*
X126000000Y-96349500D03*
X126000000Y-91650500D03*
D11*
X137912500Y-95000000D03*
X136087500Y-95000000D03*
D16*
X131000000Y-127912500D03*
X131000000Y-126087500D03*
D11*
X137912500Y-89000000D03*
X136087500Y-89000000D03*
D17*
X136137500Y-93000000D03*
X137862500Y-93000000D03*
D18*
X112460000Y-102460000D03*
X112460000Y-105000000D03*
X112460000Y-107540000D03*
D13*
X115000000Y-102460000D03*
D12*
X115000000Y-105000000D03*
X115000000Y-107540000D03*
D10*
X119000000Y-71087500D03*
X119000000Y-72912500D03*
D19*
X123937500Y-103950000D03*
X123937500Y-102050000D03*
X122062500Y-103000000D03*
D20*
X130700000Y-151340000D03*
X131350000Y-151340000D03*
X132000000Y-151340000D03*
X132650000Y-151340000D03*
X133300000Y-151340000D03*
D21*
X134912500Y-154000000D03*
D22*
X134462500Y-151700000D03*
D23*
X132837500Y-154000000D03*
X131162500Y-154000000D03*
D22*
X129537500Y-151700000D03*
D21*
X129087500Y-154000000D03*
D24*
X145000000Y-120137500D03*
X145000000Y-121862500D03*
D25*
X167000000Y-31000000D03*
D17*
X141137500Y-120000000D03*
X142862500Y-120000000D03*
D26*
X129000000Y-126125000D03*
X129000000Y-127875000D03*
D14*
X128200000Y-69000000D03*
X131800000Y-69000000D03*
D16*
X126000000Y-123912500D03*
X126000000Y-122087500D03*
D27*
X128862500Y-123950000D03*
X128862500Y-122050000D03*
X131137500Y-122050000D03*
X131137500Y-123000000D03*
X131137500Y-123950000D03*
D11*
X143912500Y-79000000D03*
X142087500Y-79000000D03*
D28*
X120000000Y-145000000D03*
D29*
X120000000Y-147540000D03*
D30*
X123000000Y-64862500D03*
X123000000Y-63137500D03*
D10*
X133000000Y-144912500D03*
X133000000Y-143087500D03*
D31*
X129000000Y-84200000D03*
X129000000Y-87800000D03*
D10*
X136000000Y-82912500D03*
X136000000Y-81087500D03*
D32*
X119137500Y-61000000D03*
X120862500Y-61000000D03*
D17*
X133862500Y-100000000D03*
X132137500Y-100000000D03*
D16*
X125000000Y-63087500D03*
X125000000Y-64912500D03*
D33*
X124875000Y-138000000D03*
X123125000Y-138000000D03*
D34*
X141075000Y-122000000D03*
X141075000Y-122500000D03*
X141075000Y-123000000D03*
X141075000Y-123500000D03*
X141075000Y-124000000D03*
X142925000Y-124000000D03*
X142925000Y-123500000D03*
X142925000Y-123000000D03*
X142925000Y-122500000D03*
X142925000Y-122000000D03*
D35*
X142000000Y-123000000D03*
D36*
X156050000Y-41460000D03*
X159950000Y-41460000D03*
X156050000Y-42730000D03*
X159950000Y-42730000D03*
X156050000Y-44000000D03*
X159950000Y-44000000D03*
X156050000Y-45270000D03*
X159950000Y-45270000D03*
X156050000Y-46540000D03*
X159950000Y-46540000D03*
D37*
X129000000Y-48000000D03*
X127600000Y-48000000D03*
X126200000Y-48000000D03*
X129000000Y-49400000D03*
X127600000Y-49400000D03*
X126200000Y-49400000D03*
X129000000Y-50800000D03*
X127600000Y-50800000D03*
X126200000Y-50805000D03*
D38*
X119805000Y-39150000D03*
X121075000Y-39150000D03*
X122345000Y-39150000D03*
X123615000Y-39150000D03*
X124885000Y-39150000D03*
X126155000Y-39150000D03*
X127425000Y-39150000D03*
X128695000Y-39150000D03*
X129965000Y-39150000D03*
X131235000Y-39150000D03*
X132505000Y-39150000D03*
X133775000Y-39150000D03*
X135045000Y-39150000D03*
X136315000Y-39150000D03*
X137585000Y-39150000D03*
X138855000Y-39150000D03*
X140125000Y-39150000D03*
X141395000Y-39150000D03*
X142665000Y-39150000D03*
X142665000Y-56650000D03*
X141395000Y-56650000D03*
X140125000Y-56650000D03*
X138855000Y-56650000D03*
X137585000Y-56650000D03*
X136315000Y-56650000D03*
X135045000Y-56650000D03*
X133775000Y-56650000D03*
X132505000Y-56650000D03*
X131235000Y-56650000D03*
X129965000Y-56650000D03*
X128695000Y-56650000D03*
X127425000Y-56650000D03*
X126155000Y-56650000D03*
X124885000Y-56650000D03*
X123615000Y-56650000D03*
X122345000Y-56650000D03*
X121075000Y-56650000D03*
X119805000Y-56650000D03*
D39*
X150087500Y-47000000D03*
X151912500Y-47000000D03*
D25*
X113000000Y-31000000D03*
D28*
X142000000Y-112000000D03*
D29*
X144540000Y-112000000D03*
D39*
X150087500Y-45000000D03*
X151912500Y-45000000D03*
D11*
X141912500Y-106000000D03*
X140087500Y-106000000D03*
D40*
X129400000Y-134142500D03*
X129400000Y-134777500D03*
X129400000Y-135412500D03*
X129400000Y-136047500D03*
X129400000Y-136682500D03*
X129400000Y-137317500D03*
X129400000Y-137952500D03*
X129400000Y-138587500D03*
X129400000Y-139222500D03*
X129400000Y-139857500D03*
X134600000Y-139857500D03*
X134600000Y-139222500D03*
X134600000Y-138587500D03*
X134600000Y-137952500D03*
X134600000Y-137317500D03*
X134600000Y-136682500D03*
X134600000Y-136047500D03*
X134600000Y-135412500D03*
X134600000Y-134777500D03*
X134600000Y-134142500D03*
D41*
X126000000Y-115200000D03*
X126000000Y-118800000D03*
D39*
X150087500Y-43000000D03*
X151912500Y-43000000D03*
D33*
X124875000Y-136000000D03*
X123125000Y-136000000D03*
D17*
X137137500Y-137000000D03*
X138862500Y-137000000D03*
D42*
X118000000Y-117062500D03*
X118950000Y-118937500D03*
X117050000Y-118937500D03*
D12*
X142110000Y-32000000D03*
X144650000Y-32000000D03*
X147190000Y-32000000D03*
X149730000Y-32000000D03*
X152270000Y-32000000D03*
X154810000Y-32000000D03*
X157350000Y-32000000D03*
D13*
X159890000Y-32000000D03*
D43*
X138000000Y-81125000D03*
X138000000Y-82875000D03*
D11*
X136912500Y-70000000D03*
X135087500Y-70000000D03*
D17*
X130862500Y-120000000D03*
X129137500Y-120000000D03*
D39*
X119087500Y-136000000D03*
X120912500Y-136000000D03*
D32*
X124862500Y-147000000D03*
X123137500Y-147000000D03*
D10*
X131000000Y-144912500D03*
X131000000Y-143087500D03*
D25*
X167000000Y-152000000D03*
D32*
X129137500Y-147000000D03*
X130862500Y-147000000D03*
D44*
X118000000Y-126200000D03*
X118000000Y-121800000D03*
D11*
X123912500Y-106000000D03*
X122087500Y-106000000D03*
D42*
X133050000Y-64937500D03*
X134950000Y-64937500D03*
X134000000Y-63062500D03*
D45*
X125050000Y-145000000D03*
X122950000Y-145000000D03*
D46*
X131137500Y-63050000D03*
X131137500Y-64950000D03*
X128862500Y-64950000D03*
X128862500Y-64000000D03*
X128862500Y-63050000D03*
D39*
X135087500Y-68000000D03*
X136912500Y-68000000D03*
X151912500Y-41000000D03*
X150087500Y-41000000D03*
D17*
X128137500Y-81000000D03*
X129862500Y-81000000D03*
D11*
X155912500Y-57000000D03*
X154087500Y-57000000D03*
D44*
X165000000Y-44200000D03*
X165000000Y-39800000D03*
D25*
X113000000Y-152000000D03*
D32*
X137862500Y-87000000D03*
X136137500Y-87000000D03*
D42*
X137050000Y-64937500D03*
X138950000Y-64937500D03*
X138000000Y-63062500D03*
D47*
X159000000Y-67670000D03*
X159000000Y-146330000D03*
D48*
X151000000Y-79400000D03*
X167000000Y-134600000D03*
D49*
X151000000Y-142930000D03*
D50*
X119800000Y-65000000D03*
X116200000Y-65000000D03*
D39*
X136087500Y-91000000D03*
X137912500Y-91000000D03*
D44*
X145000000Y-101800000D03*
X145000000Y-106200000D03*
D41*
X138000000Y-118800000D03*
X138000000Y-115200000D03*
D44*
X127000000Y-101800000D03*
X127000000Y-106200000D03*
D19*
X141937500Y-103950000D03*
X141937500Y-102050000D03*
X140062500Y-103000000D03*
D30*
X139000000Y-122387500D03*
X139000000Y-124112500D03*
D19*
X121062500Y-123000000D03*
X122937500Y-122050000D03*
X122937500Y-123950000D03*
D17*
X165862500Y-47000000D03*
X164137500Y-47000000D03*
D18*
X112460000Y-92460000D03*
X112460000Y-95000000D03*
X112460000Y-97540000D03*
D13*
X115000000Y-92460000D03*
D12*
X115000000Y-95000000D03*
X115000000Y-97540000D03*
D10*
X115000000Y-117087500D03*
X115000000Y-118912500D03*
X144000000Y-82912500D03*
X144000000Y-81087500D03*
D51*
X124000000Y-81800000D03*
X124000000Y-88200000D03*
D10*
X121000000Y-72912500D03*
X121000000Y-71087500D03*
D39*
X119087500Y-138000000D03*
X120912500Y-138000000D03*
D32*
X119137500Y-59000000D03*
X120862500Y-59000000D03*
D17*
X133862500Y-98000000D03*
X132137500Y-98000000D03*
D52*
X141950000Y-81062500D03*
X140050000Y-81062500D03*
X141000000Y-82937500D03*
D17*
X137137500Y-139000000D03*
X138862500Y-139000000D03*
D24*
X127000000Y-63137500D03*
X127000000Y-64862500D03*
D14*
X134800000Y-104000000D03*
X131200000Y-104000000D03*
D17*
X133137500Y-147000000D03*
X134862500Y-147000000D03*
D53*
X131600000Y-93000000D03*
X131600000Y-93500000D03*
X131600000Y-94000000D03*
X131600000Y-94500000D03*
X131600000Y-95000000D03*
X134400000Y-95000000D03*
X134400000Y-94500000D03*
X134400000Y-94000000D03*
X134400000Y-93500000D03*
X134400000Y-93000000D03*
D54*
X133000000Y-94000000D03*
D13*
X137890000Y-32000000D03*
D12*
X135350000Y-32000000D03*
X132810000Y-32000000D03*
X130270000Y-32000000D03*
X127730000Y-32000000D03*
X125190000Y-32000000D03*
X122650000Y-32000000D03*
X120110000Y-32000000D03*
M02*
