G04 #@! TF.GenerationSoftware,KiCad,Pcbnew,8.0.5-8.0.5-0~ubuntu24.04.1*
G04 #@! TF.CreationDate,2024-10-05T12:28:55+03:00*
G04 #@! TF.ProjectId,esp32-main,65737033-322d-46d6-9169-6e2e6b696361,A*
G04 #@! TF.SameCoordinates,Original*
G04 #@! TF.FileFunction,Legend,Top*
G04 #@! TF.FilePolarity,Positive*
%FSLAX46Y46*%
G04 Gerber Fmt 4.6, Leading zero omitted, Abs format (unit mm)*
G04 Created by KiCad (PCBNEW 8.0.5-8.0.5-0~ubuntu24.04.1) date 2024-10-05 12:28:55*
%MOMM*%
%LPD*%
G01*
G04 APERTURE LIST*
G04 Aperture macros list*
%AMRoundRect*
0 Rectangle with rounded corners*
0 $1 Rounding radius*
0 $2 $3 $4 $5 $6 $7 $8 $9 X,Y pos of 4 corners*
0 Add a 4 corners polygon primitive as box body*
4,1,4,$2,$3,$4,$5,$6,$7,$8,$9,$2,$3,0*
0 Add four circle primitives for the rounded corners*
1,1,$1+$1,$2,$3*
1,1,$1+$1,$4,$5*
1,1,$1+$1,$6,$7*
1,1,$1+$1,$8,$9*
0 Add four rect primitives between the rounded corners*
20,1,$1+$1,$2,$3,$4,$5,0*
20,1,$1+$1,$4,$5,$6,$7,0*
20,1,$1+$1,$6,$7,$8,$9,0*
20,1,$1+$1,$8,$9,$2,$3,0*%
G04 Aperture macros list end*
%ADD10C,0.100000*%
%ADD11C,0.150000*%
%ADD12C,0.120000*%
%ADD13RoundRect,0.087500X-0.325000X-0.087500X0.325000X-0.087500X0.325000X0.087500X-0.325000X0.087500X0*%
%ADD14RoundRect,0.087500X-0.087500X-0.325000X0.087500X-0.325000X0.087500X0.325000X-0.087500X0.325000X0*%
%ADD15R,2.700000X2.700000*%
%ADD16R,2.200000X2.200000*%
%ADD17C,2.200000*%
%ADD18RoundRect,0.237500X-0.237500X0.300000X-0.237500X-0.300000X0.237500X-0.300000X0.237500X0.300000X0*%
%ADD19R,2.700000X3.600000*%
%ADD20RoundRect,0.237500X0.237500X-0.250000X0.237500X0.250000X-0.237500X0.250000X-0.237500X-0.250000X0*%
%ADD21RoundRect,0.237500X0.250000X0.237500X-0.250000X0.237500X-0.250000X-0.237500X0.250000X-0.237500X0*%
%ADD22RoundRect,0.237500X-0.237500X0.250000X-0.237500X-0.250000X0.237500X-0.250000X0.237500X0.250000X0*%
%ADD23RoundRect,0.237500X-0.300000X-0.237500X0.300000X-0.237500X0.300000X0.237500X-0.300000X0.237500X0*%
%ADD24RoundRect,0.237500X-0.250000X-0.237500X0.250000X-0.237500X0.250000X0.237500X-0.250000X0.237500X0*%
%ADD25RoundRect,0.162500X-0.447500X-0.162500X0.447500X-0.162500X0.447500X0.162500X-0.447500X0.162500X0*%
%ADD26RoundRect,0.250000X0.250000X-0.250000X0.250000X0.250000X-0.250000X0.250000X-0.250000X-0.250000X0*%
%ADD27RoundRect,0.250000X-0.550000X1.050000X-0.550000X-1.050000X0.550000X-1.050000X0.550000X1.050000X0*%
%ADD28RoundRect,0.150000X0.512500X0.150000X-0.512500X0.150000X-0.512500X-0.150000X0.512500X-0.150000X0*%
%ADD29RoundRect,0.250000X0.550000X-1.050000X0.550000X1.050000X-0.550000X1.050000X-0.550000X-1.050000X0*%
%ADD30R,0.450000X1.380000*%
%ADD31R,2.375000X1.900000*%
%ADD32R,1.475000X2.100000*%
%ADD33R,1.175000X1.900000*%
%ADD34RoundRect,0.250000X-0.650000X-1.550000X0.650000X-1.550000X0.650000X1.550000X-0.650000X1.550000X0*%
%ADD35O,1.800000X3.600000*%
%ADD36RoundRect,0.237500X0.237500X-0.300000X0.237500X0.300000X-0.237500X0.300000X-0.237500X-0.300000X0*%
%ADD37RoundRect,0.250000X-1.025000X0.875000X-1.025000X-0.875000X1.025000X-0.875000X1.025000X0.875000X0*%
%ADD38RoundRect,0.237500X0.300000X0.237500X-0.300000X0.237500X-0.300000X-0.237500X0.300000X-0.237500X0*%
%ADD39RoundRect,0.250000X-0.250000X0.250000X-0.250000X-0.250000X0.250000X-0.250000X0.250000X0.250000X0*%
%ADD40R,2.400000X0.740000*%
%ADD41R,0.900000X1.500000*%
%ADD42R,0.900000X0.900000*%
%ADD43RoundRect,0.250001X2.474999X-0.799999X2.474999X0.799999X-2.474999X0.799999X-2.474999X-0.799999X0*%
%ADD44R,1.200000X0.400000*%
%ADD45RoundRect,0.237500X0.287500X0.237500X-0.287500X0.237500X-0.287500X-0.237500X0.287500X-0.237500X0*%
%ADD46RoundRect,0.250000X-1.050000X-0.550000X1.050000X-0.550000X1.050000X0.550000X-1.050000X0.550000X0*%
%ADD47RoundRect,0.150000X0.587500X0.150000X-0.587500X0.150000X-0.587500X-0.150000X0.587500X-0.150000X0*%
%ADD48RoundRect,0.237500X-0.287500X-0.237500X0.287500X-0.237500X0.287500X0.237500X-0.287500X0.237500X0*%
%ADD49RoundRect,0.150000X0.150000X-0.587500X0.150000X0.587500X-0.150000X0.587500X-0.150000X-0.587500X0*%
%ADD50RoundRect,0.150000X-0.512500X-0.150000X0.512500X-0.150000X0.512500X0.150000X-0.512500X0.150000X0*%
%ADD51RoundRect,0.250000X1.050000X0.550000X-1.050000X0.550000X-1.050000X-0.550000X1.050000X-0.550000X0*%
%ADD52RoundRect,0.250000X0.650000X1.550000X-0.650000X1.550000X-0.650000X-1.550000X0.650000X-1.550000X0*%
%ADD53C,2.390000*%
%ADD54C,3.450000*%
%ADD55R,6.350000X7.340000*%
G04 APERTURE END LIST*
D10*
X146000000Y-129000000D02*
X147000000Y-129000000D01*
X116000000Y-79000000D02*
X116000000Y-76000000D01*
X146000000Y-155000000D02*
X147000000Y-155000000D01*
X147000000Y-71000000D02*
X147000000Y-56000000D01*
X174000000Y-55250000D02*
X150000000Y-55250000D01*
X116000000Y-71000000D02*
X116000000Y-34000000D01*
X147000000Y-112000000D02*
X147000000Y-79000000D01*
X146000000Y-113000000D02*
X147000000Y-113000000D01*
X146000000Y-130000000D02*
X147000000Y-130000000D01*
X146000000Y-155000000D02*
X137000000Y-155000000D01*
X125000000Y-113000000D02*
X146000000Y-113000000D01*
X116000000Y-130000000D02*
X146000000Y-130000000D01*
X146000000Y-129000000D02*
X125000000Y-129000000D01*
X116000000Y-112000000D02*
X147000000Y-112000000D01*
X147000000Y-55250000D02*
X150000000Y-55250000D01*
X127000000Y-155000000D02*
X116000000Y-155000000D01*
X116000000Y-129000000D02*
X125000000Y-129000000D01*
X147000000Y-71000000D02*
X147000000Y-74000000D01*
X116000000Y-71000000D02*
X116000000Y-75000000D01*
X116000000Y-129000000D02*
X116000000Y-113000000D01*
X147000000Y-79000000D02*
X147000000Y-76000000D01*
X147000000Y-56000000D02*
X147000000Y-55250000D01*
X116000000Y-34000000D02*
X174000000Y-34000000D01*
X174000000Y-34000000D02*
X174000000Y-55000000D01*
X116000000Y-76000000D02*
X117000000Y-76000000D01*
X147000000Y-74000000D02*
X147000000Y-75000000D01*
X116000000Y-113000000D02*
X125000000Y-113000000D01*
X147000000Y-113000000D02*
X147000000Y-129000000D01*
X174000000Y-55000000D02*
X174000000Y-55250000D01*
X147000000Y-76000000D02*
X117000000Y-76000000D01*
X147000000Y-130000000D02*
X147000000Y-155000000D01*
X116000000Y-79000000D02*
X116000000Y-112000000D01*
X147000000Y-75000000D02*
X116000000Y-75000000D01*
X116000000Y-155000000D02*
X116000000Y-130000000D01*
X141303884Y-73348609D02*
X141637217Y-73348609D01*
X141780074Y-73872419D02*
X141303884Y-73872419D01*
X141303884Y-73872419D02*
X141303884Y-72872419D01*
X141303884Y-72872419D02*
X141780074Y-72872419D01*
X142161027Y-73824800D02*
X142303884Y-73872419D01*
X142303884Y-73872419D02*
X142541979Y-73872419D01*
X142541979Y-73872419D02*
X142637217Y-73824800D01*
X142637217Y-73824800D02*
X142684836Y-73777180D01*
X142684836Y-73777180D02*
X142732455Y-73681942D01*
X142732455Y-73681942D02*
X142732455Y-73586704D01*
X142732455Y-73586704D02*
X142684836Y-73491466D01*
X142684836Y-73491466D02*
X142637217Y-73443847D01*
X142637217Y-73443847D02*
X142541979Y-73396228D01*
X142541979Y-73396228D02*
X142351503Y-73348609D01*
X142351503Y-73348609D02*
X142256265Y-73300990D01*
X142256265Y-73300990D02*
X142208646Y-73253371D01*
X142208646Y-73253371D02*
X142161027Y-73158133D01*
X142161027Y-73158133D02*
X142161027Y-73062895D01*
X142161027Y-73062895D02*
X142208646Y-72967657D01*
X142208646Y-72967657D02*
X142256265Y-72920038D01*
X142256265Y-72920038D02*
X142351503Y-72872419D01*
X142351503Y-72872419D02*
X142589598Y-72872419D01*
X142589598Y-72872419D02*
X142732455Y-72920038D01*
X143161027Y-73872419D02*
X143161027Y-72872419D01*
X143161027Y-72872419D02*
X143541979Y-72872419D01*
X143541979Y-72872419D02*
X143637217Y-72920038D01*
X143637217Y-72920038D02*
X143684836Y-72967657D01*
X143684836Y-72967657D02*
X143732455Y-73062895D01*
X143732455Y-73062895D02*
X143732455Y-73205752D01*
X143732455Y-73205752D02*
X143684836Y-73300990D01*
X143684836Y-73300990D02*
X143637217Y-73348609D01*
X143637217Y-73348609D02*
X143541979Y-73396228D01*
X143541979Y-73396228D02*
X143161027Y-73396228D01*
X144065789Y-72872419D02*
X144684836Y-72872419D01*
X144684836Y-72872419D02*
X144351503Y-73253371D01*
X144351503Y-73253371D02*
X144494360Y-73253371D01*
X144494360Y-73253371D02*
X144589598Y-73300990D01*
X144589598Y-73300990D02*
X144637217Y-73348609D01*
X144637217Y-73348609D02*
X144684836Y-73443847D01*
X144684836Y-73443847D02*
X144684836Y-73681942D01*
X144684836Y-73681942D02*
X144637217Y-73777180D01*
X144637217Y-73777180D02*
X144589598Y-73824800D01*
X144589598Y-73824800D02*
X144494360Y-73872419D01*
X144494360Y-73872419D02*
X144208646Y-73872419D01*
X144208646Y-73872419D02*
X144113408Y-73824800D01*
X144113408Y-73824800D02*
X144065789Y-73777180D01*
X145065789Y-72967657D02*
X145113408Y-72920038D01*
X145113408Y-72920038D02*
X145208646Y-72872419D01*
X145208646Y-72872419D02*
X145446741Y-72872419D01*
X145446741Y-72872419D02*
X145541979Y-72920038D01*
X145541979Y-72920038D02*
X145589598Y-72967657D01*
X145589598Y-72967657D02*
X145637217Y-73062895D01*
X145637217Y-73062895D02*
X145637217Y-73158133D01*
X145637217Y-73158133D02*
X145589598Y-73300990D01*
X145589598Y-73300990D02*
X145018170Y-73872419D01*
X145018170Y-73872419D02*
X145637217Y-73872419D01*
X169780074Y-151262475D02*
X169303884Y-151262475D01*
X169303884Y-151262475D02*
X169256265Y-151738665D01*
X169256265Y-151738665D02*
X169303884Y-151691046D01*
X169303884Y-151691046D02*
X169399122Y-151643427D01*
X169399122Y-151643427D02*
X169637217Y-151643427D01*
X169637217Y-151643427D02*
X169732455Y-151691046D01*
X169732455Y-151691046D02*
X169780074Y-151738665D01*
X169780074Y-151738665D02*
X169827693Y-151833903D01*
X169827693Y-151833903D02*
X169827693Y-152071998D01*
X169827693Y-152071998D02*
X169780074Y-152167236D01*
X169780074Y-152167236D02*
X169732455Y-152214856D01*
X169732455Y-152214856D02*
X169637217Y-152262475D01*
X169637217Y-152262475D02*
X169399122Y-152262475D01*
X169399122Y-152262475D02*
X169303884Y-152214856D01*
X169303884Y-152214856D02*
X169256265Y-152167236D01*
X170113408Y-151262475D02*
X170446741Y-152262475D01*
X170446741Y-152262475D02*
X170780074Y-151262475D01*
X171827694Y-151976760D02*
X172303884Y-151976760D01*
X171732456Y-152262475D02*
X172065789Y-151262475D01*
X172065789Y-151262475D02*
X172399122Y-152262475D01*
X173208646Y-152262475D02*
X172732456Y-152262475D01*
X172732456Y-152262475D02*
X172732456Y-151262475D01*
X173399123Y-151262475D02*
X173970551Y-151262475D01*
X173684837Y-152262475D02*
X173684837Y-151262475D01*
X174303885Y-152167236D02*
X174351504Y-152214856D01*
X174351504Y-152214856D02*
X174303885Y-152262475D01*
X174303885Y-152262475D02*
X174256266Y-152214856D01*
X174256266Y-152214856D02*
X174303885Y-152167236D01*
X174303885Y-152167236D02*
X174303885Y-152262475D01*
X169256265Y-153824800D02*
X169399122Y-153872419D01*
X169399122Y-153872419D02*
X169637217Y-153872419D01*
X169637217Y-153872419D02*
X169732455Y-153824800D01*
X169732455Y-153824800D02*
X169780074Y-153777180D01*
X169780074Y-153777180D02*
X169827693Y-153681942D01*
X169827693Y-153681942D02*
X169827693Y-153586704D01*
X169827693Y-153586704D02*
X169780074Y-153491466D01*
X169780074Y-153491466D02*
X169732455Y-153443847D01*
X169732455Y-153443847D02*
X169637217Y-153396228D01*
X169637217Y-153396228D02*
X169446741Y-153348609D01*
X169446741Y-153348609D02*
X169351503Y-153300990D01*
X169351503Y-153300990D02*
X169303884Y-153253371D01*
X169303884Y-153253371D02*
X169256265Y-153158133D01*
X169256265Y-153158133D02*
X169256265Y-153062895D01*
X169256265Y-153062895D02*
X169303884Y-152967657D01*
X169303884Y-152967657D02*
X169351503Y-152920038D01*
X169351503Y-152920038D02*
X169446741Y-152872419D01*
X169446741Y-152872419D02*
X169684836Y-152872419D01*
X169684836Y-152872419D02*
X169827693Y-152920038D01*
X170446741Y-152872419D02*
X170637217Y-152872419D01*
X170637217Y-152872419D02*
X170732455Y-152920038D01*
X170732455Y-152920038D02*
X170827693Y-153015276D01*
X170827693Y-153015276D02*
X170875312Y-153205752D01*
X170875312Y-153205752D02*
X170875312Y-153539085D01*
X170875312Y-153539085D02*
X170827693Y-153729561D01*
X170827693Y-153729561D02*
X170732455Y-153824800D01*
X170732455Y-153824800D02*
X170637217Y-153872419D01*
X170637217Y-153872419D02*
X170446741Y-153872419D01*
X170446741Y-153872419D02*
X170351503Y-153824800D01*
X170351503Y-153824800D02*
X170256265Y-153729561D01*
X170256265Y-153729561D02*
X170208646Y-153539085D01*
X170208646Y-153539085D02*
X170208646Y-153205752D01*
X170208646Y-153205752D02*
X170256265Y-153015276D01*
X170256265Y-153015276D02*
X170351503Y-152920038D01*
X170351503Y-152920038D02*
X170446741Y-152872419D01*
X171303884Y-152872419D02*
X171303884Y-153681942D01*
X171303884Y-153681942D02*
X171351503Y-153777180D01*
X171351503Y-153777180D02*
X171399122Y-153824800D01*
X171399122Y-153824800D02*
X171494360Y-153872419D01*
X171494360Y-153872419D02*
X171684836Y-153872419D01*
X171684836Y-153872419D02*
X171780074Y-153824800D01*
X171780074Y-153824800D02*
X171827693Y-153777180D01*
X171827693Y-153777180D02*
X171875312Y-153681942D01*
X171875312Y-153681942D02*
X171875312Y-152872419D01*
X172922931Y-153872419D02*
X172589598Y-153396228D01*
X172351503Y-153872419D02*
X172351503Y-152872419D01*
X172351503Y-152872419D02*
X172732455Y-152872419D01*
X172732455Y-152872419D02*
X172827693Y-152920038D01*
X172827693Y-152920038D02*
X172875312Y-152967657D01*
X172875312Y-152967657D02*
X172922931Y-153062895D01*
X172922931Y-153062895D02*
X172922931Y-153205752D01*
X172922931Y-153205752D02*
X172875312Y-153300990D01*
X172875312Y-153300990D02*
X172827693Y-153348609D01*
X172827693Y-153348609D02*
X172732455Y-153396228D01*
X172732455Y-153396228D02*
X172351503Y-153396228D01*
X173922931Y-153777180D02*
X173875312Y-153824800D01*
X173875312Y-153824800D02*
X173732455Y-153872419D01*
X173732455Y-153872419D02*
X173637217Y-153872419D01*
X173637217Y-153872419D02*
X173494360Y-153824800D01*
X173494360Y-153824800D02*
X173399122Y-153729561D01*
X173399122Y-153729561D02*
X173351503Y-153634323D01*
X173351503Y-153634323D02*
X173303884Y-153443847D01*
X173303884Y-153443847D02*
X173303884Y-153300990D01*
X173303884Y-153300990D02*
X173351503Y-153110514D01*
X173351503Y-153110514D02*
X173399122Y-153015276D01*
X173399122Y-153015276D02*
X173494360Y-152920038D01*
X173494360Y-152920038D02*
X173637217Y-152872419D01*
X173637217Y-152872419D02*
X173732455Y-152872419D01*
X173732455Y-152872419D02*
X173875312Y-152920038D01*
X173875312Y-152920038D02*
X173922931Y-152967657D01*
X174351503Y-153348609D02*
X174684836Y-153348609D01*
X174827693Y-153872419D02*
X174351503Y-153872419D01*
X174351503Y-153872419D02*
X174351503Y-152872419D01*
X174351503Y-152872419D02*
X174827693Y-152872419D01*
X138303884Y-152872419D02*
X138303884Y-153681942D01*
X138303884Y-153681942D02*
X138351503Y-153777180D01*
X138351503Y-153777180D02*
X138399122Y-153824800D01*
X138399122Y-153824800D02*
X138494360Y-153872419D01*
X138494360Y-153872419D02*
X138684836Y-153872419D01*
X138684836Y-153872419D02*
X138780074Y-153824800D01*
X138780074Y-153824800D02*
X138827693Y-153777180D01*
X138827693Y-153777180D02*
X138875312Y-153681942D01*
X138875312Y-153681942D02*
X138875312Y-152872419D01*
X139303884Y-153824800D02*
X139446741Y-153872419D01*
X139446741Y-153872419D02*
X139684836Y-153872419D01*
X139684836Y-153872419D02*
X139780074Y-153824800D01*
X139780074Y-153824800D02*
X139827693Y-153777180D01*
X139827693Y-153777180D02*
X139875312Y-153681942D01*
X139875312Y-153681942D02*
X139875312Y-153586704D01*
X139875312Y-153586704D02*
X139827693Y-153491466D01*
X139827693Y-153491466D02*
X139780074Y-153443847D01*
X139780074Y-153443847D02*
X139684836Y-153396228D01*
X139684836Y-153396228D02*
X139494360Y-153348609D01*
X139494360Y-153348609D02*
X139399122Y-153300990D01*
X139399122Y-153300990D02*
X139351503Y-153253371D01*
X139351503Y-153253371D02*
X139303884Y-153158133D01*
X139303884Y-153158133D02*
X139303884Y-153062895D01*
X139303884Y-153062895D02*
X139351503Y-152967657D01*
X139351503Y-152967657D02*
X139399122Y-152920038D01*
X139399122Y-152920038D02*
X139494360Y-152872419D01*
X139494360Y-152872419D02*
X139732455Y-152872419D01*
X139732455Y-152872419D02*
X139875312Y-152920038D01*
X140637217Y-153348609D02*
X140780074Y-153396228D01*
X140780074Y-153396228D02*
X140827693Y-153443847D01*
X140827693Y-153443847D02*
X140875312Y-153539085D01*
X140875312Y-153539085D02*
X140875312Y-153681942D01*
X140875312Y-153681942D02*
X140827693Y-153777180D01*
X140827693Y-153777180D02*
X140780074Y-153824800D01*
X140780074Y-153824800D02*
X140684836Y-153872419D01*
X140684836Y-153872419D02*
X140303884Y-153872419D01*
X140303884Y-153872419D02*
X140303884Y-152872419D01*
X140303884Y-152872419D02*
X140637217Y-152872419D01*
X140637217Y-152872419D02*
X140732455Y-152920038D01*
X140732455Y-152920038D02*
X140780074Y-152967657D01*
X140780074Y-152967657D02*
X140827693Y-153062895D01*
X140827693Y-153062895D02*
X140827693Y-153158133D01*
X140827693Y-153158133D02*
X140780074Y-153253371D01*
X140780074Y-153253371D02*
X140732455Y-153300990D01*
X140732455Y-153300990D02*
X140637217Y-153348609D01*
X140637217Y-153348609D02*
X140303884Y-153348609D01*
X141303884Y-153491466D02*
X142065789Y-153491466D01*
X142541979Y-152872419D02*
X142541979Y-153681942D01*
X142541979Y-153681942D02*
X142589598Y-153777180D01*
X142589598Y-153777180D02*
X142637217Y-153824800D01*
X142637217Y-153824800D02*
X142732455Y-153872419D01*
X142732455Y-153872419D02*
X142922931Y-153872419D01*
X142922931Y-153872419D02*
X143018169Y-153824800D01*
X143018169Y-153824800D02*
X143065788Y-153777180D01*
X143065788Y-153777180D02*
X143113407Y-153681942D01*
X143113407Y-153681942D02*
X143113407Y-152872419D01*
X143541979Y-153586704D02*
X144018169Y-153586704D01*
X143446741Y-153872419D02*
X143780074Y-152872419D01*
X143780074Y-152872419D02*
X144113407Y-153872419D01*
X145018169Y-153872419D02*
X144684836Y-153396228D01*
X144446741Y-153872419D02*
X144446741Y-152872419D01*
X144446741Y-152872419D02*
X144827693Y-152872419D01*
X144827693Y-152872419D02*
X144922931Y-152920038D01*
X144922931Y-152920038D02*
X144970550Y-152967657D01*
X144970550Y-152967657D02*
X145018169Y-153062895D01*
X145018169Y-153062895D02*
X145018169Y-153205752D01*
X145018169Y-153205752D02*
X144970550Y-153300990D01*
X144970550Y-153300990D02*
X144922931Y-153348609D01*
X144922931Y-153348609D02*
X144827693Y-153396228D01*
X144827693Y-153396228D02*
X144446741Y-153396228D01*
X145303884Y-152872419D02*
X145875312Y-152872419D01*
X145589598Y-153872419D02*
X145589598Y-152872419D01*
X117637217Y-114738665D02*
X117780074Y-114786284D01*
X117780074Y-114786284D02*
X117827693Y-114833903D01*
X117827693Y-114833903D02*
X117875312Y-114929141D01*
X117875312Y-114929141D02*
X117875312Y-115071998D01*
X117875312Y-115071998D02*
X117827693Y-115167236D01*
X117827693Y-115167236D02*
X117780074Y-115214856D01*
X117780074Y-115214856D02*
X117684836Y-115262475D01*
X117684836Y-115262475D02*
X117303884Y-115262475D01*
X117303884Y-115262475D02*
X117303884Y-114262475D01*
X117303884Y-114262475D02*
X117637217Y-114262475D01*
X117637217Y-114262475D02*
X117732455Y-114310094D01*
X117732455Y-114310094D02*
X117780074Y-114357713D01*
X117780074Y-114357713D02*
X117827693Y-114452951D01*
X117827693Y-114452951D02*
X117827693Y-114548189D01*
X117827693Y-114548189D02*
X117780074Y-114643427D01*
X117780074Y-114643427D02*
X117732455Y-114691046D01*
X117732455Y-114691046D02*
X117637217Y-114738665D01*
X117637217Y-114738665D02*
X117303884Y-114738665D01*
X118256265Y-114976760D02*
X118732455Y-114976760D01*
X118161027Y-115262475D02*
X118494360Y-114262475D01*
X118494360Y-114262475D02*
X118827693Y-115262475D01*
X119018170Y-114262475D02*
X119589598Y-114262475D01*
X119303884Y-115262475D02*
X119303884Y-114262475D01*
X119780075Y-114262475D02*
X120351503Y-114262475D01*
X120065789Y-115262475D02*
X120065789Y-114262475D01*
X120684837Y-114738665D02*
X121018170Y-114738665D01*
X121161027Y-115262475D02*
X120684837Y-115262475D01*
X120684837Y-115262475D02*
X120684837Y-114262475D01*
X120684837Y-114262475D02*
X121161027Y-114262475D01*
X122161027Y-115262475D02*
X121827694Y-114786284D01*
X121589599Y-115262475D02*
X121589599Y-114262475D01*
X121589599Y-114262475D02*
X121970551Y-114262475D01*
X121970551Y-114262475D02*
X122065789Y-114310094D01*
X122065789Y-114310094D02*
X122113408Y-114357713D01*
X122113408Y-114357713D02*
X122161027Y-114452951D01*
X122161027Y-114452951D02*
X122161027Y-114595808D01*
X122161027Y-114595808D02*
X122113408Y-114691046D01*
X122113408Y-114691046D02*
X122065789Y-114738665D01*
X122065789Y-114738665D02*
X121970551Y-114786284D01*
X121970551Y-114786284D02*
X121589599Y-114786284D01*
X122780075Y-114786284D02*
X122780075Y-115262475D01*
X122446742Y-114262475D02*
X122780075Y-114786284D01*
X122780075Y-114786284D02*
X123113408Y-114262475D01*
X117303884Y-116872419D02*
X117303884Y-115872419D01*
X117303884Y-115872419D02*
X117637217Y-116586704D01*
X117637217Y-116586704D02*
X117970550Y-115872419D01*
X117970550Y-115872419D02*
X117970550Y-116872419D01*
X118970550Y-115920038D02*
X118875312Y-115872419D01*
X118875312Y-115872419D02*
X118732455Y-115872419D01*
X118732455Y-115872419D02*
X118589598Y-115920038D01*
X118589598Y-115920038D02*
X118494360Y-116015276D01*
X118494360Y-116015276D02*
X118446741Y-116110514D01*
X118446741Y-116110514D02*
X118399122Y-116300990D01*
X118399122Y-116300990D02*
X118399122Y-116443847D01*
X118399122Y-116443847D02*
X118446741Y-116634323D01*
X118446741Y-116634323D02*
X118494360Y-116729561D01*
X118494360Y-116729561D02*
X118589598Y-116824800D01*
X118589598Y-116824800D02*
X118732455Y-116872419D01*
X118732455Y-116872419D02*
X118827693Y-116872419D01*
X118827693Y-116872419D02*
X118970550Y-116824800D01*
X118970550Y-116824800D02*
X119018169Y-116777180D01*
X119018169Y-116777180D02*
X119018169Y-116443847D01*
X119018169Y-116443847D02*
X118827693Y-116443847D01*
X119446741Y-116872419D02*
X119446741Y-115872419D01*
X119446741Y-115872419D02*
X119780074Y-116586704D01*
X119780074Y-116586704D02*
X120113407Y-115872419D01*
X120113407Y-115872419D02*
X120113407Y-116872419D01*
X120446741Y-115872419D02*
X121018169Y-115872419D01*
X120732455Y-116872419D02*
X120732455Y-115872419D01*
X121351503Y-116777180D02*
X121399122Y-116824800D01*
X121399122Y-116824800D02*
X121351503Y-116872419D01*
X121351503Y-116872419D02*
X121303884Y-116824800D01*
X121303884Y-116824800D02*
X121351503Y-116777180D01*
X121351503Y-116777180D02*
X121351503Y-116872419D01*
X132637217Y-77348609D02*
X132780074Y-77396228D01*
X132780074Y-77396228D02*
X132827693Y-77443847D01*
X132827693Y-77443847D02*
X132875312Y-77539085D01*
X132875312Y-77539085D02*
X132875312Y-77681942D01*
X132875312Y-77681942D02*
X132827693Y-77777180D01*
X132827693Y-77777180D02*
X132780074Y-77824800D01*
X132780074Y-77824800D02*
X132684836Y-77872419D01*
X132684836Y-77872419D02*
X132303884Y-77872419D01*
X132303884Y-77872419D02*
X132303884Y-76872419D01*
X132303884Y-76872419D02*
X132637217Y-76872419D01*
X132637217Y-76872419D02*
X132732455Y-76920038D01*
X132732455Y-76920038D02*
X132780074Y-76967657D01*
X132780074Y-76967657D02*
X132827693Y-77062895D01*
X132827693Y-77062895D02*
X132827693Y-77158133D01*
X132827693Y-77158133D02*
X132780074Y-77253371D01*
X132780074Y-77253371D02*
X132732455Y-77300990D01*
X132732455Y-77300990D02*
X132637217Y-77348609D01*
X132637217Y-77348609D02*
X132303884Y-77348609D01*
X133494360Y-76872419D02*
X133684836Y-76872419D01*
X133684836Y-76872419D02*
X133780074Y-76920038D01*
X133780074Y-76920038D02*
X133875312Y-77015276D01*
X133875312Y-77015276D02*
X133922931Y-77205752D01*
X133922931Y-77205752D02*
X133922931Y-77539085D01*
X133922931Y-77539085D02*
X133875312Y-77729561D01*
X133875312Y-77729561D02*
X133780074Y-77824800D01*
X133780074Y-77824800D02*
X133684836Y-77872419D01*
X133684836Y-77872419D02*
X133494360Y-77872419D01*
X133494360Y-77872419D02*
X133399122Y-77824800D01*
X133399122Y-77824800D02*
X133303884Y-77729561D01*
X133303884Y-77729561D02*
X133256265Y-77539085D01*
X133256265Y-77539085D02*
X133256265Y-77205752D01*
X133256265Y-77205752D02*
X133303884Y-77015276D01*
X133303884Y-77015276D02*
X133399122Y-76920038D01*
X133399122Y-76920038D02*
X133494360Y-76872419D01*
X134541979Y-76872419D02*
X134732455Y-76872419D01*
X134732455Y-76872419D02*
X134827693Y-76920038D01*
X134827693Y-76920038D02*
X134922931Y-77015276D01*
X134922931Y-77015276D02*
X134970550Y-77205752D01*
X134970550Y-77205752D02*
X134970550Y-77539085D01*
X134970550Y-77539085D02*
X134922931Y-77729561D01*
X134922931Y-77729561D02*
X134827693Y-77824800D01*
X134827693Y-77824800D02*
X134732455Y-77872419D01*
X134732455Y-77872419D02*
X134541979Y-77872419D01*
X134541979Y-77872419D02*
X134446741Y-77824800D01*
X134446741Y-77824800D02*
X134351503Y-77729561D01*
X134351503Y-77729561D02*
X134303884Y-77539085D01*
X134303884Y-77539085D02*
X134303884Y-77205752D01*
X134303884Y-77205752D02*
X134351503Y-77015276D01*
X134351503Y-77015276D02*
X134446741Y-76920038D01*
X134446741Y-76920038D02*
X134541979Y-76872419D01*
X135351503Y-77824800D02*
X135494360Y-77872419D01*
X135494360Y-77872419D02*
X135732455Y-77872419D01*
X135732455Y-77872419D02*
X135827693Y-77824800D01*
X135827693Y-77824800D02*
X135875312Y-77777180D01*
X135875312Y-77777180D02*
X135922931Y-77681942D01*
X135922931Y-77681942D02*
X135922931Y-77586704D01*
X135922931Y-77586704D02*
X135875312Y-77491466D01*
X135875312Y-77491466D02*
X135827693Y-77443847D01*
X135827693Y-77443847D02*
X135732455Y-77396228D01*
X135732455Y-77396228D02*
X135541979Y-77348609D01*
X135541979Y-77348609D02*
X135446741Y-77300990D01*
X135446741Y-77300990D02*
X135399122Y-77253371D01*
X135399122Y-77253371D02*
X135351503Y-77158133D01*
X135351503Y-77158133D02*
X135351503Y-77062895D01*
X135351503Y-77062895D02*
X135399122Y-76967657D01*
X135399122Y-76967657D02*
X135446741Y-76920038D01*
X135446741Y-76920038D02*
X135541979Y-76872419D01*
X135541979Y-76872419D02*
X135780074Y-76872419D01*
X135780074Y-76872419D02*
X135922931Y-76920038D01*
X136208646Y-76872419D02*
X136780074Y-76872419D01*
X136494360Y-77872419D02*
X136494360Y-76872419D01*
X138446741Y-77777180D02*
X138399122Y-77824800D01*
X138399122Y-77824800D02*
X138256265Y-77872419D01*
X138256265Y-77872419D02*
X138161027Y-77872419D01*
X138161027Y-77872419D02*
X138018170Y-77824800D01*
X138018170Y-77824800D02*
X137922932Y-77729561D01*
X137922932Y-77729561D02*
X137875313Y-77634323D01*
X137875313Y-77634323D02*
X137827694Y-77443847D01*
X137827694Y-77443847D02*
X137827694Y-77300990D01*
X137827694Y-77300990D02*
X137875313Y-77110514D01*
X137875313Y-77110514D02*
X137922932Y-77015276D01*
X137922932Y-77015276D02*
X138018170Y-76920038D01*
X138018170Y-76920038D02*
X138161027Y-76872419D01*
X138161027Y-76872419D02*
X138256265Y-76872419D01*
X138256265Y-76872419D02*
X138399122Y-76920038D01*
X138399122Y-76920038D02*
X138446741Y-76967657D01*
X139065789Y-76872419D02*
X139256265Y-76872419D01*
X139256265Y-76872419D02*
X139351503Y-76920038D01*
X139351503Y-76920038D02*
X139446741Y-77015276D01*
X139446741Y-77015276D02*
X139494360Y-77205752D01*
X139494360Y-77205752D02*
X139494360Y-77539085D01*
X139494360Y-77539085D02*
X139446741Y-77729561D01*
X139446741Y-77729561D02*
X139351503Y-77824800D01*
X139351503Y-77824800D02*
X139256265Y-77872419D01*
X139256265Y-77872419D02*
X139065789Y-77872419D01*
X139065789Y-77872419D02*
X138970551Y-77824800D01*
X138970551Y-77824800D02*
X138875313Y-77729561D01*
X138875313Y-77729561D02*
X138827694Y-77539085D01*
X138827694Y-77539085D02*
X138827694Y-77205752D01*
X138827694Y-77205752D02*
X138875313Y-77015276D01*
X138875313Y-77015276D02*
X138970551Y-76920038D01*
X138970551Y-76920038D02*
X139065789Y-76872419D01*
X139922932Y-77872419D02*
X139922932Y-76872419D01*
X139922932Y-76872419D02*
X140494360Y-77872419D01*
X140494360Y-77872419D02*
X140494360Y-76872419D01*
X140827694Y-76872419D02*
X141161027Y-77872419D01*
X141161027Y-77872419D02*
X141494360Y-76872419D01*
X141827694Y-77348609D02*
X142161027Y-77348609D01*
X142303884Y-77872419D02*
X141827694Y-77872419D01*
X141827694Y-77872419D02*
X141827694Y-76872419D01*
X141827694Y-76872419D02*
X142303884Y-76872419D01*
X143303884Y-77872419D02*
X142970551Y-77396228D01*
X142732456Y-77872419D02*
X142732456Y-76872419D01*
X142732456Y-76872419D02*
X143113408Y-76872419D01*
X143113408Y-76872419D02*
X143208646Y-76920038D01*
X143208646Y-76920038D02*
X143256265Y-76967657D01*
X143256265Y-76967657D02*
X143303884Y-77062895D01*
X143303884Y-77062895D02*
X143303884Y-77205752D01*
X143303884Y-77205752D02*
X143256265Y-77300990D01*
X143256265Y-77300990D02*
X143208646Y-77348609D01*
X143208646Y-77348609D02*
X143113408Y-77396228D01*
X143113408Y-77396228D02*
X142732456Y-77396228D01*
X143589599Y-76872419D02*
X144161027Y-76872419D01*
X143875313Y-77872419D02*
X143875313Y-76872419D01*
X144494361Y-77348609D02*
X144827694Y-77348609D01*
X144970551Y-77872419D02*
X144494361Y-77872419D01*
X144494361Y-77872419D02*
X144494361Y-76872419D01*
X144494361Y-76872419D02*
X144970551Y-76872419D01*
X145970551Y-77872419D02*
X145637218Y-77396228D01*
X145399123Y-77872419D02*
X145399123Y-76872419D01*
X145399123Y-76872419D02*
X145780075Y-76872419D01*
X145780075Y-76872419D02*
X145875313Y-76920038D01*
X145875313Y-76920038D02*
X145922932Y-76967657D01*
X145922932Y-76967657D02*
X145970551Y-77062895D01*
X145970551Y-77062895D02*
X145970551Y-77205752D01*
X145970551Y-77205752D02*
X145922932Y-77300990D01*
X145922932Y-77300990D02*
X145875313Y-77348609D01*
X145875313Y-77348609D02*
X145780075Y-77396228D01*
X145780075Y-77396228D02*
X145399123Y-77396228D01*
D11*
X132238095Y-93124819D02*
X132238095Y-93934342D01*
X132238095Y-93934342D02*
X132285714Y-94029580D01*
X132285714Y-94029580D02*
X132333333Y-94077200D01*
X132333333Y-94077200D02*
X132428571Y-94124819D01*
X132428571Y-94124819D02*
X132619047Y-94124819D01*
X132619047Y-94124819D02*
X132714285Y-94077200D01*
X132714285Y-94077200D02*
X132761904Y-94029580D01*
X132761904Y-94029580D02*
X132809523Y-93934342D01*
X132809523Y-93934342D02*
X132809523Y-93124819D01*
X133714285Y-93458152D02*
X133714285Y-94124819D01*
X133476190Y-93077200D02*
X133238095Y-93791485D01*
X133238095Y-93791485D02*
X133857142Y-93791485D01*
X170238095Y-54407200D02*
X170380952Y-54454819D01*
X170380952Y-54454819D02*
X170619047Y-54454819D01*
X170619047Y-54454819D02*
X170714285Y-54407200D01*
X170714285Y-54407200D02*
X170761904Y-54359580D01*
X170761904Y-54359580D02*
X170809523Y-54264342D01*
X170809523Y-54264342D02*
X170809523Y-54169104D01*
X170809523Y-54169104D02*
X170761904Y-54073866D01*
X170761904Y-54073866D02*
X170714285Y-54026247D01*
X170714285Y-54026247D02*
X170619047Y-53978628D01*
X170619047Y-53978628D02*
X170428571Y-53931009D01*
X170428571Y-53931009D02*
X170333333Y-53883390D01*
X170333333Y-53883390D02*
X170285714Y-53835771D01*
X170285714Y-53835771D02*
X170238095Y-53740533D01*
X170238095Y-53740533D02*
X170238095Y-53645295D01*
X170238095Y-53645295D02*
X170285714Y-53550057D01*
X170285714Y-53550057D02*
X170333333Y-53502438D01*
X170333333Y-53502438D02*
X170428571Y-53454819D01*
X170428571Y-53454819D02*
X170666666Y-53454819D01*
X170666666Y-53454819D02*
X170809523Y-53502438D01*
X171761904Y-54454819D02*
X171190476Y-54454819D01*
X171476190Y-54454819D02*
X171476190Y-53454819D01*
X171476190Y-53454819D02*
X171380952Y-53597676D01*
X171380952Y-53597676D02*
X171285714Y-53692914D01*
X171285714Y-53692914D02*
X171190476Y-53740533D01*
X150238095Y-54407200D02*
X150380952Y-54454819D01*
X150380952Y-54454819D02*
X150619047Y-54454819D01*
X150619047Y-54454819D02*
X150714285Y-54407200D01*
X150714285Y-54407200D02*
X150761904Y-54359580D01*
X150761904Y-54359580D02*
X150809523Y-54264342D01*
X150809523Y-54264342D02*
X150809523Y-54169104D01*
X150809523Y-54169104D02*
X150761904Y-54073866D01*
X150761904Y-54073866D02*
X150714285Y-54026247D01*
X150714285Y-54026247D02*
X150619047Y-53978628D01*
X150619047Y-53978628D02*
X150428571Y-53931009D01*
X150428571Y-53931009D02*
X150333333Y-53883390D01*
X150333333Y-53883390D02*
X150285714Y-53835771D01*
X150285714Y-53835771D02*
X150238095Y-53740533D01*
X150238095Y-53740533D02*
X150238095Y-53645295D01*
X150238095Y-53645295D02*
X150285714Y-53550057D01*
X150285714Y-53550057D02*
X150333333Y-53502438D01*
X150333333Y-53502438D02*
X150428571Y-53454819D01*
X150428571Y-53454819D02*
X150666666Y-53454819D01*
X150666666Y-53454819D02*
X150809523Y-53502438D01*
X151190476Y-53550057D02*
X151238095Y-53502438D01*
X151238095Y-53502438D02*
X151333333Y-53454819D01*
X151333333Y-53454819D02*
X151571428Y-53454819D01*
X151571428Y-53454819D02*
X151666666Y-53502438D01*
X151666666Y-53502438D02*
X151714285Y-53550057D01*
X151714285Y-53550057D02*
X151761904Y-53645295D01*
X151761904Y-53645295D02*
X151761904Y-53740533D01*
X151761904Y-53740533D02*
X151714285Y-53883390D01*
X151714285Y-53883390D02*
X151142857Y-54454819D01*
X151142857Y-54454819D02*
X151761904Y-54454819D01*
X129833333Y-62359580D02*
X129785714Y-62407200D01*
X129785714Y-62407200D02*
X129642857Y-62454819D01*
X129642857Y-62454819D02*
X129547619Y-62454819D01*
X129547619Y-62454819D02*
X129404762Y-62407200D01*
X129404762Y-62407200D02*
X129309524Y-62311961D01*
X129309524Y-62311961D02*
X129261905Y-62216723D01*
X129261905Y-62216723D02*
X129214286Y-62026247D01*
X129214286Y-62026247D02*
X129214286Y-61883390D01*
X129214286Y-61883390D02*
X129261905Y-61692914D01*
X129261905Y-61692914D02*
X129309524Y-61597676D01*
X129309524Y-61597676D02*
X129404762Y-61502438D01*
X129404762Y-61502438D02*
X129547619Y-61454819D01*
X129547619Y-61454819D02*
X129642857Y-61454819D01*
X129642857Y-61454819D02*
X129785714Y-61502438D01*
X129785714Y-61502438D02*
X129833333Y-61550057D01*
X130404762Y-61883390D02*
X130309524Y-61835771D01*
X130309524Y-61835771D02*
X130261905Y-61788152D01*
X130261905Y-61788152D02*
X130214286Y-61692914D01*
X130214286Y-61692914D02*
X130214286Y-61645295D01*
X130214286Y-61645295D02*
X130261905Y-61550057D01*
X130261905Y-61550057D02*
X130309524Y-61502438D01*
X130309524Y-61502438D02*
X130404762Y-61454819D01*
X130404762Y-61454819D02*
X130595238Y-61454819D01*
X130595238Y-61454819D02*
X130690476Y-61502438D01*
X130690476Y-61502438D02*
X130738095Y-61550057D01*
X130738095Y-61550057D02*
X130785714Y-61645295D01*
X130785714Y-61645295D02*
X130785714Y-61692914D01*
X130785714Y-61692914D02*
X130738095Y-61788152D01*
X130738095Y-61788152D02*
X130690476Y-61835771D01*
X130690476Y-61835771D02*
X130595238Y-61883390D01*
X130595238Y-61883390D02*
X130404762Y-61883390D01*
X130404762Y-61883390D02*
X130309524Y-61931009D01*
X130309524Y-61931009D02*
X130261905Y-61978628D01*
X130261905Y-61978628D02*
X130214286Y-62073866D01*
X130214286Y-62073866D02*
X130214286Y-62264342D01*
X130214286Y-62264342D02*
X130261905Y-62359580D01*
X130261905Y-62359580D02*
X130309524Y-62407200D01*
X130309524Y-62407200D02*
X130404762Y-62454819D01*
X130404762Y-62454819D02*
X130595238Y-62454819D01*
X130595238Y-62454819D02*
X130690476Y-62407200D01*
X130690476Y-62407200D02*
X130738095Y-62359580D01*
X130738095Y-62359580D02*
X130785714Y-62264342D01*
X130785714Y-62264342D02*
X130785714Y-62073866D01*
X130785714Y-62073866D02*
X130738095Y-61978628D01*
X130738095Y-61978628D02*
X130690476Y-61931009D01*
X130690476Y-61931009D02*
X130595238Y-61883390D01*
X117833333Y-97454819D02*
X117357143Y-97454819D01*
X117357143Y-97454819D02*
X117357143Y-96454819D01*
X118690476Y-97454819D02*
X118119048Y-97454819D01*
X118404762Y-97454819D02*
X118404762Y-96454819D01*
X118404762Y-96454819D02*
X118309524Y-96597676D01*
X118309524Y-96597676D02*
X118214286Y-96692914D01*
X118214286Y-96692914D02*
X118119048Y-96740533D01*
X137357142Y-89454819D02*
X137023809Y-88978628D01*
X136785714Y-89454819D02*
X136785714Y-88454819D01*
X136785714Y-88454819D02*
X137166666Y-88454819D01*
X137166666Y-88454819D02*
X137261904Y-88502438D01*
X137261904Y-88502438D02*
X137309523Y-88550057D01*
X137309523Y-88550057D02*
X137357142Y-88645295D01*
X137357142Y-88645295D02*
X137357142Y-88788152D01*
X137357142Y-88788152D02*
X137309523Y-88883390D01*
X137309523Y-88883390D02*
X137261904Y-88931009D01*
X137261904Y-88931009D02*
X137166666Y-88978628D01*
X137166666Y-88978628D02*
X136785714Y-88978628D01*
X138309523Y-89454819D02*
X137738095Y-89454819D01*
X138023809Y-89454819D02*
X138023809Y-88454819D01*
X138023809Y-88454819D02*
X137928571Y-88597676D01*
X137928571Y-88597676D02*
X137833333Y-88692914D01*
X137833333Y-88692914D02*
X137738095Y-88740533D01*
X139214285Y-88454819D02*
X138738095Y-88454819D01*
X138738095Y-88454819D02*
X138690476Y-88931009D01*
X138690476Y-88931009D02*
X138738095Y-88883390D01*
X138738095Y-88883390D02*
X138833333Y-88835771D01*
X138833333Y-88835771D02*
X139071428Y-88835771D01*
X139071428Y-88835771D02*
X139166666Y-88883390D01*
X139166666Y-88883390D02*
X139214285Y-88931009D01*
X139214285Y-88931009D02*
X139261904Y-89026247D01*
X139261904Y-89026247D02*
X139261904Y-89264342D01*
X139261904Y-89264342D02*
X139214285Y-89359580D01*
X139214285Y-89359580D02*
X139166666Y-89407200D01*
X139166666Y-89407200D02*
X139071428Y-89454819D01*
X139071428Y-89454819D02*
X138833333Y-89454819D01*
X138833333Y-89454819D02*
X138738095Y-89407200D01*
X138738095Y-89407200D02*
X138690476Y-89359580D01*
X131357142Y-122454819D02*
X131023809Y-121978628D01*
X130785714Y-122454819D02*
X130785714Y-121454819D01*
X130785714Y-121454819D02*
X131166666Y-121454819D01*
X131166666Y-121454819D02*
X131261904Y-121502438D01*
X131261904Y-121502438D02*
X131309523Y-121550057D01*
X131309523Y-121550057D02*
X131357142Y-121645295D01*
X131357142Y-121645295D02*
X131357142Y-121788152D01*
X131357142Y-121788152D02*
X131309523Y-121883390D01*
X131309523Y-121883390D02*
X131261904Y-121931009D01*
X131261904Y-121931009D02*
X131166666Y-121978628D01*
X131166666Y-121978628D02*
X130785714Y-121978628D01*
X131738095Y-121550057D02*
X131785714Y-121502438D01*
X131785714Y-121502438D02*
X131880952Y-121454819D01*
X131880952Y-121454819D02*
X132119047Y-121454819D01*
X132119047Y-121454819D02*
X132214285Y-121502438D01*
X132214285Y-121502438D02*
X132261904Y-121550057D01*
X132261904Y-121550057D02*
X132309523Y-121645295D01*
X132309523Y-121645295D02*
X132309523Y-121740533D01*
X132309523Y-121740533D02*
X132261904Y-121883390D01*
X132261904Y-121883390D02*
X131690476Y-122454819D01*
X131690476Y-122454819D02*
X132309523Y-122454819D01*
X133166666Y-121788152D02*
X133166666Y-122454819D01*
X132928571Y-121407200D02*
X132690476Y-122121485D01*
X132690476Y-122121485D02*
X133309523Y-122121485D01*
X142357142Y-92454819D02*
X142023809Y-91978628D01*
X141785714Y-92454819D02*
X141785714Y-91454819D01*
X141785714Y-91454819D02*
X142166666Y-91454819D01*
X142166666Y-91454819D02*
X142261904Y-91502438D01*
X142261904Y-91502438D02*
X142309523Y-91550057D01*
X142309523Y-91550057D02*
X142357142Y-91645295D01*
X142357142Y-91645295D02*
X142357142Y-91788152D01*
X142357142Y-91788152D02*
X142309523Y-91883390D01*
X142309523Y-91883390D02*
X142261904Y-91931009D01*
X142261904Y-91931009D02*
X142166666Y-91978628D01*
X142166666Y-91978628D02*
X141785714Y-91978628D01*
X143309523Y-92454819D02*
X142738095Y-92454819D01*
X143023809Y-92454819D02*
X143023809Y-91454819D01*
X143023809Y-91454819D02*
X142928571Y-91597676D01*
X142928571Y-91597676D02*
X142833333Y-91692914D01*
X142833333Y-91692914D02*
X142738095Y-91740533D01*
X144166666Y-91454819D02*
X143976190Y-91454819D01*
X143976190Y-91454819D02*
X143880952Y-91502438D01*
X143880952Y-91502438D02*
X143833333Y-91550057D01*
X143833333Y-91550057D02*
X143738095Y-91692914D01*
X143738095Y-91692914D02*
X143690476Y-91883390D01*
X143690476Y-91883390D02*
X143690476Y-92264342D01*
X143690476Y-92264342D02*
X143738095Y-92359580D01*
X143738095Y-92359580D02*
X143785714Y-92407200D01*
X143785714Y-92407200D02*
X143880952Y-92454819D01*
X143880952Y-92454819D02*
X144071428Y-92454819D01*
X144071428Y-92454819D02*
X144166666Y-92407200D01*
X144166666Y-92407200D02*
X144214285Y-92359580D01*
X144214285Y-92359580D02*
X144261904Y-92264342D01*
X144261904Y-92264342D02*
X144261904Y-92026247D01*
X144261904Y-92026247D02*
X144214285Y-91931009D01*
X144214285Y-91931009D02*
X144166666Y-91883390D01*
X144166666Y-91883390D02*
X144071428Y-91835771D01*
X144071428Y-91835771D02*
X143880952Y-91835771D01*
X143880952Y-91835771D02*
X143785714Y-91883390D01*
X143785714Y-91883390D02*
X143738095Y-91931009D01*
X143738095Y-91931009D02*
X143690476Y-92026247D01*
X143357142Y-99359580D02*
X143309523Y-99407200D01*
X143309523Y-99407200D02*
X143166666Y-99454819D01*
X143166666Y-99454819D02*
X143071428Y-99454819D01*
X143071428Y-99454819D02*
X142928571Y-99407200D01*
X142928571Y-99407200D02*
X142833333Y-99311961D01*
X142833333Y-99311961D02*
X142785714Y-99216723D01*
X142785714Y-99216723D02*
X142738095Y-99026247D01*
X142738095Y-99026247D02*
X142738095Y-98883390D01*
X142738095Y-98883390D02*
X142785714Y-98692914D01*
X142785714Y-98692914D02*
X142833333Y-98597676D01*
X142833333Y-98597676D02*
X142928571Y-98502438D01*
X142928571Y-98502438D02*
X143071428Y-98454819D01*
X143071428Y-98454819D02*
X143166666Y-98454819D01*
X143166666Y-98454819D02*
X143309523Y-98502438D01*
X143309523Y-98502438D02*
X143357142Y-98550057D01*
X143738095Y-98550057D02*
X143785714Y-98502438D01*
X143785714Y-98502438D02*
X143880952Y-98454819D01*
X143880952Y-98454819D02*
X144119047Y-98454819D01*
X144119047Y-98454819D02*
X144214285Y-98502438D01*
X144214285Y-98502438D02*
X144261904Y-98550057D01*
X144261904Y-98550057D02*
X144309523Y-98645295D01*
X144309523Y-98645295D02*
X144309523Y-98740533D01*
X144309523Y-98740533D02*
X144261904Y-98883390D01*
X144261904Y-98883390D02*
X143690476Y-99454819D01*
X143690476Y-99454819D02*
X144309523Y-99454819D01*
X145261904Y-99454819D02*
X144690476Y-99454819D01*
X144976190Y-99454819D02*
X144976190Y-98454819D01*
X144976190Y-98454819D02*
X144880952Y-98597676D01*
X144880952Y-98597676D02*
X144785714Y-98692914D01*
X144785714Y-98692914D02*
X144690476Y-98740533D01*
X170833333Y-42454819D02*
X170500000Y-41978628D01*
X170261905Y-42454819D02*
X170261905Y-41454819D01*
X170261905Y-41454819D02*
X170642857Y-41454819D01*
X170642857Y-41454819D02*
X170738095Y-41502438D01*
X170738095Y-41502438D02*
X170785714Y-41550057D01*
X170785714Y-41550057D02*
X170833333Y-41645295D01*
X170833333Y-41645295D02*
X170833333Y-41788152D01*
X170833333Y-41788152D02*
X170785714Y-41883390D01*
X170785714Y-41883390D02*
X170738095Y-41931009D01*
X170738095Y-41931009D02*
X170642857Y-41978628D01*
X170642857Y-41978628D02*
X170261905Y-41978628D01*
X171690476Y-41788152D02*
X171690476Y-42454819D01*
X171452381Y-41407200D02*
X171214286Y-42121485D01*
X171214286Y-42121485D02*
X171833333Y-42121485D01*
X141904761Y-81950057D02*
X141809523Y-81902438D01*
X141809523Y-81902438D02*
X141714285Y-81807200D01*
X141714285Y-81807200D02*
X141571428Y-81664342D01*
X141571428Y-81664342D02*
X141476190Y-81616723D01*
X141476190Y-81616723D02*
X141380952Y-81616723D01*
X141428571Y-81854819D02*
X141333333Y-81807200D01*
X141333333Y-81807200D02*
X141238095Y-81711961D01*
X141238095Y-81711961D02*
X141190476Y-81521485D01*
X141190476Y-81521485D02*
X141190476Y-81188152D01*
X141190476Y-81188152D02*
X141238095Y-80997676D01*
X141238095Y-80997676D02*
X141333333Y-80902438D01*
X141333333Y-80902438D02*
X141428571Y-80854819D01*
X141428571Y-80854819D02*
X141619047Y-80854819D01*
X141619047Y-80854819D02*
X141714285Y-80902438D01*
X141714285Y-80902438D02*
X141809523Y-80997676D01*
X141809523Y-80997676D02*
X141857142Y-81188152D01*
X141857142Y-81188152D02*
X141857142Y-81521485D01*
X141857142Y-81521485D02*
X141809523Y-81711961D01*
X141809523Y-81711961D02*
X141714285Y-81807200D01*
X141714285Y-81807200D02*
X141619047Y-81854819D01*
X141619047Y-81854819D02*
X141428571Y-81854819D01*
X142714285Y-81188152D02*
X142714285Y-81854819D01*
X142476190Y-80807200D02*
X142238095Y-81521485D01*
X142238095Y-81521485D02*
X142857142Y-81521485D01*
X176238095Y-38254819D02*
X176238095Y-37254819D01*
X176238095Y-37731009D02*
X176809523Y-37731009D01*
X176809523Y-38254819D02*
X176809523Y-37254819D01*
X177238095Y-37350057D02*
X177285714Y-37302438D01*
X177285714Y-37302438D02*
X177380952Y-37254819D01*
X177380952Y-37254819D02*
X177619047Y-37254819D01*
X177619047Y-37254819D02*
X177714285Y-37302438D01*
X177714285Y-37302438D02*
X177761904Y-37350057D01*
X177761904Y-37350057D02*
X177809523Y-37445295D01*
X177809523Y-37445295D02*
X177809523Y-37540533D01*
X177809523Y-37540533D02*
X177761904Y-37683390D01*
X177761904Y-37683390D02*
X177190476Y-38254819D01*
X177190476Y-38254819D02*
X177809523Y-38254819D01*
X123261905Y-128454819D02*
X123261905Y-127454819D01*
X123261905Y-127454819D02*
X123500000Y-127454819D01*
X123500000Y-127454819D02*
X123642857Y-127502438D01*
X123642857Y-127502438D02*
X123738095Y-127597676D01*
X123738095Y-127597676D02*
X123785714Y-127692914D01*
X123785714Y-127692914D02*
X123833333Y-127883390D01*
X123833333Y-127883390D02*
X123833333Y-128026247D01*
X123833333Y-128026247D02*
X123785714Y-128216723D01*
X123785714Y-128216723D02*
X123738095Y-128311961D01*
X123738095Y-128311961D02*
X123642857Y-128407200D01*
X123642857Y-128407200D02*
X123500000Y-128454819D01*
X123500000Y-128454819D02*
X123261905Y-128454819D01*
X124404762Y-127883390D02*
X124309524Y-127835771D01*
X124309524Y-127835771D02*
X124261905Y-127788152D01*
X124261905Y-127788152D02*
X124214286Y-127692914D01*
X124214286Y-127692914D02*
X124214286Y-127645295D01*
X124214286Y-127645295D02*
X124261905Y-127550057D01*
X124261905Y-127550057D02*
X124309524Y-127502438D01*
X124309524Y-127502438D02*
X124404762Y-127454819D01*
X124404762Y-127454819D02*
X124595238Y-127454819D01*
X124595238Y-127454819D02*
X124690476Y-127502438D01*
X124690476Y-127502438D02*
X124738095Y-127550057D01*
X124738095Y-127550057D02*
X124785714Y-127645295D01*
X124785714Y-127645295D02*
X124785714Y-127692914D01*
X124785714Y-127692914D02*
X124738095Y-127788152D01*
X124738095Y-127788152D02*
X124690476Y-127835771D01*
X124690476Y-127835771D02*
X124595238Y-127883390D01*
X124595238Y-127883390D02*
X124404762Y-127883390D01*
X124404762Y-127883390D02*
X124309524Y-127931009D01*
X124309524Y-127931009D02*
X124261905Y-127978628D01*
X124261905Y-127978628D02*
X124214286Y-128073866D01*
X124214286Y-128073866D02*
X124214286Y-128264342D01*
X124214286Y-128264342D02*
X124261905Y-128359580D01*
X124261905Y-128359580D02*
X124309524Y-128407200D01*
X124309524Y-128407200D02*
X124404762Y-128454819D01*
X124404762Y-128454819D02*
X124595238Y-128454819D01*
X124595238Y-128454819D02*
X124690476Y-128407200D01*
X124690476Y-128407200D02*
X124738095Y-128359580D01*
X124738095Y-128359580D02*
X124785714Y-128264342D01*
X124785714Y-128264342D02*
X124785714Y-128073866D01*
X124785714Y-128073866D02*
X124738095Y-127978628D01*
X124738095Y-127978628D02*
X124690476Y-127931009D01*
X124690476Y-127931009D02*
X124595238Y-127883390D01*
X121833333Y-68359580D02*
X121785714Y-68407200D01*
X121785714Y-68407200D02*
X121642857Y-68454819D01*
X121642857Y-68454819D02*
X121547619Y-68454819D01*
X121547619Y-68454819D02*
X121404762Y-68407200D01*
X121404762Y-68407200D02*
X121309524Y-68311961D01*
X121309524Y-68311961D02*
X121261905Y-68216723D01*
X121261905Y-68216723D02*
X121214286Y-68026247D01*
X121214286Y-68026247D02*
X121214286Y-67883390D01*
X121214286Y-67883390D02*
X121261905Y-67692914D01*
X121261905Y-67692914D02*
X121309524Y-67597676D01*
X121309524Y-67597676D02*
X121404762Y-67502438D01*
X121404762Y-67502438D02*
X121547619Y-67454819D01*
X121547619Y-67454819D02*
X121642857Y-67454819D01*
X121642857Y-67454819D02*
X121785714Y-67502438D01*
X121785714Y-67502438D02*
X121833333Y-67550057D01*
X122738095Y-67454819D02*
X122261905Y-67454819D01*
X122261905Y-67454819D02*
X122214286Y-67931009D01*
X122214286Y-67931009D02*
X122261905Y-67883390D01*
X122261905Y-67883390D02*
X122357143Y-67835771D01*
X122357143Y-67835771D02*
X122595238Y-67835771D01*
X122595238Y-67835771D02*
X122690476Y-67883390D01*
X122690476Y-67883390D02*
X122738095Y-67931009D01*
X122738095Y-67931009D02*
X122785714Y-68026247D01*
X122785714Y-68026247D02*
X122785714Y-68264342D01*
X122785714Y-68264342D02*
X122738095Y-68359580D01*
X122738095Y-68359580D02*
X122690476Y-68407200D01*
X122690476Y-68407200D02*
X122595238Y-68454819D01*
X122595238Y-68454819D02*
X122357143Y-68454819D01*
X122357143Y-68454819D02*
X122261905Y-68407200D01*
X122261905Y-68407200D02*
X122214286Y-68359580D01*
X131357142Y-128454819D02*
X131023809Y-127978628D01*
X130785714Y-128454819D02*
X130785714Y-127454819D01*
X130785714Y-127454819D02*
X131166666Y-127454819D01*
X131166666Y-127454819D02*
X131261904Y-127502438D01*
X131261904Y-127502438D02*
X131309523Y-127550057D01*
X131309523Y-127550057D02*
X131357142Y-127645295D01*
X131357142Y-127645295D02*
X131357142Y-127788152D01*
X131357142Y-127788152D02*
X131309523Y-127883390D01*
X131309523Y-127883390D02*
X131261904Y-127931009D01*
X131261904Y-127931009D02*
X131166666Y-127978628D01*
X131166666Y-127978628D02*
X130785714Y-127978628D01*
X131738095Y-127550057D02*
X131785714Y-127502438D01*
X131785714Y-127502438D02*
X131880952Y-127454819D01*
X131880952Y-127454819D02*
X132119047Y-127454819D01*
X132119047Y-127454819D02*
X132214285Y-127502438D01*
X132214285Y-127502438D02*
X132261904Y-127550057D01*
X132261904Y-127550057D02*
X132309523Y-127645295D01*
X132309523Y-127645295D02*
X132309523Y-127740533D01*
X132309523Y-127740533D02*
X132261904Y-127883390D01*
X132261904Y-127883390D02*
X131690476Y-128454819D01*
X131690476Y-128454819D02*
X132309523Y-128454819D01*
X133214285Y-127454819D02*
X132738095Y-127454819D01*
X132738095Y-127454819D02*
X132690476Y-127931009D01*
X132690476Y-127931009D02*
X132738095Y-127883390D01*
X132738095Y-127883390D02*
X132833333Y-127835771D01*
X132833333Y-127835771D02*
X133071428Y-127835771D01*
X133071428Y-127835771D02*
X133166666Y-127883390D01*
X133166666Y-127883390D02*
X133214285Y-127931009D01*
X133214285Y-127931009D02*
X133261904Y-128026247D01*
X133261904Y-128026247D02*
X133261904Y-128264342D01*
X133261904Y-128264342D02*
X133214285Y-128359580D01*
X133214285Y-128359580D02*
X133166666Y-128407200D01*
X133166666Y-128407200D02*
X133071428Y-128454819D01*
X133071428Y-128454819D02*
X132833333Y-128454819D01*
X132833333Y-128454819D02*
X132738095Y-128407200D01*
X132738095Y-128407200D02*
X132690476Y-128359580D01*
X139357142Y-120359580D02*
X139309523Y-120407200D01*
X139309523Y-120407200D02*
X139166666Y-120454819D01*
X139166666Y-120454819D02*
X139071428Y-120454819D01*
X139071428Y-120454819D02*
X138928571Y-120407200D01*
X138928571Y-120407200D02*
X138833333Y-120311961D01*
X138833333Y-120311961D02*
X138785714Y-120216723D01*
X138785714Y-120216723D02*
X138738095Y-120026247D01*
X138738095Y-120026247D02*
X138738095Y-119883390D01*
X138738095Y-119883390D02*
X138785714Y-119692914D01*
X138785714Y-119692914D02*
X138833333Y-119597676D01*
X138833333Y-119597676D02*
X138928571Y-119502438D01*
X138928571Y-119502438D02*
X139071428Y-119454819D01*
X139071428Y-119454819D02*
X139166666Y-119454819D01*
X139166666Y-119454819D02*
X139309523Y-119502438D01*
X139309523Y-119502438D02*
X139357142Y-119550057D01*
X139738095Y-119550057D02*
X139785714Y-119502438D01*
X139785714Y-119502438D02*
X139880952Y-119454819D01*
X139880952Y-119454819D02*
X140119047Y-119454819D01*
X140119047Y-119454819D02*
X140214285Y-119502438D01*
X140214285Y-119502438D02*
X140261904Y-119550057D01*
X140261904Y-119550057D02*
X140309523Y-119645295D01*
X140309523Y-119645295D02*
X140309523Y-119740533D01*
X140309523Y-119740533D02*
X140261904Y-119883390D01*
X140261904Y-119883390D02*
X139690476Y-120454819D01*
X139690476Y-120454819D02*
X140309523Y-120454819D01*
X140642857Y-119454819D02*
X141261904Y-119454819D01*
X141261904Y-119454819D02*
X140928571Y-119835771D01*
X140928571Y-119835771D02*
X141071428Y-119835771D01*
X141071428Y-119835771D02*
X141166666Y-119883390D01*
X141166666Y-119883390D02*
X141214285Y-119931009D01*
X141214285Y-119931009D02*
X141261904Y-120026247D01*
X141261904Y-120026247D02*
X141261904Y-120264342D01*
X141261904Y-120264342D02*
X141214285Y-120359580D01*
X141214285Y-120359580D02*
X141166666Y-120407200D01*
X141166666Y-120407200D02*
X141071428Y-120454819D01*
X141071428Y-120454819D02*
X140785714Y-120454819D01*
X140785714Y-120454819D02*
X140690476Y-120407200D01*
X140690476Y-120407200D02*
X140642857Y-120359580D01*
X135238095Y-125454819D02*
X135238095Y-126264342D01*
X135238095Y-126264342D02*
X135285714Y-126359580D01*
X135285714Y-126359580D02*
X135333333Y-126407200D01*
X135333333Y-126407200D02*
X135428571Y-126454819D01*
X135428571Y-126454819D02*
X135619047Y-126454819D01*
X135619047Y-126454819D02*
X135714285Y-126407200D01*
X135714285Y-126407200D02*
X135761904Y-126359580D01*
X135761904Y-126359580D02*
X135809523Y-126264342D01*
X135809523Y-126264342D02*
X135809523Y-125454819D01*
X136761904Y-125454819D02*
X136285714Y-125454819D01*
X136285714Y-125454819D02*
X136238095Y-125931009D01*
X136238095Y-125931009D02*
X136285714Y-125883390D01*
X136285714Y-125883390D02*
X136380952Y-125835771D01*
X136380952Y-125835771D02*
X136619047Y-125835771D01*
X136619047Y-125835771D02*
X136714285Y-125883390D01*
X136714285Y-125883390D02*
X136761904Y-125931009D01*
X136761904Y-125931009D02*
X136809523Y-126026247D01*
X136809523Y-126026247D02*
X136809523Y-126264342D01*
X136809523Y-126264342D02*
X136761904Y-126359580D01*
X136761904Y-126359580D02*
X136714285Y-126407200D01*
X136714285Y-126407200D02*
X136619047Y-126454819D01*
X136619047Y-126454819D02*
X136380952Y-126454819D01*
X136380952Y-126454819D02*
X136285714Y-126407200D01*
X136285714Y-126407200D02*
X136238095Y-126359580D01*
X135357142Y-117359580D02*
X135309523Y-117407200D01*
X135309523Y-117407200D02*
X135166666Y-117454819D01*
X135166666Y-117454819D02*
X135071428Y-117454819D01*
X135071428Y-117454819D02*
X134928571Y-117407200D01*
X134928571Y-117407200D02*
X134833333Y-117311961D01*
X134833333Y-117311961D02*
X134785714Y-117216723D01*
X134785714Y-117216723D02*
X134738095Y-117026247D01*
X134738095Y-117026247D02*
X134738095Y-116883390D01*
X134738095Y-116883390D02*
X134785714Y-116692914D01*
X134785714Y-116692914D02*
X134833333Y-116597676D01*
X134833333Y-116597676D02*
X134928571Y-116502438D01*
X134928571Y-116502438D02*
X135071428Y-116454819D01*
X135071428Y-116454819D02*
X135166666Y-116454819D01*
X135166666Y-116454819D02*
X135309523Y-116502438D01*
X135309523Y-116502438D02*
X135357142Y-116550057D01*
X135738095Y-116550057D02*
X135785714Y-116502438D01*
X135785714Y-116502438D02*
X135880952Y-116454819D01*
X135880952Y-116454819D02*
X136119047Y-116454819D01*
X136119047Y-116454819D02*
X136214285Y-116502438D01*
X136214285Y-116502438D02*
X136261904Y-116550057D01*
X136261904Y-116550057D02*
X136309523Y-116645295D01*
X136309523Y-116645295D02*
X136309523Y-116740533D01*
X136309523Y-116740533D02*
X136261904Y-116883390D01*
X136261904Y-116883390D02*
X135690476Y-117454819D01*
X135690476Y-117454819D02*
X136309523Y-117454819D01*
X136690476Y-116550057D02*
X136738095Y-116502438D01*
X136738095Y-116502438D02*
X136833333Y-116454819D01*
X136833333Y-116454819D02*
X137071428Y-116454819D01*
X137071428Y-116454819D02*
X137166666Y-116502438D01*
X137166666Y-116502438D02*
X137214285Y-116550057D01*
X137214285Y-116550057D02*
X137261904Y-116645295D01*
X137261904Y-116645295D02*
X137261904Y-116740533D01*
X137261904Y-116740533D02*
X137214285Y-116883390D01*
X137214285Y-116883390D02*
X136642857Y-117454819D01*
X136642857Y-117454819D02*
X137261904Y-117454819D01*
X137666666Y-150454819D02*
X137666666Y-151169104D01*
X137666666Y-151169104D02*
X137619047Y-151311961D01*
X137619047Y-151311961D02*
X137523809Y-151407200D01*
X137523809Y-151407200D02*
X137380952Y-151454819D01*
X137380952Y-151454819D02*
X137285714Y-151454819D01*
X138571428Y-150788152D02*
X138571428Y-151454819D01*
X138333333Y-150407200D02*
X138095238Y-151121485D01*
X138095238Y-151121485D02*
X138714285Y-151121485D01*
X143357142Y-126454819D02*
X143023809Y-125978628D01*
X142785714Y-126454819D02*
X142785714Y-125454819D01*
X142785714Y-125454819D02*
X143166666Y-125454819D01*
X143166666Y-125454819D02*
X143261904Y-125502438D01*
X143261904Y-125502438D02*
X143309523Y-125550057D01*
X143309523Y-125550057D02*
X143357142Y-125645295D01*
X143357142Y-125645295D02*
X143357142Y-125788152D01*
X143357142Y-125788152D02*
X143309523Y-125883390D01*
X143309523Y-125883390D02*
X143261904Y-125931009D01*
X143261904Y-125931009D02*
X143166666Y-125978628D01*
X143166666Y-125978628D02*
X142785714Y-125978628D01*
X143738095Y-125550057D02*
X143785714Y-125502438D01*
X143785714Y-125502438D02*
X143880952Y-125454819D01*
X143880952Y-125454819D02*
X144119047Y-125454819D01*
X144119047Y-125454819D02*
X144214285Y-125502438D01*
X144214285Y-125502438D02*
X144261904Y-125550057D01*
X144261904Y-125550057D02*
X144309523Y-125645295D01*
X144309523Y-125645295D02*
X144309523Y-125740533D01*
X144309523Y-125740533D02*
X144261904Y-125883390D01*
X144261904Y-125883390D02*
X143690476Y-126454819D01*
X143690476Y-126454819D02*
X144309523Y-126454819D01*
X144690476Y-125550057D02*
X144738095Y-125502438D01*
X144738095Y-125502438D02*
X144833333Y-125454819D01*
X144833333Y-125454819D02*
X145071428Y-125454819D01*
X145071428Y-125454819D02*
X145166666Y-125502438D01*
X145166666Y-125502438D02*
X145214285Y-125550057D01*
X145214285Y-125550057D02*
X145261904Y-125645295D01*
X145261904Y-125645295D02*
X145261904Y-125740533D01*
X145261904Y-125740533D02*
X145214285Y-125883390D01*
X145214285Y-125883390D02*
X144642857Y-126454819D01*
X144642857Y-126454819D02*
X145261904Y-126454819D01*
X152666666Y-146454819D02*
X152666666Y-147169104D01*
X152666666Y-147169104D02*
X152619047Y-147311961D01*
X152619047Y-147311961D02*
X152523809Y-147407200D01*
X152523809Y-147407200D02*
X152380952Y-147454819D01*
X152380952Y-147454819D02*
X152285714Y-147454819D01*
X153619047Y-146454819D02*
X153142857Y-146454819D01*
X153142857Y-146454819D02*
X153095238Y-146931009D01*
X153095238Y-146931009D02*
X153142857Y-146883390D01*
X153142857Y-146883390D02*
X153238095Y-146835771D01*
X153238095Y-146835771D02*
X153476190Y-146835771D01*
X153476190Y-146835771D02*
X153571428Y-146883390D01*
X153571428Y-146883390D02*
X153619047Y-146931009D01*
X153619047Y-146931009D02*
X153666666Y-147026247D01*
X153666666Y-147026247D02*
X153666666Y-147264342D01*
X153666666Y-147264342D02*
X153619047Y-147359580D01*
X153619047Y-147359580D02*
X153571428Y-147407200D01*
X153571428Y-147407200D02*
X153476190Y-147454819D01*
X153476190Y-147454819D02*
X153238095Y-147454819D01*
X153238095Y-147454819D02*
X153142857Y-147407200D01*
X153142857Y-147407200D02*
X153095238Y-147359580D01*
X142833333Y-70359580D02*
X142785714Y-70407200D01*
X142785714Y-70407200D02*
X142642857Y-70454819D01*
X142642857Y-70454819D02*
X142547619Y-70454819D01*
X142547619Y-70454819D02*
X142404762Y-70407200D01*
X142404762Y-70407200D02*
X142309524Y-70311961D01*
X142309524Y-70311961D02*
X142261905Y-70216723D01*
X142261905Y-70216723D02*
X142214286Y-70026247D01*
X142214286Y-70026247D02*
X142214286Y-69883390D01*
X142214286Y-69883390D02*
X142261905Y-69692914D01*
X142261905Y-69692914D02*
X142309524Y-69597676D01*
X142309524Y-69597676D02*
X142404762Y-69502438D01*
X142404762Y-69502438D02*
X142547619Y-69454819D01*
X142547619Y-69454819D02*
X142642857Y-69454819D01*
X142642857Y-69454819D02*
X142785714Y-69502438D01*
X142785714Y-69502438D02*
X142833333Y-69550057D01*
X143166667Y-69454819D02*
X143833333Y-69454819D01*
X143833333Y-69454819D02*
X143404762Y-70454819D01*
X125357142Y-140454819D02*
X125023809Y-139978628D01*
X124785714Y-140454819D02*
X124785714Y-139454819D01*
X124785714Y-139454819D02*
X125166666Y-139454819D01*
X125166666Y-139454819D02*
X125261904Y-139502438D01*
X125261904Y-139502438D02*
X125309523Y-139550057D01*
X125309523Y-139550057D02*
X125357142Y-139645295D01*
X125357142Y-139645295D02*
X125357142Y-139788152D01*
X125357142Y-139788152D02*
X125309523Y-139883390D01*
X125309523Y-139883390D02*
X125261904Y-139931009D01*
X125261904Y-139931009D02*
X125166666Y-139978628D01*
X125166666Y-139978628D02*
X124785714Y-139978628D01*
X126309523Y-140454819D02*
X125738095Y-140454819D01*
X126023809Y-140454819D02*
X126023809Y-139454819D01*
X126023809Y-139454819D02*
X125928571Y-139597676D01*
X125928571Y-139597676D02*
X125833333Y-139692914D01*
X125833333Y-139692914D02*
X125738095Y-139740533D01*
X126690476Y-139550057D02*
X126738095Y-139502438D01*
X126738095Y-139502438D02*
X126833333Y-139454819D01*
X126833333Y-139454819D02*
X127071428Y-139454819D01*
X127071428Y-139454819D02*
X127166666Y-139502438D01*
X127166666Y-139502438D02*
X127214285Y-139550057D01*
X127214285Y-139550057D02*
X127261904Y-139645295D01*
X127261904Y-139645295D02*
X127261904Y-139740533D01*
X127261904Y-139740533D02*
X127214285Y-139883390D01*
X127214285Y-139883390D02*
X126642857Y-140454819D01*
X126642857Y-140454819D02*
X127261904Y-140454819D01*
X122357142Y-80359580D02*
X122309523Y-80407200D01*
X122309523Y-80407200D02*
X122166666Y-80454819D01*
X122166666Y-80454819D02*
X122071428Y-80454819D01*
X122071428Y-80454819D02*
X121928571Y-80407200D01*
X121928571Y-80407200D02*
X121833333Y-80311961D01*
X121833333Y-80311961D02*
X121785714Y-80216723D01*
X121785714Y-80216723D02*
X121738095Y-80026247D01*
X121738095Y-80026247D02*
X121738095Y-79883390D01*
X121738095Y-79883390D02*
X121785714Y-79692914D01*
X121785714Y-79692914D02*
X121833333Y-79597676D01*
X121833333Y-79597676D02*
X121928571Y-79502438D01*
X121928571Y-79502438D02*
X122071428Y-79454819D01*
X122071428Y-79454819D02*
X122166666Y-79454819D01*
X122166666Y-79454819D02*
X122309523Y-79502438D01*
X122309523Y-79502438D02*
X122357142Y-79550057D01*
X123309523Y-80454819D02*
X122738095Y-80454819D01*
X123023809Y-80454819D02*
X123023809Y-79454819D01*
X123023809Y-79454819D02*
X122928571Y-79597676D01*
X122928571Y-79597676D02*
X122833333Y-79692914D01*
X122833333Y-79692914D02*
X122738095Y-79740533D01*
X123880952Y-79883390D02*
X123785714Y-79835771D01*
X123785714Y-79835771D02*
X123738095Y-79788152D01*
X123738095Y-79788152D02*
X123690476Y-79692914D01*
X123690476Y-79692914D02*
X123690476Y-79645295D01*
X123690476Y-79645295D02*
X123738095Y-79550057D01*
X123738095Y-79550057D02*
X123785714Y-79502438D01*
X123785714Y-79502438D02*
X123880952Y-79454819D01*
X123880952Y-79454819D02*
X124071428Y-79454819D01*
X124071428Y-79454819D02*
X124166666Y-79502438D01*
X124166666Y-79502438D02*
X124214285Y-79550057D01*
X124214285Y-79550057D02*
X124261904Y-79645295D01*
X124261904Y-79645295D02*
X124261904Y-79692914D01*
X124261904Y-79692914D02*
X124214285Y-79788152D01*
X124214285Y-79788152D02*
X124166666Y-79835771D01*
X124166666Y-79835771D02*
X124071428Y-79883390D01*
X124071428Y-79883390D02*
X123880952Y-79883390D01*
X123880952Y-79883390D02*
X123785714Y-79931009D01*
X123785714Y-79931009D02*
X123738095Y-79978628D01*
X123738095Y-79978628D02*
X123690476Y-80073866D01*
X123690476Y-80073866D02*
X123690476Y-80264342D01*
X123690476Y-80264342D02*
X123738095Y-80359580D01*
X123738095Y-80359580D02*
X123785714Y-80407200D01*
X123785714Y-80407200D02*
X123880952Y-80454819D01*
X123880952Y-80454819D02*
X124071428Y-80454819D01*
X124071428Y-80454819D02*
X124166666Y-80407200D01*
X124166666Y-80407200D02*
X124214285Y-80359580D01*
X124214285Y-80359580D02*
X124261904Y-80264342D01*
X124261904Y-80264342D02*
X124261904Y-80073866D01*
X124261904Y-80073866D02*
X124214285Y-79978628D01*
X124214285Y-79978628D02*
X124166666Y-79931009D01*
X124166666Y-79931009D02*
X124071428Y-79883390D01*
X133357142Y-83454819D02*
X133023809Y-82978628D01*
X132785714Y-83454819D02*
X132785714Y-82454819D01*
X132785714Y-82454819D02*
X133166666Y-82454819D01*
X133166666Y-82454819D02*
X133261904Y-82502438D01*
X133261904Y-82502438D02*
X133309523Y-82550057D01*
X133309523Y-82550057D02*
X133357142Y-82645295D01*
X133357142Y-82645295D02*
X133357142Y-82788152D01*
X133357142Y-82788152D02*
X133309523Y-82883390D01*
X133309523Y-82883390D02*
X133261904Y-82931009D01*
X133261904Y-82931009D02*
X133166666Y-82978628D01*
X133166666Y-82978628D02*
X132785714Y-82978628D01*
X133738095Y-82550057D02*
X133785714Y-82502438D01*
X133785714Y-82502438D02*
X133880952Y-82454819D01*
X133880952Y-82454819D02*
X134119047Y-82454819D01*
X134119047Y-82454819D02*
X134214285Y-82502438D01*
X134214285Y-82502438D02*
X134261904Y-82550057D01*
X134261904Y-82550057D02*
X134309523Y-82645295D01*
X134309523Y-82645295D02*
X134309523Y-82740533D01*
X134309523Y-82740533D02*
X134261904Y-82883390D01*
X134261904Y-82883390D02*
X133690476Y-83454819D01*
X133690476Y-83454819D02*
X134309523Y-83454819D01*
X134928571Y-82454819D02*
X135023809Y-82454819D01*
X135023809Y-82454819D02*
X135119047Y-82502438D01*
X135119047Y-82502438D02*
X135166666Y-82550057D01*
X135166666Y-82550057D02*
X135214285Y-82645295D01*
X135214285Y-82645295D02*
X135261904Y-82835771D01*
X135261904Y-82835771D02*
X135261904Y-83073866D01*
X135261904Y-83073866D02*
X135214285Y-83264342D01*
X135214285Y-83264342D02*
X135166666Y-83359580D01*
X135166666Y-83359580D02*
X135119047Y-83407200D01*
X135119047Y-83407200D02*
X135023809Y-83454819D01*
X135023809Y-83454819D02*
X134928571Y-83454819D01*
X134928571Y-83454819D02*
X134833333Y-83407200D01*
X134833333Y-83407200D02*
X134785714Y-83359580D01*
X134785714Y-83359580D02*
X134738095Y-83264342D01*
X134738095Y-83264342D02*
X134690476Y-83073866D01*
X134690476Y-83073866D02*
X134690476Y-82835771D01*
X134690476Y-82835771D02*
X134738095Y-82645295D01*
X134738095Y-82645295D02*
X134785714Y-82550057D01*
X134785714Y-82550057D02*
X134833333Y-82502438D01*
X134833333Y-82502438D02*
X134928571Y-82454819D01*
X121833333Y-58359580D02*
X121785714Y-58407200D01*
X121785714Y-58407200D02*
X121642857Y-58454819D01*
X121642857Y-58454819D02*
X121547619Y-58454819D01*
X121547619Y-58454819D02*
X121404762Y-58407200D01*
X121404762Y-58407200D02*
X121309524Y-58311961D01*
X121309524Y-58311961D02*
X121261905Y-58216723D01*
X121261905Y-58216723D02*
X121214286Y-58026247D01*
X121214286Y-58026247D02*
X121214286Y-57883390D01*
X121214286Y-57883390D02*
X121261905Y-57692914D01*
X121261905Y-57692914D02*
X121309524Y-57597676D01*
X121309524Y-57597676D02*
X121404762Y-57502438D01*
X121404762Y-57502438D02*
X121547619Y-57454819D01*
X121547619Y-57454819D02*
X121642857Y-57454819D01*
X121642857Y-57454819D02*
X121785714Y-57502438D01*
X121785714Y-57502438D02*
X121833333Y-57550057D01*
X122166667Y-57454819D02*
X122785714Y-57454819D01*
X122785714Y-57454819D02*
X122452381Y-57835771D01*
X122452381Y-57835771D02*
X122595238Y-57835771D01*
X122595238Y-57835771D02*
X122690476Y-57883390D01*
X122690476Y-57883390D02*
X122738095Y-57931009D01*
X122738095Y-57931009D02*
X122785714Y-58026247D01*
X122785714Y-58026247D02*
X122785714Y-58264342D01*
X122785714Y-58264342D02*
X122738095Y-58359580D01*
X122738095Y-58359580D02*
X122690476Y-58407200D01*
X122690476Y-58407200D02*
X122595238Y-58454819D01*
X122595238Y-58454819D02*
X122309524Y-58454819D01*
X122309524Y-58454819D02*
X122214286Y-58407200D01*
X122214286Y-58407200D02*
X122166667Y-58359580D01*
X141357142Y-139359580D02*
X141309523Y-139407200D01*
X141309523Y-139407200D02*
X141166666Y-139454819D01*
X141166666Y-139454819D02*
X141071428Y-139454819D01*
X141071428Y-139454819D02*
X140928571Y-139407200D01*
X140928571Y-139407200D02*
X140833333Y-139311961D01*
X140833333Y-139311961D02*
X140785714Y-139216723D01*
X140785714Y-139216723D02*
X140738095Y-139026247D01*
X140738095Y-139026247D02*
X140738095Y-138883390D01*
X140738095Y-138883390D02*
X140785714Y-138692914D01*
X140785714Y-138692914D02*
X140833333Y-138597676D01*
X140833333Y-138597676D02*
X140928571Y-138502438D01*
X140928571Y-138502438D02*
X141071428Y-138454819D01*
X141071428Y-138454819D02*
X141166666Y-138454819D01*
X141166666Y-138454819D02*
X141309523Y-138502438D01*
X141309523Y-138502438D02*
X141357142Y-138550057D01*
X142309523Y-139454819D02*
X141738095Y-139454819D01*
X142023809Y-139454819D02*
X142023809Y-138454819D01*
X142023809Y-138454819D02*
X141928571Y-138597676D01*
X141928571Y-138597676D02*
X141833333Y-138692914D01*
X141833333Y-138692914D02*
X141738095Y-138740533D01*
X143214285Y-138454819D02*
X142738095Y-138454819D01*
X142738095Y-138454819D02*
X142690476Y-138931009D01*
X142690476Y-138931009D02*
X142738095Y-138883390D01*
X142738095Y-138883390D02*
X142833333Y-138835771D01*
X142833333Y-138835771D02*
X143071428Y-138835771D01*
X143071428Y-138835771D02*
X143166666Y-138883390D01*
X143166666Y-138883390D02*
X143214285Y-138931009D01*
X143214285Y-138931009D02*
X143261904Y-139026247D01*
X143261904Y-139026247D02*
X143261904Y-139264342D01*
X143261904Y-139264342D02*
X143214285Y-139359580D01*
X143214285Y-139359580D02*
X143166666Y-139407200D01*
X143166666Y-139407200D02*
X143071428Y-139454819D01*
X143071428Y-139454819D02*
X142833333Y-139454819D01*
X142833333Y-139454819D02*
X142738095Y-139407200D01*
X142738095Y-139407200D02*
X142690476Y-139359580D01*
X134833333Y-70454819D02*
X134500000Y-69978628D01*
X134261905Y-70454819D02*
X134261905Y-69454819D01*
X134261905Y-69454819D02*
X134642857Y-69454819D01*
X134642857Y-69454819D02*
X134738095Y-69502438D01*
X134738095Y-69502438D02*
X134785714Y-69550057D01*
X134785714Y-69550057D02*
X134833333Y-69645295D01*
X134833333Y-69645295D02*
X134833333Y-69788152D01*
X134833333Y-69788152D02*
X134785714Y-69883390D01*
X134785714Y-69883390D02*
X134738095Y-69931009D01*
X134738095Y-69931009D02*
X134642857Y-69978628D01*
X134642857Y-69978628D02*
X134261905Y-69978628D01*
X135166667Y-69454819D02*
X135833333Y-69454819D01*
X135833333Y-69454819D02*
X135404762Y-70454819D01*
X131261905Y-111454819D02*
X131261905Y-110454819D01*
X131261905Y-110454819D02*
X131500000Y-110454819D01*
X131500000Y-110454819D02*
X131642857Y-110502438D01*
X131642857Y-110502438D02*
X131738095Y-110597676D01*
X131738095Y-110597676D02*
X131785714Y-110692914D01*
X131785714Y-110692914D02*
X131833333Y-110883390D01*
X131833333Y-110883390D02*
X131833333Y-111026247D01*
X131833333Y-111026247D02*
X131785714Y-111216723D01*
X131785714Y-111216723D02*
X131738095Y-111311961D01*
X131738095Y-111311961D02*
X131642857Y-111407200D01*
X131642857Y-111407200D02*
X131500000Y-111454819D01*
X131500000Y-111454819D02*
X131261905Y-111454819D01*
X132166667Y-110454819D02*
X132785714Y-110454819D01*
X132785714Y-110454819D02*
X132452381Y-110835771D01*
X132452381Y-110835771D02*
X132595238Y-110835771D01*
X132595238Y-110835771D02*
X132690476Y-110883390D01*
X132690476Y-110883390D02*
X132738095Y-110931009D01*
X132738095Y-110931009D02*
X132785714Y-111026247D01*
X132785714Y-111026247D02*
X132785714Y-111264342D01*
X132785714Y-111264342D02*
X132738095Y-111359580D01*
X132738095Y-111359580D02*
X132690476Y-111407200D01*
X132690476Y-111407200D02*
X132595238Y-111454819D01*
X132595238Y-111454819D02*
X132309524Y-111454819D01*
X132309524Y-111454819D02*
X132214286Y-111407200D01*
X132214286Y-111407200D02*
X132166667Y-111359580D01*
X160666666Y-45454819D02*
X160666666Y-46169104D01*
X160666666Y-46169104D02*
X160619047Y-46311961D01*
X160619047Y-46311961D02*
X160523809Y-46407200D01*
X160523809Y-46407200D02*
X160380952Y-46454819D01*
X160380952Y-46454819D02*
X160285714Y-46454819D01*
X161666666Y-46454819D02*
X161095238Y-46454819D01*
X161380952Y-46454819D02*
X161380952Y-45454819D01*
X161380952Y-45454819D02*
X161285714Y-45597676D01*
X161285714Y-45597676D02*
X161190476Y-45692914D01*
X161190476Y-45692914D02*
X161095238Y-45740533D01*
X117238095Y-55454819D02*
X117238095Y-56264342D01*
X117238095Y-56264342D02*
X117285714Y-56359580D01*
X117285714Y-56359580D02*
X117333333Y-56407200D01*
X117333333Y-56407200D02*
X117428571Y-56454819D01*
X117428571Y-56454819D02*
X117619047Y-56454819D01*
X117619047Y-56454819D02*
X117714285Y-56407200D01*
X117714285Y-56407200D02*
X117761904Y-56359580D01*
X117761904Y-56359580D02*
X117809523Y-56264342D01*
X117809523Y-56264342D02*
X117809523Y-55454819D01*
X118809523Y-56454819D02*
X118238095Y-56454819D01*
X118523809Y-56454819D02*
X118523809Y-55454819D01*
X118523809Y-55454819D02*
X118428571Y-55597676D01*
X118428571Y-55597676D02*
X118333333Y-55692914D01*
X118333333Y-55692914D02*
X118238095Y-55740533D01*
X120434104Y-49161905D02*
X120434104Y-48685715D01*
X120719819Y-49257143D02*
X119719819Y-48923810D01*
X119719819Y-48923810D02*
X120719819Y-48590477D01*
X120053152Y-48257143D02*
X120719819Y-48257143D01*
X120148390Y-48257143D02*
X120100771Y-48209524D01*
X120100771Y-48209524D02*
X120053152Y-48114286D01*
X120053152Y-48114286D02*
X120053152Y-47971429D01*
X120053152Y-47971429D02*
X120100771Y-47876191D01*
X120100771Y-47876191D02*
X120196009Y-47828572D01*
X120196009Y-47828572D02*
X120719819Y-47828572D01*
X120053152Y-47495238D02*
X120053152Y-47114286D01*
X119719819Y-47352381D02*
X120576961Y-47352381D01*
X120576961Y-47352381D02*
X120672200Y-47304762D01*
X120672200Y-47304762D02*
X120719819Y-47209524D01*
X120719819Y-47209524D02*
X120719819Y-47114286D01*
X120672200Y-46400000D02*
X120719819Y-46495238D01*
X120719819Y-46495238D02*
X120719819Y-46685714D01*
X120719819Y-46685714D02*
X120672200Y-46780952D01*
X120672200Y-46780952D02*
X120576961Y-46828571D01*
X120576961Y-46828571D02*
X120196009Y-46828571D01*
X120196009Y-46828571D02*
X120100771Y-46780952D01*
X120100771Y-46780952D02*
X120053152Y-46685714D01*
X120053152Y-46685714D02*
X120053152Y-46495238D01*
X120053152Y-46495238D02*
X120100771Y-46400000D01*
X120100771Y-46400000D02*
X120196009Y-46352381D01*
X120196009Y-46352381D02*
X120291247Y-46352381D01*
X120291247Y-46352381D02*
X120386485Y-46828571D01*
X120053152Y-45923809D02*
X120719819Y-45923809D01*
X120148390Y-45923809D02*
X120100771Y-45876190D01*
X120100771Y-45876190D02*
X120053152Y-45780952D01*
X120053152Y-45780952D02*
X120053152Y-45638095D01*
X120053152Y-45638095D02*
X120100771Y-45542857D01*
X120100771Y-45542857D02*
X120196009Y-45495238D01*
X120196009Y-45495238D02*
X120719819Y-45495238D01*
X120053152Y-45019047D02*
X120719819Y-45019047D01*
X120148390Y-45019047D02*
X120100771Y-44971428D01*
X120100771Y-44971428D02*
X120053152Y-44876190D01*
X120053152Y-44876190D02*
X120053152Y-44733333D01*
X120053152Y-44733333D02*
X120100771Y-44638095D01*
X120100771Y-44638095D02*
X120196009Y-44590476D01*
X120196009Y-44590476D02*
X120719819Y-44590476D01*
X120719819Y-43685714D02*
X120196009Y-43685714D01*
X120196009Y-43685714D02*
X120100771Y-43733333D01*
X120100771Y-43733333D02*
X120053152Y-43828571D01*
X120053152Y-43828571D02*
X120053152Y-44019047D01*
X120053152Y-44019047D02*
X120100771Y-44114285D01*
X120672200Y-43685714D02*
X120719819Y-43780952D01*
X120719819Y-43780952D02*
X120719819Y-44019047D01*
X120719819Y-44019047D02*
X120672200Y-44114285D01*
X120672200Y-44114285D02*
X120576961Y-44161904D01*
X120576961Y-44161904D02*
X120481723Y-44161904D01*
X120481723Y-44161904D02*
X120386485Y-44114285D01*
X120386485Y-44114285D02*
X120338866Y-44019047D01*
X120338866Y-44019047D02*
X120338866Y-43780952D01*
X120338866Y-43780952D02*
X120291247Y-43685714D01*
X120434104Y-42495237D02*
X120434104Y-42019047D01*
X120719819Y-42590475D02*
X119719819Y-42257142D01*
X119719819Y-42257142D02*
X120719819Y-41923809D01*
X120719819Y-41590475D02*
X120053152Y-41590475D01*
X120243628Y-41590475D02*
X120148390Y-41542856D01*
X120148390Y-41542856D02*
X120100771Y-41495237D01*
X120100771Y-41495237D02*
X120053152Y-41399999D01*
X120053152Y-41399999D02*
X120053152Y-41304761D01*
X120672200Y-40590475D02*
X120719819Y-40685713D01*
X120719819Y-40685713D02*
X120719819Y-40876189D01*
X120719819Y-40876189D02*
X120672200Y-40971427D01*
X120672200Y-40971427D02*
X120576961Y-41019046D01*
X120576961Y-41019046D02*
X120196009Y-41019046D01*
X120196009Y-41019046D02*
X120100771Y-40971427D01*
X120100771Y-40971427D02*
X120053152Y-40876189D01*
X120053152Y-40876189D02*
X120053152Y-40685713D01*
X120053152Y-40685713D02*
X120100771Y-40590475D01*
X120100771Y-40590475D02*
X120196009Y-40542856D01*
X120196009Y-40542856D02*
X120291247Y-40542856D01*
X120291247Y-40542856D02*
X120386485Y-41019046D01*
X120719819Y-39685713D02*
X120196009Y-39685713D01*
X120196009Y-39685713D02*
X120100771Y-39733332D01*
X120100771Y-39733332D02*
X120053152Y-39828570D01*
X120053152Y-39828570D02*
X120053152Y-40019046D01*
X120053152Y-40019046D02*
X120100771Y-40114284D01*
X120672200Y-39685713D02*
X120719819Y-39780951D01*
X120719819Y-39780951D02*
X120719819Y-40019046D01*
X120719819Y-40019046D02*
X120672200Y-40114284D01*
X120672200Y-40114284D02*
X120576961Y-40161903D01*
X120576961Y-40161903D02*
X120481723Y-40161903D01*
X120481723Y-40161903D02*
X120386485Y-40114284D01*
X120386485Y-40114284D02*
X120338866Y-40019046D01*
X120338866Y-40019046D02*
X120338866Y-39780951D01*
X120338866Y-39780951D02*
X120291247Y-39685713D01*
X150833333Y-44454819D02*
X150500000Y-43978628D01*
X150261905Y-44454819D02*
X150261905Y-43454819D01*
X150261905Y-43454819D02*
X150642857Y-43454819D01*
X150642857Y-43454819D02*
X150738095Y-43502438D01*
X150738095Y-43502438D02*
X150785714Y-43550057D01*
X150785714Y-43550057D02*
X150833333Y-43645295D01*
X150833333Y-43645295D02*
X150833333Y-43788152D01*
X150833333Y-43788152D02*
X150785714Y-43883390D01*
X150785714Y-43883390D02*
X150738095Y-43931009D01*
X150738095Y-43931009D02*
X150642857Y-43978628D01*
X150642857Y-43978628D02*
X150261905Y-43978628D01*
X151166667Y-43454819D02*
X151785714Y-43454819D01*
X151785714Y-43454819D02*
X151452381Y-43835771D01*
X151452381Y-43835771D02*
X151595238Y-43835771D01*
X151595238Y-43835771D02*
X151690476Y-43883390D01*
X151690476Y-43883390D02*
X151738095Y-43931009D01*
X151738095Y-43931009D02*
X151785714Y-44026247D01*
X151785714Y-44026247D02*
X151785714Y-44264342D01*
X151785714Y-44264342D02*
X151738095Y-44359580D01*
X151738095Y-44359580D02*
X151690476Y-44407200D01*
X151690476Y-44407200D02*
X151595238Y-44454819D01*
X151595238Y-44454819D02*
X151309524Y-44454819D01*
X151309524Y-44454819D02*
X151214286Y-44407200D01*
X151214286Y-44407200D02*
X151166667Y-44359580D01*
X112238095Y-38254819D02*
X112238095Y-37254819D01*
X112238095Y-37731009D02*
X112809523Y-37731009D01*
X112809523Y-38254819D02*
X112809523Y-37254819D01*
X113809523Y-38254819D02*
X113238095Y-38254819D01*
X113523809Y-38254819D02*
X113523809Y-37254819D01*
X113523809Y-37254819D02*
X113428571Y-37397676D01*
X113428571Y-37397676D02*
X113333333Y-37492914D01*
X113333333Y-37492914D02*
X113238095Y-37540533D01*
X119666666Y-145931009D02*
X119333333Y-145931009D01*
X119333333Y-146454819D02*
X119333333Y-145454819D01*
X119333333Y-145454819D02*
X119809523Y-145454819D01*
X120714285Y-146454819D02*
X120142857Y-146454819D01*
X120428571Y-146454819D02*
X120428571Y-145454819D01*
X120428571Y-145454819D02*
X120333333Y-145597676D01*
X120333333Y-145597676D02*
X120238095Y-145692914D01*
X120238095Y-145692914D02*
X120142857Y-145740533D01*
X150833333Y-42454819D02*
X150500000Y-41978628D01*
X150261905Y-42454819D02*
X150261905Y-41454819D01*
X150261905Y-41454819D02*
X150642857Y-41454819D01*
X150642857Y-41454819D02*
X150738095Y-41502438D01*
X150738095Y-41502438D02*
X150785714Y-41550057D01*
X150785714Y-41550057D02*
X150833333Y-41645295D01*
X150833333Y-41645295D02*
X150833333Y-41788152D01*
X150833333Y-41788152D02*
X150785714Y-41883390D01*
X150785714Y-41883390D02*
X150738095Y-41931009D01*
X150738095Y-41931009D02*
X150642857Y-41978628D01*
X150642857Y-41978628D02*
X150261905Y-41978628D01*
X151214286Y-41550057D02*
X151261905Y-41502438D01*
X151261905Y-41502438D02*
X151357143Y-41454819D01*
X151357143Y-41454819D02*
X151595238Y-41454819D01*
X151595238Y-41454819D02*
X151690476Y-41502438D01*
X151690476Y-41502438D02*
X151738095Y-41550057D01*
X151738095Y-41550057D02*
X151785714Y-41645295D01*
X151785714Y-41645295D02*
X151785714Y-41740533D01*
X151785714Y-41740533D02*
X151738095Y-41883390D01*
X151738095Y-41883390D02*
X151166667Y-42454819D01*
X151166667Y-42454819D02*
X151785714Y-42454819D01*
X120357142Y-104454819D02*
X120023809Y-103978628D01*
X119785714Y-104454819D02*
X119785714Y-103454819D01*
X119785714Y-103454819D02*
X120166666Y-103454819D01*
X120166666Y-103454819D02*
X120261904Y-103502438D01*
X120261904Y-103502438D02*
X120309523Y-103550057D01*
X120309523Y-103550057D02*
X120357142Y-103645295D01*
X120357142Y-103645295D02*
X120357142Y-103788152D01*
X120357142Y-103788152D02*
X120309523Y-103883390D01*
X120309523Y-103883390D02*
X120261904Y-103931009D01*
X120261904Y-103931009D02*
X120166666Y-103978628D01*
X120166666Y-103978628D02*
X119785714Y-103978628D01*
X121309523Y-104454819D02*
X120738095Y-104454819D01*
X121023809Y-104454819D02*
X121023809Y-103454819D01*
X121023809Y-103454819D02*
X120928571Y-103597676D01*
X120928571Y-103597676D02*
X120833333Y-103692914D01*
X120833333Y-103692914D02*
X120738095Y-103740533D01*
X121880952Y-103883390D02*
X121785714Y-103835771D01*
X121785714Y-103835771D02*
X121738095Y-103788152D01*
X121738095Y-103788152D02*
X121690476Y-103692914D01*
X121690476Y-103692914D02*
X121690476Y-103645295D01*
X121690476Y-103645295D02*
X121738095Y-103550057D01*
X121738095Y-103550057D02*
X121785714Y-103502438D01*
X121785714Y-103502438D02*
X121880952Y-103454819D01*
X121880952Y-103454819D02*
X122071428Y-103454819D01*
X122071428Y-103454819D02*
X122166666Y-103502438D01*
X122166666Y-103502438D02*
X122214285Y-103550057D01*
X122214285Y-103550057D02*
X122261904Y-103645295D01*
X122261904Y-103645295D02*
X122261904Y-103692914D01*
X122261904Y-103692914D02*
X122214285Y-103788152D01*
X122214285Y-103788152D02*
X122166666Y-103835771D01*
X122166666Y-103835771D02*
X122071428Y-103883390D01*
X122071428Y-103883390D02*
X121880952Y-103883390D01*
X121880952Y-103883390D02*
X121785714Y-103931009D01*
X121785714Y-103931009D02*
X121738095Y-103978628D01*
X121738095Y-103978628D02*
X121690476Y-104073866D01*
X121690476Y-104073866D02*
X121690476Y-104264342D01*
X121690476Y-104264342D02*
X121738095Y-104359580D01*
X121738095Y-104359580D02*
X121785714Y-104407200D01*
X121785714Y-104407200D02*
X121880952Y-104454819D01*
X121880952Y-104454819D02*
X122071428Y-104454819D01*
X122071428Y-104454819D02*
X122166666Y-104407200D01*
X122166666Y-104407200D02*
X122214285Y-104359580D01*
X122214285Y-104359580D02*
X122261904Y-104264342D01*
X122261904Y-104264342D02*
X122261904Y-104073866D01*
X122261904Y-104073866D02*
X122214285Y-103978628D01*
X122214285Y-103978628D02*
X122166666Y-103931009D01*
X122166666Y-103931009D02*
X122071428Y-103883390D01*
X131238095Y-131054819D02*
X131238095Y-131864342D01*
X131238095Y-131864342D02*
X131285714Y-131959580D01*
X131285714Y-131959580D02*
X131333333Y-132007200D01*
X131333333Y-132007200D02*
X131428571Y-132054819D01*
X131428571Y-132054819D02*
X131619047Y-132054819D01*
X131619047Y-132054819D02*
X131714285Y-132007200D01*
X131714285Y-132007200D02*
X131761904Y-131959580D01*
X131761904Y-131959580D02*
X131809523Y-131864342D01*
X131809523Y-131864342D02*
X131809523Y-131054819D01*
X132190476Y-131054819D02*
X132809523Y-131054819D01*
X132809523Y-131054819D02*
X132476190Y-131435771D01*
X132476190Y-131435771D02*
X132619047Y-131435771D01*
X132619047Y-131435771D02*
X132714285Y-131483390D01*
X132714285Y-131483390D02*
X132761904Y-131531009D01*
X132761904Y-131531009D02*
X132809523Y-131626247D01*
X132809523Y-131626247D02*
X132809523Y-131864342D01*
X132809523Y-131864342D02*
X132761904Y-131959580D01*
X132761904Y-131959580D02*
X132714285Y-132007200D01*
X132714285Y-132007200D02*
X132619047Y-132054819D01*
X132619047Y-132054819D02*
X132333333Y-132054819D01*
X132333333Y-132054819D02*
X132238095Y-132007200D01*
X132238095Y-132007200D02*
X132190476Y-131959580D01*
X150833333Y-38454819D02*
X150500000Y-37978628D01*
X150261905Y-38454819D02*
X150261905Y-37454819D01*
X150261905Y-37454819D02*
X150642857Y-37454819D01*
X150642857Y-37454819D02*
X150738095Y-37502438D01*
X150738095Y-37502438D02*
X150785714Y-37550057D01*
X150785714Y-37550057D02*
X150833333Y-37645295D01*
X150833333Y-37645295D02*
X150833333Y-37788152D01*
X150833333Y-37788152D02*
X150785714Y-37883390D01*
X150785714Y-37883390D02*
X150738095Y-37931009D01*
X150738095Y-37931009D02*
X150642857Y-37978628D01*
X150642857Y-37978628D02*
X150261905Y-37978628D01*
X151785714Y-38454819D02*
X151214286Y-38454819D01*
X151500000Y-38454819D02*
X151500000Y-37454819D01*
X151500000Y-37454819D02*
X151404762Y-37597676D01*
X151404762Y-37597676D02*
X151309524Y-37692914D01*
X151309524Y-37692914D02*
X151214286Y-37740533D01*
X117261905Y-138454819D02*
X117261905Y-137454819D01*
X117261905Y-137454819D02*
X117500000Y-137454819D01*
X117500000Y-137454819D02*
X117642857Y-137502438D01*
X117642857Y-137502438D02*
X117738095Y-137597676D01*
X117738095Y-137597676D02*
X117785714Y-137692914D01*
X117785714Y-137692914D02*
X117833333Y-137883390D01*
X117833333Y-137883390D02*
X117833333Y-138026247D01*
X117833333Y-138026247D02*
X117785714Y-138216723D01*
X117785714Y-138216723D02*
X117738095Y-138311961D01*
X117738095Y-138311961D02*
X117642857Y-138407200D01*
X117642857Y-138407200D02*
X117500000Y-138454819D01*
X117500000Y-138454819D02*
X117261905Y-138454819D01*
X118214286Y-137550057D02*
X118261905Y-137502438D01*
X118261905Y-137502438D02*
X118357143Y-137454819D01*
X118357143Y-137454819D02*
X118595238Y-137454819D01*
X118595238Y-137454819D02*
X118690476Y-137502438D01*
X118690476Y-137502438D02*
X118738095Y-137550057D01*
X118738095Y-137550057D02*
X118785714Y-137645295D01*
X118785714Y-137645295D02*
X118785714Y-137740533D01*
X118785714Y-137740533D02*
X118738095Y-137883390D01*
X118738095Y-137883390D02*
X118166667Y-138454819D01*
X118166667Y-138454819D02*
X118785714Y-138454819D01*
X144833333Y-133359580D02*
X144785714Y-133407200D01*
X144785714Y-133407200D02*
X144642857Y-133454819D01*
X144642857Y-133454819D02*
X144547619Y-133454819D01*
X144547619Y-133454819D02*
X144404762Y-133407200D01*
X144404762Y-133407200D02*
X144309524Y-133311961D01*
X144309524Y-133311961D02*
X144261905Y-133216723D01*
X144261905Y-133216723D02*
X144214286Y-133026247D01*
X144214286Y-133026247D02*
X144214286Y-132883390D01*
X144214286Y-132883390D02*
X144261905Y-132692914D01*
X144261905Y-132692914D02*
X144309524Y-132597676D01*
X144309524Y-132597676D02*
X144404762Y-132502438D01*
X144404762Y-132502438D02*
X144547619Y-132454819D01*
X144547619Y-132454819D02*
X144642857Y-132454819D01*
X144642857Y-132454819D02*
X144785714Y-132502438D01*
X144785714Y-132502438D02*
X144833333Y-132550057D01*
X145309524Y-133454819D02*
X145500000Y-133454819D01*
X145500000Y-133454819D02*
X145595238Y-133407200D01*
X145595238Y-133407200D02*
X145642857Y-133359580D01*
X145642857Y-133359580D02*
X145738095Y-133216723D01*
X145738095Y-133216723D02*
X145785714Y-133026247D01*
X145785714Y-133026247D02*
X145785714Y-132645295D01*
X145785714Y-132645295D02*
X145738095Y-132550057D01*
X145738095Y-132550057D02*
X145690476Y-132502438D01*
X145690476Y-132502438D02*
X145595238Y-132454819D01*
X145595238Y-132454819D02*
X145404762Y-132454819D01*
X145404762Y-132454819D02*
X145309524Y-132502438D01*
X145309524Y-132502438D02*
X145261905Y-132550057D01*
X145261905Y-132550057D02*
X145214286Y-132645295D01*
X145214286Y-132645295D02*
X145214286Y-132883390D01*
X145214286Y-132883390D02*
X145261905Y-132978628D01*
X145261905Y-132978628D02*
X145309524Y-133026247D01*
X145309524Y-133026247D02*
X145404762Y-133073866D01*
X145404762Y-133073866D02*
X145595238Y-133073866D01*
X145595238Y-133073866D02*
X145690476Y-133026247D01*
X145690476Y-133026247D02*
X145738095Y-132978628D01*
X145738095Y-132978628D02*
X145785714Y-132883390D01*
X127904761Y-128550057D02*
X127809523Y-128502438D01*
X127809523Y-128502438D02*
X127714285Y-128407200D01*
X127714285Y-128407200D02*
X127571428Y-128264342D01*
X127571428Y-128264342D02*
X127476190Y-128216723D01*
X127476190Y-128216723D02*
X127380952Y-128216723D01*
X127428571Y-128454819D02*
X127333333Y-128407200D01*
X127333333Y-128407200D02*
X127238095Y-128311961D01*
X127238095Y-128311961D02*
X127190476Y-128121485D01*
X127190476Y-128121485D02*
X127190476Y-127788152D01*
X127190476Y-127788152D02*
X127238095Y-127597676D01*
X127238095Y-127597676D02*
X127333333Y-127502438D01*
X127333333Y-127502438D02*
X127428571Y-127454819D01*
X127428571Y-127454819D02*
X127619047Y-127454819D01*
X127619047Y-127454819D02*
X127714285Y-127502438D01*
X127714285Y-127502438D02*
X127809523Y-127597676D01*
X127809523Y-127597676D02*
X127857142Y-127788152D01*
X127857142Y-127788152D02*
X127857142Y-128121485D01*
X127857142Y-128121485D02*
X127809523Y-128311961D01*
X127809523Y-128311961D02*
X127714285Y-128407200D01*
X127714285Y-128407200D02*
X127619047Y-128454819D01*
X127619047Y-128454819D02*
X127428571Y-128454819D01*
X128714285Y-127454819D02*
X128523809Y-127454819D01*
X128523809Y-127454819D02*
X128428571Y-127502438D01*
X128428571Y-127502438D02*
X128380952Y-127550057D01*
X128380952Y-127550057D02*
X128285714Y-127692914D01*
X128285714Y-127692914D02*
X128238095Y-127883390D01*
X128238095Y-127883390D02*
X128238095Y-128264342D01*
X128238095Y-128264342D02*
X128285714Y-128359580D01*
X128285714Y-128359580D02*
X128333333Y-128407200D01*
X128333333Y-128407200D02*
X128428571Y-128454819D01*
X128428571Y-128454819D02*
X128619047Y-128454819D01*
X128619047Y-128454819D02*
X128714285Y-128407200D01*
X128714285Y-128407200D02*
X128761904Y-128359580D01*
X128761904Y-128359580D02*
X128809523Y-128264342D01*
X128809523Y-128264342D02*
X128809523Y-128026247D01*
X128809523Y-128026247D02*
X128761904Y-127931009D01*
X128761904Y-127931009D02*
X128714285Y-127883390D01*
X128714285Y-127883390D02*
X128619047Y-127835771D01*
X128619047Y-127835771D02*
X128428571Y-127835771D01*
X128428571Y-127835771D02*
X128333333Y-127883390D01*
X128333333Y-127883390D02*
X128285714Y-127931009D01*
X128285714Y-127931009D02*
X128238095Y-128026247D01*
X117261905Y-128454819D02*
X117261905Y-127454819D01*
X117261905Y-127454819D02*
X117500000Y-127454819D01*
X117500000Y-127454819D02*
X117642857Y-127502438D01*
X117642857Y-127502438D02*
X117738095Y-127597676D01*
X117738095Y-127597676D02*
X117785714Y-127692914D01*
X117785714Y-127692914D02*
X117833333Y-127883390D01*
X117833333Y-127883390D02*
X117833333Y-128026247D01*
X117833333Y-128026247D02*
X117785714Y-128216723D01*
X117785714Y-128216723D02*
X117738095Y-128311961D01*
X117738095Y-128311961D02*
X117642857Y-128407200D01*
X117642857Y-128407200D02*
X117500000Y-128454819D01*
X117500000Y-128454819D02*
X117261905Y-128454819D01*
X118690476Y-127454819D02*
X118500000Y-127454819D01*
X118500000Y-127454819D02*
X118404762Y-127502438D01*
X118404762Y-127502438D02*
X118357143Y-127550057D01*
X118357143Y-127550057D02*
X118261905Y-127692914D01*
X118261905Y-127692914D02*
X118214286Y-127883390D01*
X118214286Y-127883390D02*
X118214286Y-128264342D01*
X118214286Y-128264342D02*
X118261905Y-128359580D01*
X118261905Y-128359580D02*
X118309524Y-128407200D01*
X118309524Y-128407200D02*
X118404762Y-128454819D01*
X118404762Y-128454819D02*
X118595238Y-128454819D01*
X118595238Y-128454819D02*
X118690476Y-128407200D01*
X118690476Y-128407200D02*
X118738095Y-128359580D01*
X118738095Y-128359580D02*
X118785714Y-128264342D01*
X118785714Y-128264342D02*
X118785714Y-128026247D01*
X118785714Y-128026247D02*
X118738095Y-127931009D01*
X118738095Y-127931009D02*
X118690476Y-127883390D01*
X118690476Y-127883390D02*
X118595238Y-127835771D01*
X118595238Y-127835771D02*
X118404762Y-127835771D01*
X118404762Y-127835771D02*
X118309524Y-127883390D01*
X118309524Y-127883390D02*
X118261905Y-127931009D01*
X118261905Y-127931009D02*
X118214286Y-128026247D01*
X129833333Y-143454819D02*
X129500000Y-142978628D01*
X129261905Y-143454819D02*
X129261905Y-142454819D01*
X129261905Y-142454819D02*
X129642857Y-142454819D01*
X129642857Y-142454819D02*
X129738095Y-142502438D01*
X129738095Y-142502438D02*
X129785714Y-142550057D01*
X129785714Y-142550057D02*
X129833333Y-142645295D01*
X129833333Y-142645295D02*
X129833333Y-142788152D01*
X129833333Y-142788152D02*
X129785714Y-142883390D01*
X129785714Y-142883390D02*
X129738095Y-142931009D01*
X129738095Y-142931009D02*
X129642857Y-142978628D01*
X129642857Y-142978628D02*
X129261905Y-142978628D01*
X130309524Y-143454819D02*
X130500000Y-143454819D01*
X130500000Y-143454819D02*
X130595238Y-143407200D01*
X130595238Y-143407200D02*
X130642857Y-143359580D01*
X130642857Y-143359580D02*
X130738095Y-143216723D01*
X130738095Y-143216723D02*
X130785714Y-143026247D01*
X130785714Y-143026247D02*
X130785714Y-142645295D01*
X130785714Y-142645295D02*
X130738095Y-142550057D01*
X130738095Y-142550057D02*
X130690476Y-142502438D01*
X130690476Y-142502438D02*
X130595238Y-142454819D01*
X130595238Y-142454819D02*
X130404762Y-142454819D01*
X130404762Y-142454819D02*
X130309524Y-142502438D01*
X130309524Y-142502438D02*
X130261905Y-142550057D01*
X130261905Y-142550057D02*
X130214286Y-142645295D01*
X130214286Y-142645295D02*
X130214286Y-142883390D01*
X130214286Y-142883390D02*
X130261905Y-142978628D01*
X130261905Y-142978628D02*
X130309524Y-143026247D01*
X130309524Y-143026247D02*
X130404762Y-143073866D01*
X130404762Y-143073866D02*
X130595238Y-143073866D01*
X130595238Y-143073866D02*
X130690476Y-143026247D01*
X130690476Y-143026247D02*
X130738095Y-142978628D01*
X130738095Y-142978628D02*
X130785714Y-142883390D01*
X132357142Y-92454819D02*
X132023809Y-91978628D01*
X131785714Y-92454819D02*
X131785714Y-91454819D01*
X131785714Y-91454819D02*
X132166666Y-91454819D01*
X132166666Y-91454819D02*
X132261904Y-91502438D01*
X132261904Y-91502438D02*
X132309523Y-91550057D01*
X132309523Y-91550057D02*
X132357142Y-91645295D01*
X132357142Y-91645295D02*
X132357142Y-91788152D01*
X132357142Y-91788152D02*
X132309523Y-91883390D01*
X132309523Y-91883390D02*
X132261904Y-91931009D01*
X132261904Y-91931009D02*
X132166666Y-91978628D01*
X132166666Y-91978628D02*
X131785714Y-91978628D01*
X133309523Y-92454819D02*
X132738095Y-92454819D01*
X133023809Y-92454819D02*
X133023809Y-91454819D01*
X133023809Y-91454819D02*
X132928571Y-91597676D01*
X132928571Y-91597676D02*
X132833333Y-91692914D01*
X132833333Y-91692914D02*
X132738095Y-91740533D01*
X133642857Y-91454819D02*
X134261904Y-91454819D01*
X134261904Y-91454819D02*
X133928571Y-91835771D01*
X133928571Y-91835771D02*
X134071428Y-91835771D01*
X134071428Y-91835771D02*
X134166666Y-91883390D01*
X134166666Y-91883390D02*
X134214285Y-91931009D01*
X134214285Y-91931009D02*
X134261904Y-92026247D01*
X134261904Y-92026247D02*
X134261904Y-92264342D01*
X134261904Y-92264342D02*
X134214285Y-92359580D01*
X134214285Y-92359580D02*
X134166666Y-92407200D01*
X134166666Y-92407200D02*
X134071428Y-92454819D01*
X134071428Y-92454819D02*
X133785714Y-92454819D01*
X133785714Y-92454819D02*
X133690476Y-92407200D01*
X133690476Y-92407200D02*
X133642857Y-92359580D01*
X141357142Y-137359580D02*
X141309523Y-137407200D01*
X141309523Y-137407200D02*
X141166666Y-137454819D01*
X141166666Y-137454819D02*
X141071428Y-137454819D01*
X141071428Y-137454819D02*
X140928571Y-137407200D01*
X140928571Y-137407200D02*
X140833333Y-137311961D01*
X140833333Y-137311961D02*
X140785714Y-137216723D01*
X140785714Y-137216723D02*
X140738095Y-137026247D01*
X140738095Y-137026247D02*
X140738095Y-136883390D01*
X140738095Y-136883390D02*
X140785714Y-136692914D01*
X140785714Y-136692914D02*
X140833333Y-136597676D01*
X140833333Y-136597676D02*
X140928571Y-136502438D01*
X140928571Y-136502438D02*
X141071428Y-136454819D01*
X141071428Y-136454819D02*
X141166666Y-136454819D01*
X141166666Y-136454819D02*
X141309523Y-136502438D01*
X141309523Y-136502438D02*
X141357142Y-136550057D01*
X142309523Y-137454819D02*
X141738095Y-137454819D01*
X142023809Y-137454819D02*
X142023809Y-136454819D01*
X142023809Y-136454819D02*
X141928571Y-136597676D01*
X141928571Y-136597676D02*
X141833333Y-136692914D01*
X141833333Y-136692914D02*
X141738095Y-136740533D01*
X142928571Y-136454819D02*
X143023809Y-136454819D01*
X143023809Y-136454819D02*
X143119047Y-136502438D01*
X143119047Y-136502438D02*
X143166666Y-136550057D01*
X143166666Y-136550057D02*
X143214285Y-136645295D01*
X143214285Y-136645295D02*
X143261904Y-136835771D01*
X143261904Y-136835771D02*
X143261904Y-137073866D01*
X143261904Y-137073866D02*
X143214285Y-137264342D01*
X143214285Y-137264342D02*
X143166666Y-137359580D01*
X143166666Y-137359580D02*
X143119047Y-137407200D01*
X143119047Y-137407200D02*
X143023809Y-137454819D01*
X143023809Y-137454819D02*
X142928571Y-137454819D01*
X142928571Y-137454819D02*
X142833333Y-137407200D01*
X142833333Y-137407200D02*
X142785714Y-137359580D01*
X142785714Y-137359580D02*
X142738095Y-137264342D01*
X142738095Y-137264342D02*
X142690476Y-137073866D01*
X142690476Y-137073866D02*
X142690476Y-136835771D01*
X142690476Y-136835771D02*
X142738095Y-136645295D01*
X142738095Y-136645295D02*
X142785714Y-136550057D01*
X142785714Y-136550057D02*
X142833333Y-136502438D01*
X142833333Y-136502438D02*
X142928571Y-136454819D01*
X125357142Y-134454819D02*
X125023809Y-133978628D01*
X124785714Y-134454819D02*
X124785714Y-133454819D01*
X124785714Y-133454819D02*
X125166666Y-133454819D01*
X125166666Y-133454819D02*
X125261904Y-133502438D01*
X125261904Y-133502438D02*
X125309523Y-133550057D01*
X125309523Y-133550057D02*
X125357142Y-133645295D01*
X125357142Y-133645295D02*
X125357142Y-133788152D01*
X125357142Y-133788152D02*
X125309523Y-133883390D01*
X125309523Y-133883390D02*
X125261904Y-133931009D01*
X125261904Y-133931009D02*
X125166666Y-133978628D01*
X125166666Y-133978628D02*
X124785714Y-133978628D01*
X126309523Y-134454819D02*
X125738095Y-134454819D01*
X126023809Y-134454819D02*
X126023809Y-133454819D01*
X126023809Y-133454819D02*
X125928571Y-133597676D01*
X125928571Y-133597676D02*
X125833333Y-133692914D01*
X125833333Y-133692914D02*
X125738095Y-133740533D01*
X127261904Y-134454819D02*
X126690476Y-134454819D01*
X126976190Y-134454819D02*
X126976190Y-133454819D01*
X126976190Y-133454819D02*
X126880952Y-133597676D01*
X126880952Y-133597676D02*
X126785714Y-133692914D01*
X126785714Y-133692914D02*
X126690476Y-133740533D01*
X176238095Y-133304819D02*
X176238095Y-132304819D01*
X176238095Y-132781009D02*
X176809523Y-132781009D01*
X176809523Y-133304819D02*
X176809523Y-132304819D01*
X177190476Y-132304819D02*
X177809523Y-132304819D01*
X177809523Y-132304819D02*
X177476190Y-132685771D01*
X177476190Y-132685771D02*
X177619047Y-132685771D01*
X177619047Y-132685771D02*
X177714285Y-132733390D01*
X177714285Y-132733390D02*
X177761904Y-132781009D01*
X177761904Y-132781009D02*
X177809523Y-132876247D01*
X177809523Y-132876247D02*
X177809523Y-133114342D01*
X177809523Y-133114342D02*
X177761904Y-133209580D01*
X177761904Y-133209580D02*
X177714285Y-133257200D01*
X177714285Y-133257200D02*
X177619047Y-133304819D01*
X177619047Y-133304819D02*
X177333333Y-133304819D01*
X177333333Y-133304819D02*
X177238095Y-133257200D01*
X177238095Y-133257200D02*
X177190476Y-133209580D01*
X119357142Y-152359580D02*
X119309523Y-152407200D01*
X119309523Y-152407200D02*
X119166666Y-152454819D01*
X119166666Y-152454819D02*
X119071428Y-152454819D01*
X119071428Y-152454819D02*
X118928571Y-152407200D01*
X118928571Y-152407200D02*
X118833333Y-152311961D01*
X118833333Y-152311961D02*
X118785714Y-152216723D01*
X118785714Y-152216723D02*
X118738095Y-152026247D01*
X118738095Y-152026247D02*
X118738095Y-151883390D01*
X118738095Y-151883390D02*
X118785714Y-151692914D01*
X118785714Y-151692914D02*
X118833333Y-151597676D01*
X118833333Y-151597676D02*
X118928571Y-151502438D01*
X118928571Y-151502438D02*
X119071428Y-151454819D01*
X119071428Y-151454819D02*
X119166666Y-151454819D01*
X119166666Y-151454819D02*
X119309523Y-151502438D01*
X119309523Y-151502438D02*
X119357142Y-151550057D01*
X120309523Y-152454819D02*
X119738095Y-152454819D01*
X120023809Y-152454819D02*
X120023809Y-151454819D01*
X120023809Y-151454819D02*
X119928571Y-151597676D01*
X119928571Y-151597676D02*
X119833333Y-151692914D01*
X119833333Y-151692914D02*
X119738095Y-151740533D01*
X121261904Y-152454819D02*
X120690476Y-152454819D01*
X120976190Y-152454819D02*
X120976190Y-151454819D01*
X120976190Y-151454819D02*
X120880952Y-151597676D01*
X120880952Y-151597676D02*
X120785714Y-151692914D01*
X120785714Y-151692914D02*
X120690476Y-151740533D01*
X142261905Y-124454819D02*
X142261905Y-123454819D01*
X142261905Y-123454819D02*
X142500000Y-123454819D01*
X142500000Y-123454819D02*
X142642857Y-123502438D01*
X142642857Y-123502438D02*
X142738095Y-123597676D01*
X142738095Y-123597676D02*
X142785714Y-123692914D01*
X142785714Y-123692914D02*
X142833333Y-123883390D01*
X142833333Y-123883390D02*
X142833333Y-124026247D01*
X142833333Y-124026247D02*
X142785714Y-124216723D01*
X142785714Y-124216723D02*
X142738095Y-124311961D01*
X142738095Y-124311961D02*
X142642857Y-124407200D01*
X142642857Y-124407200D02*
X142500000Y-124454819D01*
X142500000Y-124454819D02*
X142261905Y-124454819D01*
X143166667Y-123454819D02*
X143833333Y-123454819D01*
X143833333Y-123454819D02*
X143404762Y-124454819D01*
X133357142Y-87454819D02*
X133023809Y-86978628D01*
X132785714Y-87454819D02*
X132785714Y-86454819D01*
X132785714Y-86454819D02*
X133166666Y-86454819D01*
X133166666Y-86454819D02*
X133261904Y-86502438D01*
X133261904Y-86502438D02*
X133309523Y-86550057D01*
X133309523Y-86550057D02*
X133357142Y-86645295D01*
X133357142Y-86645295D02*
X133357142Y-86788152D01*
X133357142Y-86788152D02*
X133309523Y-86883390D01*
X133309523Y-86883390D02*
X133261904Y-86931009D01*
X133261904Y-86931009D02*
X133166666Y-86978628D01*
X133166666Y-86978628D02*
X132785714Y-86978628D01*
X134309523Y-87454819D02*
X133738095Y-87454819D01*
X134023809Y-87454819D02*
X134023809Y-86454819D01*
X134023809Y-86454819D02*
X133928571Y-86597676D01*
X133928571Y-86597676D02*
X133833333Y-86692914D01*
X133833333Y-86692914D02*
X133738095Y-86740533D01*
X134785714Y-87454819D02*
X134976190Y-87454819D01*
X134976190Y-87454819D02*
X135071428Y-87407200D01*
X135071428Y-87407200D02*
X135119047Y-87359580D01*
X135119047Y-87359580D02*
X135214285Y-87216723D01*
X135214285Y-87216723D02*
X135261904Y-87026247D01*
X135261904Y-87026247D02*
X135261904Y-86645295D01*
X135261904Y-86645295D02*
X135214285Y-86550057D01*
X135214285Y-86550057D02*
X135166666Y-86502438D01*
X135166666Y-86502438D02*
X135071428Y-86454819D01*
X135071428Y-86454819D02*
X134880952Y-86454819D01*
X134880952Y-86454819D02*
X134785714Y-86502438D01*
X134785714Y-86502438D02*
X134738095Y-86550057D01*
X134738095Y-86550057D02*
X134690476Y-86645295D01*
X134690476Y-86645295D02*
X134690476Y-86883390D01*
X134690476Y-86883390D02*
X134738095Y-86978628D01*
X134738095Y-86978628D02*
X134785714Y-87026247D01*
X134785714Y-87026247D02*
X134880952Y-87073866D01*
X134880952Y-87073866D02*
X135071428Y-87073866D01*
X135071428Y-87073866D02*
X135166666Y-87026247D01*
X135166666Y-87026247D02*
X135214285Y-86978628D01*
X135214285Y-86978628D02*
X135261904Y-86883390D01*
X135904761Y-60550057D02*
X135809523Y-60502438D01*
X135809523Y-60502438D02*
X135714285Y-60407200D01*
X135714285Y-60407200D02*
X135571428Y-60264342D01*
X135571428Y-60264342D02*
X135476190Y-60216723D01*
X135476190Y-60216723D02*
X135380952Y-60216723D01*
X135428571Y-60454819D02*
X135333333Y-60407200D01*
X135333333Y-60407200D02*
X135238095Y-60311961D01*
X135238095Y-60311961D02*
X135190476Y-60121485D01*
X135190476Y-60121485D02*
X135190476Y-59788152D01*
X135190476Y-59788152D02*
X135238095Y-59597676D01*
X135238095Y-59597676D02*
X135333333Y-59502438D01*
X135333333Y-59502438D02*
X135428571Y-59454819D01*
X135428571Y-59454819D02*
X135619047Y-59454819D01*
X135619047Y-59454819D02*
X135714285Y-59502438D01*
X135714285Y-59502438D02*
X135809523Y-59597676D01*
X135809523Y-59597676D02*
X135857142Y-59788152D01*
X135857142Y-59788152D02*
X135857142Y-60121485D01*
X135857142Y-60121485D02*
X135809523Y-60311961D01*
X135809523Y-60311961D02*
X135714285Y-60407200D01*
X135714285Y-60407200D02*
X135619047Y-60454819D01*
X135619047Y-60454819D02*
X135428571Y-60454819D01*
X136809523Y-60454819D02*
X136238095Y-60454819D01*
X136523809Y-60454819D02*
X136523809Y-59454819D01*
X136523809Y-59454819D02*
X136428571Y-59597676D01*
X136428571Y-59597676D02*
X136333333Y-59692914D01*
X136333333Y-59692914D02*
X136238095Y-59740533D01*
X131454819Y-66761904D02*
X132264342Y-66761904D01*
X132264342Y-66761904D02*
X132359580Y-66714285D01*
X132359580Y-66714285D02*
X132407200Y-66666666D01*
X132407200Y-66666666D02*
X132454819Y-66571428D01*
X132454819Y-66571428D02*
X132454819Y-66380952D01*
X132454819Y-66380952D02*
X132407200Y-66285714D01*
X132407200Y-66285714D02*
X132359580Y-66238095D01*
X132359580Y-66238095D02*
X132264342Y-66190476D01*
X132264342Y-66190476D02*
X131454819Y-66190476D01*
X131550057Y-65761904D02*
X131502438Y-65714285D01*
X131502438Y-65714285D02*
X131454819Y-65619047D01*
X131454819Y-65619047D02*
X131454819Y-65380952D01*
X131454819Y-65380952D02*
X131502438Y-65285714D01*
X131502438Y-65285714D02*
X131550057Y-65238095D01*
X131550057Y-65238095D02*
X131645295Y-65190476D01*
X131645295Y-65190476D02*
X131740533Y-65190476D01*
X131740533Y-65190476D02*
X131883390Y-65238095D01*
X131883390Y-65238095D02*
X132454819Y-65809523D01*
X132454819Y-65809523D02*
X132454819Y-65190476D01*
X133357142Y-143454819D02*
X133023809Y-142978628D01*
X132785714Y-143454819D02*
X132785714Y-142454819D01*
X132785714Y-142454819D02*
X133166666Y-142454819D01*
X133166666Y-142454819D02*
X133261904Y-142502438D01*
X133261904Y-142502438D02*
X133309523Y-142550057D01*
X133309523Y-142550057D02*
X133357142Y-142645295D01*
X133357142Y-142645295D02*
X133357142Y-142788152D01*
X133357142Y-142788152D02*
X133309523Y-142883390D01*
X133309523Y-142883390D02*
X133261904Y-142931009D01*
X133261904Y-142931009D02*
X133166666Y-142978628D01*
X133166666Y-142978628D02*
X132785714Y-142978628D01*
X134309523Y-143454819D02*
X133738095Y-143454819D01*
X134023809Y-143454819D02*
X134023809Y-142454819D01*
X134023809Y-142454819D02*
X133928571Y-142597676D01*
X133928571Y-142597676D02*
X133833333Y-142692914D01*
X133833333Y-142692914D02*
X133738095Y-142740533D01*
X134928571Y-142454819D02*
X135023809Y-142454819D01*
X135023809Y-142454819D02*
X135119047Y-142502438D01*
X135119047Y-142502438D02*
X135166666Y-142550057D01*
X135166666Y-142550057D02*
X135214285Y-142645295D01*
X135214285Y-142645295D02*
X135261904Y-142835771D01*
X135261904Y-142835771D02*
X135261904Y-143073866D01*
X135261904Y-143073866D02*
X135214285Y-143264342D01*
X135214285Y-143264342D02*
X135166666Y-143359580D01*
X135166666Y-143359580D02*
X135119047Y-143407200D01*
X135119047Y-143407200D02*
X135023809Y-143454819D01*
X135023809Y-143454819D02*
X134928571Y-143454819D01*
X134928571Y-143454819D02*
X134833333Y-143407200D01*
X134833333Y-143407200D02*
X134785714Y-143359580D01*
X134785714Y-143359580D02*
X134738095Y-143264342D01*
X134738095Y-143264342D02*
X134690476Y-143073866D01*
X134690476Y-143073866D02*
X134690476Y-142835771D01*
X134690476Y-142835771D02*
X134738095Y-142645295D01*
X134738095Y-142645295D02*
X134785714Y-142550057D01*
X134785714Y-142550057D02*
X134833333Y-142502438D01*
X134833333Y-142502438D02*
X134928571Y-142454819D01*
X140833333Y-70454819D02*
X140500000Y-69978628D01*
X140261905Y-70454819D02*
X140261905Y-69454819D01*
X140261905Y-69454819D02*
X140642857Y-69454819D01*
X140642857Y-69454819D02*
X140738095Y-69502438D01*
X140738095Y-69502438D02*
X140785714Y-69550057D01*
X140785714Y-69550057D02*
X140833333Y-69645295D01*
X140833333Y-69645295D02*
X140833333Y-69788152D01*
X140833333Y-69788152D02*
X140785714Y-69883390D01*
X140785714Y-69883390D02*
X140738095Y-69931009D01*
X140738095Y-69931009D02*
X140642857Y-69978628D01*
X140642857Y-69978628D02*
X140261905Y-69978628D01*
X141690476Y-69454819D02*
X141500000Y-69454819D01*
X141500000Y-69454819D02*
X141404762Y-69502438D01*
X141404762Y-69502438D02*
X141357143Y-69550057D01*
X141357143Y-69550057D02*
X141261905Y-69692914D01*
X141261905Y-69692914D02*
X141214286Y-69883390D01*
X141214286Y-69883390D02*
X141214286Y-70264342D01*
X141214286Y-70264342D02*
X141261905Y-70359580D01*
X141261905Y-70359580D02*
X141309524Y-70407200D01*
X141309524Y-70407200D02*
X141404762Y-70454819D01*
X141404762Y-70454819D02*
X141595238Y-70454819D01*
X141595238Y-70454819D02*
X141690476Y-70407200D01*
X141690476Y-70407200D02*
X141738095Y-70359580D01*
X141738095Y-70359580D02*
X141785714Y-70264342D01*
X141785714Y-70264342D02*
X141785714Y-70026247D01*
X141785714Y-70026247D02*
X141738095Y-69931009D01*
X141738095Y-69931009D02*
X141690476Y-69883390D01*
X141690476Y-69883390D02*
X141595238Y-69835771D01*
X141595238Y-69835771D02*
X141404762Y-69835771D01*
X141404762Y-69835771D02*
X141309524Y-69883390D01*
X141309524Y-69883390D02*
X141261905Y-69931009D01*
X141261905Y-69931009D02*
X141214286Y-70026247D01*
X139357142Y-103359580D02*
X139309523Y-103407200D01*
X139309523Y-103407200D02*
X139166666Y-103454819D01*
X139166666Y-103454819D02*
X139071428Y-103454819D01*
X139071428Y-103454819D02*
X138928571Y-103407200D01*
X138928571Y-103407200D02*
X138833333Y-103311961D01*
X138833333Y-103311961D02*
X138785714Y-103216723D01*
X138785714Y-103216723D02*
X138738095Y-103026247D01*
X138738095Y-103026247D02*
X138738095Y-102883390D01*
X138738095Y-102883390D02*
X138785714Y-102692914D01*
X138785714Y-102692914D02*
X138833333Y-102597676D01*
X138833333Y-102597676D02*
X138928571Y-102502438D01*
X138928571Y-102502438D02*
X139071428Y-102454819D01*
X139071428Y-102454819D02*
X139166666Y-102454819D01*
X139166666Y-102454819D02*
X139309523Y-102502438D01*
X139309523Y-102502438D02*
X139357142Y-102550057D01*
X140309523Y-103454819D02*
X139738095Y-103454819D01*
X140023809Y-103454819D02*
X140023809Y-102454819D01*
X140023809Y-102454819D02*
X139928571Y-102597676D01*
X139928571Y-102597676D02*
X139833333Y-102692914D01*
X139833333Y-102692914D02*
X139738095Y-102740533D01*
X140785714Y-103454819D02*
X140976190Y-103454819D01*
X140976190Y-103454819D02*
X141071428Y-103407200D01*
X141071428Y-103407200D02*
X141119047Y-103359580D01*
X141119047Y-103359580D02*
X141214285Y-103216723D01*
X141214285Y-103216723D02*
X141261904Y-103026247D01*
X141261904Y-103026247D02*
X141261904Y-102645295D01*
X141261904Y-102645295D02*
X141214285Y-102550057D01*
X141214285Y-102550057D02*
X141166666Y-102502438D01*
X141166666Y-102502438D02*
X141071428Y-102454819D01*
X141071428Y-102454819D02*
X140880952Y-102454819D01*
X140880952Y-102454819D02*
X140785714Y-102502438D01*
X140785714Y-102502438D02*
X140738095Y-102550057D01*
X140738095Y-102550057D02*
X140690476Y-102645295D01*
X140690476Y-102645295D02*
X140690476Y-102883390D01*
X140690476Y-102883390D02*
X140738095Y-102978628D01*
X140738095Y-102978628D02*
X140785714Y-103026247D01*
X140785714Y-103026247D02*
X140880952Y-103073866D01*
X140880952Y-103073866D02*
X141071428Y-103073866D01*
X141071428Y-103073866D02*
X141166666Y-103026247D01*
X141166666Y-103026247D02*
X141214285Y-102978628D01*
X141214285Y-102978628D02*
X141261904Y-102883390D01*
X138833333Y-70454819D02*
X138500000Y-69978628D01*
X138261905Y-70454819D02*
X138261905Y-69454819D01*
X138261905Y-69454819D02*
X138642857Y-69454819D01*
X138642857Y-69454819D02*
X138738095Y-69502438D01*
X138738095Y-69502438D02*
X138785714Y-69550057D01*
X138785714Y-69550057D02*
X138833333Y-69645295D01*
X138833333Y-69645295D02*
X138833333Y-69788152D01*
X138833333Y-69788152D02*
X138785714Y-69883390D01*
X138785714Y-69883390D02*
X138738095Y-69931009D01*
X138738095Y-69931009D02*
X138642857Y-69978628D01*
X138642857Y-69978628D02*
X138261905Y-69978628D01*
X139404762Y-69883390D02*
X139309524Y-69835771D01*
X139309524Y-69835771D02*
X139261905Y-69788152D01*
X139261905Y-69788152D02*
X139214286Y-69692914D01*
X139214286Y-69692914D02*
X139214286Y-69645295D01*
X139214286Y-69645295D02*
X139261905Y-69550057D01*
X139261905Y-69550057D02*
X139309524Y-69502438D01*
X139309524Y-69502438D02*
X139404762Y-69454819D01*
X139404762Y-69454819D02*
X139595238Y-69454819D01*
X139595238Y-69454819D02*
X139690476Y-69502438D01*
X139690476Y-69502438D02*
X139738095Y-69550057D01*
X139738095Y-69550057D02*
X139785714Y-69645295D01*
X139785714Y-69645295D02*
X139785714Y-69692914D01*
X139785714Y-69692914D02*
X139738095Y-69788152D01*
X139738095Y-69788152D02*
X139690476Y-69835771D01*
X139690476Y-69835771D02*
X139595238Y-69883390D01*
X139595238Y-69883390D02*
X139404762Y-69883390D01*
X139404762Y-69883390D02*
X139309524Y-69931009D01*
X139309524Y-69931009D02*
X139261905Y-69978628D01*
X139261905Y-69978628D02*
X139214286Y-70073866D01*
X139214286Y-70073866D02*
X139214286Y-70264342D01*
X139214286Y-70264342D02*
X139261905Y-70359580D01*
X139261905Y-70359580D02*
X139309524Y-70407200D01*
X139309524Y-70407200D02*
X139404762Y-70454819D01*
X139404762Y-70454819D02*
X139595238Y-70454819D01*
X139595238Y-70454819D02*
X139690476Y-70407200D01*
X139690476Y-70407200D02*
X139738095Y-70359580D01*
X139738095Y-70359580D02*
X139785714Y-70264342D01*
X139785714Y-70264342D02*
X139785714Y-70073866D01*
X139785714Y-70073866D02*
X139738095Y-69978628D01*
X139738095Y-69978628D02*
X139690476Y-69931009D01*
X139690476Y-69931009D02*
X139595238Y-69883390D01*
X117261905Y-136454819D02*
X117261905Y-135454819D01*
X117261905Y-135454819D02*
X117500000Y-135454819D01*
X117500000Y-135454819D02*
X117642857Y-135502438D01*
X117642857Y-135502438D02*
X117738095Y-135597676D01*
X117738095Y-135597676D02*
X117785714Y-135692914D01*
X117785714Y-135692914D02*
X117833333Y-135883390D01*
X117833333Y-135883390D02*
X117833333Y-136026247D01*
X117833333Y-136026247D02*
X117785714Y-136216723D01*
X117785714Y-136216723D02*
X117738095Y-136311961D01*
X117738095Y-136311961D02*
X117642857Y-136407200D01*
X117642857Y-136407200D02*
X117500000Y-136454819D01*
X117500000Y-136454819D02*
X117261905Y-136454819D01*
X118785714Y-136454819D02*
X118214286Y-136454819D01*
X118500000Y-136454819D02*
X118500000Y-135454819D01*
X118500000Y-135454819D02*
X118404762Y-135597676D01*
X118404762Y-135597676D02*
X118309524Y-135692914D01*
X118309524Y-135692914D02*
X118214286Y-135740533D01*
X112238095Y-133254819D02*
X112238095Y-132254819D01*
X112238095Y-132731009D02*
X112809523Y-132731009D01*
X112809523Y-133254819D02*
X112809523Y-132254819D01*
X113714285Y-132588152D02*
X113714285Y-133254819D01*
X113476190Y-132207200D02*
X113238095Y-132921485D01*
X113238095Y-132921485D02*
X113857142Y-132921485D01*
X132357142Y-90359580D02*
X132309523Y-90407200D01*
X132309523Y-90407200D02*
X132166666Y-90454819D01*
X132166666Y-90454819D02*
X132071428Y-90454819D01*
X132071428Y-90454819D02*
X131928571Y-90407200D01*
X131928571Y-90407200D02*
X131833333Y-90311961D01*
X131833333Y-90311961D02*
X131785714Y-90216723D01*
X131785714Y-90216723D02*
X131738095Y-90026247D01*
X131738095Y-90026247D02*
X131738095Y-89883390D01*
X131738095Y-89883390D02*
X131785714Y-89692914D01*
X131785714Y-89692914D02*
X131833333Y-89597676D01*
X131833333Y-89597676D02*
X131928571Y-89502438D01*
X131928571Y-89502438D02*
X132071428Y-89454819D01*
X132071428Y-89454819D02*
X132166666Y-89454819D01*
X132166666Y-89454819D02*
X132309523Y-89502438D01*
X132309523Y-89502438D02*
X132357142Y-89550057D01*
X133309523Y-90454819D02*
X132738095Y-90454819D01*
X133023809Y-90454819D02*
X133023809Y-89454819D01*
X133023809Y-89454819D02*
X132928571Y-89597676D01*
X132928571Y-89597676D02*
X132833333Y-89692914D01*
X132833333Y-89692914D02*
X132738095Y-89740533D01*
X133642857Y-89454819D02*
X134309523Y-89454819D01*
X134309523Y-89454819D02*
X133880952Y-90454819D01*
X139904761Y-60550057D02*
X139809523Y-60502438D01*
X139809523Y-60502438D02*
X139714285Y-60407200D01*
X139714285Y-60407200D02*
X139571428Y-60264342D01*
X139571428Y-60264342D02*
X139476190Y-60216723D01*
X139476190Y-60216723D02*
X139380952Y-60216723D01*
X139428571Y-60454819D02*
X139333333Y-60407200D01*
X139333333Y-60407200D02*
X139238095Y-60311961D01*
X139238095Y-60311961D02*
X139190476Y-60121485D01*
X139190476Y-60121485D02*
X139190476Y-59788152D01*
X139190476Y-59788152D02*
X139238095Y-59597676D01*
X139238095Y-59597676D02*
X139333333Y-59502438D01*
X139333333Y-59502438D02*
X139428571Y-59454819D01*
X139428571Y-59454819D02*
X139619047Y-59454819D01*
X139619047Y-59454819D02*
X139714285Y-59502438D01*
X139714285Y-59502438D02*
X139809523Y-59597676D01*
X139809523Y-59597676D02*
X139857142Y-59788152D01*
X139857142Y-59788152D02*
X139857142Y-60121485D01*
X139857142Y-60121485D02*
X139809523Y-60311961D01*
X139809523Y-60311961D02*
X139714285Y-60407200D01*
X139714285Y-60407200D02*
X139619047Y-60454819D01*
X139619047Y-60454819D02*
X139428571Y-60454819D01*
X140238095Y-59550057D02*
X140285714Y-59502438D01*
X140285714Y-59502438D02*
X140380952Y-59454819D01*
X140380952Y-59454819D02*
X140619047Y-59454819D01*
X140619047Y-59454819D02*
X140714285Y-59502438D01*
X140714285Y-59502438D02*
X140761904Y-59550057D01*
X140761904Y-59550057D02*
X140809523Y-59645295D01*
X140809523Y-59645295D02*
X140809523Y-59740533D01*
X140809523Y-59740533D02*
X140761904Y-59883390D01*
X140761904Y-59883390D02*
X140190476Y-60454819D01*
X140190476Y-60454819D02*
X140809523Y-60454819D01*
X143666666Y-29454819D02*
X143666666Y-30169104D01*
X143666666Y-30169104D02*
X143619047Y-30311961D01*
X143619047Y-30311961D02*
X143523809Y-30407200D01*
X143523809Y-30407200D02*
X143380952Y-30454819D01*
X143380952Y-30454819D02*
X143285714Y-30454819D01*
X144095238Y-29550057D02*
X144142857Y-29502438D01*
X144142857Y-29502438D02*
X144238095Y-29454819D01*
X144238095Y-29454819D02*
X144476190Y-29454819D01*
X144476190Y-29454819D02*
X144571428Y-29502438D01*
X144571428Y-29502438D02*
X144619047Y-29550057D01*
X144619047Y-29550057D02*
X144666666Y-29645295D01*
X144666666Y-29645295D02*
X144666666Y-29740533D01*
X144666666Y-29740533D02*
X144619047Y-29883390D01*
X144619047Y-29883390D02*
X144047619Y-30454819D01*
X144047619Y-30454819D02*
X144666666Y-30454819D01*
X166214285Y-140931009D02*
X166357142Y-140978628D01*
X166357142Y-140978628D02*
X166404761Y-141026247D01*
X166404761Y-141026247D02*
X166452380Y-141121485D01*
X166452380Y-141121485D02*
X166452380Y-141264342D01*
X166452380Y-141264342D02*
X166404761Y-141359580D01*
X166404761Y-141359580D02*
X166357142Y-141407200D01*
X166357142Y-141407200D02*
X166261904Y-141454819D01*
X166261904Y-141454819D02*
X165880952Y-141454819D01*
X165880952Y-141454819D02*
X165880952Y-140454819D01*
X165880952Y-140454819D02*
X166214285Y-140454819D01*
X166214285Y-140454819D02*
X166309523Y-140502438D01*
X166309523Y-140502438D02*
X166357142Y-140550057D01*
X166357142Y-140550057D02*
X166404761Y-140645295D01*
X166404761Y-140645295D02*
X166404761Y-140740533D01*
X166404761Y-140740533D02*
X166357142Y-140835771D01*
X166357142Y-140835771D02*
X166309523Y-140883390D01*
X166309523Y-140883390D02*
X166214285Y-140931009D01*
X166214285Y-140931009D02*
X165880952Y-140931009D01*
X166738095Y-140454819D02*
X167309523Y-140454819D01*
X167023809Y-141454819D02*
X167023809Y-140454819D01*
X168166666Y-141454819D02*
X167595238Y-141454819D01*
X167880952Y-141454819D02*
X167880952Y-140454819D01*
X167880952Y-140454819D02*
X167785714Y-140597676D01*
X167785714Y-140597676D02*
X167690476Y-140692914D01*
X167690476Y-140692914D02*
X167595238Y-140740533D01*
X117833333Y-62359580D02*
X117785714Y-62407200D01*
X117785714Y-62407200D02*
X117642857Y-62454819D01*
X117642857Y-62454819D02*
X117547619Y-62454819D01*
X117547619Y-62454819D02*
X117404762Y-62407200D01*
X117404762Y-62407200D02*
X117309524Y-62311961D01*
X117309524Y-62311961D02*
X117261905Y-62216723D01*
X117261905Y-62216723D02*
X117214286Y-62026247D01*
X117214286Y-62026247D02*
X117214286Y-61883390D01*
X117214286Y-61883390D02*
X117261905Y-61692914D01*
X117261905Y-61692914D02*
X117309524Y-61597676D01*
X117309524Y-61597676D02*
X117404762Y-61502438D01*
X117404762Y-61502438D02*
X117547619Y-61454819D01*
X117547619Y-61454819D02*
X117642857Y-61454819D01*
X117642857Y-61454819D02*
X117785714Y-61502438D01*
X117785714Y-61502438D02*
X117833333Y-61550057D01*
X118214286Y-61550057D02*
X118261905Y-61502438D01*
X118261905Y-61502438D02*
X118357143Y-61454819D01*
X118357143Y-61454819D02*
X118595238Y-61454819D01*
X118595238Y-61454819D02*
X118690476Y-61502438D01*
X118690476Y-61502438D02*
X118738095Y-61550057D01*
X118738095Y-61550057D02*
X118785714Y-61645295D01*
X118785714Y-61645295D02*
X118785714Y-61740533D01*
X118785714Y-61740533D02*
X118738095Y-61883390D01*
X118738095Y-61883390D02*
X118166667Y-62454819D01*
X118166667Y-62454819D02*
X118785714Y-62454819D01*
X126357142Y-109454819D02*
X126023809Y-108978628D01*
X125785714Y-109454819D02*
X125785714Y-108454819D01*
X125785714Y-108454819D02*
X126166666Y-108454819D01*
X126166666Y-108454819D02*
X126261904Y-108502438D01*
X126261904Y-108502438D02*
X126309523Y-108550057D01*
X126309523Y-108550057D02*
X126357142Y-108645295D01*
X126357142Y-108645295D02*
X126357142Y-108788152D01*
X126357142Y-108788152D02*
X126309523Y-108883390D01*
X126309523Y-108883390D02*
X126261904Y-108931009D01*
X126261904Y-108931009D02*
X126166666Y-108978628D01*
X126166666Y-108978628D02*
X125785714Y-108978628D01*
X127309523Y-109454819D02*
X126738095Y-109454819D01*
X127023809Y-109454819D02*
X127023809Y-108454819D01*
X127023809Y-108454819D02*
X126928571Y-108597676D01*
X126928571Y-108597676D02*
X126833333Y-108692914D01*
X126833333Y-108692914D02*
X126738095Y-108740533D01*
X127642857Y-108454819D02*
X128309523Y-108454819D01*
X128309523Y-108454819D02*
X127880952Y-109454819D01*
X137261905Y-111454819D02*
X137261905Y-110454819D01*
X137261905Y-110454819D02*
X137500000Y-110454819D01*
X137500000Y-110454819D02*
X137642857Y-110502438D01*
X137642857Y-110502438D02*
X137738095Y-110597676D01*
X137738095Y-110597676D02*
X137785714Y-110692914D01*
X137785714Y-110692914D02*
X137833333Y-110883390D01*
X137833333Y-110883390D02*
X137833333Y-111026247D01*
X137833333Y-111026247D02*
X137785714Y-111216723D01*
X137785714Y-111216723D02*
X137738095Y-111311961D01*
X137738095Y-111311961D02*
X137642857Y-111407200D01*
X137642857Y-111407200D02*
X137500000Y-111454819D01*
X137500000Y-111454819D02*
X137261905Y-111454819D01*
X138690476Y-110788152D02*
X138690476Y-111454819D01*
X138452381Y-110407200D02*
X138214286Y-111121485D01*
X138214286Y-111121485D02*
X138833333Y-111121485D01*
X145666666Y-29454819D02*
X145666666Y-30169104D01*
X145666666Y-30169104D02*
X145619047Y-30311961D01*
X145619047Y-30311961D02*
X145523809Y-30407200D01*
X145523809Y-30407200D02*
X145380952Y-30454819D01*
X145380952Y-30454819D02*
X145285714Y-30454819D01*
X146047619Y-29454819D02*
X146666666Y-29454819D01*
X146666666Y-29454819D02*
X146333333Y-29835771D01*
X146333333Y-29835771D02*
X146476190Y-29835771D01*
X146476190Y-29835771D02*
X146571428Y-29883390D01*
X146571428Y-29883390D02*
X146619047Y-29931009D01*
X146619047Y-29931009D02*
X146666666Y-30026247D01*
X146666666Y-30026247D02*
X146666666Y-30264342D01*
X146666666Y-30264342D02*
X146619047Y-30359580D01*
X146619047Y-30359580D02*
X146571428Y-30407200D01*
X146571428Y-30407200D02*
X146476190Y-30454819D01*
X146476190Y-30454819D02*
X146190476Y-30454819D01*
X146190476Y-30454819D02*
X146095238Y-30407200D01*
X146095238Y-30407200D02*
X146047619Y-30359580D01*
X144261905Y-87454819D02*
X144261905Y-86454819D01*
X144261905Y-86454819D02*
X144500000Y-86454819D01*
X144500000Y-86454819D02*
X144642857Y-86502438D01*
X144642857Y-86502438D02*
X144738095Y-86597676D01*
X144738095Y-86597676D02*
X144785714Y-86692914D01*
X144785714Y-86692914D02*
X144833333Y-86883390D01*
X144833333Y-86883390D02*
X144833333Y-87026247D01*
X144833333Y-87026247D02*
X144785714Y-87216723D01*
X144785714Y-87216723D02*
X144738095Y-87311961D01*
X144738095Y-87311961D02*
X144642857Y-87407200D01*
X144642857Y-87407200D02*
X144500000Y-87454819D01*
X144500000Y-87454819D02*
X144261905Y-87454819D01*
X145738095Y-86454819D02*
X145261905Y-86454819D01*
X145261905Y-86454819D02*
X145214286Y-86931009D01*
X145214286Y-86931009D02*
X145261905Y-86883390D01*
X145261905Y-86883390D02*
X145357143Y-86835771D01*
X145357143Y-86835771D02*
X145595238Y-86835771D01*
X145595238Y-86835771D02*
X145690476Y-86883390D01*
X145690476Y-86883390D02*
X145738095Y-86931009D01*
X145738095Y-86931009D02*
X145785714Y-87026247D01*
X145785714Y-87026247D02*
X145785714Y-87264342D01*
X145785714Y-87264342D02*
X145738095Y-87359580D01*
X145738095Y-87359580D02*
X145690476Y-87407200D01*
X145690476Y-87407200D02*
X145595238Y-87454819D01*
X145595238Y-87454819D02*
X145357143Y-87454819D01*
X145357143Y-87454819D02*
X145261905Y-87407200D01*
X145261905Y-87407200D02*
X145214286Y-87359580D01*
X134904761Y-111550057D02*
X134809523Y-111502438D01*
X134809523Y-111502438D02*
X134714285Y-111407200D01*
X134714285Y-111407200D02*
X134571428Y-111264342D01*
X134571428Y-111264342D02*
X134476190Y-111216723D01*
X134476190Y-111216723D02*
X134380952Y-111216723D01*
X134428571Y-111454819D02*
X134333333Y-111407200D01*
X134333333Y-111407200D02*
X134238095Y-111311961D01*
X134238095Y-111311961D02*
X134190476Y-111121485D01*
X134190476Y-111121485D02*
X134190476Y-110788152D01*
X134190476Y-110788152D02*
X134238095Y-110597676D01*
X134238095Y-110597676D02*
X134333333Y-110502438D01*
X134333333Y-110502438D02*
X134428571Y-110454819D01*
X134428571Y-110454819D02*
X134619047Y-110454819D01*
X134619047Y-110454819D02*
X134714285Y-110502438D01*
X134714285Y-110502438D02*
X134809523Y-110597676D01*
X134809523Y-110597676D02*
X134857142Y-110788152D01*
X134857142Y-110788152D02*
X134857142Y-111121485D01*
X134857142Y-111121485D02*
X134809523Y-111311961D01*
X134809523Y-111311961D02*
X134714285Y-111407200D01*
X134714285Y-111407200D02*
X134619047Y-111454819D01*
X134619047Y-111454819D02*
X134428571Y-111454819D01*
X135190476Y-110454819D02*
X135809523Y-110454819D01*
X135809523Y-110454819D02*
X135476190Y-110835771D01*
X135476190Y-110835771D02*
X135619047Y-110835771D01*
X135619047Y-110835771D02*
X135714285Y-110883390D01*
X135714285Y-110883390D02*
X135761904Y-110931009D01*
X135761904Y-110931009D02*
X135809523Y-111026247D01*
X135809523Y-111026247D02*
X135809523Y-111264342D01*
X135809523Y-111264342D02*
X135761904Y-111359580D01*
X135761904Y-111359580D02*
X135714285Y-111407200D01*
X135714285Y-111407200D02*
X135619047Y-111454819D01*
X135619047Y-111454819D02*
X135333333Y-111454819D01*
X135333333Y-111454819D02*
X135238095Y-111407200D01*
X135238095Y-111407200D02*
X135190476Y-111359580D01*
X170833333Y-44359580D02*
X170785714Y-44407200D01*
X170785714Y-44407200D02*
X170642857Y-44454819D01*
X170642857Y-44454819D02*
X170547619Y-44454819D01*
X170547619Y-44454819D02*
X170404762Y-44407200D01*
X170404762Y-44407200D02*
X170309524Y-44311961D01*
X170309524Y-44311961D02*
X170261905Y-44216723D01*
X170261905Y-44216723D02*
X170214286Y-44026247D01*
X170214286Y-44026247D02*
X170214286Y-43883390D01*
X170214286Y-43883390D02*
X170261905Y-43692914D01*
X170261905Y-43692914D02*
X170309524Y-43597676D01*
X170309524Y-43597676D02*
X170404762Y-43502438D01*
X170404762Y-43502438D02*
X170547619Y-43454819D01*
X170547619Y-43454819D02*
X170642857Y-43454819D01*
X170642857Y-43454819D02*
X170785714Y-43502438D01*
X170785714Y-43502438D02*
X170833333Y-43550057D01*
X171785714Y-44454819D02*
X171214286Y-44454819D01*
X171500000Y-44454819D02*
X171500000Y-43454819D01*
X171500000Y-43454819D02*
X171404762Y-43597676D01*
X171404762Y-43597676D02*
X171309524Y-43692914D01*
X171309524Y-43692914D02*
X171214286Y-43740533D01*
X118357142Y-120454819D02*
X118023809Y-119978628D01*
X117785714Y-120454819D02*
X117785714Y-119454819D01*
X117785714Y-119454819D02*
X118166666Y-119454819D01*
X118166666Y-119454819D02*
X118261904Y-119502438D01*
X118261904Y-119502438D02*
X118309523Y-119550057D01*
X118309523Y-119550057D02*
X118357142Y-119645295D01*
X118357142Y-119645295D02*
X118357142Y-119788152D01*
X118357142Y-119788152D02*
X118309523Y-119883390D01*
X118309523Y-119883390D02*
X118261904Y-119931009D01*
X118261904Y-119931009D02*
X118166666Y-119978628D01*
X118166666Y-119978628D02*
X117785714Y-119978628D01*
X118738095Y-119550057D02*
X118785714Y-119502438D01*
X118785714Y-119502438D02*
X118880952Y-119454819D01*
X118880952Y-119454819D02*
X119119047Y-119454819D01*
X119119047Y-119454819D02*
X119214285Y-119502438D01*
X119214285Y-119502438D02*
X119261904Y-119550057D01*
X119261904Y-119550057D02*
X119309523Y-119645295D01*
X119309523Y-119645295D02*
X119309523Y-119740533D01*
X119309523Y-119740533D02*
X119261904Y-119883390D01*
X119261904Y-119883390D02*
X118690476Y-120454819D01*
X118690476Y-120454819D02*
X119309523Y-120454819D01*
X119642857Y-119454819D02*
X120261904Y-119454819D01*
X120261904Y-119454819D02*
X119928571Y-119835771D01*
X119928571Y-119835771D02*
X120071428Y-119835771D01*
X120071428Y-119835771D02*
X120166666Y-119883390D01*
X120166666Y-119883390D02*
X120214285Y-119931009D01*
X120214285Y-119931009D02*
X120261904Y-120026247D01*
X120261904Y-120026247D02*
X120261904Y-120264342D01*
X120261904Y-120264342D02*
X120214285Y-120359580D01*
X120214285Y-120359580D02*
X120166666Y-120407200D01*
X120166666Y-120407200D02*
X120071428Y-120454819D01*
X120071428Y-120454819D02*
X119785714Y-120454819D01*
X119785714Y-120454819D02*
X119690476Y-120407200D01*
X119690476Y-120407200D02*
X119642857Y-120359580D01*
X133357142Y-85454819D02*
X133023809Y-84978628D01*
X132785714Y-85454819D02*
X132785714Y-84454819D01*
X132785714Y-84454819D02*
X133166666Y-84454819D01*
X133166666Y-84454819D02*
X133261904Y-84502438D01*
X133261904Y-84502438D02*
X133309523Y-84550057D01*
X133309523Y-84550057D02*
X133357142Y-84645295D01*
X133357142Y-84645295D02*
X133357142Y-84788152D01*
X133357142Y-84788152D02*
X133309523Y-84883390D01*
X133309523Y-84883390D02*
X133261904Y-84931009D01*
X133261904Y-84931009D02*
X133166666Y-84978628D01*
X133166666Y-84978628D02*
X132785714Y-84978628D01*
X133738095Y-84550057D02*
X133785714Y-84502438D01*
X133785714Y-84502438D02*
X133880952Y-84454819D01*
X133880952Y-84454819D02*
X134119047Y-84454819D01*
X134119047Y-84454819D02*
X134214285Y-84502438D01*
X134214285Y-84502438D02*
X134261904Y-84550057D01*
X134261904Y-84550057D02*
X134309523Y-84645295D01*
X134309523Y-84645295D02*
X134309523Y-84740533D01*
X134309523Y-84740533D02*
X134261904Y-84883390D01*
X134261904Y-84883390D02*
X133690476Y-85454819D01*
X133690476Y-85454819D02*
X134309523Y-85454819D01*
X135261904Y-85454819D02*
X134690476Y-85454819D01*
X134976190Y-85454819D02*
X134976190Y-84454819D01*
X134976190Y-84454819D02*
X134880952Y-84597676D01*
X134880952Y-84597676D02*
X134785714Y-84692914D01*
X134785714Y-84692914D02*
X134690476Y-84740533D01*
X143357142Y-101359580D02*
X143309523Y-101407200D01*
X143309523Y-101407200D02*
X143166666Y-101454819D01*
X143166666Y-101454819D02*
X143071428Y-101454819D01*
X143071428Y-101454819D02*
X142928571Y-101407200D01*
X142928571Y-101407200D02*
X142833333Y-101311961D01*
X142833333Y-101311961D02*
X142785714Y-101216723D01*
X142785714Y-101216723D02*
X142738095Y-101026247D01*
X142738095Y-101026247D02*
X142738095Y-100883390D01*
X142738095Y-100883390D02*
X142785714Y-100692914D01*
X142785714Y-100692914D02*
X142833333Y-100597676D01*
X142833333Y-100597676D02*
X142928571Y-100502438D01*
X142928571Y-100502438D02*
X143071428Y-100454819D01*
X143071428Y-100454819D02*
X143166666Y-100454819D01*
X143166666Y-100454819D02*
X143309523Y-100502438D01*
X143309523Y-100502438D02*
X143357142Y-100550057D01*
X143738095Y-100550057D02*
X143785714Y-100502438D01*
X143785714Y-100502438D02*
X143880952Y-100454819D01*
X143880952Y-100454819D02*
X144119047Y-100454819D01*
X144119047Y-100454819D02*
X144214285Y-100502438D01*
X144214285Y-100502438D02*
X144261904Y-100550057D01*
X144261904Y-100550057D02*
X144309523Y-100645295D01*
X144309523Y-100645295D02*
X144309523Y-100740533D01*
X144309523Y-100740533D02*
X144261904Y-100883390D01*
X144261904Y-100883390D02*
X143690476Y-101454819D01*
X143690476Y-101454819D02*
X144309523Y-101454819D01*
X144928571Y-100454819D02*
X145023809Y-100454819D01*
X145023809Y-100454819D02*
X145119047Y-100502438D01*
X145119047Y-100502438D02*
X145166666Y-100550057D01*
X145166666Y-100550057D02*
X145214285Y-100645295D01*
X145214285Y-100645295D02*
X145261904Y-100835771D01*
X145261904Y-100835771D02*
X145261904Y-101073866D01*
X145261904Y-101073866D02*
X145214285Y-101264342D01*
X145214285Y-101264342D02*
X145166666Y-101359580D01*
X145166666Y-101359580D02*
X145119047Y-101407200D01*
X145119047Y-101407200D02*
X145023809Y-101454819D01*
X145023809Y-101454819D02*
X144928571Y-101454819D01*
X144928571Y-101454819D02*
X144833333Y-101407200D01*
X144833333Y-101407200D02*
X144785714Y-101359580D01*
X144785714Y-101359580D02*
X144738095Y-101264342D01*
X144738095Y-101264342D02*
X144690476Y-101073866D01*
X144690476Y-101073866D02*
X144690476Y-100835771D01*
X144690476Y-100835771D02*
X144738095Y-100645295D01*
X144738095Y-100645295D02*
X144785714Y-100550057D01*
X144785714Y-100550057D02*
X144833333Y-100502438D01*
X144833333Y-100502438D02*
X144928571Y-100454819D01*
X127895833Y-62454819D02*
X127562500Y-61978628D01*
X127324405Y-62454819D02*
X127324405Y-61454819D01*
X127324405Y-61454819D02*
X127705357Y-61454819D01*
X127705357Y-61454819D02*
X127800595Y-61502438D01*
X127800595Y-61502438D02*
X127848214Y-61550057D01*
X127848214Y-61550057D02*
X127895833Y-61645295D01*
X127895833Y-61645295D02*
X127895833Y-61788152D01*
X127895833Y-61788152D02*
X127848214Y-61883390D01*
X127848214Y-61883390D02*
X127800595Y-61931009D01*
X127800595Y-61931009D02*
X127705357Y-61978628D01*
X127705357Y-61978628D02*
X127324405Y-61978628D01*
X128800595Y-61454819D02*
X128324405Y-61454819D01*
X128324405Y-61454819D02*
X128276786Y-61931009D01*
X128276786Y-61931009D02*
X128324405Y-61883390D01*
X128324405Y-61883390D02*
X128419643Y-61835771D01*
X128419643Y-61835771D02*
X128657738Y-61835771D01*
X128657738Y-61835771D02*
X128752976Y-61883390D01*
X128752976Y-61883390D02*
X128800595Y-61931009D01*
X128800595Y-61931009D02*
X128848214Y-62026247D01*
X128848214Y-62026247D02*
X128848214Y-62264342D01*
X128848214Y-62264342D02*
X128800595Y-62359580D01*
X128800595Y-62359580D02*
X128752976Y-62407200D01*
X128752976Y-62407200D02*
X128657738Y-62454819D01*
X128657738Y-62454819D02*
X128419643Y-62454819D01*
X128419643Y-62454819D02*
X128324405Y-62407200D01*
X128324405Y-62407200D02*
X128276786Y-62359580D01*
X128357142Y-104454819D02*
X128023809Y-103978628D01*
X127785714Y-104454819D02*
X127785714Y-103454819D01*
X127785714Y-103454819D02*
X128166666Y-103454819D01*
X128166666Y-103454819D02*
X128261904Y-103502438D01*
X128261904Y-103502438D02*
X128309523Y-103550057D01*
X128309523Y-103550057D02*
X128357142Y-103645295D01*
X128357142Y-103645295D02*
X128357142Y-103788152D01*
X128357142Y-103788152D02*
X128309523Y-103883390D01*
X128309523Y-103883390D02*
X128261904Y-103931009D01*
X128261904Y-103931009D02*
X128166666Y-103978628D01*
X128166666Y-103978628D02*
X127785714Y-103978628D01*
X129309523Y-104454819D02*
X128738095Y-104454819D01*
X129023809Y-104454819D02*
X129023809Y-103454819D01*
X129023809Y-103454819D02*
X128928571Y-103597676D01*
X128928571Y-103597676D02*
X128833333Y-103692914D01*
X128833333Y-103692914D02*
X128738095Y-103740533D01*
X130166666Y-103788152D02*
X130166666Y-104454819D01*
X129928571Y-103407200D02*
X129690476Y-104121485D01*
X129690476Y-104121485D02*
X130309523Y-104121485D01*
X121833333Y-56359580D02*
X121785714Y-56407200D01*
X121785714Y-56407200D02*
X121642857Y-56454819D01*
X121642857Y-56454819D02*
X121547619Y-56454819D01*
X121547619Y-56454819D02*
X121404762Y-56407200D01*
X121404762Y-56407200D02*
X121309524Y-56311961D01*
X121309524Y-56311961D02*
X121261905Y-56216723D01*
X121261905Y-56216723D02*
X121214286Y-56026247D01*
X121214286Y-56026247D02*
X121214286Y-55883390D01*
X121214286Y-55883390D02*
X121261905Y-55692914D01*
X121261905Y-55692914D02*
X121309524Y-55597676D01*
X121309524Y-55597676D02*
X121404762Y-55502438D01*
X121404762Y-55502438D02*
X121547619Y-55454819D01*
X121547619Y-55454819D02*
X121642857Y-55454819D01*
X121642857Y-55454819D02*
X121785714Y-55502438D01*
X121785714Y-55502438D02*
X121833333Y-55550057D01*
X122690476Y-55788152D02*
X122690476Y-56454819D01*
X122452381Y-55407200D02*
X122214286Y-56121485D01*
X122214286Y-56121485D02*
X122833333Y-56121485D01*
X128357142Y-80359580D02*
X128309523Y-80407200D01*
X128309523Y-80407200D02*
X128166666Y-80454819D01*
X128166666Y-80454819D02*
X128071428Y-80454819D01*
X128071428Y-80454819D02*
X127928571Y-80407200D01*
X127928571Y-80407200D02*
X127833333Y-80311961D01*
X127833333Y-80311961D02*
X127785714Y-80216723D01*
X127785714Y-80216723D02*
X127738095Y-80026247D01*
X127738095Y-80026247D02*
X127738095Y-79883390D01*
X127738095Y-79883390D02*
X127785714Y-79692914D01*
X127785714Y-79692914D02*
X127833333Y-79597676D01*
X127833333Y-79597676D02*
X127928571Y-79502438D01*
X127928571Y-79502438D02*
X128071428Y-79454819D01*
X128071428Y-79454819D02*
X128166666Y-79454819D01*
X128166666Y-79454819D02*
X128309523Y-79502438D01*
X128309523Y-79502438D02*
X128357142Y-79550057D01*
X129309523Y-80454819D02*
X128738095Y-80454819D01*
X129023809Y-80454819D02*
X129023809Y-79454819D01*
X129023809Y-79454819D02*
X128928571Y-79597676D01*
X128928571Y-79597676D02*
X128833333Y-79692914D01*
X128833333Y-79692914D02*
X128738095Y-79740533D01*
X130166666Y-79454819D02*
X129976190Y-79454819D01*
X129976190Y-79454819D02*
X129880952Y-79502438D01*
X129880952Y-79502438D02*
X129833333Y-79550057D01*
X129833333Y-79550057D02*
X129738095Y-79692914D01*
X129738095Y-79692914D02*
X129690476Y-79883390D01*
X129690476Y-79883390D02*
X129690476Y-80264342D01*
X129690476Y-80264342D02*
X129738095Y-80359580D01*
X129738095Y-80359580D02*
X129785714Y-80407200D01*
X129785714Y-80407200D02*
X129880952Y-80454819D01*
X129880952Y-80454819D02*
X130071428Y-80454819D01*
X130071428Y-80454819D02*
X130166666Y-80407200D01*
X130166666Y-80407200D02*
X130214285Y-80359580D01*
X130214285Y-80359580D02*
X130261904Y-80264342D01*
X130261904Y-80264342D02*
X130261904Y-80026247D01*
X130261904Y-80026247D02*
X130214285Y-79931009D01*
X130214285Y-79931009D02*
X130166666Y-79883390D01*
X130166666Y-79883390D02*
X130071428Y-79835771D01*
X130071428Y-79835771D02*
X129880952Y-79835771D01*
X129880952Y-79835771D02*
X129785714Y-79883390D01*
X129785714Y-79883390D02*
X129738095Y-79931009D01*
X129738095Y-79931009D02*
X129690476Y-80026247D01*
X120904761Y-128550057D02*
X120809523Y-128502438D01*
X120809523Y-128502438D02*
X120714285Y-128407200D01*
X120714285Y-128407200D02*
X120571428Y-128264342D01*
X120571428Y-128264342D02*
X120476190Y-128216723D01*
X120476190Y-128216723D02*
X120380952Y-128216723D01*
X120428571Y-128454819D02*
X120333333Y-128407200D01*
X120333333Y-128407200D02*
X120238095Y-128311961D01*
X120238095Y-128311961D02*
X120190476Y-128121485D01*
X120190476Y-128121485D02*
X120190476Y-127788152D01*
X120190476Y-127788152D02*
X120238095Y-127597676D01*
X120238095Y-127597676D02*
X120333333Y-127502438D01*
X120333333Y-127502438D02*
X120428571Y-127454819D01*
X120428571Y-127454819D02*
X120619047Y-127454819D01*
X120619047Y-127454819D02*
X120714285Y-127502438D01*
X120714285Y-127502438D02*
X120809523Y-127597676D01*
X120809523Y-127597676D02*
X120857142Y-127788152D01*
X120857142Y-127788152D02*
X120857142Y-128121485D01*
X120857142Y-128121485D02*
X120809523Y-128311961D01*
X120809523Y-128311961D02*
X120714285Y-128407200D01*
X120714285Y-128407200D02*
X120619047Y-128454819D01*
X120619047Y-128454819D02*
X120428571Y-128454819D01*
X121761904Y-127454819D02*
X121285714Y-127454819D01*
X121285714Y-127454819D02*
X121238095Y-127931009D01*
X121238095Y-127931009D02*
X121285714Y-127883390D01*
X121285714Y-127883390D02*
X121380952Y-127835771D01*
X121380952Y-127835771D02*
X121619047Y-127835771D01*
X121619047Y-127835771D02*
X121714285Y-127883390D01*
X121714285Y-127883390D02*
X121761904Y-127931009D01*
X121761904Y-127931009D02*
X121809523Y-128026247D01*
X121809523Y-128026247D02*
X121809523Y-128264342D01*
X121809523Y-128264342D02*
X121761904Y-128359580D01*
X121761904Y-128359580D02*
X121714285Y-128407200D01*
X121714285Y-128407200D02*
X121619047Y-128454819D01*
X121619047Y-128454819D02*
X121380952Y-128454819D01*
X121380952Y-128454819D02*
X121285714Y-128407200D01*
X121285714Y-128407200D02*
X121238095Y-128359580D01*
X133357142Y-149359580D02*
X133309523Y-149407200D01*
X133309523Y-149407200D02*
X133166666Y-149454819D01*
X133166666Y-149454819D02*
X133071428Y-149454819D01*
X133071428Y-149454819D02*
X132928571Y-149407200D01*
X132928571Y-149407200D02*
X132833333Y-149311961D01*
X132833333Y-149311961D02*
X132785714Y-149216723D01*
X132785714Y-149216723D02*
X132738095Y-149026247D01*
X132738095Y-149026247D02*
X132738095Y-148883390D01*
X132738095Y-148883390D02*
X132785714Y-148692914D01*
X132785714Y-148692914D02*
X132833333Y-148597676D01*
X132833333Y-148597676D02*
X132928571Y-148502438D01*
X132928571Y-148502438D02*
X133071428Y-148454819D01*
X133071428Y-148454819D02*
X133166666Y-148454819D01*
X133166666Y-148454819D02*
X133309523Y-148502438D01*
X133309523Y-148502438D02*
X133357142Y-148550057D01*
X134309523Y-149454819D02*
X133738095Y-149454819D01*
X134023809Y-149454819D02*
X134023809Y-148454819D01*
X134023809Y-148454819D02*
X133928571Y-148597676D01*
X133928571Y-148597676D02*
X133833333Y-148692914D01*
X133833333Y-148692914D02*
X133738095Y-148740533D01*
X134642857Y-148454819D02*
X135261904Y-148454819D01*
X135261904Y-148454819D02*
X134928571Y-148835771D01*
X134928571Y-148835771D02*
X135071428Y-148835771D01*
X135071428Y-148835771D02*
X135166666Y-148883390D01*
X135166666Y-148883390D02*
X135214285Y-148931009D01*
X135214285Y-148931009D02*
X135261904Y-149026247D01*
X135261904Y-149026247D02*
X135261904Y-149264342D01*
X135261904Y-149264342D02*
X135214285Y-149359580D01*
X135214285Y-149359580D02*
X135166666Y-149407200D01*
X135166666Y-149407200D02*
X135071428Y-149454819D01*
X135071428Y-149454819D02*
X134785714Y-149454819D01*
X134785714Y-149454819D02*
X134690476Y-149407200D01*
X134690476Y-149407200D02*
X134642857Y-149359580D01*
X121833333Y-66359580D02*
X121785714Y-66407200D01*
X121785714Y-66407200D02*
X121642857Y-66454819D01*
X121642857Y-66454819D02*
X121547619Y-66454819D01*
X121547619Y-66454819D02*
X121404762Y-66407200D01*
X121404762Y-66407200D02*
X121309524Y-66311961D01*
X121309524Y-66311961D02*
X121261905Y-66216723D01*
X121261905Y-66216723D02*
X121214286Y-66026247D01*
X121214286Y-66026247D02*
X121214286Y-65883390D01*
X121214286Y-65883390D02*
X121261905Y-65692914D01*
X121261905Y-65692914D02*
X121309524Y-65597676D01*
X121309524Y-65597676D02*
X121404762Y-65502438D01*
X121404762Y-65502438D02*
X121547619Y-65454819D01*
X121547619Y-65454819D02*
X121642857Y-65454819D01*
X121642857Y-65454819D02*
X121785714Y-65502438D01*
X121785714Y-65502438D02*
X121833333Y-65550057D01*
X122690476Y-65454819D02*
X122500000Y-65454819D01*
X122500000Y-65454819D02*
X122404762Y-65502438D01*
X122404762Y-65502438D02*
X122357143Y-65550057D01*
X122357143Y-65550057D02*
X122261905Y-65692914D01*
X122261905Y-65692914D02*
X122214286Y-65883390D01*
X122214286Y-65883390D02*
X122214286Y-66264342D01*
X122214286Y-66264342D02*
X122261905Y-66359580D01*
X122261905Y-66359580D02*
X122309524Y-66407200D01*
X122309524Y-66407200D02*
X122404762Y-66454819D01*
X122404762Y-66454819D02*
X122595238Y-66454819D01*
X122595238Y-66454819D02*
X122690476Y-66407200D01*
X122690476Y-66407200D02*
X122738095Y-66359580D01*
X122738095Y-66359580D02*
X122785714Y-66264342D01*
X122785714Y-66264342D02*
X122785714Y-66026247D01*
X122785714Y-66026247D02*
X122738095Y-65931009D01*
X122738095Y-65931009D02*
X122690476Y-65883390D01*
X122690476Y-65883390D02*
X122595238Y-65835771D01*
X122595238Y-65835771D02*
X122404762Y-65835771D01*
X122404762Y-65835771D02*
X122309524Y-65883390D01*
X122309524Y-65883390D02*
X122261905Y-65931009D01*
X122261905Y-65931009D02*
X122214286Y-66026247D01*
X117357142Y-140359580D02*
X117309523Y-140407200D01*
X117309523Y-140407200D02*
X117166666Y-140454819D01*
X117166666Y-140454819D02*
X117071428Y-140454819D01*
X117071428Y-140454819D02*
X116928571Y-140407200D01*
X116928571Y-140407200D02*
X116833333Y-140311961D01*
X116833333Y-140311961D02*
X116785714Y-140216723D01*
X116785714Y-140216723D02*
X116738095Y-140026247D01*
X116738095Y-140026247D02*
X116738095Y-139883390D01*
X116738095Y-139883390D02*
X116785714Y-139692914D01*
X116785714Y-139692914D02*
X116833333Y-139597676D01*
X116833333Y-139597676D02*
X116928571Y-139502438D01*
X116928571Y-139502438D02*
X117071428Y-139454819D01*
X117071428Y-139454819D02*
X117166666Y-139454819D01*
X117166666Y-139454819D02*
X117309523Y-139502438D01*
X117309523Y-139502438D02*
X117357142Y-139550057D01*
X118309523Y-140454819D02*
X117738095Y-140454819D01*
X118023809Y-140454819D02*
X118023809Y-139454819D01*
X118023809Y-139454819D02*
X117928571Y-139597676D01*
X117928571Y-139597676D02*
X117833333Y-139692914D01*
X117833333Y-139692914D02*
X117738095Y-139740533D01*
X119166666Y-139788152D02*
X119166666Y-140454819D01*
X118928571Y-139407200D02*
X118690476Y-140121485D01*
X118690476Y-140121485D02*
X119309523Y-140121485D01*
X129357142Y-149359580D02*
X129309523Y-149407200D01*
X129309523Y-149407200D02*
X129166666Y-149454819D01*
X129166666Y-149454819D02*
X129071428Y-149454819D01*
X129071428Y-149454819D02*
X128928571Y-149407200D01*
X128928571Y-149407200D02*
X128833333Y-149311961D01*
X128833333Y-149311961D02*
X128785714Y-149216723D01*
X128785714Y-149216723D02*
X128738095Y-149026247D01*
X128738095Y-149026247D02*
X128738095Y-148883390D01*
X128738095Y-148883390D02*
X128785714Y-148692914D01*
X128785714Y-148692914D02*
X128833333Y-148597676D01*
X128833333Y-148597676D02*
X128928571Y-148502438D01*
X128928571Y-148502438D02*
X129071428Y-148454819D01*
X129071428Y-148454819D02*
X129166666Y-148454819D01*
X129166666Y-148454819D02*
X129309523Y-148502438D01*
X129309523Y-148502438D02*
X129357142Y-148550057D01*
X130309523Y-149454819D02*
X129738095Y-149454819D01*
X130023809Y-149454819D02*
X130023809Y-148454819D01*
X130023809Y-148454819D02*
X129928571Y-148597676D01*
X129928571Y-148597676D02*
X129833333Y-148692914D01*
X129833333Y-148692914D02*
X129738095Y-148740533D01*
X130690476Y-148550057D02*
X130738095Y-148502438D01*
X130738095Y-148502438D02*
X130833333Y-148454819D01*
X130833333Y-148454819D02*
X131071428Y-148454819D01*
X131071428Y-148454819D02*
X131166666Y-148502438D01*
X131166666Y-148502438D02*
X131214285Y-148550057D01*
X131214285Y-148550057D02*
X131261904Y-148645295D01*
X131261904Y-148645295D02*
X131261904Y-148740533D01*
X131261904Y-148740533D02*
X131214285Y-148883390D01*
X131214285Y-148883390D02*
X130642857Y-149454819D01*
X130642857Y-149454819D02*
X131261904Y-149454819D01*
D12*
X132890000Y-95590000D02*
X132890000Y-95130000D01*
X132890000Y-99110000D02*
X132890000Y-98410000D01*
X133590000Y-94890000D02*
X133190000Y-94890000D01*
X133590000Y-99110000D02*
X132890000Y-99110000D01*
X136410000Y-94890000D02*
X137110000Y-94890000D01*
X136410000Y-99110000D02*
X137110000Y-99110000D01*
X137110000Y-94890000D02*
X137110000Y-95590000D01*
X137110000Y-99110000D02*
X137110000Y-98410000D01*
X132890000Y-94890000D02*
X132650000Y-94560000D01*
X133130000Y-94560000D01*
X132890000Y-94890000D01*
G36*
X132890000Y-94890000D02*
G01*
X132650000Y-94560000D01*
X133130000Y-94560000D01*
X132890000Y-94890000D01*
G37*
D10*
X163940800Y-50045200D02*
X163940800Y-47950000D01*
X164357200Y-45687400D02*
X169650000Y-45697200D01*
X169050000Y-52291400D02*
X164382600Y-52291400D01*
X170046800Y-50049600D02*
X170296800Y-50049600D01*
X170046800Y-50056200D02*
X170046800Y-47948000D01*
X151940800Y-50045200D02*
X151940800Y-47950000D01*
X152357200Y-45687400D02*
X157650000Y-45697200D01*
X157050000Y-52291400D02*
X152382600Y-52291400D01*
X158046800Y-50049600D02*
X158296800Y-50049600D01*
X158046800Y-50056200D02*
X158046800Y-47948000D01*
D12*
X129490000Y-58853733D02*
X129490000Y-59146267D01*
X130510000Y-58853733D02*
X130510000Y-59146267D01*
X119700000Y-91700000D02*
X130300000Y-91700000D01*
X119700000Y-94900000D02*
X119700000Y-91700000D01*
X119700000Y-102300000D02*
X119700000Y-99100000D01*
X130300000Y-91700000D02*
X130300000Y-94900000D01*
X130300000Y-99100000D02*
X130300000Y-102300000D01*
X130300000Y-102300000D02*
X119700000Y-102300000D01*
X137477500Y-92254724D02*
X137477500Y-91745276D01*
X138522500Y-92254724D02*
X138522500Y-91745276D01*
X132254724Y-123477500D02*
X131745276Y-123477500D01*
X132254724Y-124522500D02*
X131745276Y-124522500D01*
X139477500Y-91745276D02*
X139477500Y-92254724D01*
X140522500Y-91745276D02*
X140522500Y-92254724D01*
X139853733Y-98490000D02*
X140146267Y-98490000D01*
X139853733Y-99510000D02*
X140146267Y-99510000D01*
X167745276Y-41477500D02*
X168254724Y-41477500D01*
X167745276Y-42522500D02*
X168254724Y-42522500D01*
X142945000Y-84690000D02*
X142945000Y-85580000D01*
X142945000Y-85580000D02*
X141095000Y-85580000D01*
X142960000Y-82460000D02*
X141110000Y-82460000D01*
X142960000Y-82460000D02*
X142960000Y-83350000D01*
X140720000Y-82450000D02*
X140480000Y-82120000D01*
X140960000Y-82120000D01*
X140720000Y-82450000D01*
G36*
X140720000Y-82450000D02*
G01*
X140480000Y-82120000D01*
X140960000Y-82120000D01*
X140720000Y-82450000D01*
G37*
X123150000Y-127010000D02*
X123150000Y-123750000D01*
X123150000Y-127010000D02*
X124850000Y-127010000D01*
X124850000Y-127010000D02*
X124850000Y-123750000D01*
X122740000Y-69804437D02*
X122740000Y-73260000D01*
X122740000Y-73260000D02*
X123940000Y-73260000D01*
X123804437Y-68740000D02*
X122740000Y-69804437D01*
X123804437Y-68740000D02*
X123940000Y-68740000D01*
X126195563Y-68740000D02*
X126060000Y-68740000D01*
X126195563Y-68740000D02*
X127260000Y-69804437D01*
X126560000Y-68000000D02*
X126560000Y-68500000D01*
X126810000Y-68250000D02*
X126310000Y-68250000D01*
X127260000Y-69804437D02*
X127260000Y-73260000D01*
X127260000Y-73260000D02*
X126060000Y-73260000D01*
X132254724Y-125477500D02*
X131745276Y-125477500D01*
X132254724Y-126522500D02*
X131745276Y-126522500D01*
X135853733Y-119490000D02*
X136146267Y-119490000D01*
X135853733Y-120510000D02*
X136146267Y-120510000D01*
X136000000Y-121440000D02*
X135200000Y-121440000D01*
X136000000Y-121440000D02*
X136800000Y-121440000D01*
X136000000Y-124560000D02*
X135200000Y-124560000D01*
X136000000Y-124560000D02*
X136800000Y-124560000D01*
X137540000Y-124840000D02*
X137060000Y-124840000D01*
X137300000Y-124510000D01*
X137540000Y-124840000D01*
G36*
X137540000Y-124840000D02*
G01*
X137060000Y-124840000D01*
X137300000Y-124510000D01*
X137540000Y-124840000D01*
G37*
X129740000Y-114740000D02*
X130940000Y-114740000D01*
X129740000Y-118195563D02*
X129740000Y-114740000D01*
X130190000Y-119750000D02*
X130690000Y-119750000D01*
X130440000Y-120000000D02*
X130440000Y-119500000D01*
X130804437Y-119260000D02*
X129740000Y-118195563D01*
X130804437Y-119260000D02*
X130940000Y-119260000D01*
X133195563Y-119260000D02*
X133060000Y-119260000D01*
X133195563Y-119260000D02*
X134260000Y-118195563D01*
X134260000Y-114740000D02*
X133060000Y-114740000D01*
X134260000Y-118195563D02*
X134260000Y-114740000D01*
D10*
X128000000Y-150450000D02*
X128000000Y-150950000D01*
X128000000Y-150450000D02*
X128500000Y-150450000D01*
X128000000Y-155700000D02*
X128000000Y-155150000D01*
X128000000Y-155700000D02*
X128500000Y-155700000D01*
X130400000Y-150700000D02*
X130400000Y-152000000D01*
X136000000Y-150450000D02*
X135500000Y-150450000D01*
X136000000Y-150450000D02*
X136000000Y-150950000D01*
X136000000Y-155700000D02*
X135500000Y-155700000D01*
X136000000Y-155700000D02*
X136000000Y-155200000D01*
D12*
X139745276Y-125477500D02*
X140254724Y-125477500D01*
X139745276Y-126522500D02*
X140254724Y-126522500D01*
X154535000Y-145757500D02*
X154535000Y-155177500D01*
X154535000Y-145757500D02*
X156195000Y-145757500D01*
X154535000Y-151867500D02*
X167575000Y-151867500D01*
X154535000Y-155177500D02*
X167575000Y-155177500D01*
X156945000Y-144467500D02*
X157545000Y-144467500D01*
X157245000Y-145067500D02*
X156945000Y-144467500D01*
X157545000Y-144467500D02*
X157245000Y-145067500D01*
X158295000Y-145757500D02*
X160005000Y-145757500D01*
X162105000Y-145757500D02*
X163815000Y-145757500D01*
X167575000Y-145757500D02*
X165915000Y-145757500D01*
X167575000Y-155177500D02*
X167575000Y-145757500D01*
X142490000Y-67146267D02*
X142490000Y-66853733D01*
X143510000Y-67146267D02*
X143510000Y-66853733D01*
X126254724Y-137477500D02*
X125745276Y-137477500D01*
X126254724Y-138522500D02*
X125745276Y-138522500D01*
X120740000Y-81415000D02*
X120740000Y-89650000D01*
X125260000Y-81415000D02*
X120740000Y-81415000D01*
X125260000Y-89650000D02*
X125260000Y-81415000D01*
X138254724Y-82477500D02*
X137745276Y-82477500D01*
X138254724Y-83522500D02*
X137745276Y-83522500D01*
X125146267Y-57490000D02*
X124853733Y-57490000D01*
X125146267Y-58510000D02*
X124853733Y-58510000D01*
X137853733Y-138490000D02*
X138146267Y-138490000D01*
X137853733Y-139510000D02*
X138146267Y-139510000D01*
X134477500Y-66745276D02*
X134477500Y-67254724D01*
X135522500Y-66745276D02*
X135522500Y-67254724D01*
X131150000Y-105990000D02*
X131150000Y-109250000D01*
X132850000Y-105990000D02*
X131150000Y-105990000D01*
X132850000Y-105990000D02*
X132850000Y-109250000D01*
X159235000Y-37830000D02*
X159235000Y-37765000D01*
X159235000Y-44235000D02*
X159235000Y-44170000D01*
X162765000Y-37765000D02*
X159235000Y-37765000D01*
X162765000Y-37830000D02*
X162765000Y-37765000D01*
X162765000Y-44235000D02*
X159235000Y-44235000D01*
X162765000Y-44235000D02*
X162765000Y-44170000D01*
X164090000Y-44170000D02*
X162765000Y-44170000D01*
X117365000Y-35900000D02*
X117365000Y-53900000D01*
X117365000Y-53900000D02*
X124160000Y-53900000D01*
X117410000Y-35900000D02*
X124160000Y-35900000D01*
X123675000Y-53900000D02*
X123675000Y-35900000D01*
X148765000Y-35900000D02*
X148410000Y-35900000D01*
X148765000Y-53900000D02*
X148410000Y-53900000D01*
X148765000Y-53900000D02*
X148765000Y-35900000D01*
X154254724Y-43477500D02*
X153745276Y-43477500D01*
X154254724Y-44522500D02*
X153745276Y-44522500D01*
X121330000Y-148203752D02*
X121330000Y-143796248D01*
X126670000Y-148203752D02*
X126670000Y-143796248D01*
X154254724Y-41477500D02*
X153745276Y-41477500D01*
X154254724Y-42522500D02*
X153745276Y-42522500D01*
X123477500Y-105254724D02*
X123477500Y-104745276D01*
X124522500Y-105254724D02*
X124522500Y-104745276D01*
D11*
X129925000Y-132525000D02*
X134075000Y-132525000D01*
X129925000Y-133635000D02*
X129925000Y-132525000D01*
X129925000Y-141475000D02*
X129925000Y-140365000D01*
X129925000Y-141475000D02*
X134075000Y-141475000D01*
X134075000Y-132525000D02*
X134075000Y-133635000D01*
X134075000Y-141475000D02*
X134075000Y-140365000D01*
D12*
X129362500Y-133635000D02*
X129122500Y-133305000D01*
X129602500Y-133305000D01*
X129362500Y-133635000D01*
G36*
X129362500Y-133635000D02*
G01*
X129122500Y-133305000D01*
X129602500Y-133305000D01*
X129362500Y-133635000D01*
G37*
X154254724Y-37477500D02*
X153745276Y-37477500D01*
X154254724Y-38522500D02*
X153745276Y-38522500D01*
X121200000Y-138735000D02*
X123660000Y-138735000D01*
X123660000Y-137265000D02*
X121200000Y-137265000D01*
X123660000Y-138735000D02*
X123660000Y-137265000D01*
X137000000Y-131440000D02*
X137500000Y-131440000D01*
X137250000Y-131190000D02*
X137250000Y-131690000D01*
X137740000Y-131804437D02*
X137740000Y-131940000D01*
X137740000Y-131804437D02*
X138804437Y-130740000D01*
X137740000Y-134195563D02*
X137740000Y-134060000D01*
X137740000Y-134195563D02*
X138804437Y-135260000D01*
X138804437Y-130740000D02*
X142260000Y-130740000D01*
X138804437Y-135260000D02*
X142260000Y-135260000D01*
X142260000Y-130740000D02*
X142260000Y-131940000D01*
X142260000Y-135260000D02*
X142260000Y-134060000D01*
X128000000Y-123440000D02*
X127350000Y-123440000D01*
X128000000Y-123440000D02*
X128650000Y-123440000D01*
X128000000Y-126560000D02*
X127350000Y-126560000D01*
X128000000Y-126560000D02*
X128650000Y-126560000D01*
X129402500Y-126840000D02*
X128922500Y-126840000D01*
X129162500Y-126510000D01*
X129402500Y-126840000D01*
G36*
X129402500Y-126840000D02*
G01*
X128922500Y-126840000D01*
X129162500Y-126510000D01*
X129402500Y-126840000D01*
G37*
X117150000Y-122990000D02*
X117150000Y-126250000D01*
X118850000Y-122990000D02*
X117150000Y-122990000D01*
X118850000Y-122990000D02*
X118850000Y-126250000D01*
X129745276Y-144477500D02*
X130254724Y-144477500D01*
X129745276Y-145522500D02*
X130254724Y-145522500D01*
X135477500Y-91745276D02*
X135477500Y-92254724D01*
X136522500Y-91745276D02*
X136522500Y-92254724D01*
X137853733Y-136490000D02*
X138146267Y-136490000D01*
X137853733Y-137510000D02*
X138146267Y-137510000D01*
X126254724Y-135477500D02*
X125745276Y-135477500D01*
X126254724Y-136522500D02*
X125745276Y-136522500D01*
X124146267Y-151490000D02*
X123853733Y-151490000D01*
X124146267Y-152510000D02*
X123853733Y-152510000D01*
X138340000Y-123265000D02*
X138340000Y-124735000D01*
X138340000Y-124735000D02*
X140800000Y-124735000D01*
X140800000Y-123265000D02*
X138340000Y-123265000D01*
X137745276Y-86477500D02*
X138254724Y-86477500D01*
X137745276Y-87522500D02*
X138254724Y-87522500D01*
X134440000Y-63000000D02*
X134440000Y-62350000D01*
X134440000Y-63000000D02*
X134440000Y-63650000D01*
X137560000Y-63000000D02*
X137560000Y-62350000D01*
X137560000Y-63000000D02*
X137560000Y-63650000D01*
X134490000Y-64162500D02*
X134160000Y-64402500D01*
X134160000Y-63922500D01*
X134490000Y-64162500D01*
G36*
X134490000Y-64162500D02*
G01*
X134160000Y-64402500D01*
X134160000Y-63922500D01*
X134490000Y-64162500D01*
G37*
X129000000Y-64440000D02*
X128200000Y-64440000D01*
X129000000Y-64440000D02*
X129800000Y-64440000D01*
X129000000Y-67560000D02*
X128200000Y-67560000D01*
X129000000Y-67560000D02*
X129800000Y-67560000D01*
X127700000Y-64490000D02*
X127460000Y-64160000D01*
X127940000Y-64160000D01*
X127700000Y-64490000D01*
G36*
X127700000Y-64490000D02*
G01*
X127460000Y-64160000D01*
X127940000Y-64160000D01*
X127700000Y-64490000D01*
G37*
X134254724Y-144477500D02*
X133745276Y-144477500D01*
X134254724Y-145522500D02*
X133745276Y-145522500D01*
X140477500Y-67254724D02*
X140477500Y-66745276D01*
X141522500Y-67254724D02*
X141522500Y-66745276D01*
X132740000Y-100740000D02*
X132740000Y-101940000D01*
X132740000Y-105260000D02*
X132740000Y-104060000D01*
X136195563Y-100740000D02*
X132740000Y-100740000D01*
X136195563Y-105260000D02*
X132740000Y-105260000D01*
X137260000Y-101804437D02*
X136195563Y-100740000D01*
X137260000Y-101804437D02*
X137260000Y-101940000D01*
X137260000Y-104195563D02*
X136195563Y-105260000D01*
X137260000Y-104195563D02*
X137260000Y-104060000D01*
X137750000Y-104810000D02*
X137750000Y-104310000D01*
X138000000Y-104560000D02*
X137500000Y-104560000D01*
X138477500Y-66745276D02*
X138477500Y-67254724D01*
X139522500Y-66745276D02*
X139522500Y-67254724D01*
X121200000Y-136735000D02*
X123660000Y-136735000D01*
X123660000Y-135265000D02*
X121200000Y-135265000D01*
X123660000Y-136735000D02*
X123660000Y-135265000D01*
X129146267Y-89490000D02*
X128853733Y-89490000D01*
X129146267Y-90510000D02*
X128853733Y-90510000D01*
X138440000Y-63000000D02*
X138440000Y-62350000D01*
X138440000Y-63000000D02*
X138440000Y-63650000D01*
X141560000Y-63000000D02*
X141560000Y-62350000D01*
X141560000Y-63000000D02*
X141560000Y-63650000D01*
X138490000Y-64162500D02*
X138160000Y-64402500D01*
X138160000Y-63922500D01*
X138490000Y-64162500D01*
G36*
X138490000Y-64162500D02*
G01*
X138160000Y-64402500D01*
X138160000Y-63922500D01*
X138490000Y-64162500D01*
G37*
X110620000Y-21890000D02*
X110620000Y-31310000D01*
X110620000Y-31310000D02*
X112280000Y-31310000D01*
X116090000Y-31310000D02*
X114380000Y-31310000D01*
X119900000Y-31310000D02*
X118190000Y-31310000D01*
X123710000Y-31310000D02*
X122000000Y-31310000D01*
X127520000Y-31310000D02*
X125810000Y-31310000D01*
X131330000Y-31310000D02*
X129620000Y-31310000D01*
X135140000Y-31310000D02*
X133430000Y-31310000D01*
X138950000Y-31310000D02*
X137240000Y-31310000D01*
X139700000Y-32600000D02*
X140000000Y-32000000D01*
X140000000Y-32000000D02*
X140300000Y-32600000D01*
X140300000Y-32600000D02*
X139700000Y-32600000D01*
X142710000Y-21890000D02*
X110620000Y-21890000D01*
X142710000Y-25200000D02*
X110620000Y-25200000D01*
X142710000Y-31310000D02*
X141050000Y-31310000D01*
X142710000Y-31310000D02*
X142710000Y-21890000D01*
X150560000Y-61360000D02*
X150560000Y-138640000D01*
X150560000Y-138640000D02*
X157560000Y-138640000D01*
X155000000Y-56250000D02*
X155000000Y-58750000D01*
X155000000Y-143750000D02*
X155000000Y-141250000D01*
X156250000Y-142500000D02*
X153750000Y-142500000D01*
X157560000Y-61360000D02*
X150580000Y-61360000D01*
X157560000Y-138640000D02*
X157560000Y-143000000D01*
X164440000Y-61360000D02*
X171440000Y-61360000D01*
X171440000Y-61360000D02*
X171440000Y-138640000D01*
X171440000Y-138640000D02*
X164440000Y-138640000D01*
X120740000Y-59740000D02*
X120740000Y-60940000D01*
X120740000Y-64260000D02*
X120740000Y-63060000D01*
X124195563Y-59740000D02*
X120740000Y-59740000D01*
X124195563Y-64260000D02*
X120740000Y-64260000D01*
X125260000Y-60804437D02*
X124195563Y-59740000D01*
X125260000Y-60804437D02*
X125260000Y-60940000D01*
X125260000Y-63195563D02*
X124195563Y-64260000D01*
X125260000Y-63195563D02*
X125260000Y-63060000D01*
X125750000Y-63810000D02*
X125750000Y-63310000D01*
X126000000Y-63560000D02*
X125500000Y-63560000D01*
X129477500Y-107745276D02*
X129477500Y-108254724D01*
X130522500Y-107745276D02*
X130522500Y-108254724D01*
X137150000Y-110010000D02*
X137150000Y-106750000D01*
X137150000Y-110010000D02*
X138850000Y-110010000D01*
X138850000Y-110010000D02*
X138850000Y-106750000D01*
X147290000Y-21890000D02*
X147290000Y-31310000D01*
X147290000Y-31310000D02*
X148950000Y-31310000D01*
X152760000Y-31310000D02*
X151050000Y-31310000D01*
X156570000Y-31310000D02*
X154860000Y-31310000D01*
X160380000Y-31310000D02*
X158670000Y-31310000D01*
X164190000Y-31310000D02*
X162480000Y-31310000D01*
X168000000Y-31310000D02*
X166290000Y-31310000D01*
X171810000Y-31310000D02*
X170100000Y-31310000D01*
X175620000Y-31310000D02*
X173910000Y-31310000D01*
X176370000Y-32600000D02*
X176670000Y-32000000D01*
X176670000Y-32000000D02*
X176970000Y-32600000D01*
X176970000Y-32600000D02*
X176370000Y-32600000D01*
X179380000Y-21890000D02*
X147290000Y-21890000D01*
X179380000Y-25200000D02*
X147290000Y-25200000D01*
X179380000Y-31310000D02*
X177720000Y-31310000D01*
X179380000Y-31310000D02*
X179380000Y-21890000D01*
X141200000Y-87735000D02*
X143660000Y-87735000D01*
X143660000Y-86265000D02*
X141200000Y-86265000D01*
X143660000Y-87735000D02*
X143660000Y-86265000D01*
X133440000Y-108000000D02*
X133440000Y-107350000D01*
X133440000Y-108000000D02*
X133440000Y-108650000D01*
X136560000Y-108000000D02*
X136560000Y-107350000D01*
X136560000Y-108000000D02*
X136560000Y-108650000D01*
X133490000Y-109162500D02*
X133160000Y-109402500D01*
X133160000Y-108922500D01*
X133490000Y-109162500D01*
G36*
X133490000Y-109162500D02*
G01*
X133160000Y-109402500D01*
X133160000Y-108922500D01*
X133490000Y-109162500D01*
G37*
X167853733Y-43490000D02*
X168146267Y-43490000D01*
X167853733Y-44510000D02*
X168146267Y-44510000D01*
X119254724Y-121477500D02*
X118745276Y-121477500D01*
X119254724Y-122522500D02*
X118745276Y-122522500D01*
X138254724Y-84477500D02*
X137745276Y-84477500D01*
X138254724Y-85522500D02*
X137745276Y-85522500D01*
X139853733Y-100490000D02*
X140146267Y-100490000D01*
X139853733Y-101510000D02*
X140146267Y-101510000D01*
X127477500Y-59254724D02*
X127477500Y-58745276D01*
X128522500Y-59254724D02*
X128522500Y-58745276D01*
X125477500Y-105254724D02*
X125477500Y-104745276D01*
X126522500Y-105254724D02*
X126522500Y-104745276D01*
X125146267Y-55490000D02*
X124853733Y-55490000D01*
X125146267Y-56510000D02*
X124853733Y-56510000D01*
X126740000Y-82740000D02*
X127940000Y-82740000D01*
X126740000Y-86195563D02*
X126740000Y-82740000D01*
X127190000Y-87750000D02*
X127690000Y-87750000D01*
X127440000Y-88000000D02*
X127440000Y-87500000D01*
X127804437Y-87260000D02*
X126740000Y-86195563D01*
X127804437Y-87260000D02*
X127940000Y-87260000D01*
X130195563Y-87260000D02*
X130060000Y-87260000D01*
X130195563Y-87260000D02*
X131260000Y-86195563D01*
X131260000Y-82740000D02*
X130060000Y-82740000D01*
X131260000Y-86195563D02*
X131260000Y-82740000D01*
X119440000Y-125000000D02*
X119440000Y-124350000D01*
X119440000Y-125000000D02*
X119440000Y-125650000D01*
X122560000Y-125000000D02*
X122560000Y-124350000D01*
X122560000Y-125000000D02*
X122560000Y-125650000D01*
X119490000Y-126162500D02*
X119160000Y-126402500D01*
X119160000Y-125922500D01*
X119490000Y-126162500D01*
G36*
X119490000Y-126162500D02*
G01*
X119160000Y-126402500D01*
X119160000Y-125922500D01*
X119490000Y-126162500D01*
G37*
X133853733Y-146490000D02*
X134146267Y-146490000D01*
X133853733Y-147510000D02*
X134146267Y-147510000D01*
X125146267Y-65490000D02*
X124853733Y-65490000D01*
X125146267Y-66510000D02*
X124853733Y-66510000D01*
X121853733Y-139490000D02*
X122146267Y-139490000D01*
X121853733Y-140510000D02*
X122146267Y-140510000D01*
X130146267Y-146490000D02*
X129853733Y-146490000D01*
X130146267Y-147510000D02*
X129853733Y-147510000D01*
%LPC*%
D13*
X133037500Y-96025000D03*
X133037500Y-96675000D03*
X133037500Y-97325000D03*
X133037500Y-97975000D03*
D14*
X134025000Y-98962500D03*
X134675000Y-98962500D03*
X135325000Y-98962500D03*
X135975000Y-98962500D03*
D13*
X136962500Y-97975000D03*
X136962500Y-97325000D03*
X136962500Y-96675000D03*
X136962500Y-96025000D03*
D14*
X135975000Y-95037500D03*
X135325000Y-95037500D03*
X134675000Y-95037500D03*
X134025000Y-95037500D03*
D15*
X135000000Y-97000000D03*
D16*
X170250000Y-51250000D03*
D17*
X163750000Y-51250000D03*
X170250000Y-46750000D03*
X163750000Y-46750000D03*
D16*
X158250000Y-51250000D03*
D17*
X151750000Y-51250000D03*
X158250000Y-46750000D03*
X151750000Y-46750000D03*
D18*
X130000000Y-58137500D03*
X130000000Y-59862500D03*
D19*
X120850000Y-97000000D03*
X129150000Y-97000000D03*
D20*
X138000000Y-92912500D03*
X138000000Y-91087500D03*
D21*
X132912500Y-124000000D03*
X131087500Y-124000000D03*
D22*
X140000000Y-91087500D03*
X140000000Y-92912500D03*
D23*
X139137500Y-99000000D03*
X140862500Y-99000000D03*
D24*
X167087500Y-42000000D03*
X168912500Y-42000000D03*
D25*
X140690000Y-83050000D03*
X140690000Y-84950000D03*
X143310000Y-84000000D03*
D17*
X177000000Y-41000000D03*
D26*
X124000000Y-126250000D03*
X124000000Y-123750000D03*
D27*
X125000000Y-69200000D03*
X125000000Y-72800000D03*
D21*
X132912500Y-126000000D03*
X131087500Y-126000000D03*
D23*
X135137500Y-120000000D03*
X136862500Y-120000000D03*
D28*
X137137500Y-123950000D03*
X137137500Y-123000000D03*
X137137500Y-122050000D03*
X134862500Y-122050000D03*
X134862500Y-123950000D03*
D29*
X132000000Y-118800000D03*
X132000000Y-115200000D03*
D30*
X130700000Y-151340000D03*
X131350000Y-151340000D03*
X132000000Y-151340000D03*
X132650000Y-151340000D03*
X133300000Y-151340000D03*
D31*
X134912500Y-154000000D03*
D32*
X134462500Y-151700000D03*
D33*
X132837500Y-154000000D03*
X131162500Y-154000000D03*
D32*
X129537500Y-151700000D03*
D31*
X129087500Y-154000000D03*
D24*
X139087500Y-126000000D03*
X140912500Y-126000000D03*
D34*
X157245000Y-147067500D03*
D35*
X161055000Y-147067500D03*
X164865000Y-147067500D03*
D36*
X143000000Y-67862500D03*
X143000000Y-66137500D03*
D21*
X126912500Y-138000000D03*
X125087500Y-138000000D03*
D37*
X123000000Y-82800000D03*
X123000000Y-89200000D03*
D21*
X138912500Y-83000000D03*
X137087500Y-83000000D03*
D38*
X125862500Y-58000000D03*
X124137500Y-58000000D03*
D23*
X137137500Y-139000000D03*
X138862500Y-139000000D03*
D22*
X135000000Y-66087500D03*
X135000000Y-67912500D03*
D39*
X132000000Y-106750000D03*
X132000000Y-109250000D03*
D40*
X162950000Y-43540000D03*
X159050000Y-43540000D03*
X162950000Y-42270000D03*
X159050000Y-42270000D03*
X162950000Y-41000000D03*
X159050000Y-41000000D03*
X162950000Y-39730000D03*
X159050000Y-39730000D03*
X162950000Y-38460000D03*
X159050000Y-38460000D03*
D41*
X124805000Y-53650000D03*
X126075000Y-53650000D03*
X127345000Y-53650000D03*
X128615000Y-53650000D03*
X129885000Y-53650000D03*
X131155000Y-53650000D03*
X132425000Y-53650000D03*
X133695000Y-53650000D03*
X134965000Y-53650000D03*
X136235000Y-53650000D03*
X137505000Y-53650000D03*
X138775000Y-53650000D03*
X140045000Y-53650000D03*
X141315000Y-53650000D03*
X142585000Y-53650000D03*
X143855000Y-53650000D03*
X145125000Y-53650000D03*
X146395000Y-53650000D03*
X147665000Y-53650000D03*
X147665000Y-36150000D03*
X146395000Y-36150000D03*
X145125000Y-36150000D03*
X143855000Y-36150000D03*
X142585000Y-36150000D03*
X141315000Y-36150000D03*
X140045000Y-36150000D03*
X138775000Y-36150000D03*
X137505000Y-36150000D03*
X136235000Y-36150000D03*
X134965000Y-36150000D03*
X133695000Y-36150000D03*
X132425000Y-36150000D03*
X131155000Y-36150000D03*
X129885000Y-36150000D03*
X128615000Y-36150000D03*
X127345000Y-36150000D03*
X126075000Y-36150000D03*
X124805000Y-36150000D03*
D42*
X131200000Y-47805000D03*
X132600000Y-47800000D03*
X134000000Y-47800000D03*
X131200000Y-46400000D03*
X132600000Y-46400000D03*
X134000000Y-46400000D03*
X131200000Y-45000000D03*
X132600000Y-45000000D03*
X134000000Y-45000000D03*
D21*
X154912500Y-44000000D03*
X153087500Y-44000000D03*
D17*
X113000000Y-41000000D03*
D43*
X124000000Y-149475000D03*
X124000000Y-142525000D03*
D21*
X154912500Y-42000000D03*
X153087500Y-42000000D03*
D20*
X124000000Y-105912500D03*
X124000000Y-104087500D03*
D44*
X129400000Y-134142500D03*
X129400000Y-134777500D03*
X129400000Y-135412500D03*
X129400000Y-136047500D03*
X129400000Y-136682500D03*
X129400000Y-137317500D03*
X129400000Y-137952500D03*
X129400000Y-138587500D03*
X129400000Y-139222500D03*
X129400000Y-139857500D03*
X134600000Y-139857500D03*
X134600000Y-139222500D03*
X134600000Y-138587500D03*
X134600000Y-137952500D03*
X134600000Y-137317500D03*
X134600000Y-136682500D03*
X134600000Y-136047500D03*
X134600000Y-135412500D03*
X134600000Y-134777500D03*
X134600000Y-134142500D03*
D21*
X154912500Y-38000000D03*
X153087500Y-38000000D03*
D45*
X122875000Y-138000000D03*
X121125000Y-138000000D03*
D46*
X138200000Y-133000000D03*
X141800000Y-133000000D03*
D47*
X128937500Y-125950000D03*
X128937500Y-124050000D03*
X127062500Y-125000000D03*
D39*
X118000000Y-123750000D03*
X118000000Y-126250000D03*
D24*
X129087500Y-145000000D03*
X130912500Y-145000000D03*
D22*
X136000000Y-91087500D03*
X136000000Y-92912500D03*
D23*
X137137500Y-137000000D03*
X138862500Y-137000000D03*
D21*
X126912500Y-136000000D03*
X125087500Y-136000000D03*
D17*
X177000000Y-136050000D03*
D38*
X124862500Y-152000000D03*
X123137500Y-152000000D03*
D48*
X139125000Y-124000000D03*
X140875000Y-124000000D03*
D24*
X137087500Y-87000000D03*
X138912500Y-87000000D03*
D49*
X135050000Y-63937500D03*
X136950000Y-63937500D03*
X136000000Y-62062500D03*
D50*
X127862500Y-65050000D03*
X127862500Y-66000000D03*
X127862500Y-66950000D03*
X130137500Y-66950000D03*
X130137500Y-65050000D03*
D21*
X134912500Y-145000000D03*
X133087500Y-145000000D03*
D20*
X141000000Y-67912500D03*
X141000000Y-66087500D03*
D51*
X136800000Y-103000000D03*
X133200000Y-103000000D03*
D22*
X139000000Y-66087500D03*
X139000000Y-67912500D03*
D45*
X122875000Y-136000000D03*
X121125000Y-136000000D03*
D17*
X113000000Y-136000000D03*
D38*
X129862500Y-90000000D03*
X128137500Y-90000000D03*
D49*
X139050000Y-63937500D03*
X140950000Y-63937500D03*
X140000000Y-62062500D03*
D52*
X140000000Y-30000000D03*
D35*
X136190000Y-30000000D03*
X132380000Y-30000000D03*
X128570000Y-30000000D03*
X124760000Y-30000000D03*
X120950000Y-30000000D03*
X117140000Y-30000000D03*
X113330000Y-30000000D03*
D53*
X153000000Y-135930000D03*
D54*
X169000000Y-127600000D03*
X153000000Y-72400000D03*
D55*
X161000000Y-139330000D03*
X161000000Y-60670000D03*
D51*
X124800000Y-62000000D03*
X121200000Y-62000000D03*
D22*
X130000000Y-107087500D03*
X130000000Y-108912500D03*
D26*
X138000000Y-109250000D03*
X138000000Y-106750000D03*
D52*
X176670000Y-30000000D03*
D35*
X172860000Y-30000000D03*
X169050000Y-30000000D03*
X165240000Y-30000000D03*
X161430000Y-30000000D03*
X157620000Y-30000000D03*
X153810000Y-30000000D03*
X150000000Y-30000000D03*
D45*
X142875000Y-87000000D03*
X141125000Y-87000000D03*
D49*
X134050000Y-108937500D03*
X135950000Y-108937500D03*
X135000000Y-107062500D03*
D23*
X167137500Y-44000000D03*
X168862500Y-44000000D03*
D21*
X119912500Y-122000000D03*
X118087500Y-122000000D03*
X138912500Y-85000000D03*
X137087500Y-85000000D03*
D23*
X139137500Y-101000000D03*
X140862500Y-101000000D03*
D20*
X128000000Y-59912500D03*
X128000000Y-58087500D03*
X126000000Y-105912500D03*
X126000000Y-104087500D03*
D38*
X125862500Y-56000000D03*
X124137500Y-56000000D03*
D29*
X129000000Y-86800000D03*
X129000000Y-83200000D03*
D49*
X120050000Y-125937500D03*
X121950000Y-125937500D03*
X121000000Y-124062500D03*
D23*
X133137500Y-147000000D03*
X134862500Y-147000000D03*
D38*
X125862500Y-66000000D03*
X124137500Y-66000000D03*
D23*
X121137500Y-140000000D03*
X122862500Y-140000000D03*
D38*
X130862500Y-147000000D03*
X129137500Y-147000000D03*
%LPD*%
M02*
