M48
; DRILL file {KiCad 8.0.5-8.0.5-0~ubuntu24.04.1} date 2024-10-12T21:44:51+0300
; FORMAT={-:-/ absolute / metric / decimal}
; #@! TF.CreationDate,2024-10-12T21:44:51+03:00
; #@! TF.GenerationSoftware,Kicad,Pcbnew,8.0.5-8.0.5-0~ubuntu24.04.1
; #@! TF.FileFunction,Plated,1,2,PTH
FMAT,2
METRIC
; #@! TA.AperFunction,Plated,PTH,ViaDrill
T1C0.300
; #@! TA.AperFunction,Plated,PTH,ComponentDrill
T2C0.300
; #@! TA.AperFunction,Plated,PTH,ComponentDrill
T3C0.650
; #@! TA.AperFunction,Plated,PTH,ComponentDrill
T4C1.200
%
G90
G05
T1
X115.0Y-50.0
X115.0Y-60.0
X115.0Y-70.0
X115.0Y-80.0
X115.0Y-90.0
X115.0Y-100.0
X115.0Y-110.0
X115.0Y-120.0
X115.0Y-130.0
X121.0Y-67.0
X122.0Y-67.0
X122.0Y-121.0
X123.0Y-67.0
X123.0Y-120.0
X123.0Y-121.0
X126.5Y-135.0
X127.2Y-132.0
X128.0Y-34.5
X128.0Y-133.0
X128.0Y-134.0
X128.0Y-136.5
X128.75Y-118.8
X129.25Y-34.5
X129.25Y-56.5
X129.75Y-127.75
X130.0Y-122.0
X130.5Y-56.5
X131.0Y-61.0
X131.0Y-63.0
X131.0Y-133.0
X131.25Y-100.0
X131.75Y-56.5
X132.0Y-60.0
X132.0Y-61.0
X132.0Y-63.0
X132.0Y-64.0
X132.0Y-133.0
X132.0Y-141.0
X133.0Y-56.5
X133.0Y-67.5
X133.0Y-133.0
X134.25Y-56.5
X135.5Y-56.5
X136.0Y-134.5
X136.0Y-135.75
X136.0Y-139.0
X136.75Y-56.5
X137.5Y-126.0
X138.0Y-56.5
X138.0Y-58.65
X138.0Y-60.0
X138.0Y-61.0
X138.0Y-81.25
X138.25Y-98.25
X138.75Y-94.5
X138.75Y-97.5
X140.0Y-95.75
X140.5Y-34.5
X143.0Y-34.5
X145.0Y-58.0
X145.0Y-79.0
X145.0Y-105.0
X145.0Y-108.0
X145.0Y-109.0
X145.0Y-128.0
X146.0Y-58.0
X146.0Y-59.0
X146.0Y-79.0
X146.0Y-80.0
X146.0Y-104.0
X146.0Y-105.0
X146.0Y-109.0
X146.0Y-127.0
X146.0Y-128.0
X149.75Y-39.75
X149.75Y-42.0
X149.75Y-43.75
X149.75Y-44.75
X152.0Y-105.0
X152.0Y-108.0
X152.0Y-120.0
X152.0Y-122.0
X152.0Y-124.0
X152.0Y-126.0
X152.0Y-128.0
X152.0Y-130.0
X152.0Y-132.0
X154.0Y-105.0
X154.0Y-108.0
X155.25Y-39.73
X156.0Y-105.0
X156.0Y-108.0
X158.0Y-105.0
X158.0Y-108.0
X160.0Y-105.0
X160.0Y-108.0
X161.0Y-50.5
X162.0Y-105.0
X162.0Y-108.0
X164.0Y-105.0
X164.0Y-108.0
X165.25Y-36.25
X165.25Y-43.54
X166.0Y-105.0
X166.0Y-108.0
X168.0Y-105.0
X168.0Y-108.0
X170.0Y-105.0
X170.0Y-108.0
X170.0Y-110.0
X170.0Y-112.0
X170.0Y-114.0
X170.0Y-116.0
X170.0Y-118.0
X170.0Y-120.0
X170.0Y-122.0
X170.0Y-124.0
X170.0Y-132.0
X170.0Y-134.0
X170.0Y-136.0
X170.0Y-138.0
X175.0Y-50.0
X175.0Y-60.0
X175.0Y-70.0
X175.0Y-80.0
X175.0Y-90.0
X175.0Y-100.0
X175.0Y-110.0
X175.0Y-120.0
X175.0Y-130.0
T2
X134.5Y-96.5
X134.5Y-97.5
X135.5Y-96.5
X135.5Y-97.5
T3
X118.0Y-142.0
X118.0Y-143.27
X141.0Y-108.0
X142.27Y-108.0
T4
X113.33Y-30.0
X117.14Y-30.0
X120.95Y-30.0
X124.76Y-30.0
X128.57Y-30.0
X132.38Y-30.0
X136.19Y-30.0
X140.0Y-30.0
X150.0Y-30.0
X151.75Y-46.75
X151.75Y-51.25
X153.15Y-147.067
X153.81Y-30.0
X156.96Y-147.067
X157.62Y-30.0
X158.25Y-46.75
X158.25Y-51.25
X160.77Y-147.067
X161.43Y-30.0
X163.75Y-46.75
X163.75Y-51.25
X165.24Y-30.0
X168.245Y-147.067
X169.05Y-30.0
X170.25Y-46.75
X170.25Y-51.25
X172.055Y-147.067
X172.86Y-30.0
X175.865Y-147.067
X176.67Y-30.0
M30
