G04 #@! TF.GenerationSoftware,KiCad,Pcbnew,8.0.5-8.0.5-0~ubuntu24.04.1*
G04 #@! TF.CreationDate,2024-10-26T16:25:55+03:00*
G04 #@! TF.ProjectId,esp32-main,65737033-322d-46d6-9169-6e2e6b696361,B*
G04 #@! TF.SameCoordinates,Original*
G04 #@! TF.FileFunction,Soldermask,Bot*
G04 #@! TF.FilePolarity,Negative*
%FSLAX46Y46*%
G04 Gerber Fmt 4.6, Leading zero omitted, Abs format (unit mm)*
G04 Created by KiCad (PCBNEW 8.0.5-8.0.5-0~ubuntu24.04.1) date 2024-10-26 16:25:55*
%MOMM*%
%LPD*%
G01*
G04 APERTURE LIST*
%ADD10C,2.200000*%
%ADD11R,2.200000X2.200000*%
%ADD12C,1.100000*%
%ADD13C,3.200000*%
%ADD14R,1.700000X1.700000*%
%ADD15O,1.700000X1.700000*%
%ADD16C,3.450000*%
%ADD17C,2.390000*%
G04 APERTURE END LIST*
D10*
X160750000Y-49750000D03*
X167250000Y-49750000D03*
X160750000Y-54250000D03*
D11*
X167250000Y-54250000D03*
D10*
X148750000Y-49750000D03*
X155250000Y-49750000D03*
X148750000Y-54250000D03*
D11*
X155250000Y-54250000D03*
D12*
X112460000Y-102460000D03*
X112460000Y-105000000D03*
X112460000Y-107540000D03*
D11*
X115000000Y-102460000D03*
D10*
X115000000Y-105000000D03*
X115000000Y-107540000D03*
D13*
X167000000Y-31000000D03*
D14*
X120000000Y-145000000D03*
D15*
X120000000Y-147540000D03*
D13*
X113000000Y-31000000D03*
D14*
X142000000Y-112000000D03*
D15*
X144540000Y-112000000D03*
D10*
X142110000Y-32000000D03*
X144650000Y-32000000D03*
X147190000Y-32000000D03*
X149730000Y-32000000D03*
X152270000Y-32000000D03*
X154810000Y-32000000D03*
X157350000Y-32000000D03*
D11*
X159890000Y-32000000D03*
D13*
X167000000Y-152000000D03*
X113000000Y-152000000D03*
D16*
X151000000Y-79400000D03*
X167000000Y-134600000D03*
D17*
X151000000Y-142930000D03*
D12*
X112460000Y-92460000D03*
X112460000Y-95000000D03*
X112460000Y-97540000D03*
D11*
X115000000Y-92460000D03*
D10*
X115000000Y-95000000D03*
X115000000Y-97540000D03*
D11*
X137890000Y-32000000D03*
D10*
X135350000Y-32000000D03*
X132810000Y-32000000D03*
X130270000Y-32000000D03*
X127730000Y-32000000D03*
X125190000Y-32000000D03*
X122650000Y-32000000D03*
X120110000Y-32000000D03*
M02*
