G04 #@! TF.GenerationSoftware,KiCad,Pcbnew,8.0.5-8.0.5-0~ubuntu24.04.1*
G04 #@! TF.CreationDate,2024-10-12T21:44:42+03:00*
G04 #@! TF.ProjectId,esp32-main,65737033-322d-46d6-9169-6e2e6b696361,A*
G04 #@! TF.SameCoordinates,Original*
G04 #@! TF.FileFunction,Paste,Top*
G04 #@! TF.FilePolarity,Positive*
%FSLAX46Y46*%
G04 Gerber Fmt 4.6, Leading zero omitted, Abs format (unit mm)*
G04 Created by KiCad (PCBNEW 8.0.5-8.0.5-0~ubuntu24.04.1) date 2024-10-12 21:44:42*
%MOMM*%
%LPD*%
G01*
G04 APERTURE LIST*
G04 Aperture macros list*
%AMRoundRect*
0 Rectangle with rounded corners*
0 $1 Rounding radius*
0 $2 $3 $4 $5 $6 $7 $8 $9 X,Y pos of 4 corners*
0 Add a 4 corners polygon primitive as box body*
4,1,4,$2,$3,$4,$5,$6,$7,$8,$9,$2,$3,0*
0 Add four circle primitives for the rounded corners*
1,1,$1+$1,$2,$3*
1,1,$1+$1,$4,$5*
1,1,$1+$1,$6,$7*
1,1,$1+$1,$8,$9*
0 Add four rect primitives between the rounded corners*
20,1,$1+$1,$2,$3,$4,$5,0*
20,1,$1+$1,$4,$5,$6,$7,0*
20,1,$1+$1,$6,$7,$8,$9,0*
20,1,$1+$1,$8,$9,$2,$3,0*%
G04 Aperture macros list end*
%ADD10RoundRect,0.237500X-0.237500X0.300000X-0.237500X-0.300000X0.237500X-0.300000X0.237500X0.300000X0*%
%ADD11R,2.700000X3.600000*%
%ADD12RoundRect,0.237500X0.237500X-0.250000X0.237500X0.250000X-0.237500X0.250000X-0.237500X-0.250000X0*%
%ADD13RoundRect,0.237500X0.250000X0.237500X-0.250000X0.237500X-0.250000X-0.237500X0.250000X-0.237500X0*%
%ADD14RoundRect,0.237500X-0.237500X0.250000X-0.237500X-0.250000X0.237500X-0.250000X0.237500X0.250000X0*%
%ADD15RoundRect,0.237500X-0.300000X-0.237500X0.300000X-0.237500X0.300000X0.237500X-0.300000X0.237500X0*%
%ADD16RoundRect,0.237500X-0.250000X-0.237500X0.250000X-0.237500X0.250000X0.237500X-0.250000X0.237500X0*%
%ADD17RoundRect,0.162500X-0.447500X-0.162500X0.447500X-0.162500X0.447500X0.162500X-0.447500X0.162500X0*%
%ADD18RoundRect,0.237500X-0.287500X-0.237500X0.287500X-0.237500X0.287500X0.237500X-0.287500X0.237500X0*%
%ADD19RoundRect,0.250000X-0.550000X1.050000X-0.550000X-1.050000X0.550000X-1.050000X0.550000X1.050000X0*%
%ADD20RoundRect,0.150000X0.512500X0.150000X-0.512500X0.150000X-0.512500X-0.150000X0.512500X-0.150000X0*%
%ADD21RoundRect,0.250000X0.550000X-1.050000X0.550000X1.050000X-0.550000X1.050000X-0.550000X-1.050000X0*%
%ADD22R,0.450000X1.380000*%
%ADD23R,2.375000X1.900000*%
%ADD24R,1.475000X2.100000*%
%ADD25R,1.175000X1.900000*%
%ADD26RoundRect,0.237500X0.237500X-0.300000X0.237500X0.300000X-0.237500X0.300000X-0.237500X-0.300000X0*%
%ADD27RoundRect,0.250000X-1.025000X0.875000X-1.025000X-0.875000X1.025000X-0.875000X1.025000X0.875000X0*%
%ADD28RoundRect,0.237500X0.300000X0.237500X-0.300000X0.237500X-0.300000X-0.237500X0.300000X-0.237500X0*%
%ADD29RoundRect,0.237500X0.287500X0.237500X-0.287500X0.237500X-0.287500X-0.237500X0.287500X-0.237500X0*%
%ADD30R,2.400000X0.740000*%
%ADD31R,0.900000X1.500000*%
%ADD32R,0.900000X0.900000*%
%ADD33RoundRect,0.250001X2.474999X-0.799999X2.474999X0.799999X-2.474999X0.799999X-2.474999X-0.799999X0*%
%ADD34R,1.200000X0.400000*%
%ADD35RoundRect,0.250000X-1.050000X-0.550000X1.050000X-0.550000X1.050000X0.550000X-1.050000X0.550000X0*%
%ADD36RoundRect,0.150000X0.587500X0.150000X-0.587500X0.150000X-0.587500X-0.150000X0.587500X-0.150000X0*%
%ADD37RoundRect,0.238649X-0.238648X-0.238648X0.238648X-0.238648X0.238648X0.238648X-0.238648X0.238648X0*%
%ADD38RoundRect,0.087500X-0.325000X-0.087500X0.325000X-0.087500X0.325000X0.087500X-0.325000X0.087500X0*%
%ADD39RoundRect,0.087500X-0.087500X-0.325000X0.087500X-0.325000X0.087500X0.325000X-0.087500X0.325000X0*%
%ADD40RoundRect,0.250000X-0.250000X0.250000X-0.250000X-0.250000X0.250000X-0.250000X0.250000X0.250000X0*%
%ADD41RoundRect,0.150000X0.150000X-0.587500X0.150000X0.587500X-0.150000X0.587500X-0.150000X-0.587500X0*%
%ADD42RoundRect,0.150000X-0.512500X-0.150000X0.512500X-0.150000X0.512500X0.150000X-0.512500X0.150000X0*%
%ADD43RoundRect,0.250000X1.050000X0.550000X-1.050000X0.550000X-1.050000X-0.550000X1.050000X-0.550000X0*%
%ADD44R,6.350000X7.340000*%
%ADD45RoundRect,0.250000X0.250000X-0.250000X0.250000X0.250000X-0.250000X0.250000X-0.250000X-0.250000X0*%
G04 APERTURE END LIST*
D10*
X130000000Y-58137500D03*
X130000000Y-59862500D03*
D11*
X120850000Y-97000000D03*
X129150000Y-97000000D03*
D12*
X138000000Y-92912500D03*
X138000000Y-91087500D03*
D13*
X132912500Y-124000000D03*
X131087500Y-124000000D03*
D14*
X140000000Y-91087500D03*
X140000000Y-92912500D03*
D15*
X139137500Y-99000000D03*
X140862500Y-99000000D03*
D16*
X167087500Y-42000000D03*
X168912500Y-42000000D03*
D17*
X140690000Y-83050000D03*
X140690000Y-84950000D03*
X143310000Y-84000000D03*
D18*
X139125000Y-124000000D03*
X140875000Y-124000000D03*
D19*
X125000000Y-69200000D03*
X125000000Y-72800000D03*
D13*
X132912500Y-126000000D03*
X131087500Y-126000000D03*
D15*
X135137500Y-120000000D03*
X136862500Y-120000000D03*
D20*
X137137500Y-123950000D03*
X137137500Y-123000000D03*
X137137500Y-122050000D03*
X134862500Y-122050000D03*
X134862500Y-123950000D03*
D21*
X132000000Y-118800000D03*
X132000000Y-115200000D03*
D22*
X130700000Y-151340000D03*
X131350000Y-151340000D03*
X132000000Y-151340000D03*
X132650000Y-151340000D03*
X133300000Y-151340000D03*
D23*
X134912500Y-154000000D03*
D24*
X134462500Y-151700000D03*
D25*
X132837500Y-154000000D03*
X131162500Y-154000000D03*
D24*
X129537500Y-151700000D03*
D23*
X129087500Y-154000000D03*
D16*
X139087500Y-126000000D03*
X140912500Y-126000000D03*
D26*
X143000000Y-67862500D03*
X143000000Y-66137500D03*
D13*
X126912500Y-138000000D03*
X125087500Y-138000000D03*
D27*
X123000000Y-82800000D03*
X123000000Y-89200000D03*
D13*
X138912500Y-83000000D03*
X137087500Y-83000000D03*
D28*
X125862500Y-58000000D03*
X124137500Y-58000000D03*
D15*
X137137500Y-139000000D03*
X138862500Y-139000000D03*
D14*
X135000000Y-66087500D03*
X135000000Y-67912500D03*
D29*
X122875000Y-138000000D03*
X121125000Y-138000000D03*
D30*
X162950000Y-43540000D03*
X159050000Y-43540000D03*
X162950000Y-42270000D03*
X159050000Y-42270000D03*
X162950000Y-41000000D03*
X159050000Y-41000000D03*
X162950000Y-39730000D03*
X159050000Y-39730000D03*
X162950000Y-38460000D03*
X159050000Y-38460000D03*
D31*
X124805000Y-53650000D03*
X126075000Y-53650000D03*
X127345000Y-53650000D03*
X128615000Y-53650000D03*
X129885000Y-53650000D03*
X131155000Y-53650000D03*
X132425000Y-53650000D03*
X133695000Y-53650000D03*
X134965000Y-53650000D03*
X136235000Y-53650000D03*
X137505000Y-53650000D03*
X138775000Y-53650000D03*
X140045000Y-53650000D03*
X141315000Y-53650000D03*
X142585000Y-53650000D03*
X143855000Y-53650000D03*
X145125000Y-53650000D03*
X146395000Y-53650000D03*
X147665000Y-53650000D03*
X147665000Y-36150000D03*
X146395000Y-36150000D03*
X145125000Y-36150000D03*
X143855000Y-36150000D03*
X142585000Y-36150000D03*
X141315000Y-36150000D03*
X140045000Y-36150000D03*
X138775000Y-36150000D03*
X137505000Y-36150000D03*
X136235000Y-36150000D03*
X134965000Y-36150000D03*
X133695000Y-36150000D03*
X132425000Y-36150000D03*
X131155000Y-36150000D03*
X129885000Y-36150000D03*
X128615000Y-36150000D03*
X127345000Y-36150000D03*
X126075000Y-36150000D03*
X124805000Y-36150000D03*
D32*
X131200000Y-47805000D03*
X132600000Y-47800000D03*
X134000000Y-47800000D03*
X131200000Y-46400000D03*
X132600000Y-46400000D03*
X134000000Y-46400000D03*
X131200000Y-45000000D03*
X132600000Y-45000000D03*
X134000000Y-45000000D03*
D13*
X154912500Y-44000000D03*
X153087500Y-44000000D03*
D33*
X124000000Y-149475000D03*
X124000000Y-142525000D03*
D13*
X154912500Y-42000000D03*
X153087500Y-42000000D03*
D12*
X124000000Y-105912500D03*
X124000000Y-104087500D03*
D34*
X129400000Y-134142500D03*
X129400000Y-134777500D03*
X129400000Y-135412500D03*
X129400000Y-136047500D03*
X129400000Y-136682500D03*
X129400000Y-137317500D03*
X129400000Y-137952500D03*
X129400000Y-138587500D03*
X129400000Y-139222500D03*
X129400000Y-139857500D03*
X134600000Y-139857500D03*
X134600000Y-139222500D03*
X134600000Y-138587500D03*
X134600000Y-137952500D03*
X134600000Y-137317500D03*
X134600000Y-136682500D03*
X134600000Y-136047500D03*
X134600000Y-135412500D03*
X134600000Y-134777500D03*
X134600000Y-134142500D03*
D13*
X154912500Y-38000000D03*
X153087500Y-38000000D03*
D29*
X122875000Y-136000000D03*
X121125000Y-136000000D03*
D35*
X138200000Y-133000000D03*
X141800000Y-133000000D03*
D36*
X128937500Y-125950000D03*
X128937500Y-124050000D03*
X127062500Y-125000000D03*
D29*
X142875000Y-87000000D03*
X141125000Y-87000000D03*
D16*
X129087500Y-145000000D03*
X130912500Y-145000000D03*
D14*
X136000000Y-91087500D03*
X136000000Y-92912500D03*
D15*
X137137500Y-137000000D03*
X138862500Y-137000000D03*
D13*
X126912500Y-136000000D03*
X125087500Y-136000000D03*
D37*
X134450000Y-96450000D03*
X134450000Y-97550000D03*
X135550000Y-96450000D03*
X135550000Y-97550000D03*
D38*
X133037500Y-96025000D03*
X133037500Y-96675000D03*
X133037500Y-97325000D03*
X133037500Y-97975000D03*
D39*
X134025000Y-98962500D03*
X134675000Y-98962500D03*
X135325000Y-98962500D03*
X135975000Y-98962500D03*
D38*
X136962500Y-97975000D03*
X136962500Y-97325000D03*
X136962500Y-96675000D03*
X136962500Y-96025000D03*
D39*
X135975000Y-95037500D03*
X135325000Y-95037500D03*
X134675000Y-95037500D03*
X134025000Y-95037500D03*
D28*
X124862500Y-152000000D03*
X123137500Y-152000000D03*
D40*
X118000000Y-123750000D03*
X118000000Y-126250000D03*
D16*
X137087500Y-87000000D03*
X138912500Y-87000000D03*
D41*
X135050000Y-63937500D03*
X136950000Y-63937500D03*
X136000000Y-62062500D03*
D42*
X127862500Y-65050000D03*
X127862500Y-66000000D03*
X127862500Y-66950000D03*
X130137500Y-66950000D03*
X130137500Y-65050000D03*
D13*
X134912500Y-145000000D03*
X133087500Y-145000000D03*
D12*
X141000000Y-67912500D03*
X141000000Y-66087500D03*
D43*
X136800000Y-103000000D03*
X133200000Y-103000000D03*
D14*
X139000000Y-66087500D03*
X139000000Y-67912500D03*
D40*
X171000000Y-35750000D03*
X171000000Y-38250000D03*
D28*
X129862500Y-90000000D03*
X128137500Y-90000000D03*
D41*
X139050000Y-63937500D03*
X140950000Y-63937500D03*
X140000000Y-62062500D03*
D44*
X161000000Y-139330000D03*
X161000000Y-60670000D03*
D43*
X124800000Y-62000000D03*
X121200000Y-62000000D03*
D14*
X130000000Y-107087500D03*
X130000000Y-108912500D03*
D45*
X124000000Y-126250000D03*
X124000000Y-123750000D03*
D40*
X132000000Y-106750000D03*
X132000000Y-109250000D03*
D45*
X138000000Y-109250000D03*
X138000000Y-106750000D03*
D41*
X134050000Y-108937500D03*
X135950000Y-108937500D03*
X135000000Y-107062500D03*
D15*
X167137500Y-44000000D03*
X168862500Y-44000000D03*
D13*
X119912500Y-122000000D03*
X118087500Y-122000000D03*
X138912500Y-85000000D03*
X137087500Y-85000000D03*
D15*
X139137500Y-101000000D03*
X140862500Y-101000000D03*
D12*
X128000000Y-59912500D03*
X128000000Y-58087500D03*
X126000000Y-105912500D03*
X126000000Y-104087500D03*
D28*
X125862500Y-56000000D03*
X124137500Y-56000000D03*
D21*
X129000000Y-86800000D03*
X129000000Y-83200000D03*
D41*
X120050000Y-125937500D03*
X121950000Y-125937500D03*
X121000000Y-124062500D03*
D15*
X133137500Y-147000000D03*
X134862500Y-147000000D03*
D28*
X125862500Y-66000000D03*
X124137500Y-66000000D03*
D15*
X121137500Y-140000000D03*
X122862500Y-140000000D03*
D28*
X130862500Y-147000000D03*
X129137500Y-147000000D03*
M02*
